<svg width="3736" height="1757" viewBox="0 0 3736 1757" fill="none" xmlns="http://www.w3.org/2000/svg">
<g id="FrontPageIcons-XL">
<a href="/climate_variables" target="_top">
<g id="climate_variables">
<path id="Vector" d="M2595.97 227.936C2595.97 168.112 2644.48 119.608 2704.3 119.608C2764.13 119.608 2812.63 168.112 2812.63 227.936C2812.63 287.761 2704.3 406.41 2704.3 406.41C2704.3 406.41 2595.97 287.781 2595.97 227.936Z" fill="#231F20"/>
<path id="Vector_2" d="M2737.48 299.141C2776.89 280.796 2793.97 233.972 2775.62 194.557C2757.28 155.143 2710.45 138.063 2671.04 156.409C2631.63 174.755 2614.55 221.579 2632.89 260.993C2651.24 300.407 2698.06 317.487 2737.48 299.141Z" fill="white"/>
<path id="Vector_3" d="M2708.57 247.995C2708.57 247.787 2708.57 247.6 2708.57 247.392C2708.61 245.915 2708.63 244.458 2708.67 242.981C2708.75 238.195 2708.75 233.409 2708.78 228.623C2708.82 218.364 2708.71 208.085 2708.67 197.826C2708.67 196.474 2708.67 195.142 2708.67 193.79C2708.67 192.062 2708.82 190.294 2707.98 188.712C2705.78 184.509 2699.58 185.612 2698.23 189.857C2697.73 191.397 2697.85 193.04 2697.85 194.643C2697.89 203.778 2697.85 212.912 2697.91 222.047C2697.95 227.499 2698.02 232.972 2698.14 238.424C2698.16 239.547 2698.2 240.671 2698.23 241.795C2698.23 242.273 2698.25 242.731 2698.27 243.209C2698.27 243.438 2698.27 243.667 2698.27 243.896C2698.27 244.083 2698.29 244.229 2698.31 244.416C2698.29 244.188 2698.31 244.604 2698.31 244.666C2698.37 245.478 2698.43 246.31 2698.56 247.101C2698.6 247.371 2698.64 247.663 2698.68 247.933C2698.72 248.287 2698.6 247.475 2698.72 248.245C2698.72 248.328 2698.75 248.391 2698.77 248.474C2697.43 248.703 2696.1 249.91 2695.33 250.846C2694.06 252.365 2693.13 254.155 2692.59 256.048C2691.44 260.002 2693.31 264.476 2696.46 266.994C2699.54 269.449 2704.11 270.136 2707.78 268.679C2712.04 266.973 2714.43 262.166 2714.48 257.713C2714.5 254.3 2712.27 248.849 2708.53 248.037L2708.57 247.995ZM2701.26 192.541C2701.28 191.73 2701.35 190.752 2701.87 190.086C2702.12 189.794 2702.78 189.461 2703.14 189.42C2704.86 189.191 2705.3 190.772 2705.28 192.416C2705.28 192.687 2705.28 192.957 2705.28 193.207C2705.28 194.31 2705.28 195.392 2705.28 196.495C2705.28 203.445 2705.24 210.374 2705.26 217.324C2704.57 217.261 2703.86 217.324 2703.2 217.345C2702.64 217.365 2701.95 217.345 2701.3 217.449C2701.3 210.686 2701.3 203.923 2701.3 197.14C2701.3 196.058 2701.3 194.976 2701.3 193.873C2701.3 193.415 2701.28 192.978 2701.3 192.52L2701.26 192.541ZM2707.15 265.162C2704.78 266.411 2701.53 266.099 2699.24 264.809C2696.79 263.414 2695.19 260.376 2695.46 257.547C2695.6 256.027 2696.29 254.384 2697.08 253.093C2697.5 252.407 2698 251.741 2698.56 251.179C2699 250.742 2699.52 250.43 2699.91 250.035C2700.35 249.993 2700.78 249.681 2700.78 249.14C2700.78 248.869 2700.81 248.62 2700.83 248.349C2700.83 248.308 2700.83 248.162 2700.83 248.099C2700.83 247.975 2700.85 247.85 2700.87 247.725C2700.87 247.6 2700.89 247.454 2700.91 247.33C2700.91 247.226 2700.97 246.664 2700.93 247.038C2701.12 245.332 2701.14 243.605 2701.14 241.878C2701.18 236.925 2701.24 231.973 2701.26 227.021C2701.26 224.815 2701.26 222.63 2701.26 220.424C2701.8 220.487 2702.37 220.487 2702.84 220.508C2703.61 220.57 2704.47 220.383 2705.22 220.549C2705.22 222.214 2705.22 223.858 2705.26 225.522C2705.34 233.242 2705.3 241.004 2705.65 248.724C2705.65 248.807 2705.65 248.911 2705.7 249.015C2705.7 249.036 2705.7 249.077 2705.7 249.119C2705.7 249.951 2706.3 250.409 2706.96 250.472C2707.9 251.138 2708.78 251.72 2709.4 252.74C2710.13 253.905 2710.69 255.278 2710.92 256.652C2711.42 259.607 2709.88 263.706 2707.13 265.142L2707.15 265.162ZM2693.79 243.834C2693.79 243.834 2693.79 243.771 2693.79 243.73C2693.79 243.73 2693.79 243.73 2693.79 243.834ZM2722.67 256.277C2721.91 251.179 2719.24 245.103 2713.87 243.688C2713.87 243.542 2713.87 243.397 2713.87 243.251C2713.89 241.774 2713.91 240.296 2713.94 238.798C2714 234.116 2713.98 229.434 2713.98 224.752C2713.98 215.368 2713.81 205.983 2713.79 196.599C2713.79 191.813 2714.37 186.486 2710.67 182.782C2708.17 180.285 2704.49 179.473 2701.1 180.264C2697.64 181.076 2694.85 183.489 2693.61 186.798C2692.07 190.876 2692.59 195.517 2692.61 199.824C2692.63 204.61 2692.61 209.396 2692.67 214.182C2692.73 219.904 2692.77 225.606 2692.94 231.307C2693.06 235.698 2693.13 239.568 2693.75 243.709C2693.75 243.751 2693.81 244.125 2693.83 244.208C2693.83 244.271 2693.86 244.333 2693.88 244.396C2692.65 244.666 2691.5 245.436 2690.48 246.289C2688.42 248.016 2687.09 250.596 2686.39 253.156C2684.51 259.939 2686.93 267.805 2692.5 272.154C2697.89 276.378 2706.09 277.002 2712.25 274.152C2715.43 272.674 2717.97 269.865 2719.87 266.973C2721.91 263.851 2723.24 260.043 2722.67 256.277ZM2718.12 263.04C2716.83 265.703 2714.89 268.429 2712.46 270.136C2707.94 273.319 2700.95 273.34 2696.14 270.718C2690.86 267.826 2688.36 261.583 2688.9 255.757C2689.15 253.031 2690.15 250.492 2691.9 248.391C2692.42 247.767 2693.09 247.101 2693.69 246.664C2694.11 246.352 2694.4 246.102 2694.75 245.873C2695.27 245.956 2695.87 245.623 2695.85 244.978C2695.85 243.771 2695.94 242.544 2695.98 241.337C2696.04 239.298 2696.02 237.258 2696.02 235.198C2696.02 229.851 2696.02 224.503 2696.02 219.176C2696.02 210.998 2696.06 202.82 2695.92 194.643C2695.85 191.48 2696.08 187.609 2698.45 185.362C2700.41 183.51 2703.41 182.865 2705.95 183.718C2707.21 184.155 2708.42 185.133 2709.17 186.34C2710.19 188.005 2710.38 190.002 2710.4 191.917C2710.4 193.124 2710.36 194.331 2710.34 195.537C2710.31 204.298 2710.34 213.079 2710.48 221.86C2710.61 229.351 2710.63 236.842 2710.98 244.333C2710.96 244.396 2710.92 244.479 2710.9 244.562C2710.67 245.415 2711.19 246.248 2712 246.497C2716.37 247.871 2718.18 251.616 2719.08 255.778C2719.62 258.296 2719.22 260.709 2718.1 263.019L2718.12 263.04Z" fill="#231F20"/>
</g>
</a>
<a href="/landuse_change" target="_top">
<g id="land_use_change">
<path id="Vector_4" d="M486.917 576.831C486.917 517.007 535.421 468.502 595.245 468.502C655.069 468.502 703.574 517.007 703.574 576.831C703.574 636.655 595.245 755.305 595.245 755.305C595.245 755.305 486.917 636.676 486.917 576.831Z" fill="#231F20"/>
<path id="Vector_5" d="M628.5 648.135C667.914 629.789 684.994 582.965 666.648 543.551C648.302 504.136 601.478 487.057 562.064 505.403C522.65 523.748 505.57 570.572 523.916 609.987C542.262 649.401 589.086 666.481 628.5 648.135Z" fill="white"/>
<path id="Vector_6" d="M624.627 546.18C621.984 548.677 619.05 550.82 615.908 552.651C612.745 554.482 609.457 555.939 606.523 558.124C600.863 562.369 596.847 568.549 594.663 575.249C594.704 571.483 594.725 567.716 594.871 563.95C594.995 560.163 595.349 556.417 596.202 552.734C599.053 551.84 601.508 550.217 603.839 548.344C606.024 546.575 607.98 544.473 609.416 542.06C611.039 539.334 611.809 536.4 612.225 533.279C612.454 531.489 612.579 529.7 612.703 527.91C612.828 526.141 612.953 524.393 612.787 522.625C612.662 521.126 611.039 520.398 609.873 521.418C608.583 522.541 607.314 523.728 605.962 524.81C604.796 525.746 603.527 526.516 602.278 527.348C599.802 529.013 597.472 530.99 595.62 533.341C593.705 535.776 592.207 538.606 591.812 541.706C591.604 543.371 591.853 544.973 592.041 546.638C592.124 547.407 592.207 548.177 592.394 548.947C592.519 549.384 592.623 549.863 592.79 550.3C592.894 550.55 593.039 550.778 593.164 551.007C592.186 553.879 591.583 556.855 591.146 559.872C590.522 558.394 589.773 556.959 588.982 555.564C587.317 552.651 585.382 549.676 583.114 547.179C581.033 544.89 578.37 543.246 575.727 541.706C574.062 540.728 572.314 539.979 570.587 539.147C568.798 538.293 567.195 537.17 565.593 536.004C564.574 535.276 563.2 536.275 563.179 537.378C563.179 538.293 563.533 538.98 563.929 539.792C564.324 540.561 564.574 541.435 564.844 542.247C565.427 543.932 566.197 545.576 566.821 547.262C568.069 550.716 568.902 554.316 570.171 557.77C572.335 563.596 576.268 568.57 581.012 572.523C582.427 573.688 583.884 574.75 585.444 575.686C586.235 576.165 586.963 576.747 587.775 577.205C588.441 577.58 589.169 577.85 589.689 578.433C589.877 578.62 590.064 578.766 590.272 578.849C590.23 580.659 590.189 582.47 590.147 584.28C589.877 583.676 589.564 583.094 589.252 582.511C588.025 580.201 586.256 578.266 584.133 576.726C582.094 575.27 579.701 574.25 577.267 573.668C574.374 572.981 571.461 572.731 568.652 571.67C567.612 571.275 566.405 572.482 566.8 573.522C567.362 575.02 568.319 576.206 569.131 577.538C569.942 578.849 570.421 580.347 571.024 581.762C572.21 584.55 573.813 587.151 575.664 589.544C577.454 591.833 579.618 593.748 582.323 594.913C584.82 595.974 587.442 596.661 590.126 596.89C590.189 598.638 590.314 600.386 590.459 602.154C590.584 603.59 590.667 605.026 590.917 606.441C589.752 606.503 588.607 606.649 587.463 606.919C583.364 607.877 579.493 610.519 576.518 613.433C574.811 615.118 572.522 617.511 571.794 620.07C571.752 620.133 571.732 620.216 571.69 620.299C571.045 622.089 571.211 624.295 572.543 625.73C573.771 627.041 575.436 627.478 577.142 627.749C581.179 628.415 585.174 627.707 589.169 627.187C593.331 626.646 597.555 626.084 601.758 626.126C605.649 626.146 609.707 626.396 613.473 625.231C616.886 624.17 618.946 621.111 617.593 617.594C616.366 614.369 613.557 612.246 610.56 610.769C607.085 609.063 603.277 608.085 599.49 607.294C598.138 607.003 596.764 606.774 595.391 606.607C595.204 605.609 595.037 604.61 594.954 603.59C594.725 601.031 594.496 598.471 594.434 595.891C594.392 594.164 594.392 592.437 594.392 590.71C598.138 590.772 601.883 590.023 605.4 588.795C608.979 587.568 612.35 585.841 615.096 583.198C616.449 581.887 617.739 580.514 618.821 578.953C619.945 577.309 620.694 575.457 621.422 573.626C622.171 571.732 622.9 569.839 623.503 567.883C624.127 565.844 624.398 563.825 624.647 561.724C624.939 559.476 625.376 557.25 625.75 555.023C626.166 552.568 626.541 550.113 627.165 547.699C627.561 546.18 625.688 545.098 624.564 546.18H624.627ZM594.621 546.658C594.558 545.077 594.434 543.495 594.704 541.935C595.183 539.251 596.743 536.795 598.574 534.818C600.385 532.862 602.528 531.26 604.755 529.824C606.44 528.742 608.001 527.515 609.52 526.245C609.478 528.243 609.27 530.261 609.041 532.217C608.729 535.026 608.126 537.69 606.69 540.166C605.441 542.33 603.735 544.161 601.821 545.764C600.406 546.929 598.928 547.99 597.305 548.781C598.138 546.45 599.303 544.224 600.51 542.06C601.155 540.915 601.862 539.792 602.57 538.689C602.923 538.148 603.236 537.565 603.485 536.962C603.735 536.358 603.777 535.692 603.881 535.047C603.922 534.756 603.589 534.59 603.402 534.839C603.028 535.38 602.507 535.776 602.091 536.275C601.737 536.712 601.363 537.128 601.009 537.565C600.239 538.564 599.469 539.563 598.741 540.582C597.347 542.58 596.015 544.661 594.912 546.825C594.829 546.991 594.746 547.179 594.663 547.345C594.663 547.116 594.642 546.866 594.621 546.638V546.658ZM584.529 571.212C582.198 569.485 580.034 567.529 578.12 565.344C576.247 563.201 574.707 560.787 573.542 558.186C572.169 555.086 571.482 551.673 570.379 548.469C569.734 546.596 569.047 544.744 568.277 542.913C568.069 542.434 567.882 541.935 567.716 541.456C571.607 543.724 575.935 545.306 579.368 548.344C581.657 550.362 583.322 553.047 585.007 555.564C586.755 558.186 588.378 560.891 589.398 563.888C589.835 565.157 590.23 566.51 590.48 567.841C590.459 568.403 590.438 568.986 590.418 569.548C588.857 566.572 587.067 563.68 585.111 560.975C583.613 558.894 582.24 556.667 580.534 554.774C579.722 553.879 578.848 553.088 577.87 552.36C576.975 551.694 575.789 551.111 575.061 550.258C574.77 549.925 574.312 550.341 574.478 550.695C575.394 552.568 576.934 554.045 578.057 555.793C579.244 557.645 580.263 559.601 581.428 561.474C582.614 563.409 583.821 565.324 584.945 567.28C586.11 569.277 587.026 571.4 588.045 573.48C586.88 572.71 585.632 572.045 584.508 571.212H584.529ZM577.808 587.214C576.143 585.029 574.666 582.657 573.625 580.097C573.105 578.828 572.606 577.517 571.919 576.31C571.794 576.081 571.648 575.853 571.503 575.624C575.186 576.435 578.952 576.789 582.24 578.891C584.196 580.139 585.798 581.845 586.922 583.885C587.546 585.029 588.191 586.174 588.753 587.36C587.879 586.527 586.963 585.757 586.048 584.946C584.695 583.739 583.426 582.511 581.99 581.408C581.304 580.867 580.575 580.347 579.805 579.931C579.035 579.536 578.245 579.224 577.496 578.787C577.121 578.558 576.622 579.015 576.892 579.39C577.766 580.659 578.89 581.866 579.951 582.99C581.095 584.218 582.198 585.466 583.343 586.694C584.487 587.921 585.736 589.066 586.901 590.294C587.463 590.897 588.025 591.5 588.586 592.104C588.836 592.374 589.107 592.645 589.377 592.895C589.481 592.999 590.001 593.644 589.856 593.29C589.856 593.332 589.897 593.373 589.918 593.436C587.754 593.269 585.632 592.77 583.613 591.937C581.262 590.98 579.368 589.212 577.829 587.193L577.808 587.214ZM605.629 613.016C608.167 613.869 610.831 615.035 612.703 617.012C613.369 617.719 614.056 618.78 614.16 619.696C614.222 620.174 614.16 620.258 613.89 620.632C613.765 620.799 613.348 621.09 612.974 621.257C610.186 622.526 606.544 622.255 603.548 622.235C600.052 622.214 596.577 622.463 593.102 622.859C589.211 623.296 585.32 624.086 581.408 624.232C579.743 624.295 577.953 624.315 576.33 623.858C575.873 623.733 575.311 623.525 575.061 623.088C574.707 622.484 574.707 621.402 574.624 620.736C574.624 620.736 574.624 620.695 574.624 620.674C575.56 618.884 577.308 617.407 578.765 616.138C581.012 614.202 583.509 612.392 586.318 611.31C588.108 610.623 590.022 610.353 591.916 610.353C591.978 610.519 592.061 610.686 592.145 610.831C592.623 611.768 593.872 611.768 594.579 611.144C594.787 610.956 594.954 610.769 595.1 610.561C595.37 610.603 595.661 610.644 595.932 610.686C599.199 611.185 602.507 611.997 605.649 613.058L605.629 613.016ZM620.964 564.325C620.527 566.281 619.903 568.216 619.175 570.089C617.885 573.418 616.532 576.685 614.014 579.265C611.621 581.741 608.895 583.552 605.67 584.779C603.069 585.778 600.385 586.506 597.638 586.819C598.595 586.028 599.573 585.258 600.468 584.405C602.695 582.303 604.734 579.973 606.627 577.559C608.5 575.187 610.602 572.919 612.246 570.38C613.099 569.09 613.785 567.716 614.535 566.364C615.242 565.074 615.845 563.68 615.95 562.181C615.97 561.786 615.408 561.661 615.221 561.973C613.723 564.429 612.162 566.863 610.29 569.069C608.438 571.254 606.357 573.252 604.422 575.332C602.486 577.413 600.614 579.556 598.533 581.492C597.43 582.511 596.244 583.406 595.079 584.342C595.016 584.384 594.975 584.426 594.912 584.488C595.037 583.947 595.162 583.406 595.287 582.865C595.724 581.075 596.182 579.265 596.702 577.517C597.742 574.125 599.24 570.942 601.217 567.987C603.132 565.136 605.483 562.556 608.292 560.558C611.101 558.582 614.202 557.25 617.177 555.544C619.258 554.337 621.276 552.984 623.17 551.507C622.712 553.9 622.296 556.313 621.859 558.706C621.505 560.558 621.36 562.473 620.944 564.325H620.964Z" fill="#231F20"/>
<g id="Vector_7" style="mix-blend-mode:multiply">
<path d="M538.251 757.635C538.251 788.327 652.239 788.348 652.239 757.635C652.239 726.922 538.251 726.922 538.251 757.635Z" fill="#E6E6E6"/>
</g>
</g>
</a>
<a href="/water_quality" target="_top">
<g id="water_quality">
<path id="Vector_8" d="M2458.6 1412.68C2458.6 1352.86 2507.1 1304.35 2566.92 1304.35C2626.75 1304.35 2675.25 1352.86 2675.25 1412.68C2675.25 1472.51 2566.92 1591.16 2566.92 1591.16C2566.92 1591.16 2458.6 1472.53 2458.6 1412.68Z" fill="#231F20"/>
<path id="Vector_9" d="M2600.18 1483.85C2639.59 1465.51 2656.67 1418.68 2638.33 1379.27C2619.98 1339.85 2573.16 1322.77 2533.74 1341.12C2494.33 1359.47 2477.25 1406.29 2495.59 1445.7C2513.94 1485.12 2560.76 1502.2 2600.18 1483.85Z" fill="white"/>
<path id="Vector_10" d="M2540 1420.59C2538.58 1419.28 2535.4 1418.61 2534.21 1420.63C2534.07 1420.88 2533.94 1421.19 2533.88 1421.48C2533.57 1421.8 2533.28 1422.11 2533.07 1422.48C2532.59 1423.34 2532.51 1424.42 2532.76 1425.36C2533.3 1427.23 2535.17 1428.62 2537.13 1428.5C2538.98 1428.39 2540.52 1426.98 2541.16 1425.29C2541.83 1423.57 2541.31 1421.82 2539.98 1420.59H2540ZM2538.15 1424.83C2537.29 1426.04 2535.52 1425.73 2535.15 1424.23C2535.02 1423.71 2535.11 1423.3 2535.3 1422.88C2535.9 1422.71 2536.44 1422.21 2537.11 1422.32C2538.48 1422.53 2538.83 1423.84 2538.15 1424.81V1424.83ZM2580.03 1426.98C2578.12 1426.5 2576.21 1426.58 2574.37 1425.5C2572.29 1424.27 2570.55 1422.57 2568.34 1421.57C2566.13 1420.57 2563.7 1419.76 2561.29 1420.44C2560.31 1420.71 2559.35 1421.19 2558.48 1421.71C2557.89 1422.07 2557.33 1422.57 2557.1 1423.21C2556.62 1423.4 2556.37 1424.15 2556.96 1424.42C2558.27 1425.02 2558.75 1427.1 2559.12 1428.35C2559.64 1430.14 2560.37 1431.72 2561.85 1432.93C2565.05 1435.53 2569.65 1435.36 2573.4 1434.26C2575.71 1433.57 2577.64 1432.16 2579.28 1430.43C2579.7 1430.41 2580.1 1430.31 2580.43 1430.08C2581.57 1429.31 2581.51 1427.35 2580.03 1427V1426.98ZM2574.83 1430.08C2573.75 1430.81 2572.58 1431.18 2571.34 1431.45C2569.28 1431.93 2566.97 1432.14 2564.97 1431.33C2564.09 1430.97 2563.3 1430.39 2562.72 1429.62C2562.16 1428.85 2561.95 1427.94 2561.54 1427C2560.95 1425.65 2560.18 1424.13 2558.89 1423.48C2559.29 1423.4 2559.7 1423.34 2560.04 1423.27C2561.01 1423.05 2562.01 1422.86 2563.03 1422.96C2564.09 1423.07 2565.11 1423.61 2566.07 1424.04C2567.01 1424.48 2567.92 1425 2568.73 1425.63C2570.52 1427 2572.11 1428.62 2574.27 1429.48C2574.58 1429.6 2574.91 1429.7 2575.25 1429.81C2575.12 1429.91 2575 1430 2574.85 1430.1L2574.83 1430.08ZM2608.13 1409.98C2606.31 1408.94 2604.13 1409.48 2602.38 1410.41C2600.61 1411.35 2598.93 1412.68 2597.45 1414.01C2595.62 1415.66 2593.87 1417.45 2592.37 1419.42C2591.69 1420.34 2590.94 1421.36 2590.38 1422.44C2587.65 1419.42 2583.9 1417.34 2580.41 1415.39C2575.64 1412.72 2570.88 1410.33 2565.57 1408.98C2559.7 1407.48 2553.75 1407.38 2547.84 1408.56C2542.7 1409.58 2537.56 1411.29 2533.15 1414.18C2530.66 1415.82 2528.43 1417.74 2526.31 1419.84C2524.41 1421.71 2522.58 1423.71 2521.58 1426.21C2521.33 1426.37 2521.12 1426.65 2521.12 1426.96C2521.12 1427.58 2521.21 1428.23 2521.46 1428.83C2521.73 1429.5 2522.21 1430.02 2522.6 1430.62C2523.43 1431.91 2524.35 1433.16 2525.33 1434.34C2527.12 1436.53 2529.03 1438.51 2531.32 1440.17C2535.67 1443.29 2540.91 1444.91 2546.18 1445.66C2549.26 1446.1 2552.36 1446.23 2555.46 1446.14C2558.48 1446.06 2561.54 1445.91 2564.49 1445.35C2570.36 1444.25 2575.87 1441.59 2580.95 1438.51C2584.86 1436.13 2588.11 1432.93 2590.08 1428.89C2590.27 1429.87 2590.52 1430.81 2590.9 1431.72C2591.89 1434.14 2593.39 1436.38 2595.08 1438.36C2596.68 1440.25 2598.66 1441.94 2600.95 1442.98C2602.13 1443.52 2603.46 1444.04 2604.82 1443.98C2605.73 1443.94 2607.02 1443.69 2607.54 1442.88C2607.85 1442.86 2608.19 1442.73 2608.48 1442.5C2609.39 1441.77 2609.71 1440.48 2610.06 1439.4C2610.39 1438.34 2610.64 1437.26 2610.85 1436.15C2611.27 1433.91 2611.43 1431.64 2611.45 1429.35C2611.52 1425.54 2611.45 1421.71 2611.33 1417.93C2611.25 1415.16 2610.85 1411.58 2608.19 1410.06L2608.13 1409.98ZM2547.41 1439.71C2547.16 1440.15 2546.87 1440.57 2546.57 1441C2546.43 1441.21 2546.3 1441.4 2546.14 1441.56C2546.01 1441.71 2545.66 1441.86 2545.95 1441.77C2545.8 1441.81 2545.66 1441.88 2545.53 1441.96C2541.87 1441.36 2538.23 1440.23 2535.03 1438.42C2532.63 1437.07 2530.61 1435.34 2528.78 1433.3C2527.72 1432.14 2526.66 1430.93 2525.64 1429.72C2525.16 1429.16 2524.7 1428.6 2524.16 1428.08C2523.85 1427.79 2523.56 1427.5 2523.31 1427.19C2526.26 1423.84 2529.61 1420.59 2533.32 1418.11C2537.15 1415.58 2541.21 1413.87 2545.62 1412.7C2545.66 1412.77 2545.7 1412.81 2545.74 1412.87C2546.18 1413.41 2546.55 1414.01 2546.89 1414.62C2547.53 1415.8 2548.03 1417.05 2548.43 1418.36C2549.26 1421.21 2549.63 1424.23 2549.76 1427.19C2549.88 1430.16 2549.61 1433.12 2548.8 1435.99C2548.45 1437.24 2548.01 1438.59 2547.41 1439.73V1439.71ZM2585.44 1430.99C2583.99 1432.6 2582.3 1433.97 2580.45 1435.09C2575.96 1437.86 2570.9 1440.07 2565.78 1441.38C2563.1 1442.06 2560.39 1442.31 2557.64 1442.46C2555 1442.61 2552.36 1442.63 2549.72 1442.44C2550.26 1441.65 2550.69 1440.82 2551.05 1439.9C2552.05 1437.36 2552.71 1434.86 2552.94 1432.16C2553.19 1429.37 2553.05 1426.56 2552.61 1423.79C2552.21 1421.19 2551.61 1418.59 2550.55 1416.18C2549.94 1414.85 2549.2 1413.6 2548.2 1412.52C2548.09 1412.41 2547.99 1412.31 2547.88 1412.18C2552.73 1411.18 2557.75 1411.04 2562.6 1412.1C2567.55 1413.2 2572.23 1415.1 2576.6 1417.66C2580.74 1420.07 2585.26 1422.3 2588.27 1426.12C2587.63 1427.89 2586.69 1429.6 2585.42 1430.99H2585.44ZM2608.02 1418.13C2608 1421.53 2608.02 1424.92 2607.98 1428.33C2607.98 1430.47 2607.92 1432.62 2607.56 1434.74C2607.38 1435.84 2607.13 1436.92 2606.81 1437.99C2606.63 1438.67 2606.29 1439.36 2606.11 1440.05C2605.98 1440.05 2605.86 1440.05 2605.73 1440.05C2605.44 1440.05 2605.17 1440.13 2604.9 1440.19C2604.84 1440.19 2604.67 1440.21 2604.59 1440.23C2603.73 1440.21 2602.9 1439.86 2602.15 1439.48C2600.3 1438.55 2598.7 1437.17 2597.3 1435.66C2595.87 1434.09 2594.64 1432.35 2593.68 1430.45C2593.16 1429.41 2592.71 1428.39 2592.39 1427.27C2592.27 1426.83 2592.21 1426.37 2592.1 1425.9C2592.25 1425.4 2592.21 1424.83 2591.92 1424.38C2592.52 1423.46 2593.12 1422.53 2593.83 1421.67C2595.06 1420.22 2596.39 1418.88 2597.8 1417.64C2599.26 1416.32 2600.84 1415.18 2602.44 1414.06C2603.46 1413.33 2605.23 1412.12 2606.46 1412.62C2606.75 1412.75 2607.04 1413.04 2607.17 1413.24C2607.48 1413.74 2607.58 1414.08 2607.73 1414.66C2608 1415.76 2608.02 1416.91 2608.02 1418.13ZM2610.98 1397.72C2608 1396.56 2604.9 1395.7 2601.95 1394.52C2598.66 1393.21 2595.37 1394.04 2592.21 1395.29C2591.48 1395.58 2590.75 1395.87 2590 1396.12C2589.15 1396.43 2588.32 1396.85 2587.46 1397.1C2585.98 1397.51 2584.24 1397.35 2582.78 1396.93C2579.64 1396.04 2576.62 1394.31 2573.33 1394.02C2571.29 1393.83 2569.15 1394.06 2567.11 1394.31C2566.15 1394.43 2565.16 1394.54 2564.2 1394.75C2562.85 1395.06 2561.56 1395.72 2560.27 1396.29C2557.39 1397.53 2554.42 1399.05 2551.32 1397.56C2550.57 1397.18 2549.74 1396.99 2548.97 1396.68C2548.26 1396.41 2547.59 1396.08 2546.91 1395.77C2545.3 1395.08 2543.6 1394.56 2541.89 1394.23C2539.98 1393.85 2538.04 1393.71 2536.11 1394C2534.38 1394.27 2532.74 1394.97 2531.2 1395.74C2529.72 1396.49 2528.3 1397.39 2526.76 1398.01C2525.99 1398.33 2525.18 1398.53 2524.39 1398.76C2523.62 1398.99 2522.69 1399.14 2521.94 1398.8C2521.4 1398.55 2520.94 1399.14 2521.31 1399.62C2523.25 1402.07 2527.03 1400.84 2529.41 1399.86C2532.2 1398.72 2534.78 1397.12 2537.9 1397.16C2541.23 1397.2 2544.22 1398.62 2547.24 1399.86C2547.95 1400.16 2548.65 1400.45 2549.38 1400.63C2550.28 1400.88 2551.26 1400.88 2552.17 1400.97C2553.88 1401.09 2555.56 1400.8 2557.19 1400.26C2558.68 1399.76 2560.1 1399.09 2561.56 1398.49C2562.26 1398.2 2562.97 1397.97 2563.72 1397.78C2564.05 1397.7 2564.39 1397.64 2564.72 1397.58C2564.8 1397.58 2564.91 1397.58 2564.99 1397.56C2567.11 1397.37 2569.28 1397.39 2571.38 1397.47C2571.84 1397.47 2572.29 1397.51 2572.77 1397.56C2572.83 1397.56 2572.85 1397.56 2572.9 1397.56C2573.19 1397.64 2573.48 1397.68 2573.77 1397.76C2575.46 1398.22 2577.08 1398.89 2578.68 1399.55C2581.89 1400.86 2585.88 1402.13 2589.19 1400.45C2592.39 1398.82 2595.45 1395.72 2599.34 1396.33C2601.22 1396.62 2603.11 1397.62 2604.84 1398.39C2606.67 1399.2 2608.52 1399.95 2610.33 1400.78C2611.04 1401.09 2611.75 1400.97 2612.18 1400.53C2613.51 1399.47 2612.35 1397.26 2610.93 1397.7L2610.98 1397.72ZM2564.74 1397.6C2564.97 1397.58 2564.82 1397.6 2564.74 1397.6ZM2529.43 1390.65C2532.22 1389.5 2534.8 1387.9 2537.92 1387.94C2541.25 1387.98 2544.24 1389.4 2547.26 1390.65C2547.97 1390.94 2548.68 1391.23 2549.4 1391.42C2550.3 1391.67 2551.28 1391.67 2552.19 1391.75C2553.9 1391.87 2555.58 1391.58 2557.21 1391.04C2558.71 1390.54 2560.12 1389.88 2561.58 1389.27C2562.28 1388.98 2562.99 1388.75 2563.74 1388.57C2564.07 1388.48 2564.41 1388.42 2564.74 1388.36C2564.82 1388.36 2564.93 1388.36 2565.01 1388.34C2567.13 1388.15 2569.3 1388.17 2571.4 1388.25C2571.86 1388.25 2572.31 1388.3 2572.79 1388.34C2572.85 1388.34 2572.88 1388.34 2572.92 1388.34C2573.21 1388.42 2573.5 1388.46 2573.79 1388.55C2575.48 1389 2577.1 1389.67 2578.7 1390.33C2581.91 1391.65 2585.9 1392.91 2589.21 1391.23C2592.41 1389.61 2595.47 1386.51 2599.36 1387.11C2601.24 1387.4 2603.13 1388.4 2604.86 1389.17C2606.69 1389.98 2608.54 1390.73 2610.35 1391.56C2611.06 1391.87 2611.77 1391.75 2612.2 1391.31C2613.54 1390.25 2612.37 1388.05 2610.95 1388.48C2607.98 1387.32 2604.88 1386.46 2601.92 1385.28C2598.64 1383.97 2595.35 1384.8 2592.19 1386.05C2591.46 1386.34 2590.73 1386.63 2589.98 1386.88C2589.13 1387.19 2588.29 1387.61 2587.44 1387.86C2585.96 1388.27 2584.22 1388.11 2582.76 1387.69C2579.62 1386.8 2576.6 1385.07 2573.31 1384.78C2571.27 1384.59 2569.13 1384.82 2567.09 1385.07C2566.13 1385.19 2565.13 1385.3 2564.18 1385.51C2562.83 1385.82 2561.54 1386.49 2560.24 1387.05C2557.37 1388.3 2554.4 1389.81 2551.3 1388.32C2550.55 1387.94 2549.72 1387.75 2548.95 1387.44C2548.24 1387.17 2547.57 1386.84 2546.89 1386.53C2545.28 1385.84 2543.58 1385.32 2541.87 1384.99C2539.96 1384.61 2538.02 1384.47 2536.09 1384.76C2534.36 1385.03 2532.72 1385.74 2531.18 1386.51C2529.7 1387.25 2528.28 1388.15 2526.74 1388.77C2525.97 1389.09 2525.16 1389.29 2524.37 1389.52C2523.6 1389.75 2522.66 1389.9 2521.92 1389.56C2521.37 1389.32 2520.92 1389.9 2521.29 1390.38C2523.23 1392.83 2527.01 1391.6 2529.39 1390.63L2529.43 1390.65ZM2529.43 1381.39C2532.22 1380.24 2534.8 1378.64 2537.92 1378.68C2541.25 1378.72 2544.24 1380.14 2547.26 1381.39C2547.97 1381.68 2548.68 1381.97 2549.4 1382.16C2550.3 1382.41 2551.28 1382.41 2552.19 1382.49C2553.9 1382.61 2555.58 1382.32 2557.21 1381.78C2558.71 1381.28 2560.12 1380.62 2561.58 1380.01C2562.28 1379.72 2562.99 1379.49 2563.74 1379.31C2564.07 1379.22 2564.41 1379.16 2564.74 1379.1C2564.82 1379.1 2564.93 1379.1 2565.01 1379.08C2567.13 1378.89 2569.3 1378.91 2571.4 1378.99C2571.86 1378.99 2572.31 1379.04 2572.79 1379.08C2572.85 1379.08 2572.88 1379.08 2572.92 1379.08C2573.21 1379.16 2573.5 1379.2 2573.79 1379.29C2575.48 1379.74 2577.1 1380.41 2578.7 1381.07C2581.91 1382.39 2585.9 1383.66 2589.21 1381.97C2592.41 1380.35 2595.47 1377.25 2599.36 1377.85C2601.24 1378.14 2603.13 1379.14 2604.86 1379.91C2606.69 1380.72 2608.54 1381.47 2610.35 1382.3C2611.06 1382.61 2611.77 1382.49 2612.2 1382.05C2613.54 1380.99 2612.37 1378.79 2610.95 1379.22C2607.98 1378.06 2604.88 1377.2 2601.92 1376.02C2598.64 1374.71 2595.35 1375.54 2592.19 1376.79C2591.46 1377.08 2590.73 1377.37 2589.98 1377.62C2589.13 1377.93 2588.29 1378.35 2587.44 1378.6C2585.96 1379.01 2584.22 1378.85 2582.76 1378.43C2579.62 1377.54 2576.6 1375.81 2573.31 1375.52C2571.27 1375.33 2569.13 1375.56 2567.09 1375.81C2566.13 1375.94 2565.13 1376.04 2564.18 1376.25C2562.83 1376.56 2561.54 1377.23 2560.24 1377.79C2557.37 1379.04 2554.4 1380.55 2551.3 1379.06C2550.55 1378.68 2549.72 1378.49 2548.95 1378.18C2548.24 1377.91 2547.57 1377.58 2546.89 1377.27C2545.28 1376.58 2543.58 1376.06 2541.87 1375.73C2539.96 1375.35 2538.02 1375.21 2536.09 1375.5C2534.36 1375.77 2532.72 1376.48 2531.18 1377.25C2529.7 1378 2528.28 1378.89 2526.74 1379.51C2525.97 1379.83 2525.16 1380.03 2524.37 1380.26C2523.6 1380.49 2522.66 1380.64 2521.92 1380.3C2521.37 1380.06 2520.92 1380.64 2521.29 1381.12C2523.23 1383.57 2527.01 1382.34 2529.39 1381.37L2529.43 1381.39Z" fill="#231F20"/>
<g id="Vector_11" style="mix-blend-mode:multiply">
<path d="M2512.01 1593.47C2512.01 1624.16 2626 1624.18 2626 1593.47C2626 1562.75 2512.01 1562.75 2512.01 1593.47Z" fill="#E6E6E6"/>
</g>
</g>
</a>
<a href="/social_wellbeing" target="_top">
<g id="social_wellbeing">
<g id="Vector_12" style="mix-blend-mode:multiply">
<path d="M2896.63 818.916C2896.63 849.608 3010.62 849.629 3010.62 818.916C3010.62 788.203 2896.63 788.203 2896.63 818.916Z" fill="#E6E6E6"/>
</g>
<path id="Vector_13" d="M2845.32 638.132C2845.32 578.308 2893.82 529.804 2953.65 529.804C3013.47 529.804 3061.98 578.308 3061.98 638.132C3061.98 697.956 2953.65 816.606 2953.65 816.606C2953.65 816.606 2845.32 697.977 2845.32 638.132Z" fill="#231F20"/>
<path id="Vector_14" d="M2986.84 709.309C3026.25 690.963 3043.33 644.139 3024.98 604.725C3006.64 565.31 2959.81 548.231 2920.4 566.576C2880.99 584.922 2863.91 631.746 2882.25 671.161C2900.6 710.575 2947.42 727.654 2986.84 709.309Z" fill="white"/>
<path id="Vector_15" d="M2996.49 645.957C2995.04 643.709 2992.48 642.898 2989.9 642.752V641.941C2989.73 641.295 2989.58 640.65 2989.09 640.172C2988.13 639.215 2986.51 638.403 2985.24 638.091C2982.18 637.446 2979.28 638.57 2976.73 640.026C2976.08 639.215 2974.48 638.903 2973.52 639.069C2970.94 639.235 2968.86 640.671 2966.61 641.961C2964.53 643.251 2962.26 644.375 2960.02 645.332C2958.73 645.811 2957.6 646.144 2956.31 646.456C2955.83 646.456 2955.36 646.456 2954.86 646.622C2954.38 646.456 2953.9 646.31 2953.42 646.31C2953.11 646.144 2952.61 646.144 2952.3 646.144C2954.23 645.499 2955.83 644.708 2957.27 643.251C2959.04 641.649 2960.47 638.757 2959.52 636.343C2959.2 635.386 2957.75 634.096 2957.75 634.096C2957.75 634.096 2956.98 633.451 2953.54 633.139C2949.55 632.785 2945.7 632.972 2944.24 632.806C2938.46 632.494 2932.2 631.037 2926.41 632.972C2923.35 633.929 2920.46 635.864 2918.38 638.278C2918.21 638.445 2917.9 638.757 2917.73 639.09C2917.73 638.278 2917.26 637.654 2916.44 637.321C2914.67 636.843 2913.24 636.364 2911.3 636.364C2909.22 636.197 2906.64 636.53 2905.35 638.445C2904.54 639.735 2904.87 641.337 2904.87 642.939C2904.71 643.751 2904.71 644.708 2904.71 645.52C2904.4 651.304 2904.06 657.089 2904.06 662.874V666.723C2904.06 667.681 2904.06 668.658 2904.37 669.449C2904.69 670.406 2905.33 670.906 2906.31 670.906C2907.43 671.072 2908.72 671.072 2909.85 671.072C2910.66 671.072 2910.97 671.239 2911.78 671.239C2913.38 671.717 2915.32 671.239 2916.44 669.949C2918.52 669.949 2920.63 669.637 2922.54 669.637H2928.97C2933.32 669.637 2937.48 669.949 2941.66 670.282C2945.85 670.594 2950.17 671.093 2954.36 671.239C2958.21 671.239 2961.91 670.427 2965.45 668.659C2971.71 665.933 2976.7 661.105 2982.97 658.379C2986.34 656.943 2990.04 656.298 2993.1 654.197C2995.66 652.428 2998.41 649.223 2996.47 645.998L2996.49 645.957ZM2914.53 643.564C2914.36 644.375 2914.36 645.166 2914.36 645.977C2914.2 648.558 2913.88 651.117 2913.88 653.531C2913.72 657.88 2913.41 662.041 2913.24 666.39V667.202H2912.59C2912.43 667.202 2912.28 667.202 2912.28 667.035C2911.64 667.035 2910.99 667.035 2910.35 666.869H2907.93V665.579C2907.93 665.1 2907.77 664.455 2907.77 663.81C2907.77 661.23 2907.93 658.504 2908.08 655.778C2908.08 653.052 2908.24 650.305 2908.39 647.413C2908.39 645.811 2908.56 644.042 2908.56 642.44C2908.56 641.961 2908.25 640.838 2908.56 640.505C2908.72 640.026 2909.99 640.026 2910.49 640.026C2910.99 640.026 2911.62 640.026 2912.09 640.193H2912.91C2913.55 640.359 2914.2 640.505 2914.84 640.838C2914.67 641.795 2914.53 642.773 2914.53 643.564ZM2982.2 641.316C2983.97 640.838 2986.86 641.15 2987.98 642.773C2987.67 642.773 2987.34 642.939 2987.03 642.939C2985.42 643.106 2983.82 643.584 2982.2 644.063C2981.24 644.375 2980.43 644.708 2979.47 645.187C2978.83 645.499 2978.18 645.998 2977.7 646.477C2977.06 646.643 2976.41 646.789 2975.93 646.955C2974.5 647.434 2973.04 647.913 2971.75 648.391C2970.15 649.036 2968.69 649.348 2967.09 649.348C2969.51 648.537 2971.75 647.267 2973.83 645.811C2976.39 644.042 2979.14 641.961 2982.18 641.316H2982.2ZM2965.32 646.29C2967.09 645.332 2968.86 644.209 2970.63 643.085C2971.59 642.44 2972.4 641.961 2973.35 641.649C2973.52 641.649 2974 641.483 2974.64 641.483C2971.92 643.251 2969.34 645.187 2966.28 646.31C2965.32 646.622 2964.2 647.122 2963.05 647.268C2963.87 646.955 2964.51 646.622 2965.3 646.31L2965.32 646.29ZM2992.64 649.66C2991.69 650.784 2990.4 651.429 2989.11 652.074C2986.05 653.531 2982.68 654.155 2979.62 655.612C2974 658.338 2969.34 662.52 2963.87 665.1C2960.66 666.703 2957.6 667.181 2954.23 667.181C2950.38 667.181 2946.51 666.703 2942.66 666.37C2938.31 666.057 2933.99 665.725 2929.66 665.558H2923.06C2921.13 665.725 2919.36 665.87 2917.61 665.87V663.456C2917.78 657.984 2918.09 652.532 2917.92 647.059V643.855C2918.57 642.565 2919.69 641.275 2920.81 640.317C2922.58 638.549 2924.66 637.259 2927.08 636.468C2931.9 635.011 2937.21 636.156 2942.18 636.634C2944.91 636.947 2947.66 636.947 2950.38 636.947H2953.27C2954.09 636.78 2955.36 636.634 2956 637.259C2956.96 638.216 2955.19 640.318 2954.4 640.963C2952.8 642.419 2950.55 642.898 2948.3 643.043C2945.24 643.356 2941.87 643.522 2938.81 644.5C2937.21 644.979 2935.75 645.457 2934.32 646.102C2932.88 646.747 2931.26 647.392 2930.3 648.516C2929.49 649.473 2929.82 651.096 2931.26 651.096C2932.86 650.93 2934.32 650.139 2935.75 649.494C2936.07 649.328 2936.23 649.182 2936.57 649.182C2937.04 649.015 2937.69 648.87 2938.17 648.87C2939.6 648.703 2941.23 648.703 2942.66 648.703C2946.03 648.703 2949.57 649.182 2952.94 649.827C2956 650.472 2959.04 651.762 2962.26 652.553C2965.32 653.364 2968.69 653.364 2971.75 652.241C2973.35 651.596 2974.96 650.805 2976.41 649.993C2977.06 649.681 2977.7 649.182 2978.35 648.703C2980.93 647.746 2983.49 646.935 2986.21 646.622C2988.29 646.31 2991.52 645.811 2992.96 647.58C2993.27 647.892 2993.27 648.225 2993.27 648.391C2993.27 648.87 2992.96 649.348 2992.62 649.681L2992.64 649.66Z" fill="#231F20"/>
<path id="Vector_16" d="M2989.81 597.431C2988.38 595.663 2986.44 594.227 2984.2 593.415C2981.78 592.604 2979.22 593.103 2976.98 594.06C2974.4 595.184 2972.15 596.953 2970.23 599.033C2970.07 599.2 2969.92 599.346 2969.59 599.679C2969.59 599.512 2969.42 599.366 2969.42 599.2C2968.61 598.243 2967.65 597.431 2966.7 596.62C2965.09 595.33 2962.99 594.539 2961.08 593.894C2956.9 592.937 2952.71 593.582 2950.15 597.265C2947.43 600.802 2946.93 605.63 2947.91 609.958C2948.86 614.452 2952.09 618.469 2955.29 621.694C2957.06 623.629 2959 625.543 2961.08 627.312C2962.2 628.269 2963.16 629.081 2964.28 630.038C2965.41 630.995 2966.53 631.973 2967.82 632.618C2968.3 632.785 2968.78 632.785 2969.11 632.785C2969.42 632.951 2969.92 632.951 2970.23 632.785C2972.81 631.827 2975.21 629.726 2977.48 627.957C2979.56 626.355 2981.49 624.42 2983.26 622.485C2986.63 619.114 2990 615.41 2991.77 610.915C2992.73 608.668 2993.23 606.254 2992.89 603.674C2992.58 601.426 2991.44 599.179 2989.84 597.41L2989.81 597.431ZM2980.97 618.635C2979.04 620.57 2977.27 622.339 2975.19 624.108C2974.23 625.065 2973.11 626.043 2972.13 626.834C2971.17 627.479 2970.05 628.124 2969.07 628.914C2967.61 627.957 2966.18 626.667 2964.89 625.543C2963.12 624.087 2961.66 622.651 2960.06 621.194C2957 618.469 2954.11 615.41 2952.19 611.706C2950.74 608.647 2950.59 604.797 2951.71 601.572C2952.19 600.115 2953.17 598.68 2954.29 597.868C2955.58 597.057 2957.02 596.911 2958.48 596.911C2960.25 597.077 2961.85 597.723 2963.45 598.513C2964.41 599.158 2965.39 599.637 2966.18 600.448C2966.65 600.761 2966.99 601.094 2967.47 601.406C2967.47 601.572 2967.63 601.572 2967.63 601.572C2967.32 601.884 2966.99 602.051 2966.34 601.884C2965.86 601.718 2965.53 602.363 2965.7 602.841C2966.51 604.444 2968.76 604.277 2970.05 603.32C2971.48 602.196 2972.77 600.906 2974.06 599.783C2975.83 598.492 2977.6 597.369 2979.68 596.89C2981.62 596.412 2983.53 597.057 2985.15 598.18C2988.21 600.594 2989.17 604.61 2988.21 608.148C2986.92 612.164 2983.86 615.535 2980.99 618.593L2980.97 618.635Z" fill="#231F20"/>
</g>
</a>
<a href="/greenhouse_gas_emissions" target="_top">
<g id="greenhouse_gas_emissions">
<path id="Vector_17" d="M1510.5 822.953C1510.5 763.129 1559.01 714.625 1618.83 714.625C1678.66 714.625 1727.16 763.129 1727.16 822.953C1727.16 882.777 1618.83 1001.43 1618.83 1001.43C1618.83 1001.43 1510.5 882.798 1510.5 822.953Z" fill="#231F20"/>
<path id="Vector_18" d="M1652.06 894.204C1691.48 875.858 1708.56 829.034 1690.21 789.62C1671.87 750.205 1625.04 733.126 1585.63 751.472C1546.21 769.817 1529.13 816.641 1547.48 856.055C1565.83 895.47 1612.65 912.549 1652.06 894.204Z" fill="white"/>
<path id="Vector_19" d="M1653.6 842.846C1652.92 840.494 1649.73 841.327 1648.07 841.743C1646.97 842.013 1646.82 843.116 1647.24 843.824V845.218C1647.09 845.904 1647.09 846.737 1647.51 847.423C1647.92 848.256 1648.9 848.526 1649.86 848.526H1651.23C1651.79 848.526 1652.21 848.672 1652.75 848.256C1653.71 847.694 1653.71 846.591 1653.71 845.634C1653.71 844.677 1653.85 843.699 1653.56 842.866L1653.6 842.846ZM1650.96 845.738V845.884H1649.44V845.322C1649.44 845.051 1649.44 844.635 1649.3 844.219C1649.71 844.219 1650.25 844.073 1650.67 844.073H1650.94V845.738H1650.96ZM1653.6 832.878C1652.92 830.527 1649.73 831.359 1648.07 831.776C1646.97 832.046 1646.82 833.17 1647.24 833.856V835.23C1647.09 835.916 1647.09 836.749 1647.51 837.435C1647.92 838.268 1648.9 838.393 1649.86 838.538H1651.23C1651.79 838.538 1652.21 838.538 1652.75 838.268C1653.71 837.706 1653.71 836.603 1653.71 835.646C1653.71 834.689 1653.85 833.711 1653.56 832.878H1653.6ZM1650.96 835.792V835.937H1649.44V835.375C1649.44 835.105 1649.44 834.689 1649.3 834.272C1649.71 834.272 1650.25 834.127 1650.67 834.127H1650.94V835.792H1650.96ZM1629.67 842.846C1628.99 840.494 1625.8 841.327 1624.14 841.743C1623.04 842.013 1622.89 843.116 1623.45 843.824C1623.31 844.24 1623.31 844.802 1623.31 845.218C1623.31 845.904 1623.16 846.737 1623.58 847.423C1623.99 848.256 1624.97 848.526 1625.93 848.526H1627.45C1628.01 848.526 1628.42 848.672 1628.84 848.256C1629.8 847.694 1629.94 846.591 1629.8 845.634C1629.8 844.656 1629.94 843.699 1629.65 842.866L1629.67 842.846ZM1627.03 845.738V845.884H1625.66C1625.66 845.738 1625.51 845.467 1625.51 845.322V844.219C1625.93 844.219 1626.34 844.073 1626.76 844.073H1627.03V845.738ZM1629.67 832.878C1628.99 830.527 1625.8 831.359 1624.14 831.776C1623.04 832.046 1622.89 833.17 1623.45 833.856C1623.31 834.273 1623.31 834.689 1623.31 835.23C1623.31 835.916 1623.16 836.749 1623.58 837.435C1623.99 838.268 1624.97 838.393 1625.93 838.538H1627.45C1628.01 838.538 1628.42 838.538 1628.84 838.268C1629.8 837.706 1629.94 836.603 1629.8 835.646C1629.8 834.668 1629.94 833.711 1629.65 832.878H1629.67ZM1627.03 835.792V835.937H1625.66C1625.66 835.792 1625.51 835.521 1625.51 835.375V834.272C1625.93 834.272 1626.34 834.127 1626.76 834.127H1627.03V835.792ZM1605.72 842.846C1605.04 840.494 1601.85 841.327 1600.19 841.743C1599.08 842.013 1598.94 843.116 1599.5 843.824C1599.36 844.24 1599.36 844.802 1599.36 845.218C1599.36 845.904 1599.21 846.737 1599.63 847.423C1600.19 848.256 1601.14 848.526 1601.98 848.526H1603.5C1604.06 848.526 1604.47 848.672 1605.02 848.256C1605.85 847.694 1605.97 846.591 1605.85 845.634C1605.85 844.656 1605.99 843.699 1605.7 842.866L1605.72 842.846ZM1603.25 845.884H1601.73C1601.73 845.738 1601.73 845.467 1601.58 845.322V844.219C1602 844.219 1602.41 844.073 1602.83 844.073H1603.1C1603.1 844.635 1603.25 845.176 1603.25 845.738V845.884ZM1605.72 832.878C1605.04 830.527 1601.85 831.359 1600.19 831.776C1599.08 832.046 1598.94 833.17 1599.5 833.856C1599.36 834.273 1599.36 834.689 1599.36 835.23C1599.36 835.916 1599.21 836.749 1599.63 837.435C1600.19 838.268 1601.14 838.393 1601.98 838.538H1603.5C1604.06 838.538 1604.47 838.538 1605.02 838.268C1605.85 837.706 1605.97 836.603 1605.85 835.646C1605.85 834.668 1605.99 833.711 1605.7 832.878H1605.72ZM1603.25 835.916H1601.73C1601.73 835.771 1601.73 835.5 1601.58 835.355V834.252C1602 834.252 1602.41 834.106 1602.83 834.106H1603.1C1603.1 834.668 1603.25 835.209 1603.25 835.771V835.916ZM1648.07 841.722C1646.97 841.992 1646.82 843.095 1647.24 843.803V845.197C1647.09 845.884 1647.09 846.716 1647.51 847.403C1647.92 848.235 1648.9 848.505 1649.86 848.505H1651.23C1651.79 848.505 1652.21 848.651 1652.75 848.235C1653.71 847.673 1653.71 846.57 1653.71 845.613C1653.71 844.656 1653.85 843.678 1653.56 842.846C1652.87 840.494 1649.69 841.327 1648.03 841.743L1648.07 841.722ZM1650.96 845.738V845.884H1649.44V845.322C1649.44 845.051 1649.44 844.635 1649.3 844.219C1649.71 844.219 1650.25 844.073 1650.67 844.073H1650.94V845.738H1650.96ZM1647.24 835.23C1647.09 835.916 1647.09 836.749 1647.51 837.435C1647.92 838.268 1648.9 838.393 1649.86 838.538H1651.23C1651.79 838.538 1652.21 838.538 1652.75 838.268C1653.71 837.706 1653.71 836.603 1653.71 835.646C1653.71 834.689 1653.85 833.711 1653.56 832.878C1652.87 830.527 1649.69 831.359 1648.03 831.776C1646.92 832.046 1646.78 833.17 1647.19 833.856V835.23H1647.24ZM1650.69 834.127H1650.96V835.916H1649.44V835.355C1649.44 835.084 1649.44 834.668 1649.3 834.252C1649.71 834.252 1650.25 834.106 1650.67 834.106L1650.69 834.127ZM1624.14 841.722C1623.04 841.992 1622.89 843.095 1623.45 843.803C1623.31 844.219 1623.31 844.781 1623.31 845.197C1623.31 845.884 1623.16 846.716 1623.58 847.403C1623.99 848.235 1624.97 848.505 1625.93 848.505H1627.45C1628.01 848.505 1628.42 848.651 1628.84 848.235C1629.8 847.673 1629.94 846.57 1629.8 845.613C1629.8 844.635 1629.94 843.678 1629.65 842.846C1628.97 840.494 1625.78 841.327 1624.12 841.743L1624.14 841.722ZM1627.03 845.738V845.884H1625.66C1625.66 845.738 1625.51 845.467 1625.51 845.322V844.219C1625.93 844.219 1626.34 844.073 1626.76 844.073H1627.03V845.738ZM1624.14 831.776C1623.04 832.046 1622.89 833.17 1623.45 833.856C1623.31 834.273 1623.31 834.689 1623.31 835.23C1623.31 835.916 1623.16 836.749 1623.58 837.435C1623.99 838.268 1624.97 838.393 1625.93 838.538H1627.45C1628.01 838.538 1628.42 838.538 1628.84 838.268C1629.8 837.706 1629.94 836.603 1629.8 835.646C1629.8 834.668 1629.94 833.711 1629.65 832.878C1628.97 830.527 1625.78 831.359 1624.12 831.776H1624.14ZM1627.03 835.792V835.937H1625.66C1625.66 835.792 1625.51 835.521 1625.51 835.375V834.272C1625.93 834.272 1626.34 834.127 1626.76 834.127H1627.03V835.792ZM1600.21 841.722C1599.11 841.992 1598.96 843.095 1599.52 843.803C1599.38 844.219 1599.38 844.781 1599.38 845.197C1599.38 845.884 1599.23 846.716 1599.65 847.403C1600.21 848.235 1601.17 848.505 1602 848.505H1603.52C1604.08 848.505 1604.5 848.651 1605.04 848.235C1605.87 847.673 1605.99 846.57 1605.87 845.613C1605.87 844.635 1606.01 843.678 1605.72 842.846C1605.04 840.494 1601.85 841.327 1600.19 841.743L1600.21 841.722ZM1603.25 845.884H1601.73C1601.73 845.738 1601.73 845.467 1601.58 845.322V844.219C1602 844.219 1602.41 844.073 1602.83 844.073H1603.1C1603.1 844.635 1603.25 845.176 1603.25 845.738V845.884ZM1600.21 831.776C1599.11 832.046 1598.96 833.17 1599.52 833.856C1599.38 834.273 1599.38 834.689 1599.38 835.23C1599.38 835.916 1599.23 836.749 1599.65 837.435C1600.21 838.268 1601.17 838.393 1602 838.538H1603.52C1604.08 838.538 1604.5 838.538 1605.04 838.268C1605.87 837.706 1605.99 836.603 1605.87 835.646C1605.87 834.668 1606.01 833.711 1605.72 832.878C1605.04 830.527 1601.85 831.359 1600.19 831.776H1600.21ZM1603.25 835.916H1601.73C1601.73 835.771 1601.73 835.5 1601.58 835.355V834.252C1602 834.252 1602.41 834.106 1602.83 834.106H1603.1C1603.1 834.668 1603.25 835.209 1603.25 835.771V835.916ZM1648.07 841.722C1646.97 841.992 1646.82 843.095 1647.24 843.803V845.197C1647.09 845.884 1647.09 846.716 1647.51 847.403C1647.92 848.235 1648.9 848.505 1649.86 848.505H1651.23C1651.79 848.505 1652.21 848.651 1652.75 848.235C1653.71 847.673 1653.71 846.57 1653.71 845.613C1653.71 844.656 1653.85 843.678 1653.56 842.846C1652.87 840.494 1649.69 841.327 1648.03 841.743L1648.07 841.722ZM1650.96 845.738V845.884H1649.44V845.322C1649.44 845.051 1649.44 844.635 1649.3 844.219C1649.71 844.219 1650.25 844.073 1650.67 844.073H1650.94V845.738H1650.96ZM1647.24 835.23C1647.09 835.916 1647.09 836.749 1647.51 837.435C1647.92 838.268 1648.9 838.393 1649.86 838.538H1651.23C1651.79 838.538 1652.21 838.538 1652.75 838.268C1653.71 837.706 1653.71 836.603 1653.71 835.646C1653.71 834.689 1653.85 833.711 1653.56 832.878C1652.87 830.527 1649.69 831.359 1648.03 831.776C1646.92 832.046 1646.78 833.17 1647.19 833.856V835.23H1647.24ZM1650.69 834.127H1650.96V835.916H1649.44V835.355C1649.44 835.084 1649.44 834.668 1649.3 834.252C1649.71 834.252 1650.25 834.106 1650.67 834.106L1650.69 834.127ZM1624.14 841.722C1623.04 841.992 1622.89 843.095 1623.45 843.803C1623.31 844.219 1623.31 844.781 1623.31 845.197C1623.31 845.884 1623.16 846.716 1623.58 847.403C1623.99 848.235 1624.97 848.505 1625.93 848.505H1627.45C1628.01 848.505 1628.42 848.651 1628.84 848.235C1629.8 847.673 1629.94 846.57 1629.8 845.613C1629.8 844.635 1629.94 843.678 1629.65 842.846C1628.97 840.494 1625.78 841.327 1624.12 841.743L1624.14 841.722ZM1627.03 845.738V845.884H1625.66C1625.66 845.738 1625.51 845.467 1625.51 845.322V844.219C1625.93 844.219 1626.34 844.073 1626.76 844.073H1627.03V845.738ZM1624.14 831.776C1623.04 832.046 1622.89 833.17 1623.45 833.856C1623.31 834.273 1623.31 834.689 1623.31 835.23C1623.31 835.916 1623.16 836.749 1623.58 837.435C1623.99 838.268 1624.97 838.393 1625.93 838.538H1627.45C1628.01 838.538 1628.42 838.538 1628.84 838.268C1629.8 837.706 1629.94 836.603 1629.8 835.646C1629.8 834.668 1629.94 833.711 1629.65 832.878C1628.97 830.527 1625.78 831.359 1624.12 831.776H1624.14ZM1627.03 835.792V835.937H1625.66C1625.66 835.792 1625.51 835.521 1625.51 835.375V834.272C1625.93 834.272 1626.34 834.127 1626.76 834.127H1627.03V835.792ZM1600.21 841.722C1599.11 841.992 1598.96 843.095 1599.52 843.803C1599.38 844.219 1599.38 844.781 1599.38 845.197C1599.38 845.884 1599.23 846.716 1599.65 847.403C1600.21 848.235 1601.17 848.505 1602 848.505H1603.52C1604.08 848.505 1604.5 848.651 1605.04 848.235C1605.87 847.673 1605.99 846.57 1605.87 845.613C1605.87 844.635 1606.01 843.678 1605.72 842.846C1605.04 840.494 1601.85 841.327 1600.19 841.743L1600.21 841.722ZM1603.25 845.884H1601.73C1601.73 845.738 1601.73 845.467 1601.58 845.322V844.219C1602 844.219 1602.41 844.073 1602.83 844.073H1603.1C1603.1 844.635 1603.25 845.176 1603.25 845.738V845.884ZM1600.21 831.776C1599.11 832.046 1598.96 833.17 1599.52 833.856C1599.38 834.273 1599.38 834.689 1599.38 835.23C1599.38 835.916 1599.23 836.749 1599.65 837.435C1600.21 838.268 1601.17 838.393 1602 838.538H1603.52C1604.08 838.538 1604.5 838.538 1605.04 838.268C1605.87 837.706 1605.99 836.603 1605.87 835.646C1605.87 834.668 1606.01 833.711 1605.72 832.878C1605.04 830.527 1601.85 831.359 1600.19 831.776H1600.21ZM1603.25 835.916H1601.73C1601.73 835.771 1601.73 835.5 1601.58 835.355V834.252C1602 834.252 1602.41 834.106 1602.83 834.106H1603.1C1603.1 834.668 1603.25 835.209 1603.25 835.771V835.916Z" fill="#231F20"/>
<path id="Vector_20" d="M1661.34 853.895C1661.07 851.398 1661.2 848.922 1661.2 846.571C1661.2 844.635 1661.2 842.7 1661.05 840.765C1660.91 835.646 1660.78 830.527 1660.49 825.409C1660.34 823.744 1660.22 822.079 1660.22 820.435C1660.07 819.603 1659.26 818.646 1658.28 819.062C1653.44 820.997 1648.88 823.078 1644.18 825.013C1642.39 825.846 1640.43 826.678 1638.64 827.219C1638.5 826.948 1638.5 826.657 1638.5 826.532C1638.35 825.013 1638.23 823.494 1638.08 821.829C1637.81 820.31 1637.52 818.5 1635.46 818.375C1634.63 818.375 1633.65 818.937 1632.84 819.353C1632.69 819.499 1632.57 819.499 1632.42 819.624C1632.15 819.769 1631.86 819.769 1631.73 819.894C1628.97 820.997 1626.2 822.246 1623.43 823.348C1620.81 824.597 1618.04 825.7 1615.4 826.948C1614.71 827.219 1614.03 827.51 1613.46 827.926V827.51C1613.61 826.948 1613.61 826.262 1613.61 825.575C1613.61 824.597 1613.61 823.64 1613.75 822.662C1613.75 821.829 1613.9 820.997 1613.61 820.165C1613.34 819.062 1612.24 818.375 1611.11 818.646C1610.01 818.791 1608.76 819.624 1607.78 820.165C1605.29 821.413 1602.81 822.662 1600.31 823.889C1599.06 824.576 1597.82 825.138 1596.57 825.825C1595.32 826.511 1594.07 827.073 1592.97 827.76C1592.7 828.03 1592.28 828.176 1591.99 828.447C1591.43 824.992 1590.89 821.538 1590.47 818.209C1589.78 814.463 1589.22 810.739 1588.39 807.139C1588.12 805.62 1587.7 804.101 1587.43 802.582C1587.16 801.895 1587.16 801.333 1587.02 800.376C1586.87 799.419 1586.45 798.441 1585.62 798.025C1584.25 797.192 1582.44 797.338 1581.06 797.463C1579.69 797.588 1578.3 797.879 1577.05 798.566C1576.63 798.711 1576.49 799.252 1576.63 799.668V799.814C1576.63 799.96 1576.49 800.085 1576.49 800.23C1576.34 800.376 1576.34 800.647 1576.34 800.917C1576.34 801.063 1576.2 801.333 1576.2 801.479C1576.05 802.166 1576.05 802.727 1575.92 803.268V804.246C1575.92 804.392 1575.78 804.517 1575.78 804.663V805.079C1575.63 805.765 1575.63 806.452 1575.51 807.284C1575.24 810.614 1574.82 814.068 1574.41 817.376C1573.72 824.701 1572.89 831.901 1572.05 839.225C1571.78 841.431 1571.49 843.782 1571.22 846.009V846.841C1571.08 847.528 1571.08 847.673 1570.95 848.506C1570.54 851.544 1570.26 855.289 1572.2 857.911C1573.99 860.408 1577.46 860.824 1580.36 860.679C1583.96 860.533 1587.41 860.263 1591.01 860.117C1597.92 859.846 1604.97 860.387 1612.03 860.263C1615.48 860.117 1619.08 859.992 1622.54 859.846C1626.14 859.701 1629.59 859.701 1633.19 859.701C1640.24 859.846 1647.44 859.701 1654.5 859.846C1656.02 859.846 1657.54 859.992 1659.05 859.846C1659.47 859.846 1659.74 859.846 1660.03 859.701C1660.18 859.555 1660.3 859.555 1660.45 859.43C1661.41 858.744 1661.55 857.911 1661.41 856.808V855.976C1661.26 855.289 1661.26 854.603 1661.26 853.895H1661.34ZM1587.06 857.079C1585.25 857.225 1583.46 857.225 1581.67 857.349C1580.29 857.349 1578.75 857.495 1577.38 857.204C1576.28 857.058 1575.3 856.517 1574.76 855.539C1574.07 854.291 1574.07 852.772 1574.2 851.398C1574.2 849.734 1574.47 848.215 1574.61 846.55C1574.88 844.615 1575.18 842.68 1575.3 840.744C1576.13 833.69 1576.97 826.782 1577.65 819.728C1578.07 816.274 1578.34 812.819 1578.75 809.22C1578.9 806.723 1579.17 804.246 1579.03 801.749C1579.03 801.333 1579.03 800.771 1578.88 800.355C1579.44 800.355 1579.98 800.209 1580.54 800.209H1582.63C1583.31 800.209 1583.6 800.355 1584.02 800.48H1584.16C1584.16 800.896 1584.31 801.167 1584.31 801.729C1584.31 802.29 1584.46 802.831 1584.58 803.393C1584.73 804.767 1585 806.015 1585.27 807.264C1585.54 808.783 1585.83 810.302 1586.1 811.821C1586.25 812.091 1586.25 812.382 1586.25 812.799V812.944C1586.39 813.215 1586.39 813.36 1586.39 813.631C1586.54 815.296 1586.81 816.815 1586.95 818.479C1588.33 828.571 1589.99 838.684 1591.51 848.776C1591.93 851.398 1592.34 854.166 1592.61 856.808C1590.82 856.954 1588.87 857.079 1587.08 857.079H1587.06ZM1649.32 856.538C1645.72 856.538 1642.26 856.684 1638.81 856.538C1631.9 856.538 1625.12 856.538 1618.19 856.808C1611.13 857.079 1604.22 856.954 1597.3 856.808H1596.32C1595.21 848.922 1593.97 841.181 1592.72 833.295C1592.57 832.463 1592.45 831.63 1592.45 830.798C1594.26 830.236 1596.05 829.279 1597.71 828.447C1600.21 827.198 1602.83 825.95 1605.33 824.701C1606.58 824.014 1607.82 823.453 1609.07 822.766C1609.63 822.495 1610.18 822.204 1610.86 821.933C1610.86 822.204 1610.72 822.495 1610.72 822.912C1610.57 823.89 1610.57 824.992 1610.45 825.949C1610.3 827.468 1609.47 829.966 1611.28 831.068C1612.8 832.046 1614.46 830.798 1615.84 830.236C1618.04 829.258 1620.27 828.155 1622.62 827.198C1625.39 825.95 1628.42 824.701 1631.07 823.598C1632.17 823.182 1633.27 822.766 1634.25 822.204C1634.52 822.058 1634.67 821.933 1634.94 821.933V822.079C1635.08 823.598 1635.21 825.117 1635.35 826.636C1635.5 828.155 1635.08 830.382 1637.29 830.652C1638.12 830.798 1638.68 830.507 1639.37 830.236C1639.52 830.236 1639.64 830.09 1639.79 830.09C1639.79 830.09 1639.93 830.09 1639.93 829.945C1641.03 829.529 1642.01 829.112 1643.12 828.696C1645.88 827.593 1648.8 826.345 1651.69 825.096C1653.48 824.41 1655.29 823.577 1657.08 822.745C1657.08 829.653 1657.64 836.707 1657.64 843.637C1657.79 846.134 1657.64 848.61 1657.64 851.107C1657.64 852.48 1657.79 853.729 1657.79 855.123C1657.93 855.685 1657.93 856.101 1657.93 856.642C1655.16 856.496 1652.13 856.496 1649.36 856.496L1649.32 856.538Z" fill="url(#paint0_radial_2616_1465)"/>
<path id="Vector_21" d="M1661.74 784.27C1660.97 782.772 1659.22 781.69 1657.51 781.628C1657.06 779.859 1655.85 778.215 1654.27 777.3C1652.92 776.571 1651.13 776.467 1649.48 777.008C1648.05 775.718 1646.01 775.052 1643.86 775.198C1641.53 775.344 1639.37 776.405 1638.08 778.049C1637.39 778.839 1636.87 779.838 1636.39 781.149C1636.21 781.087 1636.02 781.045 1635.85 781.024C1634.29 780.671 1632.59 780.962 1631.07 781.836C1630.46 780.379 1629.17 779.276 1628.42 778.735C1627.01 777.695 1625.12 777.341 1623.41 777.778C1623.04 777.861 1622.72 777.965 1622.45 778.09C1619.66 776.155 1615.56 776.842 1613.05 779.693C1612.36 780.421 1611.8 781.232 1611.38 782.044C1610.88 781.773 1610.24 781.628 1609.55 781.649C1608.64 781.711 1607.72 782.065 1606.97 782.606C1606.37 781.94 1605.64 781.399 1604.89 781.087C1604.1 780.483 1602.77 780.691 1601.73 781.149C1601.44 780.546 1601.06 780.046 1600.65 779.693C1599.33 778.715 1597.63 778.402 1595.86 778.798C1593.8 779.276 1591.95 780.671 1591.05 782.418C1590.66 783.063 1590.43 783.792 1590.32 784.645C1587.97 784.374 1585.68 786.747 1584.73 788.411C1583.85 789.889 1583.92 791.845 1584.87 793.967C1583.79 794.404 1583 795.403 1582.77 796.672C1582.52 798.045 1583.02 799.377 1584.08 800.126C1584.39 800.334 1584.77 800.397 1585.14 800.314C1585.39 800.251 1585.62 800.147 1585.81 799.96C1585.77 800.272 1585.85 800.605 1586.06 800.896C1586.6 801.687 1587.47 801.5 1588.12 801.354C1588.24 801.333 1588.37 801.312 1588.51 801.271C1589.8 800.896 1591.01 800.272 1592.05 799.461C1592.7 800.875 1593.97 802.457 1595.69 802.79C1597.65 803.414 1599.88 803.206 1601.87 802.207C1602.41 803.789 1603.66 805.204 1605.2 805.932C1606.1 806.369 1607.12 806.598 1608.18 806.66C1608.18 806.743 1608.22 806.827 1608.24 806.91C1608.26 807.035 1608.3 807.16 1608.32 807.284C1609.16 810.531 1612.36 812.237 1615.17 812.466C1615.34 812.466 1615.5 812.466 1615.69 812.466C1617.5 812.466 1620.37 811.904 1621.29 810.385C1622.1 810.843 1622.97 811.134 1623.83 811.217C1625.62 811.363 1627.53 810.676 1629.09 809.303C1629.82 808.616 1630.65 807.742 1630.88 806.847C1631.32 807.035 1631.75 807.16 1632.21 807.243C1634.73 807.555 1637.37 807.056 1639.68 805.807C1640.85 805.079 1642.43 804.101 1642.97 802.603C1646.15 803.144 1649.13 800.73 1650.5 797.942C1650.56 797.692 1650.59 797.463 1650.59 797.255C1653.56 797.754 1656.79 796.61 1659.53 794.113C1662.59 791.678 1663.55 787.433 1661.74 784.208V784.27ZM1585.81 797.942C1585.52 797.567 1585.33 797.317 1585.58 796.859C1585.77 796.589 1586.14 796.464 1586.54 796.339C1587.2 796.11 1588.01 795.84 1588.06 794.695C1588.01 794.03 1587.72 793.426 1587.45 792.864C1587.18 792.323 1586.95 791.803 1586.91 791.22C1586.7 789.66 1588.14 788.224 1589.58 787.517C1589.85 787.454 1590.16 787.35 1590.43 787.204C1590.51 787.683 1590.62 788.182 1590.74 788.744C1590.93 789.244 1591.32 789.576 1591.82 789.66C1592.34 789.743 1592.88 789.514 1593.2 789.098C1593.49 788.703 1593.55 788.203 1593.36 787.787C1593.15 786.767 1592.9 785.602 1593.15 784.562C1593.7 782.751 1595.44 781.44 1597.38 781.44C1598.86 781.357 1599.5 782.127 1599.58 784.083C1599.71 784.687 1600.08 785.415 1600.73 785.54C1601.02 785.602 1601.48 785.54 1601.94 784.874C1602.02 784.728 1602.08 784.583 1602.14 784.395C1602.33 784.25 1602.48 784.062 1602.56 783.875C1602.85 783.625 1603.14 783.521 1603.48 783.542C1604.18 783.625 1604.89 784.333 1605.29 784.957C1605.41 785.165 1605.49 785.436 1605.58 785.727C1605.74 786.31 1605.95 786.955 1606.64 787.288H1606.72C1607.12 787.412 1607.49 787.288 1607.78 786.996C1608.22 786.539 1608.39 785.769 1608.3 785.207C1608.3 785.165 1608.34 785.124 1608.34 785.082C1608.76 784.687 1609.38 784.333 1609.9 784.437C1610.09 784.52 1610.34 784.603 1610.61 784.687C1610.53 785.706 1610.88 786.33 1611.67 786.559C1612.13 786.684 1612.65 786.559 1613.01 786.185C1613.34 785.852 1613.48 785.394 1613.38 784.936C1613.42 784.478 1613.55 784.021 1613.71 783.605C1614.5 781.877 1616.29 779.838 1618.69 779.755C1619.71 779.755 1620.68 780.15 1621.39 780.837L1621.58 781.066C1622.06 781.607 1622.58 782.231 1623.51 782.252C1623.83 782.21 1624.1 782.044 1624.26 781.753C1624.49 781.378 1624.49 780.858 1624.39 780.421C1624.72 780.358 1625.03 780.338 1625.3 780.379C1626.45 780.567 1627.55 781.357 1628.26 782.522C1628.36 782.71 1628.47 782.918 1628.55 783.105C1628.65 783.313 1628.74 783.521 1628.86 783.709C1628.28 784.416 1627.65 785.373 1627.82 786.226C1627.93 786.663 1628.22 787.017 1628.76 787.288C1629.15 787.412 1629.53 787.392 1629.86 787.204C1630.26 786.975 1630.55 786.518 1630.67 785.935C1631.38 784.728 1632.61 783.875 1633.98 783.667C1634.48 783.604 1635.02 783.667 1635.58 783.833C1635.46 784.499 1635.37 785.644 1636.41 786.247L1636.5 786.289H1636.58C1637.89 786.289 1638.2 784.895 1638.39 783.979C1638.43 783.813 1638.45 783.667 1638.5 783.521V783.417C1638.87 782.252 1639.22 781.024 1639.93 780.067C1641.43 777.986 1644.51 777.362 1646.88 778.59C1646.51 778.985 1646.22 779.401 1645.99 779.901C1645.86 780.358 1645.99 780.837 1646.36 781.191C1646.72 781.545 1647.21 781.711 1647.65 781.586C1648.13 781.482 1648.5 781.149 1648.67 780.691C1648.98 780.317 1649.42 779.984 1649.94 779.755C1650.96 779.276 1652.02 779.318 1652.94 779.859C1654.04 780.504 1654.77 781.753 1654.87 783.147C1654.87 783.376 1654.79 783.729 1654.68 784.062C1654.46 784.832 1654.14 785.893 1655.14 786.414L1655.27 786.455C1656.35 786.559 1657.18 785.602 1657.41 784.645C1657.41 784.583 1657.43 784.52 1657.45 784.458C1658.03 784.499 1658.53 784.791 1658.95 785.311C1659.7 786.268 1659.99 787.912 1659.64 789.16C1659.08 791.2 1657.22 792.573 1655.68 793.551C1653.08 795.257 1649.79 795.007 1647.84 792.947C1647.11 792.261 1646.17 792.053 1645.61 792.448C1645.38 792.615 1644.9 793.114 1645.47 794.362C1646.13 795.257 1647.11 796.048 1648.23 796.61C1648.05 796.797 1647.88 797.026 1647.73 797.276C1647.13 798.233 1646.07 799.481 1644.51 799.939C1643.03 800.459 1641.78 799.086 1641.28 798.42C1640.78 797.941 1640.06 797.921 1639.47 798.378C1639 798.732 1638.7 799.419 1639.1 800.147C1639.49 800.688 1639.95 801.167 1640.45 801.562C1640.35 801.708 1640.24 801.874 1640.14 802.02C1639.68 802.644 1639 803.081 1638.33 803.477C1636.66 804.413 1634.67 804.829 1632.71 804.663C1631.61 804.517 1630.59 803.809 1629.55 802.457C1629.46 802.374 1629.4 802.27 1629.34 802.124C1629.24 801.916 1629.09 801.645 1628.82 801.479C1628.36 801.146 1627.74 801.146 1627.22 801.479C1626.72 801.812 1626.49 802.395 1626.66 803.019C1627.13 803.997 1627.84 804.912 1628.67 805.641C1628.4 805.87 1628.13 806.182 1627.86 806.494C1627.22 807.264 1626.47 808.138 1625.12 808.45C1623.41 808.97 1621.77 807.825 1620.87 806.452L1620.81 806.39C1620.39 805.994 1619.77 805.932 1619.23 806.202C1618.83 806.41 1618.56 806.764 1618.48 807.16V807.638C1618.64 808.054 1618.87 808.471 1619.19 808.845C1618.98 808.928 1618.79 809.032 1618.58 809.116L1618.37 809.22C1616.96 809.823 1615.48 809.948 1614.23 809.594C1612.44 809.199 1611.13 807.971 1610.78 806.348C1611.3 806.161 1611.78 805.911 1612.26 805.599C1612.88 804.996 1613.09 804.288 1612.8 803.768C1612.67 803.539 1612.26 803.019 1611.05 803.289C1609.9 803.768 1608.84 804.142 1607.7 803.955C1605.95 803.768 1604.14 802.332 1604.22 800.48C1604.22 800.438 1604.22 800.397 1604.22 800.355C1604.35 800.168 1604.49 799.918 1604.56 799.606C1604.66 799.19 1604.62 798.628 1604.29 798.295C1604.08 798.066 1603.77 797.983 1603.45 798.046C1602.68 798.129 1602.12 798.607 1601.6 799.065C1601.21 799.398 1600.83 799.731 1600.35 799.898C1598.73 800.605 1595.88 800.938 1594.67 798.919C1594.24 798.295 1594.22 797.775 1594.19 797.276C1594.19 797.151 1594.19 797.047 1594.19 796.943C1594.19 796.922 1594.24 796.88 1594.28 796.797C1594.53 795.944 1594.36 795.216 1593.86 794.903C1593.36 794.612 1592.7 794.779 1592.03 795.403C1591.16 796.61 1590.28 797.401 1589.33 797.942C1588.62 798.358 1588.01 798.607 1587.43 798.691C1586.95 798.649 1586.47 798.836 1586.14 799.169C1586.2 798.649 1585.93 798.274 1585.7 797.983L1585.81 797.942Z" fill="url(#paint1_radial_2616_1465)"/>
</g>
</a>
<a href="/invasive_species" target="_top">
<g id="invasive_species">
<g id="Vector_22" style="mix-blend-mode:multiply">
<path d="M1034.84 568.862C1034.84 599.554 1148.83 599.575 1148.83 568.862C1148.83 538.148 1034.84 538.148 1034.84 568.862Z" fill="#E6E6E6"/>
</g>
<path id="Vector_23" d="M983.905 388.078C983.905 328.254 1032.41 279.75 1092.23 279.75C1152.06 279.75 1200.56 328.254 1200.56 388.078C1200.56 447.902 1092.23 566.552 1092.23 566.552C1092.23 566.552 983.905 447.923 983.905 388.078Z" fill="#231F20"/>
<path id="Vector_24" d="M1125.46 459.351C1164.87 441.005 1181.95 394.181 1163.6 354.767C1145.26 315.352 1098.43 298.273 1059.02 316.618C1019.61 334.964 1002.53 381.788 1020.87 421.203C1039.22 460.617 1086.04 477.696 1125.46 459.351Z" fill="white"/>
<path id="Vector_25" d="M1071.38 360.195C1068.68 360.195 1068.68 364.398 1071.38 364.398C1074.09 364.398 1074.09 360.195 1071.38 360.195ZM1130.6 402.165C1130.52 400.48 1130.42 398.836 1130.56 397.13C1130.73 395.194 1131.06 393.301 1131.42 391.407C1132.14 387.558 1133 383.646 1132.91 379.692C1132.81 373.429 1130.13 367.145 1125.94 362.525C1123.84 360.195 1121.28 358.301 1118.39 357.094C1114.79 355.596 1110.9 355.534 1107.05 355.846C1105.01 356.012 1102.97 356.262 1100.91 356.241C1098.85 356.241 1096.77 356.033 1094.75 355.679C1091.86 355.159 1089.05 354.285 1086.18 353.702C1087.41 351.06 1084.89 348.688 1082.25 349.187C1080.62 349.499 1078.75 351.538 1078.73 353.349C1075.52 353.786 1072.44 354.868 1069.39 355.929C1067.72 356.512 1065.99 357.115 1064.35 357.864C1064.16 356.886 1063.83 355.95 1063.31 355.097C1062.73 354.119 1061.96 353.224 1060.77 353.078C1060.48 353.037 1060.29 353.432 1060.44 353.64C1060.67 353.994 1060.71 354.472 1060.85 354.868C1061 355.305 1061.21 355.721 1061.37 356.158C1061.6 356.803 1061.71 357.427 1061.77 358.072C1061.5 357.718 1061.21 357.386 1060.98 357.094C1060.73 356.803 1060.5 356.532 1060.21 356.283C1059.58 355.762 1058.81 355.492 1058.17 355.013C1057.94 354.847 1057.59 355.138 1057.67 355.388C1057.88 355.991 1058.21 356.512 1058.61 357.011C1058.71 357.136 1058.81 357.282 1058.92 357.406C1058.94 357.427 1059.11 357.677 1059.17 357.739C1059.21 357.802 1059.31 357.968 1059.33 358.01C1059.73 358.676 1060.13 359.342 1060.31 360.07C1060.31 360.132 1060.35 360.174 1060.38 360.236C1059.79 360.715 1059.25 361.235 1058.77 361.839C1058.54 361.922 1058.34 362.109 1058.25 362.442C1057.9 363.836 1058.59 365.23 1059.21 366.458C1059.44 366.937 1059.71 367.374 1060.02 367.79C1059.73 368.331 1059.44 368.83 1059.02 369.288C1058.69 369.662 1058.34 369.954 1057.9 370.204C1057.57 370.412 1057.21 370.62 1057.03 370.953C1056.9 371.182 1056.94 371.452 1057.11 371.639C1057.77 372.347 1059.02 371.743 1059.67 371.306C1060.42 370.786 1061.02 370.12 1061.54 369.413C1061.62 369.496 1061.71 369.558 1061.81 369.642C1062.1 369.871 1062.39 370.079 1062.69 370.287C1062.62 370.495 1062.58 370.703 1062.52 370.911C1062.27 371.723 1062.08 372.638 1061.75 373.408C1061.6 373.741 1062 374.116 1062.27 373.824C1062.96 373.117 1063.77 372.68 1064.35 371.847C1064.45 371.702 1064.54 371.556 1064.62 371.39C1066.31 372.18 1068.1 372.721 1069.88 373.262C1071.11 373.637 1072.42 373.97 1073.55 374.594C1074.71 375.26 1075.86 375.905 1077.11 376.384C1077.19 376.529 1077.27 376.675 1077.36 376.821C1077.75 377.591 1078.15 378.36 1078.6 379.11C1079.06 379.838 1079.46 380.629 1079.79 381.419C1079.94 381.773 1080.04 382.148 1080.14 382.522C1079.85 382.439 1079.56 382.376 1079.27 382.335C1077.67 382.064 1075.96 381.96 1074.4 382.46C1070.51 383.687 1069.01 388.224 1070.45 391.844C1070.88 392.947 1072.03 393.259 1072.94 392.51C1074.21 391.47 1074.92 389.868 1076.21 388.848C1076.42 388.681 1076.67 388.536 1076.92 388.432C1076.98 388.473 1077.19 388.577 1077.23 388.598C1077.92 388.993 1078.5 389.576 1079.14 390.055C1082.62 392.635 1087.2 392.677 1090.88 390.471C1090.98 390.409 1091.07 390.346 1091.17 390.284C1091.28 393.551 1092.84 396.547 1095.23 398.898C1095.1 398.898 1094.96 398.898 1094.83 398.877C1093.04 398.773 1091.26 398.794 1089.44 398.669C1087.84 398.545 1086.26 398.524 1084.66 398.69C1083.24 398.836 1081.72 399.065 1080.54 399.918C1079.21 400.875 1078.65 402.561 1079.87 403.892C1080.73 404.808 1082.02 405.12 1083.2 405.307C1086.91 405.911 1090.73 405.307 1094.46 405.349C1096.54 405.349 1098.6 405.349 1100.68 405.307C1101.76 405.307 1102.85 405.349 1103.93 405.411C1104.63 405.453 1105.34 405.515 1105.99 405.37C1106.47 405.515 1106.97 405.619 1107.46 405.703C1110.48 406.181 1113.54 406.244 1116.58 406.431C1119.43 406.597 1122.34 406.91 1125.19 406.868C1125.34 407.118 1125.48 407.367 1125.61 407.638C1125.69 407.804 1125.78 407.992 1125.86 408.179C1125.86 408.158 1126.03 408.595 1126.05 408.678C1126.23 409.178 1126.38 409.719 1126.5 410.239C1126.55 410.447 1126.59 410.655 1126.63 410.863C1126.63 410.884 1126.67 411.175 1126.67 411.196C1126.67 411.3 1126.67 411.425 1126.69 411.529C1126.69 411.82 1126.71 412.091 1126.69 412.382C1126.69 412.549 1126.69 412.736 1126.67 412.902C1126.67 412.944 1126.63 413.277 1126.63 413.235C1126.44 414.484 1126.07 415.42 1125.3 416.44C1124.67 417.293 1123.76 418.105 1122.78 418.625C1122.76 418.625 1122.74 418.645 1122.72 418.645C1122.63 418.666 1122.55 418.708 1122.47 418.75C1122.24 418.833 1122.01 418.895 1121.78 418.958C1121.22 419.103 1120.66 419.228 1120.1 419.332C1119.99 419.332 1119.87 419.374 1119.76 419.374C1119.72 419.374 1119.68 419.374 1119.66 419.374C1119.64 419.374 1119.6 419.374 1119.53 419.374C1119.26 419.415 1119.01 419.436 1118.74 419.457C1118.1 419.519 1117.45 419.561 1116.81 419.582C1115.46 419.644 1114.12 419.623 1112.77 419.582C1107.49 419.436 1102.18 418.958 1096.94 418.333C1089.01 417.376 1081.1 416.377 1073.11 416.253C1068.7 416.19 1064.31 416.669 1060.19 418.25C1058.21 419.02 1056.42 419.956 1054.8 421.33C1053.38 422.537 1052.59 423.931 1052.41 425.804C1052.41 426.012 1052.45 426.178 1052.53 426.282C1052.59 426.657 1052.93 426.99 1053.36 426.802C1056.63 425.45 1060.1 424.389 1063.56 423.619C1067.35 422.766 1071.07 422.495 1074.92 422.974C1078.73 423.452 1082.47 424.305 1086.26 424.95C1090.13 425.595 1093.98 426.199 1097.89 426.532C1101.76 426.865 1105.63 427.073 1109.5 427.26C1112.38 427.406 1115.25 427.572 1118.14 427.51C1123.59 427.406 1129.77 426.428 1133.37 421.892C1138.34 415.607 1134.97 407.721 1130.67 402.124L1130.6 402.165ZM1081.93 352.204C1082.27 351.955 1082.6 351.726 1083.04 351.767C1083.2 351.767 1083.66 351.913 1083.74 352.1C1083.91 352.454 1083.43 352.745 1083.24 352.933C1083.14 353.037 1083.04 353.161 1082.97 353.286C1082.83 353.286 1082.68 353.265 1082.54 353.245C1082.06 353.224 1081.56 353.203 1081.08 353.224C1081.31 352.849 1081.56 352.496 1081.93 352.204ZM1076.9 388.453C1076.77 388.453 1076.73 388.348 1076.9 388.453ZM1082.14 402.623C1082.14 402.623 1082.14 402.581 1082.14 402.561C1082.14 402.581 1082.14 402.602 1082.14 402.623ZM1097.66 401.936C1094.48 401.936 1091.36 402.082 1088.18 402.311C1086.57 402.436 1084.99 402.519 1083.39 402.228C1083.29 402.228 1083.18 402.186 1083.08 402.165C1083.7 401.978 1084.39 401.812 1084.53 401.791C1085.89 401.624 1087.22 401.624 1088.57 401.666C1090.28 401.707 1091.96 401.687 1093.67 401.666C1094.56 401.645 1095.46 401.603 1096.33 401.52C1096.71 401.479 1097.08 401.437 1097.46 401.333C1097.58 401.312 1097.75 401.25 1097.91 401.187C1098.27 401.437 1098.62 401.666 1098.97 401.916C1098.54 401.916 1098.1 401.916 1097.66 401.916V401.936ZM1130.81 419.436C1129.48 421.288 1127.4 422.474 1125.19 423.14C1122.7 423.889 1120.3 424.076 1117.68 424.118C1114.85 424.16 1112 424.014 1109.17 423.889C1105.4 423.723 1101.62 423.535 1097.85 423.223C1094.15 422.911 1090.46 422.433 1086.78 421.871C1083.06 421.309 1079.35 420.539 1075.63 420.102C1071.42 419.582 1067.33 419.915 1063.21 420.893C1061.27 421.351 1059.42 422.037 1057.55 422.703C1059.04 421.892 1060.6 421.309 1062.25 420.83C1066.04 419.748 1069.88 419.499 1073.8 419.603C1077.88 419.728 1081.97 419.977 1086.03 420.393C1090.15 420.81 1094.27 421.434 1098.39 421.912C1103.57 422.516 1108.88 422.994 1114.1 423.036C1116.7 423.057 1119.37 422.974 1121.93 422.412C1124.59 421.829 1126.71 420.31 1128.27 418.063C1130.04 415.524 1130.31 412.257 1129.58 409.303C1129.27 408.096 1128.79 406.91 1128.19 405.828C1127.98 405.453 1127.73 405.078 1127.48 404.725C1127.4 404.621 1127.32 404.496 1127.23 404.392C1126.98 403.851 1126.48 403.435 1125.71 403.372C1123.26 403.143 1120.78 403.122 1118.31 402.956C1115.83 402.79 1113.33 402.685 1110.86 402.477C1108.63 402.311 1106.53 401.916 1104.49 400.958C1102.68 400.105 1100.89 399.044 1099.31 397.816C1096.6 395.756 1094.11 392.843 1094.25 389.264C1094.42 385.31 1097.16 381.919 1099.97 379.38C1103.74 375.947 1108.57 373.97 1112.31 370.516C1112.67 370.183 1112.31 369.475 1111.81 369.663C1107.24 371.41 1102.64 373.574 1098.85 376.717C1096.06 379.005 1093.48 381.919 1092.13 385.31C1092.09 385.352 1092.07 385.373 1092.02 385.414C1091.46 386.101 1090.84 386.788 1090.13 387.308C1087.07 389.535 1083.12 389.472 1080.18 387.1C1079.46 386.497 1078.67 385.831 1077.75 385.581C1076.67 385.269 1075.65 385.643 1074.75 386.247C1074.09 386.705 1073.55 387.308 1073.05 387.932C1073.17 387.391 1073.38 386.871 1073.73 386.392C1074.48 385.394 1075.73 385.123 1076.94 385.102C1078.54 385.082 1079.94 385.685 1081.52 385.851C1082.43 385.935 1083.35 385.851 1084.03 385.186C1084.58 384.665 1084.97 383.833 1084.68 383.063C1084.49 382.585 1083.83 382.439 1083.54 382.834C1083.12 380.899 1082.12 379.068 1080.89 377.528C1080.77 377.362 1080.62 377.195 1080.5 377.049C1080.79 377.049 1081.06 377.091 1081.33 377.091C1082.74 377.154 1084.18 377.174 1085.53 376.758C1086.97 376.321 1088.32 375.551 1089.44 374.532C1090.53 373.554 1091.5 372.201 1091.19 370.682C1091.11 370.308 1090.67 370.204 1090.36 370.349C1089.36 370.828 1088.61 371.66 1087.78 372.368C1087.01 373.033 1086.07 373.616 1085.12 373.949C1083.99 374.324 1082.91 374.303 1081.72 374.261C1080.62 374.22 1079.5 374.074 1078.46 373.741C1077.42 373.408 1076.52 372.68 1075.59 372.118C1074.46 371.431 1073.34 370.973 1072.09 370.557C1069.95 369.85 1067.7 369.288 1065.66 368.289C1065.81 367.519 1065.93 366.708 1066.01 365.938C1066.14 364.918 1066.01 363.774 1064.97 363.295C1064.45 363.045 1063.93 363.149 1063.58 363.503C1063.37 363.191 1062.96 363.045 1062.6 363.025C1061.77 362.983 1061.52 363.67 1061.37 364.336C1061.35 364.294 1061.31 364.232 1061.29 364.19C1061 363.67 1060.46 363.233 1060.17 362.713C1062.98 360.985 1066.2 359.945 1069.3 358.884C1072.84 357.698 1076.48 356.366 1080.25 356.116C1081.62 356.033 1082.97 356.116 1084.28 356.324C1084.1 356.47 1083.93 356.595 1083.76 356.761C1082.2 358.114 1080.48 360.777 1081.37 362.9C1081.58 363.358 1082.22 363.337 1082.54 363.045C1083.22 362.4 1083.54 361.506 1084.06 360.736C1084.51 360.07 1085.07 359.446 1085.74 359.009C1086.34 358.592 1087.2 358.155 1087.82 358.093C1088.4 358.031 1088.88 358.156 1089.15 358.488C1090.01 359.654 1089.51 361.36 1088.45 362.276C1087.78 362.837 1086.89 363.129 1086.07 363.378C1085.66 363.503 1085.26 363.628 1084.85 363.711C1084.33 363.815 1083.78 363.815 1083.29 364.127C1082.6 364.564 1082.43 365.355 1082.77 366.063C1083.39 367.394 1085.07 367.186 1086.26 366.978C1087.38 366.77 1088.53 366.333 1089.55 365.792C1091.59 364.689 1092.98 362.546 1093.11 360.236C1093.15 359.55 1093.04 358.863 1092.82 358.218C1096.42 358.925 1100.02 359.196 1103.7 358.842C1107.51 358.468 1111.52 357.906 1115.29 358.905C1118.01 359.612 1120.49 361.214 1122.51 363.17C1126.53 367.061 1129.21 372.659 1129.63 378.194C1129.92 382.252 1129.04 386.247 1128.27 390.2C1127.86 392.344 1127.46 394.487 1127.25 396.672C1127.05 398.773 1127.21 400.792 1127.27 402.894C1127.27 403.206 1127.36 403.455 1127.48 403.684C1127.52 403.788 1127.59 403.913 1127.67 404.017C1130.9 408.179 1134.35 414.505 1130.81 419.395V419.436Z" fill="#231F20"/>
</g>
</a>
</g>
<defs>
<radialGradient id="paint0_radial_2616_1465" cx="0" cy="0" r="1" gradientUnits="userSpaceOnUse" gradientTransform="translate(1616.13 829.029) scale(39.1406 39.1406)">
<stop offset="0.57" stop-color="#130C0E"/>
<stop offset="0.8" stop-color="#130C0E"/>
<stop offset="1" stop-color="#130C0E"/>
</radialGradient>
<radialGradient id="paint1_radial_2616_1465" cx="0" cy="0" r="1" gradientUnits="userSpaceOnUse" gradientTransform="translate(1622.68 793.842) scale(31.1918 31.1917)">
<stop offset="0.57" stop-color="#130C0E"/>
<stop offset="0.8" stop-color="#130C0E"/>
<stop offset="1" stop-color="#130C0E"/>
</radialGradient>
</defs>
</svg>
