<svg width="304" height="254" viewBox="0 0 304 254" fill="none" xmlns="http://www.w3.org/2000/svg">
<g id="FrontPageIcons-SM">
<a href="/landuse_change">
<g id="land_use_change" target="_top">
<path id="Vector" d="M13 102.794C13 92.1718 21.6127 83.5591 32.235 83.5591C42.8573 83.5591 51.47 92.1718 51.47 102.794C51.47 113.416 32.235 134.486 32.235 134.486C32.235 134.486 13 113.416 13 102.794Z" fill="#231F20"/>
<path id="Vector_2" d="M38.1407 115.457C45.1384 112.2 48.1707 103.887 44.9136 96.8895C41.6565 89.8918 33.3433 86.8595 26.3457 90.1166C19.348 93.3737 16.3157 101.687 19.5728 108.685C22.8299 115.682 31.1431 118.715 38.1407 115.457Z" fill="white"/>
<path id="Vector_3" d="M37.4504 97.3508C36.9799 97.7974 36.4616 98.1762 35.9033 98.4991C35.3451 98.8221 34.759 99.0813 34.2366 99.472C33.2318 100.226 32.5181 101.322 32.1313 102.51C32.1393 101.841 32.1432 101.175 32.1672 100.505C32.1911 99.8349 32.2549 99.165 32.4024 98.5111C32.9088 98.3556 33.3434 98.0645 33.7581 97.7296C34.1489 97.4186 34.4918 97.0438 34.747 96.6131C35.0341 96.1307 35.1736 95.6083 35.2454 95.0541C35.2853 94.7351 35.3092 94.4201 35.3291 94.1011C35.3491 93.7901 35.373 93.4751 35.3451 93.1601C35.3212 92.8929 35.0341 92.7653 34.8267 92.9448C34.5955 93.1441 34.3722 93.3555 34.1329 93.5468C33.9256 93.7143 33.6983 93.8499 33.479 93.9974C33.0364 94.2925 32.6257 94.6434 32.2948 95.062C31.9558 95.4927 31.6887 95.9951 31.6209 96.5493C31.585 96.8444 31.6289 97.1315 31.6608 97.4265C31.6767 97.5661 31.6887 97.7017 31.7246 97.8333C31.7445 97.913 31.7684 97.9967 31.7963 98.0725C31.8123 98.1164 31.8402 98.1562 31.8641 98.1961C31.6887 98.7065 31.581 99.2328 31.5053 99.7711C31.3936 99.5079 31.262 99.2527 31.1225 99.0095C30.8274 98.4912 30.4845 97.9608 30.0818 97.5182C29.711 97.1115 29.2405 96.8205 28.7699 96.5453C28.4749 96.3739 28.1639 96.2383 27.8568 96.0908C27.5418 95.9393 27.2548 95.7399 26.9677 95.5326C26.7842 95.401 26.545 95.5804 26.541 95.7798C26.541 95.9432 26.6008 96.0668 26.6726 96.2064C26.7404 96.346 26.7842 96.4975 26.8361 96.645C26.9398 96.9441 27.0793 97.2351 27.187 97.5342C27.4103 98.1483 27.5578 98.7862 27.7811 99.4003C28.1639 100.437 28.8656 101.318 29.707 102.02C29.9582 102.227 30.2134 102.415 30.4925 102.582C30.632 102.666 30.7596 102.77 30.9032 102.849C31.0228 102.913 31.1504 102.965 31.2421 103.065C31.274 103.101 31.3099 103.124 31.3458 103.136C31.3378 103.459 31.3338 103.782 31.3258 104.101C31.278 103.994 31.2222 103.89 31.1663 103.786C30.947 103.376 30.632 103.033 30.2572 102.762C29.8944 102.502 29.4677 102.323 29.0371 102.219C28.5227 102.096 28.0044 102.052 27.506 101.864C27.3225 101.797 27.1072 102.008 27.175 102.195C27.2747 102.459 27.4422 102.67 27.5897 102.909C27.7332 103.144 27.821 103.408 27.9286 103.659C28.1399 104.153 28.423 104.616 28.754 105.038C29.069 105.445 29.4558 105.788 29.9343 105.991C30.3769 106.183 30.8434 106.302 31.3179 106.342C31.3298 106.653 31.3498 106.964 31.3777 107.275C31.4016 107.53 31.4136 107.786 31.4614 108.037C31.2541 108.049 31.0507 108.073 30.8474 108.121C30.1177 108.292 29.4318 108.759 28.9055 109.277C28.6025 109.576 28.1958 110.003 28.0682 110.457C28.0602 110.469 28.0562 110.481 28.0522 110.497C27.9366 110.812 27.9685 111.207 28.2037 111.462C28.4191 111.693 28.7181 111.773 29.0212 111.821C29.7349 111.941 30.4446 111.813 31.1544 111.721C31.892 111.626 32.6457 111.526 33.3913 111.53C34.0811 111.534 34.8028 111.578 35.4727 111.37C36.0788 111.179 36.4416 110.637 36.2024 110.015C35.9831 109.444 35.4886 109.066 34.9543 108.802C34.3363 108.499 33.6584 108.328 32.9886 108.184C32.7493 108.133 32.5061 108.093 32.2629 108.065C32.231 107.885 32.1991 107.71 32.1831 107.527C32.1432 107.072 32.0994 106.617 32.0914 106.163C32.0834 105.856 32.0834 105.549 32.0834 105.242C32.7493 105.25 33.4112 105.118 34.0412 104.903C34.6752 104.684 35.2733 104.376 35.7598 103.91C36.003 103.679 36.2303 103.435 36.4217 103.156C36.621 102.865 36.7566 102.534 36.8842 102.211C37.0198 101.876 37.1474 101.537 37.2511 101.191C37.3587 100.832 37.4105 100.469 37.4544 100.098C37.5062 99.6993 37.586 99.3046 37.6538 98.9059C37.7295 98.4712 37.7933 98.0326 37.905 97.606C37.9728 97.3348 37.6418 97.1474 37.4424 97.3348L37.4504 97.3508ZM32.1233 97.4345C32.1153 97.1514 32.0874 96.8763 32.1393 96.5932C32.223 96.1147 32.5021 95.6801 32.8251 95.3292C33.1481 94.9823 33.5269 94.6992 33.9256 94.44C34.2246 94.2446 34.5038 94.0293 34.7709 93.802C34.7629 94.1569 34.7231 94.5158 34.6872 94.8627C34.6314 95.3611 34.5237 95.8356 34.2725 96.2742C34.0492 96.661 33.7502 96.9839 33.4072 97.267C33.156 97.4744 32.8929 97.6618 32.6058 97.8053C32.7533 97.3907 32.9607 96.9959 33.176 96.6131C33.2916 96.4098 33.4152 96.2104 33.5388 96.015C33.5986 95.9193 33.6584 95.8156 33.6983 95.708C33.7422 95.6003 33.7502 95.4807 33.7661 95.3651C33.7741 95.3132 33.7143 95.2853 33.6824 95.3292C33.6146 95.4289 33.5229 95.4967 33.4471 95.5844C33.3833 95.6601 33.3155 95.7359 33.2557 95.8157C33.1201 95.9951 32.9806 96.1705 32.853 96.3539C32.6058 96.7088 32.3665 97.0757 32.1751 97.4624C32.1592 97.4943 32.1432 97.5262 32.1313 97.5541C32.1313 97.5143 32.1273 97.4704 32.1233 97.4265V97.4345ZM30.333 101.793C29.9183 101.486 29.5315 101.139 29.1966 100.748C28.8656 100.365 28.5905 99.9386 28.3872 99.476C28.1439 98.9258 28.0203 98.3197 27.8249 97.7495C27.7133 97.4186 27.5897 97.0876 27.4541 96.7646C27.4182 96.6769 27.3863 96.5932 27.3544 96.5055C28.0442 96.9082 28.8138 97.1913 29.4239 97.7296C29.8306 98.0884 30.1256 98.5629 30.4247 99.0135C30.7357 99.48 31.0228 99.9585 31.2022 100.493C31.278 100.72 31.3498 100.955 31.3936 101.195C31.3936 101.294 31.3857 101.398 31.3857 101.498C31.1105 100.967 30.7915 100.457 30.4406 99.9745C30.1735 99.6076 29.9303 99.2129 29.6272 98.8739C29.4837 98.7145 29.3282 98.5749 29.1567 98.4433C28.9972 98.3237 28.7899 98.22 28.6583 98.0725C28.6065 98.0127 28.5267 98.0884 28.5546 98.1522C28.7181 98.4832 28.9932 98.7464 29.1886 99.0574C29.396 99.3843 29.5834 99.7312 29.7867 100.066C29.9981 100.409 30.2134 100.748 30.4127 101.099C30.6201 101.454 30.7836 101.833 30.967 102.199C30.7596 102.064 30.5403 101.944 30.337 101.797L30.333 101.793ZM29.1408 104.636C28.8457 104.249 28.5825 103.826 28.3951 103.376C28.2994 103.148 28.2157 102.917 28.0921 102.702C28.0682 102.662 28.0442 102.622 28.0163 102.582C28.6703 102.726 29.3401 102.79 29.9223 103.164C30.2692 103.388 30.5523 103.691 30.7517 104.05C30.8633 104.253 30.975 104.456 31.0786 104.668C30.9231 104.52 30.7596 104.384 30.6001 104.241C30.3609 104.026 30.1336 103.81 29.8784 103.611C29.7548 103.515 29.6272 103.42 29.4917 103.348C29.3561 103.276 29.2125 103.224 29.081 103.144C29.0172 103.105 28.9255 103.188 28.9733 103.252C29.1288 103.479 29.3282 103.691 29.5156 103.89C29.7189 104.105 29.9143 104.329 30.1177 104.548C30.321 104.767 30.5403 104.971 30.7477 105.186C30.8474 105.29 30.947 105.401 31.0467 105.509C31.0906 105.557 31.1384 105.605 31.1863 105.652C31.2062 105.672 31.2979 105.788 31.274 105.724C31.274 105.732 31.282 105.74 31.286 105.748C30.9032 105.716 30.5244 105.629 30.1695 105.481C29.7508 105.31 29.4159 104.995 29.1448 104.64L29.1408 104.636ZM34.0811 109.217C34.5317 109.369 35.0062 109.576 35.3371 109.927C35.4567 110.054 35.5764 110.242 35.5963 110.401C35.6043 110.489 35.5963 110.501 35.5484 110.565C35.5245 110.593 35.4528 110.649 35.389 110.677C34.8945 110.904 34.2446 110.856 33.7143 110.852C33.0922 110.848 32.4742 110.892 31.8601 110.964C31.1703 111.043 30.4805 111.183 29.7827 111.207C29.4877 111.219 29.1687 111.219 28.8816 111.143C28.8018 111.119 28.6982 111.083 28.6543 111.007C28.5905 110.9 28.5905 110.708 28.5786 110.589V110.581C28.746 110.262 29.053 109.999 29.3162 109.775C29.7149 109.428 30.1575 109.109 30.656 108.918C30.975 108.794 31.3139 108.747 31.6528 108.747C31.6648 108.775 31.6767 108.806 31.6927 108.834C31.7764 109.002 31.9997 109.002 32.1233 108.89C32.1592 108.858 32.1911 108.822 32.215 108.787C32.2629 108.794 32.3147 108.798 32.3626 108.806C32.9447 108.894 33.5308 109.038 34.0891 109.225L34.0811 109.217ZM36.8005 100.573C36.7207 100.919 36.6091 101.266 36.4815 101.597C36.2542 102.187 36.015 102.766 35.5644 103.228C35.1378 103.667 34.6553 103.99 34.0851 104.209C33.6226 104.384 33.1481 104.516 32.6616 104.572C32.8331 104.432 33.0045 104.293 33.164 104.141C33.5588 103.766 33.9216 103.356 34.2605 102.925C34.5915 102.502 34.9663 102.1 35.2574 101.649C35.4089 101.418 35.5325 101.179 35.6641 100.935C35.7877 100.704 35.8993 100.457 35.9153 100.194C35.9193 100.122 35.8196 100.102 35.7837 100.158C35.5166 100.592 35.2414 101.027 34.9105 101.418C34.5835 101.805 34.2127 102.16 33.8658 102.53C33.5229 102.901 33.1879 103.28 32.8211 103.623C32.6257 103.806 32.4144 103.962 32.207 104.129C32.1991 104.137 32.1871 104.145 32.1791 104.153C32.2031 104.058 32.223 103.958 32.2469 103.862C32.3227 103.543 32.4024 103.224 32.4981 102.913C32.6815 102.311 32.9487 101.745 33.2996 101.223C33.6385 100.716 34.0572 100.258 34.5556 99.9067C35.054 99.5558 35.6083 99.3165 36.1306 99.0135C36.5014 98.7982 36.8603 98.559 37.1952 98.2958C37.1115 98.7224 37.0397 99.1491 36.96 99.5757C36.8962 99.9067 36.8683 100.246 36.7965 100.573H36.8005Z" fill="#231F20"/>
<g id="Vector_4" style="mix-blend-mode:multiply">
<path d="M22.1152 134.901C22.1152 140.351 42.359 140.351 42.359 134.901C42.359 129.45 22.1152 129.45 22.1152 134.901Z" fill="#E6E6E6"/>
</g>
</g>
</a>
<a href="/social_wellbeing" target="_top">
<g id="social_wellbeing">
<g id="Vector_5" style="mix-blend-mode:multiply">
<path d="M245.115 128.9C245.115 134.35 265.359 134.35 265.359 128.9C265.359 123.449 245.115 123.449 245.115 128.9Z" fill="#E6E6E6"/>
</g>
<path id="Vector_6" d="M236 96.7937C236 86.1716 244.613 77.5591 255.235 77.5591C265.857 77.5591 274.469 86.1716 274.469 96.7937C274.469 107.416 255.235 128.485 255.235 128.485C255.235 128.485 236 107.416 236 96.7937Z" fill="#231F20"/>
<path id="Vector_7" d="M261.132 109.442C268.13 106.185 271.162 97.8721 267.905 90.8746C264.648 83.877 256.335 80.8448 249.337 84.1018C242.34 87.3589 239.308 95.6719 242.565 102.669C245.822 109.667 254.135 112.699 261.132 109.442Z" fill="white"/>
<path id="Vector_8" d="M262.843 98.1854C262.587 97.7867 262.129 97.6431 261.674 97.6152V97.4717C261.646 97.3561 261.619 97.2444 261.531 97.1567C261.359 96.9852 261.072 96.8417 260.845 96.7859C260.303 96.6702 259.788 96.8696 259.334 97.1288C259.218 96.9852 258.935 96.9294 258.764 96.9573C258.305 96.9852 257.934 97.2444 257.536 97.4717C257.165 97.699 256.766 97.8983 256.367 98.0698C256.14 98.1535 255.941 98.2133 255.709 98.2691C255.626 98.2691 255.538 98.2691 255.454 98.2971C255.37 98.2691 255.283 98.2412 255.199 98.2412C255.143 98.2133 255.055 98.2133 255 98.2133C255.343 98.0977 255.626 97.9581 255.885 97.699C256.2 97.4119 256.455 96.9015 256.284 96.4709C256.228 96.2994 255.969 96.0721 255.969 96.0721C255.969 96.0721 255.829 95.9565 255.223 95.9047C254.513 95.8409 253.827 95.8728 253.572 95.8449C252.543 95.7891 251.431 95.5299 250.406 95.8728C249.864 96.0442 249.35 96.3871 248.979 96.8138C248.951 96.8417 248.895 96.8975 248.863 96.9573C248.863 96.8138 248.78 96.7021 248.636 96.6423C248.321 96.5586 248.066 96.4709 247.723 96.4709C247.352 96.443 246.894 96.4988 246.666 96.8417C246.523 97.069 246.583 97.3561 246.583 97.6392C246.555 97.7827 246.555 97.9541 246.555 98.0937C246.499 99.1224 246.439 100.147 246.439 101.176V101.862C246.439 102.033 246.439 102.205 246.495 102.348C246.551 102.52 246.666 102.603 246.838 102.603C247.037 102.631 247.264 102.631 247.464 102.631C247.607 102.631 247.663 102.659 247.807 102.659C248.094 102.743 248.433 102.659 248.636 102.432C249.007 102.432 249.378 102.376 249.72 102.376H250.861C251.63 102.376 252.372 102.432 253.114 102.492C253.855 102.547 254.625 102.635 255.366 102.663C256.052 102.663 256.706 102.52 257.336 102.209C258.449 101.722 259.334 100.869 260.446 100.382C261.044 100.127 261.702 100.012 262.245 99.6408C262.699 99.3258 263.186 98.7556 262.843 98.1854ZM248.293 97.7588C248.265 97.9023 248.265 98.0459 248.265 98.1854C248.237 98.6439 248.181 99.0985 248.181 99.5251C248.153 100.295 248.098 101.036 248.066 101.81V101.953H247.95C247.922 101.953 247.894 101.953 247.894 101.925C247.779 101.925 247.667 101.925 247.551 101.898H247.125V101.67C247.125 101.587 247.097 101.471 247.097 101.355C247.097 100.897 247.125 100.414 247.153 99.9278C247.153 99.4414 247.181 98.9589 247.209 98.4446C247.209 98.1575 247.236 97.8465 247.236 97.5594C247.236 97.4757 247.181 97.2723 247.236 97.2165C247.264 97.1328 247.492 97.1328 247.579 97.1328C247.667 97.1328 247.779 97.1328 247.866 97.1607H248.01C248.126 97.1886 248.237 97.2165 248.353 97.2763C248.325 97.4478 248.297 97.6192 248.297 97.7628L248.293 97.7588ZM260.307 97.36C260.622 97.2763 261.136 97.3321 261.335 97.6152C261.28 97.6152 261.22 97.6431 261.164 97.6431C260.881 97.671 260.594 97.7588 260.307 97.8425C260.135 97.8983 259.992 97.9581 259.82 98.0419C259.705 98.0977 259.593 98.1854 259.505 98.2691C259.39 98.297 259.278 98.325 259.19 98.3529C258.935 98.4366 258.676 98.5243 258.449 98.6081C258.162 98.7237 257.906 98.7795 257.619 98.7795C258.046 98.636 258.449 98.4087 258.819 98.1535C259.274 97.8385 259.76 97.4677 260.303 97.356L260.307 97.36ZM257.308 98.2452C257.623 98.0738 257.934 97.8744 258.249 97.675C258.421 97.5594 258.564 97.4757 258.736 97.4198C258.764 97.4198 258.851 97.3919 258.963 97.3919C258.477 97.7069 258.022 98.0498 257.48 98.2492C257.308 98.305 257.109 98.3927 256.91 98.4207C257.053 98.3648 257.165 98.305 257.308 98.2492V98.2452ZM262.161 98.8433C261.989 99.0427 261.762 99.1583 261.535 99.2699C260.993 99.5251 260.394 99.6408 259.852 99.8959C258.855 100.382 258.026 101.124 257.057 101.579C256.487 101.866 255.945 101.949 255.347 101.949C254.661 101.949 253.979 101.866 253.293 101.806C252.524 101.75 251.754 101.69 250.98 101.662H249.808C249.465 101.69 249.15 101.718 248.839 101.718V101.291C248.867 100.323 248.923 99.3497 248.895 98.3808V97.8106C249.011 97.5833 249.21 97.3521 249.409 97.1846C249.724 96.8696 250.095 96.6423 250.522 96.4988C251.379 96.2436 252.32 96.443 253.205 96.5267C253.692 96.5825 254.174 96.5825 254.661 96.5825H255.175C255.319 96.5546 255.546 96.5267 255.662 96.6383C255.833 96.8098 255.518 97.1806 255.374 97.2962C255.087 97.5514 254.689 97.6391 254.29 97.6671C253.748 97.7229 253.15 97.7508 252.607 97.9222C252.324 98.006 252.065 98.0937 251.81 98.2093C251.555 98.325 251.268 98.4366 251.096 98.636C250.953 98.8074 251.012 99.0905 251.268 99.0905C251.555 99.0626 251.81 98.9191 252.065 98.8034C252.121 98.7755 252.149 98.7476 252.209 98.7476C252.292 98.7197 252.408 98.6918 252.496 98.6918C252.751 98.6639 253.038 98.6639 253.293 98.6639C253.891 98.6639 254.521 98.7476 255.119 98.8632C255.662 98.9789 256.204 99.2061 256.774 99.3497C257.316 99.4932 257.914 99.4932 258.457 99.2939C258.744 99.1782 259.027 99.0387 259.286 98.8951C259.402 98.8393 259.513 98.7516 259.629 98.6679C260.087 98.4964 260.542 98.3529 261.028 98.2971C261.399 98.2412 261.969 98.1535 262.229 98.4685C262.284 98.5243 262.284 98.5841 262.284 98.612C262.284 98.6958 262.229 98.7835 262.169 98.8393L262.161 98.8433Z" fill="#231F20"/>
<path id="Vector_9" d="M261.659 89.569C261.404 89.254 261.061 88.9988 260.662 88.8553C260.235 88.7117 259.777 88.7994 259.378 88.9709C258.92 89.1703 258.521 89.4853 258.178 89.8561C258.15 89.884 258.122 89.9119 258.062 89.9717C258.062 89.9438 258.034 89.9159 258.034 89.888C257.891 89.7165 257.719 89.573 257.548 89.4334C257.265 89.2061 256.89 89.0626 256.551 88.947C255.81 88.7755 255.068 88.8911 254.609 89.5451C254.123 90.1711 254.039 91.0283 254.211 91.7979C254.382 92.5953 254.952 93.3091 255.522 93.8792C255.837 94.2221 256.18 94.565 256.551 94.8761C256.751 95.0475 256.922 95.1911 257.121 95.3625C257.321 95.534 257.52 95.7054 257.747 95.8171C257.831 95.845 257.919 95.845 257.975 95.845C258.03 95.8729 258.118 95.8729 258.174 95.845C258.633 95.6735 259.059 95.3027 259.458 94.9877C259.829 94.7006 260.172 94.3617 260.487 94.0188C261.085 93.4207 261.687 92.7628 261.998 91.9653C262.169 91.5666 262.253 91.136 262.197 90.6814C262.141 90.2827 261.942 89.884 261.655 89.569H261.659ZM260.088 93.337C259.745 93.6799 259.43 93.9949 259.059 94.3059C258.888 94.4773 258.688 94.6488 258.517 94.7923C258.345 94.908 258.146 95.0196 257.975 95.1631C257.719 94.9917 257.46 94.7644 257.233 94.565C256.918 94.3099 256.663 94.0507 256.376 93.7955C255.833 93.3091 255.319 92.7668 254.976 92.1129C254.721 91.5706 254.689 90.8848 254.892 90.3146C254.976 90.0594 255.148 89.8002 255.351 89.6567C255.578 89.5132 255.837 89.4853 256.093 89.4853C256.408 89.5132 256.691 89.6288 256.978 89.7723C257.149 89.888 257.321 89.9717 257.464 90.1152C257.548 90.1711 257.608 90.2309 257.692 90.2867C257.692 90.3146 257.719 90.3146 257.719 90.3146C257.664 90.3704 257.604 90.3983 257.492 90.3704C257.408 90.3425 257.349 90.4542 257.377 90.5419C257.52 90.829 257.919 90.7971 258.146 90.6256C258.401 90.4262 258.633 90.199 258.86 89.9996C259.175 89.7723 259.49 89.573 259.857 89.4853C260.2 89.4015 260.542 89.5132 260.826 89.7125C261.368 90.1392 261.539 90.8529 261.368 91.4829C261.141 92.1966 260.598 92.7947 260.084 93.337H260.088Z" fill="#231F20"/>
</g>
</a>
<a href="/greenhouse_gas_emissions" target="_top">
<g id="greenhouse_gas_emissions">
<path id="Vector_10" d="M100 125.794C100 115.172 108.613 106.559 119.235 106.559C129.857 106.559 138.47 115.172 138.47 125.794C138.47 136.416 119.235 157.486 119.235 157.486C119.235 157.486 100 136.416 100 125.794Z" fill="#231F20"/>
<path id="Vector_11" d="M125.142 138.45C132.14 135.193 135.172 126.88 131.915 119.882C128.658 112.884 120.345 109.852 113.347 113.109C106.349 116.366 103.317 124.679 106.574 131.677C109.831 138.675 118.144 141.707 125.142 138.45Z" fill="white"/>
<path id="Vector_12" d="M125.41 129.323C125.286 128.904 124.724 129.052 124.429 129.128C124.234 129.175 124.21 129.375 124.282 129.494V129.742C124.258 129.865 124.258 130.013 124.329 130.136C124.401 130.284 124.577 130.332 124.748 130.332H124.995C125.095 130.332 125.167 130.356 125.266 130.284C125.438 130.184 125.438 129.989 125.438 129.817C125.438 129.646 125.462 129.474 125.414 129.327L125.41 129.323ZM124.943 129.841V129.865H124.672V129.765C124.672 129.718 124.672 129.642 124.648 129.57C124.72 129.57 124.82 129.546 124.896 129.546H124.943V129.841ZM125.41 127.556C125.286 127.138 124.724 127.285 124.429 127.361C124.234 127.409 124.21 127.608 124.282 127.728V127.975C124.258 128.099 124.258 128.246 124.329 128.37C124.401 128.517 124.577 128.541 124.748 128.565H124.995C125.095 128.565 125.167 128.565 125.266 128.517C125.438 128.418 125.438 128.222 125.438 128.051C125.438 127.879 125.462 127.708 125.414 127.56L125.41 127.556ZM124.943 128.071V128.095H124.672V127.995C124.672 127.947 124.672 127.872 124.648 127.8C124.72 127.8 124.82 127.776 124.896 127.776H124.943V128.071ZM121.159 129.323C121.036 128.904 120.47 129.052 120.179 129.128C119.983 129.175 119.959 129.375 120.055 129.494C120.031 129.566 120.031 129.666 120.031 129.742C120.031 129.865 120.007 130.013 120.079 130.136C120.151 130.284 120.326 130.332 120.498 130.332H120.769C120.868 130.332 120.94 130.356 121.016 130.284C121.187 130.184 121.211 129.989 121.187 129.817C121.187 129.646 121.211 129.474 121.163 129.327L121.159 129.323ZM120.693 129.841V129.865H120.446C120.446 129.841 120.422 129.793 120.422 129.765V129.57C120.494 129.57 120.569 129.546 120.641 129.546H120.689V129.841H120.693ZM121.159 127.556C121.036 127.138 120.47 127.285 120.179 127.361C119.983 127.409 119.959 127.608 120.055 127.728C120.031 127.8 120.031 127.875 120.031 127.975C120.031 128.099 120.007 128.246 120.079 128.37C120.151 128.517 120.326 128.541 120.498 128.565H120.769C120.868 128.565 120.94 128.565 121.016 128.517C121.187 128.418 121.211 128.222 121.187 128.051C121.187 127.879 121.211 127.708 121.163 127.56L121.159 127.556ZM120.693 128.071V128.095H120.446C120.446 128.071 120.422 128.023 120.422 127.995V127.8C120.494 127.8 120.569 127.776 120.641 127.776H120.689V128.071H120.693ZM116.909 129.323C116.785 128.904 116.223 129.052 115.928 129.128C115.733 129.175 115.709 129.375 115.804 129.494C115.781 129.566 115.781 129.666 115.781 129.742C115.781 129.865 115.757 130.013 115.828 130.136C115.928 130.284 116.1 130.332 116.247 130.332H116.518C116.618 130.332 116.69 130.356 116.789 130.284C116.937 130.184 116.961 129.989 116.937 129.817C116.937 129.646 116.961 129.474 116.913 129.327L116.909 129.323ZM116.466 129.865H116.195C116.195 129.841 116.195 129.793 116.171 129.765V129.57C116.243 129.57 116.319 129.546 116.391 129.546H116.438C116.438 129.646 116.462 129.742 116.462 129.841V129.865H116.466ZM116.909 127.556C116.785 127.138 116.223 127.285 115.928 127.361C115.733 127.409 115.709 127.608 115.804 127.728C115.781 127.8 115.781 127.875 115.781 127.975C115.781 128.099 115.757 128.246 115.828 128.37C115.928 128.517 116.1 128.541 116.247 128.565H116.518C116.618 128.565 116.69 128.565 116.789 128.517C116.937 128.418 116.961 128.222 116.937 128.051C116.937 127.879 116.961 127.708 116.913 127.56L116.909 127.556ZM116.466 128.095H116.195C116.195 128.071 116.195 128.023 116.171 127.995V127.8C116.243 127.8 116.319 127.776 116.391 127.776H116.438C116.438 127.875 116.462 127.971 116.462 128.071V128.095H116.466ZM124.425 129.128C124.23 129.175 124.206 129.375 124.278 129.494V129.742C124.254 129.865 124.254 130.013 124.325 130.136C124.397 130.284 124.573 130.332 124.744 130.332H124.991C125.091 130.332 125.163 130.356 125.262 130.284C125.434 130.184 125.434 129.989 125.434 129.817C125.434 129.646 125.458 129.474 125.41 129.327C125.286 128.908 124.724 129.056 124.429 129.132L124.425 129.128ZM124.943 129.841V129.865H124.672V129.765C124.672 129.718 124.672 129.642 124.648 129.57C124.72 129.57 124.82 129.546 124.896 129.546H124.943V129.841ZM124.278 127.971C124.254 128.095 124.254 128.242 124.325 128.366C124.397 128.513 124.573 128.537 124.744 128.561H124.991C125.091 128.561 125.163 128.561 125.262 128.513C125.434 128.414 125.434 128.218 125.434 128.047C125.434 127.875 125.458 127.704 125.41 127.556C125.286 127.138 124.724 127.285 124.429 127.361C124.234 127.409 124.21 127.608 124.282 127.728V127.975L124.278 127.971ZM124.896 127.776H124.943V128.095H124.672V127.995C124.672 127.947 124.672 127.872 124.648 127.8C124.72 127.8 124.82 127.776 124.896 127.776ZM120.179 129.128C119.983 129.175 119.959 129.375 120.055 129.494C120.031 129.566 120.031 129.666 120.031 129.742C120.031 129.865 120.007 130.013 120.079 130.136C120.151 130.284 120.326 130.332 120.498 130.332H120.769C120.868 130.332 120.94 130.356 121.016 130.284C121.187 130.184 121.211 129.989 121.187 129.817C121.187 129.646 121.211 129.474 121.163 129.327C121.04 128.908 120.474 129.056 120.183 129.132L120.179 129.128ZM120.693 129.841V129.865H120.446C120.446 129.841 120.422 129.793 120.422 129.765V129.57C120.494 129.57 120.569 129.546 120.641 129.546H120.689V129.841H120.693ZM120.179 127.357C119.983 127.405 119.959 127.604 120.055 127.724C120.031 127.796 120.031 127.871 120.031 127.971C120.031 128.095 120.007 128.242 120.079 128.366C120.151 128.513 120.326 128.537 120.498 128.561H120.769C120.868 128.561 120.94 128.561 121.016 128.513C121.187 128.414 121.211 128.218 121.187 128.047C121.187 127.875 121.211 127.704 121.163 127.556C121.04 127.138 120.474 127.285 120.183 127.361L120.179 127.357ZM120.693 128.071V128.095H120.446C120.446 128.071 120.422 128.023 120.422 127.995V127.8C120.494 127.8 120.569 127.776 120.641 127.776H120.689V128.071H120.693ZM115.928 129.128C115.733 129.175 115.709 129.375 115.804 129.494C115.781 129.566 115.781 129.666 115.781 129.742C115.781 129.865 115.757 130.013 115.828 130.136C115.928 130.284 116.1 130.332 116.247 130.332H116.518C116.618 130.332 116.69 130.356 116.789 130.284C116.937 130.184 116.961 129.989 116.937 129.817C116.937 129.646 116.961 129.474 116.913 129.327C116.789 128.908 116.227 129.056 115.932 129.132L115.928 129.128ZM116.466 129.865H116.195C116.195 129.841 116.195 129.793 116.171 129.765V129.57C116.243 129.57 116.319 129.546 116.391 129.546H116.438C116.438 129.646 116.462 129.742 116.462 129.841V129.865H116.466ZM115.928 127.357C115.733 127.405 115.709 127.604 115.804 127.724C115.781 127.796 115.781 127.871 115.781 127.971C115.781 128.095 115.757 128.242 115.828 128.366C115.928 128.513 116.1 128.537 116.247 128.561H116.518C116.618 128.561 116.69 128.561 116.789 128.513C116.937 128.414 116.961 128.218 116.937 128.047C116.937 127.875 116.961 127.704 116.913 127.556C116.789 127.138 116.227 127.285 115.932 127.361L115.928 127.357ZM116.466 128.095H116.195C116.195 128.071 116.195 128.023 116.171 127.995V127.8C116.243 127.8 116.319 127.776 116.391 127.776H116.438C116.438 127.875 116.462 127.971 116.462 128.071V128.095H116.466ZM124.425 129.128C124.23 129.175 124.206 129.375 124.278 129.494V129.742C124.254 129.865 124.254 130.013 124.325 130.136C124.397 130.284 124.573 130.332 124.744 130.332H124.991C125.091 130.332 125.163 130.356 125.262 130.284C125.434 130.184 125.434 129.989 125.434 129.817C125.434 129.646 125.458 129.474 125.41 129.327C125.286 128.908 124.724 129.056 124.429 129.132L124.425 129.128ZM124.943 129.841V129.865H124.672V129.765C124.672 129.718 124.672 129.642 124.648 129.57C124.72 129.57 124.82 129.546 124.896 129.546H124.943V129.841ZM124.278 127.971C124.254 128.095 124.254 128.242 124.325 128.366C124.397 128.513 124.573 128.537 124.744 128.561H124.991C125.091 128.561 125.163 128.561 125.262 128.513C125.434 128.414 125.434 128.218 125.434 128.047C125.434 127.875 125.458 127.704 125.41 127.556C125.286 127.138 124.724 127.285 124.429 127.361C124.234 127.409 124.21 127.608 124.282 127.728V127.975L124.278 127.971ZM124.896 127.776H124.943V128.095H124.672V127.995C124.672 127.947 124.672 127.872 124.648 127.8C124.72 127.8 124.82 127.776 124.896 127.776ZM120.179 129.128C119.983 129.175 119.959 129.375 120.055 129.494C120.031 129.566 120.031 129.666 120.031 129.742C120.031 129.865 120.007 130.013 120.079 130.136C120.151 130.284 120.326 130.332 120.498 130.332H120.769C120.868 130.332 120.94 130.356 121.016 130.284C121.187 130.184 121.211 129.989 121.187 129.817C121.187 129.646 121.211 129.474 121.163 129.327C121.04 128.908 120.474 129.056 120.183 129.132L120.179 129.128ZM120.693 129.841V129.865H120.446C120.446 129.841 120.422 129.793 120.422 129.765V129.57C120.494 129.57 120.569 129.546 120.641 129.546H120.689V129.841H120.693ZM120.179 127.357C119.983 127.405 119.959 127.604 120.055 127.724C120.031 127.796 120.031 127.871 120.031 127.971C120.031 128.095 120.007 128.242 120.079 128.366C120.151 128.513 120.326 128.537 120.498 128.561H120.769C120.868 128.561 120.94 128.561 121.016 128.513C121.187 128.414 121.211 128.218 121.187 128.047C121.187 127.875 121.211 127.704 121.163 127.556C121.04 127.138 120.474 127.285 120.183 127.361L120.179 127.357ZM120.693 128.071V128.095H120.446C120.446 128.071 120.422 128.023 120.422 127.995V127.8C120.494 127.8 120.569 127.776 120.641 127.776H120.689V128.071H120.693ZM115.928 129.128C115.733 129.175 115.709 129.375 115.804 129.494C115.781 129.566 115.781 129.666 115.781 129.742C115.781 129.865 115.757 130.013 115.828 130.136C115.928 130.284 116.1 130.332 116.247 130.332H116.518C116.618 130.332 116.69 130.356 116.789 130.284C116.937 130.184 116.961 129.989 116.937 129.817C116.937 129.646 116.961 129.474 116.913 129.327C116.789 128.908 116.227 129.056 115.932 129.132L115.928 129.128ZM116.466 129.865H116.195C116.195 129.841 116.195 129.793 116.171 129.765V129.57C116.243 129.57 116.319 129.546 116.391 129.546H116.438C116.438 129.646 116.462 129.742 116.462 129.841V129.865H116.466ZM115.928 127.357C115.733 127.405 115.709 127.604 115.804 127.724C115.781 127.796 115.781 127.871 115.781 127.971C115.781 128.095 115.757 128.242 115.828 128.366C115.928 128.513 116.1 128.537 116.247 128.561H116.518C116.618 128.561 116.69 128.561 116.789 128.513C116.937 128.414 116.961 128.218 116.937 128.047C116.937 127.875 116.961 127.704 116.913 127.556C116.789 127.138 116.227 127.285 115.932 127.361L115.928 127.357ZM116.466 128.095H116.195C116.195 128.071 116.195 128.023 116.171 127.995V127.8C116.243 127.8 116.319 127.776 116.391 127.776H116.438C116.438 127.875 116.462 127.971 116.462 128.071V128.095H116.466Z" fill="#231F20"/>
<path id="Vector_13" d="M126.786 131.289C126.738 130.846 126.762 130.404 126.762 129.985C126.762 129.642 126.762 129.295 126.738 128.952C126.714 128.043 126.691 127.134 126.639 126.225C126.615 125.93 126.591 125.635 126.591 125.34C126.567 125.192 126.419 125.021 126.248 125.093C125.387 125.436 124.577 125.806 123.744 126.149C123.425 126.297 123.082 126.444 122.763 126.544C122.739 126.496 122.739 126.444 122.739 126.421C122.715 126.149 122.691 125.878 122.667 125.587C122.619 125.316 122.568 124.997 122.201 124.973C122.053 124.973 121.882 125.073 121.734 125.145C121.71 125.168 121.686 125.168 121.662 125.192C121.615 125.216 121.563 125.216 121.539 125.24C121.048 125.436 120.558 125.659 120.064 125.854C119.597 126.074 119.107 126.273 118.64 126.492C118.516 126.54 118.393 126.592 118.297 126.664V126.592C118.321 126.492 118.321 126.373 118.321 126.249C118.321 126.078 118.321 125.906 118.345 125.735C118.345 125.587 118.369 125.44 118.321 125.292C118.273 125.097 118.074 124.973 117.878 125.021C117.683 125.045 117.46 125.192 117.288 125.292C116.846 125.511 116.403 125.735 115.961 125.954C115.741 126.078 115.518 126.173 115.299 126.297C115.079 126.421 114.856 126.516 114.661 126.64C114.613 126.688 114.537 126.712 114.489 126.763C114.39 126.149 114.294 125.535 114.218 124.945C114.094 124.283 113.999 123.617 113.851 122.979C113.803 122.708 113.728 122.437 113.68 122.17C113.632 122.046 113.632 121.951 113.608 121.775C113.584 121.604 113.508 121.432 113.361 121.357C113.114 121.209 112.795 121.233 112.551 121.257C112.308 121.281 112.061 121.329 111.838 121.452C111.766 121.476 111.738 121.576 111.766 121.648V121.672C111.766 121.695 111.742 121.719 111.742 121.743C111.718 121.767 111.718 121.815 111.718 121.867C111.718 121.891 111.694 121.939 111.694 121.967C111.67 122.09 111.67 122.186 111.646 122.286V122.457C111.646 122.481 111.622 122.505 111.622 122.529V122.601C111.598 122.724 111.598 122.848 111.574 122.995C111.527 123.585 111.451 124.2 111.379 124.79C111.255 126.09 111.108 127.37 110.96 128.669C110.913 129.064 110.861 129.479 110.813 129.874V130.021C110.789 130.145 110.789 130.169 110.765 130.316C110.693 130.858 110.641 131.52 110.984 131.987C111.303 132.429 111.917 132.501 112.436 132.477C113.074 132.453 113.688 132.406 114.326 132.378C115.554 132.33 116.806 132.425 118.058 132.402C118.672 132.378 119.31 132.354 119.924 132.33C120.562 132.306 121.176 132.306 121.814 132.306C123.066 132.33 124.342 132.306 125.598 132.33C125.869 132.33 126.14 132.354 126.407 132.33C126.479 132.33 126.531 132.33 126.579 132.306C126.603 132.282 126.627 132.282 126.651 132.258C126.822 132.134 126.846 131.987 126.822 131.791V131.644C126.798 131.52 126.798 131.397 126.798 131.277L126.786 131.289ZM113.596 131.855C113.277 131.879 112.958 131.879 112.639 131.903C112.392 131.903 112.125 131.927 111.878 131.879C111.682 131.855 111.511 131.756 111.411 131.584C111.287 131.365 111.287 131.094 111.311 130.846C111.311 130.551 111.359 130.28 111.383 129.985C111.431 129.642 111.483 129.295 111.507 128.952C111.654 127.7 111.802 126.472 111.925 125.22C111.997 124.606 112.049 123.992 112.121 123.354C112.145 122.912 112.193 122.469 112.169 122.026C112.169 121.955 112.169 121.855 112.145 121.779C112.244 121.779 112.34 121.755 112.44 121.755H112.807C112.93 121.755 112.978 121.779 113.054 121.803H113.078C113.078 121.875 113.102 121.927 113.102 122.022C113.102 122.118 113.126 122.218 113.149 122.318C113.173 122.565 113.221 122.784 113.273 123.003C113.321 123.274 113.373 123.546 113.421 123.813C113.445 123.861 113.445 123.912 113.445 123.984V124.008C113.468 124.056 113.468 124.08 113.468 124.132C113.492 124.427 113.54 124.698 113.568 124.993C113.815 126.787 114.11 128.578 114.378 130.372C114.449 130.838 114.525 131.329 114.573 131.795C114.254 131.819 113.911 131.843 113.592 131.843L113.596 131.855ZM124.649 131.756C124.011 131.756 123.397 131.78 122.783 131.756C121.555 131.756 120.351 131.756 119.123 131.803C117.871 131.851 116.642 131.827 115.414 131.803H115.243C115.047 130.404 114.824 129.028 114.605 127.629C114.581 127.481 114.557 127.334 114.557 127.186C114.876 127.086 115.195 126.915 115.49 126.767C115.933 126.548 116.399 126.325 116.842 126.106C117.061 125.982 117.284 125.886 117.504 125.763C117.603 125.715 117.699 125.663 117.823 125.615C117.823 125.663 117.799 125.715 117.799 125.787C117.775 125.958 117.775 126.153 117.751 126.329C117.727 126.6 117.579 127.043 117.898 127.238C118.17 127.409 118.465 127.19 118.708 127.09C119.103 126.919 119.493 126.724 119.912 126.548C120.402 126.329 120.945 126.106 121.411 125.91C121.607 125.838 121.806 125.763 121.977 125.663C122.025 125.639 122.049 125.615 122.101 125.615V125.639C122.125 125.91 122.149 126.181 122.173 126.448C122.197 126.72 122.125 127.11 122.516 127.162C122.663 127.186 122.763 127.138 122.883 127.09C122.907 127.09 122.93 127.066 122.954 127.066C122.954 127.066 122.978 127.066 122.978 127.043C123.174 126.971 123.345 126.895 123.545 126.823C124.035 126.628 124.553 126.405 125.068 126.185C125.387 126.062 125.706 125.914 126.025 125.767C126.025 126.995 126.124 128.247 126.124 129.475C126.148 129.917 126.124 130.36 126.124 130.803C126.124 131.05 126.148 131.269 126.148 131.516C126.172 131.616 126.172 131.688 126.172 131.787C125.682 131.764 125.139 131.764 124.649 131.764V131.756Z" fill="url(#paint0_radial_2616_1470)"/>
<path id="Vector_14" d="M126.854 118.924C126.718 118.656 126.407 118.465 126.104 118.457C126.024 118.142 125.809 117.851 125.53 117.687C125.291 117.556 124.972 117.54 124.677 117.636C124.422 117.404 124.063 117.289 123.68 117.313C123.269 117.341 122.882 117.528 122.651 117.819C122.532 117.959 122.436 118.138 122.352 118.369C122.32 118.361 122.288 118.353 122.256 118.345C121.981 118.282 121.674 118.333 121.407 118.489C121.299 118.23 121.072 118.034 120.941 117.939C120.689 117.755 120.354 117.691 120.051 117.771C119.988 117.787 119.932 117.807 119.88 117.827C119.382 117.484 118.656 117.604 118.209 118.11C118.086 118.238 117.986 118.381 117.914 118.529C117.822 118.481 117.711 118.453 117.591 118.457C117.432 118.469 117.268 118.529 117.133 118.628C117.025 118.509 116.897 118.417 116.762 118.357C116.622 118.25 116.383 118.286 116.2 118.369C116.148 118.262 116.08 118.174 116.008 118.11C115.773 117.935 115.474 117.883 115.159 117.955C114.792 118.038 114.465 118.286 114.306 118.597C114.238 118.712 114.194 118.84 114.178 118.991C113.759 118.943 113.353 119.362 113.181 119.661C113.026 119.924 113.038 120.271 113.209 120.65C113.018 120.73 112.878 120.905 112.838 121.133C112.794 121.376 112.882 121.611 113.07 121.747C113.125 121.782 113.193 121.794 113.257 121.782C113.301 121.775 113.341 121.751 113.377 121.719C113.369 121.775 113.385 121.834 113.42 121.886C113.516 122.026 113.672 121.994 113.787 121.97C113.807 121.966 113.831 121.962 113.859 121.954C114.086 121.886 114.306 121.779 114.489 121.635C114.605 121.886 114.828 122.165 115.135 122.225C115.482 122.337 115.877 122.297 116.232 122.121C116.327 122.405 116.551 122.652 116.822 122.783C116.981 122.859 117.161 122.903 117.348 122.911C117.348 122.927 117.356 122.943 117.356 122.955C117.36 122.975 117.364 122.999 117.372 123.023C117.519 123.597 118.09 123.9 118.588 123.944C118.616 123.944 118.648 123.944 118.684 123.944C119.007 123.944 119.517 123.844 119.677 123.573C119.82 123.653 119.976 123.704 120.127 123.72C120.446 123.748 120.785 123.625 121.06 123.381C121.192 123.258 121.335 123.102 121.379 122.943C121.459 122.975 121.535 122.999 121.614 123.015C122.061 123.07 122.532 122.983 122.942 122.759C123.15 122.632 123.433 122.456 123.524 122.189C124.091 122.285 124.621 121.858 124.86 121.36C124.868 121.316 124.876 121.276 124.876 121.236C125.402 121.324 125.977 121.125 126.467 120.678C127.013 120.247 127.181 119.49 126.858 118.92L126.854 118.924ZM113.373 121.352C113.321 121.288 113.289 121.244 113.333 121.16C113.369 121.113 113.432 121.089 113.504 121.065C113.62 121.025 113.767 120.973 113.775 120.77C113.767 120.65 113.715 120.546 113.668 120.443C113.62 120.347 113.576 120.255 113.568 120.148C113.528 119.873 113.783 119.617 114.042 119.49C114.09 119.478 114.146 119.458 114.194 119.434C114.206 119.518 114.226 119.609 114.25 119.709C114.286 119.801 114.353 119.857 114.441 119.873C114.533 119.885 114.629 119.849 114.684 119.773C114.736 119.705 114.748 119.613 114.712 119.538C114.672 119.358 114.629 119.151 114.676 118.963C114.772 118.644 115.083 118.409 115.426 118.409C115.689 118.393 115.801 118.533 115.817 118.88C115.841 118.987 115.909 119.119 116.02 119.139C116.072 119.151 116.156 119.139 116.236 119.023C116.251 118.999 116.263 118.971 116.271 118.936C116.307 118.908 116.331 118.88 116.343 118.844C116.395 118.8 116.447 118.78 116.507 118.784C116.634 118.796 116.758 118.924 116.83 119.035C116.854 119.075 116.866 119.123 116.881 119.171C116.913 119.274 116.949 119.386 117.069 119.45H117.085C117.153 119.47 117.22 119.45 117.272 119.398C117.352 119.318 117.38 119.179 117.364 119.079C117.364 119.071 117.368 119.067 117.372 119.059C117.444 118.987 117.559 118.928 117.651 118.947C117.687 118.959 117.731 118.979 117.775 118.991C117.759 119.171 117.822 119.286 117.962 119.326C118.046 119.35 118.133 119.326 118.197 119.258C118.257 119.199 118.281 119.115 118.265 119.039C118.273 118.955 118.293 118.876 118.325 118.8C118.464 118.493 118.783 118.13 119.206 118.114C119.386 118.114 119.561 118.186 119.689 118.31L119.724 118.349C119.808 118.445 119.904 118.553 120.067 118.561C120.123 118.553 120.171 118.525 120.199 118.473C120.239 118.405 120.243 118.313 120.223 118.238C120.283 118.226 120.338 118.226 120.386 118.23C120.59 118.262 120.785 118.405 120.913 118.609C120.933 118.64 120.949 118.676 120.964 118.712C120.98 118.748 121 118.784 121.02 118.82C120.917 118.947 120.805 119.115 120.837 119.266C120.853 119.346 120.909 119.41 121.004 119.454C121.076 119.478 121.144 119.474 121.2 119.438C121.272 119.398 121.323 119.314 121.343 119.215C121.467 118.999 121.686 118.852 121.929 118.812C122.017 118.8 122.113 118.812 122.217 118.84C122.193 118.959 122.181 119.163 122.364 119.266L122.38 119.274H122.396C122.631 119.274 122.683 119.027 122.719 118.864C122.727 118.836 122.731 118.808 122.739 118.784V118.768C122.803 118.561 122.866 118.345 122.994 118.17C123.261 117.803 123.807 117.691 124.23 117.907C124.162 117.979 124.111 118.054 124.075 118.138C124.055 118.218 124.075 118.306 124.138 118.369C124.202 118.433 124.29 118.461 124.37 118.441C124.453 118.425 124.521 118.365 124.553 118.282C124.609 118.214 124.689 118.158 124.78 118.114C124.96 118.03 125.151 118.034 125.315 118.13C125.51 118.246 125.642 118.469 125.658 118.712C125.658 118.752 125.642 118.816 125.626 118.876C125.586 119.011 125.53 119.199 125.709 119.294L125.733 119.302C125.925 119.322 126.076 119.151 126.112 118.979C126.112 118.967 126.116 118.959 126.12 118.947C126.224 118.955 126.312 119.007 126.387 119.099C126.519 119.27 126.575 119.562 126.507 119.781C126.407 120.144 126.08 120.387 125.805 120.558C125.343 120.861 124.76 120.818 124.41 120.451C124.278 120.327 124.115 120.291 124.011 120.359C123.971 120.387 123.887 120.479 123.987 120.698C124.107 120.857 124.278 120.997 124.477 121.097C124.445 121.129 124.414 121.168 124.39 121.212C124.282 121.384 124.095 121.603 123.819 121.687C123.556 121.782 123.337 121.535 123.245 121.416C123.158 121.332 123.026 121.328 122.926 121.408C122.843 121.471 122.791 121.591 122.862 121.723C122.934 121.818 123.014 121.902 123.102 121.974C123.082 122.002 123.066 122.03 123.046 122.058C122.962 122.169 122.843 122.245 122.727 122.317C122.432 122.484 122.077 122.56 121.726 122.528C121.531 122.504 121.347 122.377 121.164 122.137C121.148 122.121 121.14 122.101 121.128 122.078C121.108 122.038 121.084 121.99 121.036 121.962C120.953 121.902 120.841 121.902 120.753 121.962C120.665 122.022 120.626 122.125 120.653 122.233C120.737 122.405 120.865 122.568 121.012 122.7C120.964 122.743 120.917 122.795 120.869 122.851C120.753 122.987 120.622 123.142 120.382 123.202C120.079 123.294 119.784 123.09 119.629 122.847L119.617 122.835C119.541 122.767 119.433 122.755 119.338 122.803C119.266 122.839 119.218 122.903 119.206 122.975V123.058C119.234 123.13 119.278 123.206 119.33 123.274C119.294 123.29 119.258 123.306 119.222 123.322L119.182 123.342C118.931 123.449 118.672 123.469 118.448 123.405C118.129 123.338 117.898 123.118 117.834 122.827C117.926 122.795 118.014 122.751 118.094 122.692C118.201 122.584 118.241 122.456 118.189 122.365C118.165 122.325 118.094 122.233 117.878 122.277C117.675 122.361 117.488 122.428 117.284 122.393C116.973 122.361 116.654 122.105 116.67 121.779C116.67 121.771 116.67 121.763 116.67 121.755C116.694 121.723 116.718 121.675 116.73 121.623C116.75 121.551 116.742 121.452 116.682 121.388C116.642 121.348 116.59 121.332 116.535 121.344C116.395 121.36 116.299 121.444 116.208 121.523C116.136 121.583 116.072 121.643 115.984 121.671C115.697 121.798 115.191 121.854 114.975 121.495C114.896 121.388 114.896 121.292 114.892 121.204C114.892 121.184 114.892 121.164 114.892 121.145C114.892 121.141 114.9 121.133 114.904 121.121C114.948 120.969 114.92 120.841 114.828 120.786C114.74 120.734 114.625 120.762 114.501 120.877C114.345 121.089 114.194 121.232 114.019 121.328C113.895 121.404 113.787 121.448 113.68 121.464C113.596 121.456 113.508 121.487 113.448 121.547C113.46 121.456 113.408 121.388 113.369 121.336L113.373 121.352Z" fill="url(#paint1_radial_2616_1470)"/>
</g>
</a>
<a href="/water_quality" target="_top">
<g id="water_quality">
<path id="Vector_15" d="M189 195.794C189 185.172 197.613 176.559 208.235 176.559C218.857 176.559 227.47 185.172 227.47 195.794C227.47 206.416 208.235 227.486 208.235 227.486C208.235 227.486 189 206.416 189 195.794Z" fill="#231F20"/>
<path id="Vector_16" d="M214.141 208.443C221.138 205.186 224.171 196.873 220.914 189.875C217.656 182.878 209.343 179.845 202.346 183.102C195.348 186.36 192.316 194.673 195.573 201.67C198.83 208.668 207.143 211.7 214.141 208.443Z" fill="white"/>
<path id="Vector_17" d="M203.449 197.198C203.198 196.967 202.632 196.847 202.425 197.206C202.397 197.25 202.377 197.306 202.365 197.358C202.309 197.413 202.257 197.469 202.221 197.537C202.138 197.688 202.122 197.88 202.17 198.047C202.265 198.382 202.596 198.625 202.947 198.606C203.278 198.586 203.549 198.334 203.665 198.035C203.784 197.728 203.693 197.417 203.453 197.202L203.449 197.198ZM203.122 197.956C202.971 198.171 202.656 198.115 202.592 197.848C202.572 197.756 202.584 197.68 202.616 197.609C202.724 197.581 202.819 197.493 202.935 197.509C203.178 197.549 203.242 197.78 203.119 197.952L203.122 197.956ZM210.563 198.334C210.224 198.251 209.881 198.263 209.558 198.071C209.187 197.852 208.88 197.549 208.485 197.369C208.095 197.19 207.66 197.047 207.233 197.17C207.058 197.218 206.891 197.302 206.735 197.393C206.631 197.457 206.532 197.545 206.492 197.661C206.408 197.696 206.364 197.828 206.468 197.876C206.703 197.984 206.787 198.354 206.851 198.574C206.942 198.893 207.07 199.172 207.337 199.387C207.907 199.85 208.721 199.822 209.391 199.622C209.801 199.503 210.144 199.252 210.435 198.944C210.507 198.941 210.579 198.921 210.639 198.881C210.842 198.741 210.83 198.398 210.567 198.33L210.563 198.334ZM209.638 198.885C209.446 199.012 209.239 199.08 209.016 199.132C208.649 199.216 208.242 199.255 207.883 199.112C207.728 199.048 207.584 198.944 207.485 198.809C207.385 198.673 207.349 198.51 207.273 198.342C207.17 198.103 207.03 197.832 206.807 197.716C206.879 197.7 206.95 197.692 207.01 197.677C207.186 197.637 207.361 197.601 207.54 197.621C207.728 197.641 207.907 197.736 208.079 197.812C208.246 197.888 208.406 197.984 208.553 198.095C208.872 198.342 209.151 198.629 209.534 198.777C209.59 198.801 209.65 198.817 209.71 198.837C209.686 198.853 209.662 198.873 209.638 198.889V198.885ZM215.551 195.316C215.228 195.133 214.841 195.228 214.534 195.392C214.219 195.559 213.92 195.794 213.657 196.03C213.33 196.321 213.019 196.64 212.756 196.991C212.632 197.154 212.501 197.334 212.401 197.525C211.915 196.991 211.253 196.62 210.631 196.273C209.785 195.802 208.94 195.376 207.995 195.133C206.954 194.869 205.898 194.849 204.845 195.057C203.932 195.236 203.023 195.539 202.237 196.054C201.795 196.345 201.396 196.688 201.021 197.058C200.682 197.389 200.359 197.744 200.18 198.187C200.136 198.215 200.1 198.263 200.1 198.322C200.1 198.434 200.116 198.55 200.156 198.653C200.204 198.773 200.291 198.865 200.359 198.972C200.507 199.2 200.67 199.423 200.842 199.634C201.161 200.021 201.5 200.376 201.906 200.667C202.676 201.221 203.613 201.512 204.542 201.64C205.088 201.716 205.639 201.74 206.193 201.728C206.727 201.716 207.269 201.688 207.8 201.588C208.84 201.393 209.821 200.918 210.722 200.372C211.416 199.953 211.994 199.383 212.345 198.661C212.377 198.833 212.425 199.004 212.493 199.164C212.668 199.594 212.935 199.989 213.234 200.344C213.522 200.683 213.868 200.982 214.275 201.165C214.486 201.261 214.726 201.353 214.961 201.341C215.124 201.333 215.352 201.289 215.447 201.146C215.503 201.142 215.559 201.122 215.615 201.078C215.778 200.95 215.834 200.719 215.894 200.527C215.954 200.34 215.998 200.145 216.034 199.953C216.105 199.555 216.137 199.152 216.141 198.745C216.149 198.071 216.141 197.389 216.117 196.716C216.101 196.225 216.034 195.591 215.559 195.316H215.551ZM204.765 200.595C204.721 200.675 204.67 200.747 204.618 200.823C204.594 200.858 204.57 200.89 204.542 200.922C204.518 200.946 204.454 200.974 204.51 200.958C204.482 200.966 204.458 200.978 204.438 200.99C203.788 200.882 203.142 200.683 202.572 200.36C202.146 200.121 201.791 199.814 201.464 199.451C201.276 199.244 201.089 199.032 200.906 198.817C200.822 198.717 200.742 198.618 200.642 198.526C200.587 198.474 200.535 198.422 200.491 198.366C201.017 197.772 201.607 197.194 202.269 196.755C202.947 196.305 203.669 196.002 204.45 195.794C204.458 195.802 204.466 195.814 204.474 195.822C204.554 195.918 204.618 196.026 204.678 196.133C204.793 196.345 204.881 196.564 204.949 196.795C205.096 197.302 205.164 197.836 205.184 198.362C205.204 198.889 205.156 199.415 205.013 199.925C204.949 200.145 204.873 200.388 204.765 200.591V200.595ZM211.524 199.048C211.265 199.335 210.966 199.574 210.639 199.778C209.841 200.268 208.944 200.663 208.035 200.894C207.556 201.018 207.078 201.062 206.588 201.086C206.121 201.11 205.65 201.114 205.18 201.082C205.276 200.938 205.351 200.795 205.415 200.631C205.591 200.181 205.71 199.738 205.754 199.255C205.798 198.761 205.77 198.259 205.698 197.768C205.627 197.306 205.523 196.843 205.332 196.416C205.228 196.181 205.092 195.958 204.913 195.767C204.897 195.747 204.877 195.727 204.857 195.707C205.718 195.527 206.607 195.503 207.473 195.695C208.35 195.89 209.183 196.229 209.961 196.68C210.694 197.106 211.5 197.505 212.034 198.183C211.919 198.498 211.751 198.801 211.528 199.048H211.524ZM215.531 196.763C215.527 197.365 215.531 197.968 215.523 198.574C215.523 198.952 215.511 199.335 215.447 199.71C215.416 199.905 215.372 200.097 215.316 200.288C215.28 200.408 215.224 200.531 215.188 200.655C215.164 200.655 215.144 200.655 215.12 200.655C215.069 200.655 215.021 200.671 214.973 200.679C214.961 200.679 214.929 200.683 214.921 200.687C214.77 200.683 214.622 200.623 214.486 200.555C214.156 200.388 213.872 200.145 213.625 199.878C213.37 199.602 213.151 199.291 212.983 198.956C212.892 198.773 212.808 198.59 212.752 198.39C212.732 198.314 212.716 198.231 212.7 198.147C212.728 198.055 212.72 197.96 212.664 197.876C212.772 197.712 212.876 197.549 213.003 197.397C213.222 197.138 213.458 196.903 213.709 196.68C213.968 196.448 214.247 196.245 214.53 196.046C214.714 195.918 215.025 195.703 215.244 195.79C215.296 195.81 215.344 195.862 215.372 195.902C215.427 195.99 215.447 196.05 215.471 196.153C215.519 196.353 215.523 196.552 215.523 196.771L215.531 196.763ZM216.057 193.139C215.531 192.932 214.981 192.78 214.455 192.569C213.868 192.333 213.286 192.485 212.728 192.708C212.596 192.76 212.469 192.812 212.337 192.856C212.186 192.908 212.038 192.983 211.887 193.027C211.624 193.103 211.317 193.071 211.053 192.999C210.495 192.84 209.961 192.533 209.375 192.481C209.012 192.449 208.629 192.489 208.27 192.533C208.099 192.553 207.923 192.573 207.756 192.613C207.513 192.668 207.285 192.788 207.058 192.888C206.548 193.107 206.021 193.378 205.471 193.111C205.335 193.047 205.192 193.011 205.052 192.955C204.929 192.908 204.809 192.848 204.686 192.796C204.398 192.672 204.099 192.581 203.792 192.521C203.449 192.453 203.107 192.429 202.764 192.481C202.457 192.529 202.166 192.652 201.89 192.792C201.627 192.924 201.376 193.083 201.105 193.195C200.969 193.251 200.826 193.286 200.686 193.33C200.551 193.37 200.383 193.398 200.252 193.338C200.156 193.294 200.076 193.398 200.14 193.482C200.483 193.916 201.157 193.701 201.579 193.526C202.074 193.322 202.532 193.039 203.087 193.043C203.677 193.051 204.211 193.302 204.745 193.522C204.869 193.574 204.997 193.625 205.128 193.661C205.284 193.705 205.463 193.705 205.623 193.717C205.926 193.741 206.225 193.685 206.512 193.589C206.779 193.502 207.03 193.382 207.289 193.274C207.413 193.223 207.54 193.179 207.672 193.147C207.732 193.131 207.788 193.119 207.848 193.111C207.863 193.111 207.879 193.111 207.895 193.107C208.27 193.075 208.657 193.079 209.032 193.091C209.115 193.091 209.195 193.099 209.279 193.107C209.287 193.107 209.295 193.107 209.299 193.107C209.351 193.123 209.403 193.131 209.454 193.143C209.753 193.223 210.041 193.342 210.328 193.462C210.894 193.693 211.608 193.92 212.194 193.621C212.764 193.33 213.306 192.784 213.996 192.892C214.331 192.944 214.666 193.123 214.973 193.259C215.296 193.402 215.627 193.534 215.95 193.681C216.077 193.737 216.201 193.717 216.281 193.637C216.516 193.45 216.309 193.059 216.057 193.135V193.139ZM207.844 193.115C207.855 193.115 207.883 193.111 207.844 193.115V193.115ZM201.575 191.883C202.07 191.68 202.528 191.396 203.083 191.4C203.673 191.408 204.207 191.66 204.741 191.879C204.865 191.931 204.993 191.983 205.124 192.018C205.28 192.062 205.459 192.062 205.619 192.074C205.922 192.098 206.221 192.042 206.508 191.947C206.775 191.859 207.026 191.739 207.285 191.632C207.409 191.58 207.537 191.536 207.668 191.504C207.728 191.488 207.784 191.476 207.844 191.468C207.859 191.468 207.875 191.468 207.891 191.464C208.266 191.432 208.653 191.436 209.028 191.448C209.112 191.448 209.191 191.456 209.275 191.464C209.283 191.464 209.291 191.464 209.295 191.464C209.347 191.48 209.399 191.488 209.45 191.5C209.75 191.58 210.037 191.699 210.324 191.819C210.89 192.05 211.604 192.278 212.19 191.979C212.76 191.687 213.302 191.141 213.992 191.249C214.327 191.301 214.662 191.48 214.969 191.616C215.292 191.759 215.623 191.891 215.946 192.038C216.073 192.094 216.197 192.074 216.277 191.995C216.512 191.807 216.305 191.416 216.054 191.492C215.527 191.285 214.977 191.133 214.451 190.922C213.864 190.687 213.282 190.838 212.724 191.061C212.592 191.113 212.465 191.165 212.333 191.209C212.182 191.261 212.034 191.337 211.883 191.38C211.62 191.456 211.313 191.424 211.049 191.353C210.491 191.193 209.957 190.886 209.371 190.834C209.008 190.802 208.625 190.842 208.266 190.886C208.095 190.906 207.919 190.926 207.752 190.966C207.509 191.022 207.281 191.141 207.054 191.241C206.544 191.46 206.017 191.731 205.467 191.464C205.331 191.4 205.188 191.365 205.048 191.309C204.925 191.261 204.805 191.201 204.682 191.149C204.394 191.026 204.095 190.934 203.788 190.874C203.445 190.806 203.103 190.782 202.76 190.834C202.453 190.882 202.162 191.006 201.886 191.145C201.623 191.277 201.372 191.436 201.101 191.548C200.965 191.604 200.822 191.64 200.682 191.684C200.547 191.723 200.379 191.751 200.248 191.691C200.152 191.648 200.072 191.751 200.136 191.835C200.479 192.27 201.153 192.054 201.575 191.879V191.883ZM201.575 190.24C202.07 190.037 202.528 189.754 203.083 189.758C203.673 189.766 204.207 190.017 204.741 190.236C204.865 190.288 204.993 190.34 205.124 190.376C205.28 190.42 205.459 190.42 205.619 190.431C205.922 190.455 206.221 190.4 206.508 190.304C206.775 190.216 207.026 190.097 207.285 189.989C207.409 189.937 207.537 189.893 207.668 189.861C207.728 189.845 207.784 189.833 207.844 189.821C207.859 189.821 207.875 189.821 207.891 189.817C208.266 189.786 208.653 189.79 209.028 189.801C209.112 189.801 209.191 189.809 209.275 189.817C209.283 189.817 209.291 189.817 209.295 189.817C209.347 189.833 209.399 189.841 209.45 189.853C209.75 189.933 210.037 190.053 210.324 190.172C210.89 190.404 211.604 190.631 212.19 190.332C212.76 190.041 213.302 189.494 213.992 189.602C214.327 189.654 214.662 189.833 214.969 189.969C215.292 190.112 215.623 190.244 215.946 190.392C216.073 190.447 216.197 190.427 216.277 190.348C216.512 190.16 216.305 189.77 216.054 189.845C215.527 189.638 214.977 189.486 214.451 189.275C213.864 189.04 213.282 189.191 212.724 189.415C212.592 189.467 212.465 189.518 212.333 189.562C212.182 189.614 212.034 189.69 211.883 189.734C211.62 189.809 211.313 189.778 211.049 189.706C210.491 189.546 209.957 189.239 209.371 189.187C209.008 189.156 208.625 189.195 208.266 189.239C208.095 189.259 207.919 189.279 207.752 189.319C207.509 189.375 207.281 189.494 207.054 189.594C206.544 189.813 206.017 190.085 205.467 189.817C205.331 189.754 205.188 189.718 205.048 189.662C204.925 189.614 204.805 189.554 204.682 189.502C204.394 189.379 204.095 189.287 203.788 189.227C203.445 189.16 203.103 189.136 202.76 189.187C202.453 189.235 202.162 189.359 201.886 189.498C201.623 189.63 201.372 189.79 201.101 189.901C200.965 189.957 200.822 189.993 200.682 190.037C200.547 190.077 200.379 190.105 200.248 190.045C200.152 190.001 200.072 190.105 200.136 190.188C200.479 190.623 201.153 190.408 201.575 190.232V190.24Z" fill="#231F20"/>
<g id="Vector_18" style="mix-blend-mode:multiply">
<path d="M198.483 227.9C198.483 233.351 218.726 233.351 218.726 227.9C218.726 222.449 198.483 222.449 198.483 227.9Z" fill="#E6E6E6"/>
</g>
</g>
</a>
<a href="/invasive_species" target="_top">
<g id="invasive_species">
<g id="Vector_19" style="mix-blend-mode:multiply">
<path d="M71.1631 103.126C71.1631 107.548 88.855 107.548 88.855 103.126C88.855 98.7043 71.1631 98.7043 71.1631 103.126Z" fill="#E6E6E6"/>
</g>
<path id="Vector_20" d="M61 71.7941C61 61.1718 69.6127 52.5591 80.235 52.5591C90.8573 52.5591 99.47 61.1718 99.47 71.7941C99.47 82.4164 80.235 103.486 80.235 103.486C80.235 103.486 61 82.4164 61 71.7941Z" fill="#231F20"/>
<path id="Vector_21" d="M86.1344 84.453C93.1321 81.1959 96.1644 72.8827 92.9072 65.8851C89.6501 58.8874 81.337 55.8551 74.3393 59.1122C67.3417 62.3694 64.3094 70.6825 67.5665 77.6801C70.8236 84.6778 79.1367 87.7101 86.1344 84.453Z" fill="white"/>
<path id="Vector_22" d="M75.8333 65.6895C75.3508 65.6895 75.3508 66.4352 75.8333 66.4352C76.3157 66.4352 76.3157 65.6895 75.8333 65.6895ZM86.3479 73.1379C86.332 72.8389 86.316 72.5478 86.3399 72.2448C86.3679 71.9018 86.4277 71.5669 86.4915 71.228C86.6191 70.5422 86.7706 69.8484 86.7586 69.1506C86.7387 68.0381 86.2642 66.9256 85.5185 66.1042C85.1437 65.6935 84.6892 65.3546 84.1748 65.1393C83.5328 64.8721 82.843 64.8642 82.1612 64.92C81.7984 64.9479 81.4355 64.9918 81.0726 64.9918C80.7058 64.9918 80.339 64.9559 79.9761 64.8921C79.4618 64.8004 78.9633 64.6449 78.4569 64.5412C78.6723 64.0707 78.2257 63.652 77.7592 63.7397C77.4681 63.7956 77.1371 64.1544 77.1371 64.4814C76.5709 64.5571 76.0207 64.7525 75.4784 64.9399C75.1833 65.0436 74.8763 65.1473 74.5812 65.2828C74.5453 65.1114 74.4855 64.9399 74.3978 64.7924C74.2941 64.6209 74.1586 64.4614 73.9472 64.4375C73.8954 64.4296 73.8635 64.4973 73.8874 64.5372C73.9273 64.597 73.9353 64.6847 73.9592 64.7565C73.9871 64.8323 74.023 64.908 74.0509 64.9838C74.0948 65.0954 74.1107 65.2071 74.1227 65.3227C74.0748 65.2589 74.023 65.1991 73.9831 65.1473C73.9393 65.0954 73.8954 65.0476 73.8436 65.0037C73.7319 64.912 73.5964 64.8642 73.4807 64.7804C73.4409 64.7485 73.3771 64.8004 73.393 64.8482C73.4289 64.9559 73.4887 65.0476 73.5605 65.1353C73.5804 65.1592 73.6003 65.1832 73.6163 65.2071C73.6203 65.2111 73.6522 65.2549 73.6602 65.2669C73.6681 65.2789 73.6841 65.3068 73.6881 65.3147C73.7598 65.4304 73.8276 65.554 73.8595 65.6816C73.8595 65.6935 73.8675 65.7015 73.8715 65.7095C73.7678 65.7932 73.6721 65.8889 73.5884 65.9926C73.5445 66.0085 73.5126 66.0404 73.4967 66.1002C73.4329 66.3475 73.5565 66.5947 73.6641 66.814C73.704 66.8977 73.7559 66.9775 73.8077 67.0492C73.7559 67.1449 73.704 67.2366 73.6322 67.3164C73.5724 67.3842 73.5086 67.436 73.4329 67.4799C73.3731 67.5158 73.3093 67.5517 73.2774 67.6154C73.2534 67.6553 73.2614 67.7032 73.2933 67.7391C73.409 67.8667 73.6322 67.759 73.7479 67.6792C73.8795 67.5875 73.9871 67.4719 74.0788 67.3403C74.0948 67.3523 74.1107 67.3682 74.1267 67.3802C74.1785 67.4201 74.2303 67.4599 74.2822 67.4958C74.2742 67.5317 74.2622 67.5716 74.2503 67.6075C74.2064 67.751 74.1745 67.9145 74.1147 68.0501C74.0908 68.1099 74.1586 68.1737 74.2064 68.1218C74.33 67.9982 74.4736 67.9185 74.5773 67.7709C74.5932 67.743 74.6091 67.7191 74.6251 67.6912C74.9241 67.8308 75.2431 67.9265 75.5581 68.0222C75.7774 68.0899 76.0087 68.1458 76.2081 68.2574C76.4154 68.373 76.6188 68.4927 76.8421 68.5724C76.858 68.6003 76.87 68.6243 76.8859 68.6522C76.9577 68.7917 77.0255 68.9273 77.1052 69.0589C77.185 69.1905 77.2568 69.326 77.3166 69.4696C77.3445 69.5334 77.3604 69.5972 77.3804 69.6649C77.3285 69.653 77.2767 69.641 77.2249 69.6291C76.9418 69.5812 76.6387 69.5653 76.3596 69.649C75.6698 69.8643 75.4026 70.6737 75.6578 71.3157C75.7336 71.5111 75.9409 71.5669 76.1044 71.4313C76.3317 71.2439 76.4553 70.9608 76.6826 70.7814C76.7185 70.7535 76.7623 70.7256 76.8062 70.7096C76.8181 70.7176 76.854 70.7375 76.862 70.7415C76.9856 70.8133 77.0893 70.913 77.2009 70.9967C77.815 71.4553 78.6324 71.4593 79.2823 71.0725C79.2983 71.0605 79.3182 71.0525 79.3342 71.0406C79.3541 71.6188 79.6292 72.1531 80.0559 72.5717C80.032 72.5717 80.008 72.5717 79.9841 72.5677C79.6651 72.5478 79.3461 72.5518 79.0271 72.5279C78.744 72.5079 78.4609 72.5039 78.1778 72.5318C77.9266 72.5598 77.6595 72.5996 77.4481 72.7512C77.2129 72.9226 77.1132 73.2217 77.3285 73.4569C77.48 73.6204 77.7073 73.6762 77.9186 73.7081C78.5766 73.8158 79.2544 73.7081 79.9163 73.7121C80.2832 73.7121 80.654 73.7121 81.0208 73.7081C81.2122 73.7081 81.4036 73.7161 81.599 73.7241C81.7266 73.7321 81.8502 73.744 81.9658 73.7161C82.0535 73.74 82.1413 73.76 82.225 73.7759C82.7593 73.8596 83.3016 73.8716 83.8439 73.9075C84.3503 73.9394 84.8646 73.9912 85.375 73.9833C85.4029 74.0271 85.4268 74.075 85.4508 74.1188C85.4667 74.1507 85.4827 74.1826 85.4946 74.2145C85.4946 74.2145 85.5225 74.2903 85.5265 74.3022C85.5584 74.3939 85.5863 74.4857 85.6063 74.5774C85.6142 74.6133 85.6222 74.6491 85.6262 74.685C85.6262 74.689 85.6342 74.7408 85.6342 74.7408C85.6342 74.7608 85.6342 74.7807 85.6382 74.8007C85.6382 74.8525 85.6422 74.9003 85.6382 74.9522C85.6382 74.9841 85.6382 75.012 85.6342 75.0439C85.6342 75.0519 85.6262 75.1117 85.6262 75.1037C85.5903 75.323 85.5265 75.4905 85.391 75.6739C85.2793 75.8254 85.1198 75.969 84.9444 76.0607C84.9404 76.0607 84.9364 76.0607 84.9324 76.0647C84.9165 76.0686 84.9005 76.0766 84.8885 76.0806C84.8487 76.0965 84.8088 76.1085 84.7689 76.1205C84.6692 76.1484 84.5696 76.1683 84.4699 76.1843C84.4499 76.1843 84.43 76.1922 84.4101 76.1922C84.4021 76.1922 84.3981 76.1922 84.3901 76.1922C84.3861 76.1922 84.3782 76.1922 84.3662 76.1922C84.3184 76.1962 84.2705 76.2042 84.2266 76.2082C84.111 76.2202 83.9994 76.2241 83.8837 76.2321C83.6445 76.2401 83.4052 76.2401 83.166 76.2321C82.229 76.2082 81.284 76.1205 80.3549 76.0088C78.9474 75.8374 77.5438 75.6619 76.1243 75.642C75.3428 75.63 74.5613 75.7138 73.8276 75.9969C73.4767 76.1324 73.1578 76.2999 72.8707 76.5431C72.6195 76.7584 72.4759 77.0057 72.448 77.3366C72.448 77.3725 72.452 77.4004 72.4679 77.4243C72.4799 77.4921 72.5397 77.5519 72.6155 77.516C73.1936 77.2728 73.8117 77.0894 74.4257 76.9498C75.0956 76.7983 75.7615 76.7505 76.4433 76.8382C77.1172 76.9219 77.7871 77.0774 78.4569 77.1891C79.1428 77.3007 79.8286 77.4084 80.5224 77.4722C81.2082 77.532 81.898 77.5679 82.5839 77.5998C83.0942 77.6237 83.6046 77.6556 84.115 77.6436C85.0799 77.6237 86.1804 77.4483 86.8184 76.6428C87.7036 75.5264 87.1015 74.1268 86.336 73.13L86.3479 73.1379ZM77.7073 64.2661C77.7631 64.2222 77.8269 64.1823 77.9027 64.1903C77.9306 64.1903 78.0143 64.2182 78.0303 64.2501C78.0622 64.3139 77.9745 64.3658 77.9426 64.3976C77.9226 64.4176 77.9067 64.4375 77.8947 64.4614C77.8708 64.4614 77.8429 64.4575 77.819 64.4535C77.7312 64.4495 77.6475 64.4455 77.5598 64.4495C77.5997 64.3817 77.6435 64.3219 77.7113 64.2701L77.7073 64.2661ZM76.8142 70.7056C76.7823 70.6857 76.7902 70.7056 76.8142 70.7056V70.7056ZM77.7432 73.2177C77.7432 73.2177 77.7432 73.2097 77.7432 73.2057C77.7432 73.2057 77.7432 73.2137 77.7432 73.2177ZM80.5025 73.0981C79.9363 73.0981 79.382 73.122 78.8158 73.1658C78.5327 73.1898 78.2496 73.2057 77.9665 73.1539C77.9466 73.1539 77.9306 73.1459 77.9107 73.1419C78.0183 73.11 78.1459 73.0781 78.1659 73.0741C78.4051 73.0462 78.6444 73.0422 78.8836 73.0502C79.1866 73.0582 79.4857 73.0542 79.7887 73.0502C79.9482 73.0462 80.1077 73.0383 80.2632 73.0263C80.331 73.0183 80.3988 73.0103 80.4626 72.9944C80.4825 72.9904 80.5144 72.9784 80.5423 72.9705C80.6021 73.0143 80.6659 73.0582 80.7297 73.0981C80.65 73.0981 80.5742 73.0981 80.4945 73.0981H80.5025ZM86.3838 76.2042C86.1486 76.5312 85.7777 76.7425 85.387 76.8621C84.9444 76.9977 84.5217 77.0296 84.0512 77.0376C83.5488 77.0455 83.0424 77.0176 82.54 76.9937C81.8701 76.9618 81.2002 76.9339 80.5304 76.8781C79.8725 76.8222 79.2185 76.7385 78.5646 76.6388C77.9027 76.5391 77.2488 76.4036 76.5829 76.3238C75.8372 76.2321 75.1076 76.2919 74.3779 76.4634C74.035 76.5431 73.704 76.6667 73.3731 76.7864C73.6362 76.6428 73.9153 76.5391 74.2064 76.4554C74.8763 76.264 75.5621 76.2162 76.2599 76.2361C76.9816 76.256 77.7113 76.3039 78.433 76.3757C79.1667 76.4514 79.8964 76.5591 80.6261 76.6468C81.5471 76.7545 82.4882 76.8382 83.4132 76.8462C83.8758 76.8502 84.3503 76.8342 84.8048 76.7345C85.2793 76.6309 85.6541 76.3597 85.9332 75.961C86.2482 75.5104 86.2961 74.9283 86.1645 74.4059C86.1127 74.1906 86.0249 73.9832 85.9173 73.7919C85.8774 73.7241 85.8375 73.6563 85.7897 73.5965C85.7737 73.5765 85.7618 73.5566 85.7458 73.5367C85.702 73.441 85.6103 73.3652 85.4747 73.3532C85.0401 73.3134 84.5975 73.3094 84.1589 73.2815C83.7163 73.2536 83.2737 73.2336 82.8351 73.1977C82.4403 73.1658 82.0655 73.0981 81.7066 72.9266C81.3876 72.7751 81.0687 72.5837 80.7856 72.3724C80.3071 72.0095 79.8605 71.4872 79.8844 70.8532C79.9123 70.1514 80.4028 69.5493 80.9012 69.0987C81.5711 68.4887 82.4284 68.1378 83.0942 67.5277C83.158 67.4679 83.0942 67.3443 83.0065 67.3762C82.1931 67.6872 81.3797 68.07 80.7018 68.6282C80.2074 69.0349 79.7489 69.5533 79.5096 70.1554C79.5016 70.1634 79.4976 70.1673 79.4937 70.1753C79.394 70.2949 79.2823 70.4186 79.1547 70.5142C78.6125 70.909 77.9107 70.901 77.3883 70.4784C77.2568 70.3707 77.1212 70.2551 76.9537 70.2072C76.7623 70.1554 76.5829 70.2152 76.4234 70.3268C76.3038 70.4106 76.2081 70.5142 76.1204 70.6259C76.1403 70.5302 76.1802 70.4345 76.244 70.3548C76.3795 70.1793 76.5988 70.1275 76.8142 70.1235C77.0973 70.1235 77.3485 70.2272 77.6276 70.2551C77.7911 70.271 77.9545 70.2551 78.0742 70.1355C78.1738 70.0437 78.2376 69.8962 78.1898 69.7606C78.1579 69.6769 78.0383 69.649 77.9864 69.7208C77.9147 69.3779 77.7352 69.0509 77.5159 68.7797C77.492 68.7518 77.4681 68.7239 77.4442 68.692C77.496 68.692 77.5438 68.7 77.5917 68.7C77.8429 68.712 78.0981 68.712 78.3413 68.6402C78.5965 68.5605 78.8357 68.4249 79.0351 68.2454C79.2265 68.074 79.402 67.8308 79.3461 67.5636C79.3302 67.4958 79.2544 67.4799 79.1986 67.5038C79.0192 67.5875 78.8876 67.7351 78.74 67.8627C78.6045 67.9823 78.437 68.082 78.2655 68.1418C78.0662 68.2096 77.8708 68.2056 77.6635 68.1976C77.4681 68.1896 77.2687 68.1657 77.0813 68.1059C76.8979 68.0461 76.7344 67.9185 76.5709 67.8188C76.3716 67.6992 76.1722 67.6155 75.9489 67.5437C75.5661 67.4161 75.1714 67.3204 74.8085 67.141C74.8364 67.0014 74.8564 66.8618 74.8723 66.7223C74.8962 66.5428 74.8723 66.3355 74.6849 66.2518C74.5892 66.2079 74.5015 66.2239 74.4377 66.2877C74.4018 66.2318 74.326 66.2039 74.2662 66.2039C74.1187 66.1959 74.0748 66.3195 74.0469 66.4352C74.0429 66.4272 74.035 66.4192 74.031 66.4073C73.9791 66.3156 73.8834 66.2358 73.8316 66.1441C74.33 65.8371 74.9042 65.6497 75.4545 65.4663C76.0845 65.2549 76.7264 65.0197 77.3963 64.9758C77.6395 64.9599 77.8788 64.9758 78.114 65.0117C78.0821 65.0356 78.0502 65.0596 78.0183 65.0875C77.7392 65.3267 77.4322 65.8012 77.5957 66.176C77.6316 66.2597 77.7472 66.2558 77.803 66.2039C77.9266 66.0923 77.9785 65.9288 78.0742 65.7932C78.1539 65.6776 78.2576 65.5659 78.3732 65.4862C78.4809 65.4144 78.6324 65.3347 78.744 65.3267C78.8477 65.3147 78.9354 65.3387 78.9793 65.3985C79.1308 65.6018 79.0431 65.9089 78.8557 66.0684C78.74 66.168 78.5806 66.2199 78.433 66.2637C78.3612 66.2877 78.2895 66.3116 78.2137 66.3235C78.122 66.3435 78.0223 66.3435 77.9386 66.3993C77.815 66.479 77.7871 66.6146 77.8469 66.7462C77.9585 66.9854 78.2576 66.9456 78.4689 66.9097C78.6683 66.8738 78.8716 66.794 79.0511 66.6983C79.4139 66.503 79.6611 66.1242 79.6811 65.7095C79.6851 65.5899 79.6691 65.4663 79.6292 65.3506C80.2672 65.4782 80.9092 65.5261 81.5631 65.4623C82.2409 65.3985 82.9507 65.2988 83.6206 65.4742C84.107 65.6018 84.5456 65.8849 84.9045 66.2318C85.6182 66.9216 86.0927 67.9145 86.1685 68.8994C86.2203 69.6171 86.0648 70.3308 85.9292 71.0326C85.8535 71.4114 85.7857 71.7942 85.7498 72.181C85.7139 72.5558 85.7418 72.9146 85.7538 73.2855C85.7538 73.3413 85.7698 73.3852 85.7897 73.425C85.7977 73.445 85.8096 73.4649 85.8256 73.4848C86.3958 74.2265 87.0098 75.3469 86.3838 76.2162V76.2042Z" fill="#231F20"/>
</g>
</a>
<a href="/climate_variables">
<g id="climate_variables">
<path id="Vector_23" d="M212 20.7941C212 10.1718 220.613 1.55908 231.235 1.55908C241.857 1.55908 250.47 10.1718 250.47 20.7941C250.47 31.4164 231.235 52.4856 231.235 52.4856C231.235 52.4856 212 31.4164 212 20.7941Z" fill="#231F20"/>
<path id="Vector_24" d="M237.129 33.4432C244.127 30.1861 247.159 21.873 243.902 14.8753C240.645 7.87766 232.332 4.84536 225.334 8.10247C218.337 11.3596 215.304 19.6727 218.561 26.6704C221.818 33.668 230.132 36.7004 237.129 33.4432Z" fill="white"/>
<path id="Vector_25" d="M231.997 24.3589C231.997 24.323 231.997 24.2871 231.997 24.2512C232.001 23.992 232.009 23.7289 232.013 23.4697C232.025 22.6204 232.029 21.7711 232.033 20.9178C232.041 19.0956 232.021 17.2694 232.017 15.4471C232.017 15.2079 232.017 14.9687 232.017 14.7294C232.017 14.4264 232.041 14.1074 231.898 13.8283C231.507 13.0826 230.407 13.278 230.167 14.0316C230.08 14.3068 230.1 14.5978 230.103 14.8809C230.111 16.5038 230.103 18.1266 230.115 19.7495C230.123 20.7184 230.131 21.6873 230.155 22.6563C230.159 22.8556 230.163 23.055 230.171 23.2544C230.171 23.3381 230.175 23.4218 230.179 23.5056C230.179 23.5455 230.179 23.5853 230.179 23.6292C230.179 23.6611 230.183 23.689 230.187 23.7209C230.183 23.681 230.187 23.7528 230.187 23.7648C230.199 23.9083 230.211 24.0558 230.231 24.1994C230.239 24.2472 230.247 24.2991 230.251 24.3469C230.259 24.4107 230.235 24.2632 230.255 24.3987C230.255 24.4107 230.259 24.4267 230.263 24.4386C230.028 24.4785 229.788 24.6938 229.653 24.8573C229.43 25.1244 229.262 25.4434 229.166 25.7824C228.963 26.4841 229.294 27.2816 229.852 27.7242C230.399 28.1588 231.212 28.2824 231.862 28.0233C232.619 27.7202 233.046 26.8669 233.05 26.0774C233.054 25.4713 232.659 24.5024 231.993 24.3589H231.997ZM230.702 14.5101C230.702 14.3666 230.714 14.1911 230.809 14.0755C230.853 14.0237 230.973 13.9638 231.037 13.9559C231.344 13.916 231.423 14.1991 231.415 14.4862C231.415 14.534 231.415 14.5819 231.415 14.6297C231.415 14.8251 231.415 15.0205 231.415 15.2119C231.415 16.444 231.407 17.6801 231.415 18.9122C231.292 18.9042 231.168 18.9121 231.048 18.9161C230.949 18.9201 230.829 18.9161 230.714 18.9321C230.714 17.7319 230.714 16.5277 230.714 15.3275C230.714 15.1361 230.714 14.9407 230.714 14.7494C230.714 14.6696 230.71 14.5899 230.714 14.5101H230.702ZM231.742 27.4052C231.32 27.6285 230.745 27.5727 230.339 27.3414C229.9 27.0942 229.617 26.5559 229.665 26.0535C229.689 25.7824 229.816 25.4913 229.952 25.26C230.028 25.1364 230.115 25.0208 230.215 24.9171C230.291 24.8413 230.383 24.7855 230.458 24.7138C230.538 24.7058 230.614 24.65 230.614 24.5543C230.614 24.5064 230.618 24.4625 230.622 24.4147C230.622 24.4067 230.622 24.3828 230.622 24.3708C230.622 24.3469 230.626 24.327 230.63 24.3031C230.63 24.2791 230.634 24.2552 230.638 24.2313C230.638 24.2113 230.65 24.1117 230.642 24.1794C230.674 23.8764 230.678 23.5694 230.682 23.2624C230.69 22.3812 230.702 21.5039 230.702 20.6227C230.702 20.232 230.702 19.8412 230.702 19.4504C230.797 19.4624 230.897 19.4584 230.985 19.4664C231.12 19.4744 231.272 19.4425 231.407 19.4744C231.407 19.7694 231.407 20.0645 231.415 20.3596C231.431 21.7312 231.423 23.1068 231.487 24.4785C231.487 24.4944 231.487 24.5104 231.491 24.5303C231.491 24.5343 231.491 24.5423 231.491 24.5503C231.491 24.7018 231.599 24.7815 231.714 24.7895C231.878 24.9091 232.033 25.0128 232.149 25.1922C232.281 25.3996 232.376 25.6428 232.416 25.886C232.504 26.4124 232.229 27.1421 231.746 27.3933L231.742 27.4052ZM229.374 23.6172C229.374 23.6172 229.374 23.6053 229.374 23.5973C229.374 23.5973 229.374 23.5973 229.374 23.6172ZM234.502 25.8302C234.366 24.9251 233.891 23.8485 232.938 23.5933C232.938 23.5654 232.938 23.5415 232.938 23.5136C232.938 23.2504 232.946 22.9872 232.95 22.7241C232.962 21.8907 232.958 21.0613 232.954 20.228C232.954 18.5613 232.927 16.8945 232.923 15.2278C232.923 14.3745 233.026 13.4295 232.368 12.7716C231.926 12.329 231.272 12.1855 230.67 12.325C230.06 12.4686 229.561 12.8992 229.342 13.4854C229.067 14.2111 229.158 15.0364 229.162 15.798C229.166 16.6473 229.162 17.4966 229.174 18.3459C229.186 19.3587 229.194 20.3755 229.222 21.3883C229.246 22.1658 229.254 22.8556 229.366 23.5933C229.366 23.6013 229.378 23.6651 229.382 23.681C229.382 23.693 229.386 23.705 229.39 23.7169C229.174 23.7648 228.967 23.9003 228.788 24.0518C228.425 24.3589 228.186 24.8174 228.058 25.272C227.723 26.4762 228.154 27.8717 229.143 28.6453C230.1 29.3949 231.559 29.5065 232.647 29.0002C233.214 28.737 233.664 28.2386 233.999 27.7242C234.358 27.17 234.597 26.4921 234.498 25.8262L234.502 25.8302ZM233.692 27.0264C233.465 27.4969 233.122 27.9834 232.687 28.2864C231.886 28.8526 230.642 28.8566 229.792 28.3901C228.855 27.8757 228.409 26.7672 228.509 25.7345C228.556 25.252 228.732 24.8015 229.043 24.4267C229.135 24.315 229.254 24.1994 229.362 24.1196C229.438 24.0638 229.485 24.0199 229.549 23.9801C229.641 23.992 229.749 23.9362 229.745 23.8206C229.745 23.6053 229.761 23.3899 229.769 23.1746C229.781 22.8118 229.777 22.4489 229.777 22.0861C229.777 21.1371 229.777 20.1881 229.777 19.2391C229.777 17.7877 229.785 16.3363 229.757 14.8849C229.745 14.3227 229.788 13.6369 230.207 13.2381C230.558 12.9072 231.088 12.7955 231.539 12.9471C231.766 13.0228 231.978 13.1983 232.109 13.4136C232.289 13.7087 232.324 14.0635 232.324 14.4064C232.324 14.6218 232.316 14.8331 232.316 15.0484C232.312 16.6075 232.316 18.1625 232.34 19.7216C232.36 21.0534 232.368 22.3851 232.428 23.7129C232.424 23.7249 232.416 23.7368 232.412 23.7528C232.372 23.9043 232.464 24.0518 232.608 24.0957C233.381 24.3389 233.708 25.0048 233.864 25.7425C233.959 26.1891 233.887 26.6157 233.688 27.0304L233.692 27.0264Z" fill="#231F20"/>
</g>
</a>
</g>
<defs>
<radialGradient id="paint0_radial_2616_1470" cx="0" cy="0" r="1" gradientUnits="userSpaceOnUse" gradientTransform="translate(118.756 126.871) scale(6.94996 6.94996)">
<stop offset="0.57" stop-color="#130C0E"/>
<stop offset="0.8" stop-color="#130C0E"/>
<stop offset="1" stop-color="#130C0E"/>
</radialGradient>
<radialGradient id="paint1_radial_2616_1470" cx="0" cy="0" r="1" gradientUnits="userSpaceOnUse" gradientTransform="translate(119.92 120.622) scale(5.53844)">
<stop offset="0.57" stop-color="#130C0E"/>
<stop offset="0.8" stop-color="#130C0E"/>
<stop offset="1" stop-color="#130C0E"/>
</radialGradient>
</defs>
</svg>
