<svg width="2416" height="2016" viewBox="0 0 2416 2016" fill="none" xmlns="http://www.w3.org/2000/svg">
<g id="FrontPageIcons-MD">
<a href="/landuse_change" target="_top">
<g id="land_use_change">
<path id="Vector" d="M149.965 905.019C149.965 841.005 201.842 789.103 265.824 789.103C329.805 789.103 381.682 841.005 381.682 905.019C381.682 969.033 265.824 1096 265.824 1096C265.824 1096 149.965 969.033 149.965 905.019Z" fill="#231F20"/>
<path id="Vector_2" d="M301.395 981.334C343.545 961.706 361.809 911.608 342.19 869.438C322.572 827.267 272.499 808.994 230.35 828.622C188.2 848.251 169.936 898.348 189.554 940.519C209.173 982.689 259.246 1000.96 301.395 981.334Z" fill="white"/>
<path id="Vector_3" d="M297.238 872.219C294.404 874.91 291.281 877.192 287.919 879.139C284.557 881.085 281.026 882.647 277.88 885.002C271.827 889.543 267.528 896.152 265.199 903.312C265.247 899.275 265.271 895.262 265.415 891.225C265.559 887.189 265.943 883.152 266.832 879.211C269.882 878.274 272.5 876.52 274.998 874.501C277.351 872.627 279.417 870.368 280.954 867.773C282.683 864.866 283.524 861.718 283.956 858.378C284.196 856.455 284.34 854.557 284.461 852.635C284.581 850.76 284.725 848.862 284.557 846.964C284.412 845.354 282.683 844.585 281.434 845.666C280.041 846.868 278.696 848.141 277.255 849.295C276.006 850.304 274.637 851.121 273.317 852.01C270.651 853.788 268.177 855.903 266.183 858.426C264.142 861.021 262.533 864.049 262.125 867.389C261.908 869.167 262.173 870.897 262.365 872.675C262.461 873.516 262.533 874.333 262.749 875.126C262.869 875.607 263.013 876.111 263.181 876.568C263.277 876.832 263.445 877.072 263.59 877.313C262.533 880.388 261.884 883.56 261.428 886.804C260.756 885.218 259.963 883.68 259.122 882.215C257.345 879.091 255.28 875.895 252.854 873.228C250.62 870.777 247.786 869.023 244.952 867.365C243.175 866.331 241.302 865.514 239.452 864.625C237.555 863.712 235.826 862.511 234.096 861.261C232.992 860.468 231.551 861.55 231.527 862.751C231.527 863.736 231.887 864.481 232.319 865.322C232.727 866.163 232.992 867.076 233.304 867.965C233.928 869.768 234.769 871.522 235.417 873.324C236.762 877.024 237.651 880.869 238.996 884.569C241.302 890.817 245.529 896.127 250.596 900.357C252.109 901.606 253.646 902.735 255.328 903.745C256.168 904.249 256.937 904.874 257.801 905.355C258.522 905.739 259.29 906.051 259.843 906.652C260.035 906.868 260.251 907.013 260.467 907.085C260.419 909.031 260.395 910.977 260.347 912.9C260.059 912.251 259.723 911.626 259.387 911.001C258.066 908.526 256.168 906.46 253.911 904.826C251.725 903.264 249.155 902.183 246.561 901.558C243.463 900.813 240.341 900.549 237.339 899.419C236.234 899.011 234.937 900.285 235.345 901.414C235.946 903 236.954 904.273 237.843 905.715C238.708 907.133 239.236 908.719 239.885 910.233C241.157 913.212 242.863 916 244.856 918.547C246.754 920.998 249.083 923.064 251.965 924.29C254.631 925.443 257.441 926.164 260.299 926.404C260.371 928.278 260.491 930.153 260.659 932.027C260.804 933.565 260.876 935.103 261.164 936.617C259.915 936.689 258.69 936.833 257.465 937.121C253.07 938.154 248.939 940.966 245.769 944.09C243.944 945.892 241.494 948.463 240.725 951.202C240.677 951.274 240.653 951.346 240.629 951.443C239.933 953.341 240.125 955.72 241.542 957.258C242.839 958.651 244.64 959.132 246.465 959.42C250.764 960.141 255.039 959.372 259.315 958.819C263.758 958.243 268.297 957.642 272.788 957.666C276.943 957.69 281.29 957.954 285.325 956.705C288.976 955.551 291.161 952.283 289.72 948.535C288.399 945.099 285.421 942.816 282.203 941.23C278.48 939.404 274.397 938.371 270.362 937.506C268.921 937.193 267.456 936.953 265.991 936.785C265.799 935.703 265.607 934.646 265.511 933.541C265.271 930.801 265.007 928.062 264.959 925.323C264.911 923.473 264.911 921.622 264.911 919.772C268.921 919.82 272.908 919.027 276.703 917.73C280.522 916.408 284.124 914.558 287.054 911.746C288.519 910.353 289.888 908.887 291.041 907.205C292.242 905.451 293.059 903.456 293.827 901.51C294.644 899.492 295.412 897.449 296.037 895.359C296.685 893.196 296.997 891.009 297.262 888.775C297.574 886.372 298.054 883.993 298.463 881.59C298.919 878.971 299.303 876.327 299.976 873.756C300.384 872.122 298.39 870.993 297.19 872.122L297.238 872.219ZM265.151 872.723C265.103 871.017 264.935 869.359 265.247 867.653C265.751 864.769 267.432 862.15 269.378 860.036C271.323 857.945 273.605 856.239 276.006 854.677C277.808 853.5 279.489 852.202 281.098 850.833C281.05 852.971 280.81 855.134 280.594 857.224C280.257 860.228 279.609 863.087 278.096 865.731C276.751 868.061 274.95 870.008 272.884 871.714C271.371 872.963 269.786 874.093 268.057 874.958C268.945 872.459 270.194 870.08 271.491 867.773C272.188 866.548 272.932 865.346 273.677 864.169C274.037 863.592 274.397 862.967 274.637 862.318C274.902 861.67 274.95 860.949 275.046 860.252C275.094 859.94 274.734 859.771 274.541 860.036C274.133 860.636 273.581 861.045 273.124 861.574C272.74 862.03 272.332 862.487 271.972 862.967C271.155 864.049 270.314 865.106 269.546 866.211C268.057 868.35 266.616 870.561 265.463 872.891C265.367 873.084 265.271 873.276 265.199 873.444C265.199 873.204 265.175 872.939 265.151 872.675V872.723ZM254.367 898.987C251.869 897.137 249.539 895.046 247.522 892.691C245.529 890.385 243.871 887.813 242.647 885.026C241.182 881.71 240.437 878.058 239.26 874.621C238.588 872.627 237.843 870.633 237.027 868.686C236.81 868.158 236.618 867.653 236.426 867.124C240.581 869.551 245.216 871.257 248.891 874.501C251.341 876.664 253.118 879.523 254.919 882.239C256.793 885.05 258.522 887.934 259.603 891.153C260.059 892.523 260.491 893.941 260.756 895.383C260.756 895.983 260.708 896.608 260.708 897.209C259.05 894.013 257.129 890.937 255.015 888.03C253.406 885.819 251.941 883.44 250.116 881.398C249.251 880.436 248.315 879.595 247.282 878.802C246.321 878.082 245.072 877.457 244.28 876.568C243.968 876.207 243.487 876.664 243.655 877.048C244.64 879.043 246.297 880.629 247.474 882.503C248.723 884.473 249.852 886.564 251.077 888.582C252.35 890.649 253.646 892.691 254.847 894.806C256.096 896.944 257.081 899.227 258.186 901.438C256.937 900.621 255.616 899.9 254.391 899.011L254.367 898.987ZM247.186 916.12C245.409 913.789 243.823 911.242 242.695 908.526C242.118 907.157 241.614 905.763 240.869 904.466C240.725 904.225 240.581 903.985 240.413 903.745C244.352 904.61 248.387 904.994 251.893 907.253C253.983 908.599 255.688 910.425 256.889 912.587C257.561 913.813 258.234 915.038 258.858 916.312C257.922 915.423 256.937 914.606 255.976 913.741C254.535 912.443 253.166 911.146 251.629 909.944C250.884 909.367 250.116 908.791 249.299 908.358C248.483 907.926 247.618 907.613 246.826 907.133C246.441 906.893 245.889 907.397 246.177 907.782C247.114 909.151 248.315 910.425 249.443 911.626C250.668 912.924 251.845 914.269 253.07 915.591C254.295 916.913 255.616 918.138 256.865 919.436C257.465 920.06 258.066 920.733 258.666 921.382C258.93 921.67 259.218 921.959 259.507 922.247C259.627 922.367 260.179 923.064 260.035 922.68C260.035 922.728 260.083 922.776 260.107 922.824C257.801 922.632 255.52 922.103 253.382 921.214C250.86 920.181 248.843 918.282 247.21 916.144L247.186 916.12ZM276.943 943.729C279.657 944.642 282.515 945.892 284.509 948.006C285.229 948.775 285.95 949.905 286.07 950.866C286.118 951.394 286.07 951.467 285.781 951.851C285.637 952.019 285.205 952.356 284.821 952.524C281.843 953.893 277.928 953.605 274.734 953.581C270.987 953.557 267.264 953.821 263.566 954.254C259.411 954.734 255.256 955.576 251.053 955.72C249.275 955.792 247.354 955.792 245.625 955.335C245.144 955.191 244.52 954.975 244.256 954.518C243.871 953.869 243.871 952.716 243.799 951.995V951.947C244.808 950.025 246.657 948.439 248.243 947.093C250.644 945.003 253.31 943.08 256.312 941.927C258.234 941.182 260.275 940.894 262.317 940.894C262.389 941.062 262.461 941.254 262.557 941.422C263.061 942.432 264.406 942.432 265.151 941.759C265.367 941.567 265.559 941.35 265.703 941.134C265.991 941.182 266.304 941.206 266.592 941.254C270.098 941.783 273.629 942.648 276.991 943.777L276.943 943.729ZM293.323 891.634C292.842 893.725 292.17 895.815 291.401 897.81C290.032 901.366 288.591 904.85 285.878 907.637C283.308 910.281 280.402 912.227 276.967 913.549C274.181 914.606 271.323 915.399 268.393 915.735C269.426 914.894 270.458 914.053 271.419 913.14C273.797 910.881 275.982 908.406 278.024 905.811C280.017 903.264 282.275 900.837 284.028 898.122C284.941 896.728 285.685 895.286 286.478 893.821C287.222 892.427 287.895 890.937 287.991 889.351C288.015 888.919 287.415 888.799 287.198 889.135C285.589 891.754 283.932 894.373 281.939 896.728C279.969 899.059 277.736 901.198 275.646 903.432C273.581 905.667 271.563 907.95 269.354 910.016C268.177 911.122 266.904 912.059 265.655 913.068C265.607 913.116 265.535 913.164 265.487 913.212C265.631 912.635 265.751 912.035 265.895 911.458C266.352 909.536 266.832 907.613 267.408 905.739C268.513 902.111 270.122 898.699 272.236 895.551C274.277 892.499 276.799 889.736 279.801 887.621C282.803 885.507 286.142 884.065 289.288 882.239C291.522 880.941 293.683 879.499 295.701 877.913C295.196 880.485 294.764 883.056 294.284 885.627C293.899 887.621 293.731 889.664 293.299 891.634H293.323Z" fill="#231F20"/>
<g id="Vector_4" style="mix-blend-mode:multiply">
<path d="M204.868 1098.5C204.868 1131.35 326.803 1131.35 326.803 1098.5C326.803 1065.65 204.868 1065.65 204.868 1098.5Z" fill="#E6E6E6"/>
</g>
</g>
</a>
<a href="/social_wellbeing" target="_top">
<g id="social_wellbeing">
<g id="Vector_5" style="mix-blend-mode:multiply">
<path d="M1971.07 1025.02C1971.07 1057.87 2093 1057.87 2093 1025.02C2093 992.172 1971.07 992.172 1971.07 1025.02Z" fill="#E6E6E6"/>
</g>
<path id="Vector_6" d="M1916.16 831.538C1916.16 767.524 1968.04 715.622 2032.02 715.622C2096 715.622 2147.88 767.524 2147.88 831.538C2147.88 895.552 2032.02 1022.52 2032.02 1022.52C2032.02 1022.52 1916.16 895.552 1916.16 831.538Z" fill="#231F20"/>
<path id="Vector_7" d="M2067.55 907.763C2109.7 888.135 2127.97 838.037 2108.35 795.867C2088.73 753.697 2038.66 735.423 1996.51 755.051C1954.36 774.68 1936.09 824.777 1955.71 866.948C1975.33 909.118 2025.4 927.392 2067.55 907.763Z" fill="white"/>
<path id="Vector_8" d="M2077.85 839.926C2076.31 837.523 2073.55 836.658 2070.81 836.49V835.625C2070.64 834.928 2070.47 834.255 2069.95 833.726C2068.91 832.693 2067.18 831.828 2065.82 831.492C2062.55 830.795 2059.45 831.996 2056.71 833.558C2056.02 832.693 2054.31 832.357 2053.28 832.525C2050.52 832.693 2048.28 834.255 2045.88 835.625C2043.65 836.994 2041.25 838.196 2038.84 839.229C2037.47 839.734 2036.27 840.094 2034.88 840.43C2034.38 840.43 2033.85 840.43 2033.34 840.599C2032.84 840.43 2032.31 840.262 2031.81 840.262C2031.47 840.094 2030.94 840.094 2030.61 840.094C2032.67 839.397 2034.38 838.556 2035.94 836.994C2037.84 835.264 2039.37 832.188 2038.34 829.593C2038 828.56 2036.44 827.19 2036.44 827.19C2036.44 827.19 2035.6 826.493 2031.95 826.181C2027.68 825.797 2023.54 825.989 2022.01 825.821C2015.81 825.484 2009.11 823.922 2002.94 825.989C1999.67 827.022 1996.57 829.089 1994.34 831.66C1994.17 831.828 1993.84 832.164 1993.64 832.525C1993.64 831.66 1993.14 830.987 1992.27 830.627C1990.38 830.122 1988.84 829.593 1986.77 829.593C1984.54 829.425 1981.78 829.761 1980.41 831.828C1979.55 833.198 1979.91 834.928 1979.91 836.634C1979.74 837.499 1979.74 838.532 1979.74 839.373C1979.4 845.573 1979.04 851.748 1979.04 857.948V862.081C1979.04 863.114 1979.04 864.147 1979.38 865.012C1979.71 866.045 1980.41 866.55 1981.44 866.55C1982.64 866.718 1984.01 866.718 1985.21 866.718C1986.08 866.718 1986.41 866.886 1987.28 866.886C1989.01 867.391 1991.05 866.886 1992.27 865.517C1994.51 865.517 1996.74 865.18 1998.81 865.18H2005.68C2010.31 865.18 2014.78 865.517 2019.25 865.877C2023.71 866.214 2028.35 866.742 2032.82 866.91C2036.95 866.91 2040.89 866.045 2044.68 864.171C2051.38 861.24 2056.71 856.097 2063.41 853.166C2067.02 851.628 2070.98 850.931 2074.25 848.696C2076.98 846.798 2079.91 843.362 2077.85 839.926ZM1990.21 837.355C1990.04 838.22 1990.04 839.085 1990.04 839.926C1989.87 842.689 1989.54 845.428 1989.54 848C1989.37 852.637 1989.03 857.107 1988.84 861.768V862.633H1988.14C1987.98 862.633 1987.81 862.633 1987.81 862.465C1987.11 862.465 1986.44 862.465 1985.74 862.297H1983.17V860.927C1983.17 860.423 1983 859.726 1983 859.029C1983 856.266 1983.17 853.358 1983.34 850.426C1983.34 847.495 1983.51 844.587 1983.68 841.488C1983.68 839.758 1983.84 837.883 1983.84 836.153C1983.84 835.649 1983.51 834.423 1983.84 834.087C1984.01 833.582 1985.38 833.582 1985.91 833.582C1986.44 833.582 1987.11 833.582 1987.64 833.75H1988.5C1989.2 833.918 1989.87 834.087 1990.57 834.447C1990.4 835.48 1990.23 836.514 1990.23 837.379L1990.21 837.355ZM2062.57 834.952C2064.47 834.447 2067.57 834.783 2068.77 836.49C2068.43 836.49 2068.07 836.658 2067.74 836.658C2066.03 836.826 2064.3 837.355 2062.57 837.859C2061.54 838.196 2060.68 838.556 2059.64 839.061C2058.95 839.397 2058.27 839.926 2057.75 840.43C2057.05 840.599 2056.38 840.767 2055.85 840.935C2054.31 841.44 2052.75 841.968 2051.38 842.473C2049.65 843.17 2048.11 843.506 2046.39 843.506C2048.96 842.641 2051.38 841.271 2053.61 839.733C2056.35 837.835 2059.28 835.6 2062.55 834.928L2062.57 834.952ZM2044.51 840.286C2046.41 839.253 2048.28 838.051 2050.18 836.85C2051.21 836.153 2052.08 835.649 2053.11 835.312C2053.28 835.312 2053.81 835.144 2054.48 835.144C2051.55 837.042 2048.81 839.109 2045.54 840.31C2044.51 840.647 2043.31 841.175 2042.11 841.343C2042.97 841.007 2043.65 840.647 2044.51 840.31V840.286ZM2073.74 843.891C2072.71 845.092 2071.34 845.789 2069.97 846.462C2066.7 848 2063.1 848.696 2059.83 850.234C2053.83 853.166 2048.83 857.635 2043 860.374C2039.56 862.105 2036.3 862.609 2032.7 862.609C2028.56 862.609 2024.46 862.105 2020.33 861.744C2015.69 861.408 2011.06 861.047 2006.4 860.879H1999.34C1997.27 861.047 1995.37 861.216 1993.5 861.216V858.644C1993.67 852.805 1994 846.942 1993.84 841.103V837.667C1994.53 836.297 1995.73 834.904 1996.93 833.894C1998.83 831.996 2001.06 830.626 2003.63 829.761C2008.8 828.224 2014.47 829.425 2019.8 829.93C2022.73 830.266 2025.63 830.266 2028.56 830.266H2031.66C2032.53 830.098 2033.9 829.93 2034.59 830.602C2035.63 831.636 2033.73 833.87 2032.86 834.567C2031.13 836.105 2028.73 836.634 2026.33 836.802C2023.06 837.138 2019.46 837.307 2016.2 838.34C2014.49 838.844 2012.93 839.373 2011.39 840.07C2009.86 840.767 2008.13 841.44 2007.09 842.641C2006.23 843.674 2006.59 845.38 2008.13 845.38C2009.86 845.212 2011.39 844.347 2012.93 843.65C2013.27 843.482 2013.43 843.314 2013.79 843.314C2014.3 843.146 2014.99 842.977 2015.52 842.977C2017.06 842.809 2018.79 842.809 2020.33 842.809C2023.93 842.809 2027.72 843.314 2031.33 844.011C2034.59 844.708 2037.86 846.077 2041.29 846.942C2044.56 847.807 2048.16 847.807 2051.43 846.606C2053.16 845.909 2054.86 845.068 2056.42 844.203C2057.12 843.867 2057.79 843.338 2058.49 842.833C2061.25 841.8 2063.99 840.935 2066.92 840.599C2069.15 840.262 2072.59 839.734 2074.15 841.632C2074.49 841.968 2074.49 842.329 2074.49 842.497C2074.49 843.001 2074.15 843.53 2073.79 843.866L2073.74 843.891Z" fill="#231F20"/>
<path id="Vector_9" d="M2070.71 787.998C2069.18 786.099 2067.11 784.561 2064.71 783.696C2062.14 782.831 2059.38 783.36 2056.98 784.393C2054.21 785.595 2051.81 787.493 2049.75 789.728C2049.58 789.896 2049.41 790.064 2049.05 790.425C2049.05 790.256 2048.88 790.088 2048.88 789.92C2048.02 788.887 2046.99 788.022 2045.95 787.181C2044.25 785.811 2041.99 784.946 2039.95 784.249C2035.48 783.216 2031.01 783.913 2028.25 787.854C2025.32 791.626 2024.82 796.792 2025.85 801.43C2026.88 806.236 2030.32 810.537 2033.75 813.973C2035.65 816.04 2037.71 818.106 2039.95 819.98C2041.15 821.014 2042.18 821.879 2043.38 822.912C2044.58 823.945 2045.78 824.979 2047.15 825.651C2047.66 825.82 2048.19 825.82 2048.52 825.82C2048.86 825.988 2049.39 825.988 2049.72 825.82C2052.49 824.786 2055.06 822.552 2057.46 820.653C2059.69 818.923 2061.76 816.881 2063.65 814.814C2067.26 811.21 2070.88 807.245 2072.76 802.439C2073.79 800.036 2074.29 797.441 2073.96 794.702C2073.62 792.299 2072.42 789.896 2070.69 787.998H2070.71ZM2061.25 810.705C2059.19 812.772 2057.29 814.67 2055.06 816.544C2054.02 817.578 2052.82 818.611 2051.79 819.476C2050.76 820.173 2049.56 820.845 2048.52 821.711C2046.99 820.677 2045.42 819.308 2044.06 818.106C2042.16 816.568 2040.62 815.006 2038.89 813.469C2035.63 810.537 2032.53 807.269 2030.46 803.328C2028.92 800.06 2028.73 795.927 2029.96 792.491C2030.46 790.953 2031.49 789.391 2032.72 788.526C2034.09 787.661 2035.65 787.493 2037.19 787.493C2039.08 787.661 2040.79 788.358 2042.52 789.223C2043.55 789.92 2044.58 790.425 2045.45 791.29C2045.95 791.626 2046.31 791.987 2046.82 792.323C2046.82 792.491 2046.99 792.491 2046.99 792.491C2046.65 792.828 2046.29 792.996 2045.62 792.828C2045.11 792.659 2044.75 793.332 2044.92 793.861C2045.78 795.591 2048.19 795.399 2049.56 794.365C2051.09 793.164 2052.49 791.794 2053.85 790.593C2055.75 789.223 2057.65 788.022 2059.86 787.493C2061.92 786.988 2063.99 787.661 2065.69 788.863C2068.96 791.434 2069.99 795.735 2068.96 799.532C2067.59 803.833 2064.33 807.437 2061.23 810.705H2061.25Z" fill="#231F20"/>
</g>
</a>
<a href="/greenhouse_gas_emissions" target="_top">
<g id="greenhouse_gas_emissions">
<path id="Vector_10" d="M832.893 1022.69C832.893 958.677 884.77 906.774 948.752 906.774C1012.73 906.774 1064.61 958.677 1064.61 1022.69C1064.61 1086.7 948.752 1213.67 948.752 1213.67C948.752 1213.67 832.893 1086.7 832.893 1022.69Z" fill="#231F20"/>
<path id="Vector_11" d="M984.338 1098.96C1026.49 1079.33 1044.75 1029.23 1025.13 987.063C1005.51 944.892 955.442 926.619 913.292 946.247C871.143 965.876 852.879 1015.97 872.497 1058.14C892.116 1100.31 942.189 1118.59 984.338 1098.96Z" fill="white"/>
<path id="Vector_12" d="M985.954 1043.96C985.21 1041.43 981.823 1042.32 980.046 1042.78C978.869 1043.07 978.725 1044.27 979.157 1044.99V1046.48C979.013 1047.23 979.013 1048.11 979.446 1048.86C979.878 1049.75 980.935 1050.04 981.967 1050.04H983.457C984.057 1050.04 984.489 1050.18 985.09 1049.75C986.122 1049.15 986.122 1047.97 986.122 1046.94C986.122 1045.9 986.267 1044.87 985.978 1043.98L985.954 1043.96ZM983.144 1047.08V1047.23H981.511V1046.62C981.511 1046.34 981.511 1045.88 981.367 1045.45C981.799 1045.45 982.4 1045.3 982.856 1045.3H983.144V1047.08ZM985.954 1033.31C985.21 1030.79 981.823 1031.68 980.046 1032.13C978.869 1032.42 978.725 1033.62 979.157 1034.35V1035.84C979.013 1036.58 979.013 1037.47 979.446 1038.21C979.878 1039.1 980.935 1039.25 981.967 1039.39H983.457C984.057 1039.39 984.489 1039.39 985.09 1039.1C986.122 1038.5 986.122 1037.33 986.122 1036.29C986.122 1035.26 986.267 1034.23 985.978 1033.34L985.954 1033.31ZM983.144 1036.41V1036.56H981.511V1035.96C981.511 1035.67 981.511 1035.21 981.367 1034.78C981.799 1034.78 982.4 1034.63 982.856 1034.63H983.144V1036.41ZM960.352 1043.96C959.607 1041.43 956.197 1042.32 954.444 1042.78C953.267 1043.07 953.123 1044.27 953.699 1044.99C953.555 1045.42 953.555 1046.02 953.555 1046.48C953.555 1047.23 953.411 1048.11 953.843 1048.86C954.276 1049.75 955.332 1050.04 956.365 1050.04H957.998C958.599 1050.04 959.031 1050.18 959.487 1049.75C960.52 1049.15 960.664 1047.97 960.52 1046.94C960.52 1045.9 960.664 1044.87 960.376 1043.98L960.352 1043.96ZM957.542 1047.08V1047.23H956.053C956.053 1047.08 955.909 1046.79 955.909 1046.62V1045.45C956.341 1045.45 956.797 1045.3 957.23 1045.3H957.518V1047.08H957.542ZM960.352 1033.31C959.607 1030.79 956.197 1031.68 954.444 1032.13C953.267 1032.42 953.123 1033.62 953.699 1034.35C953.555 1034.78 953.555 1035.23 953.555 1035.84C953.555 1036.58 953.411 1037.47 953.843 1038.21C954.276 1039.1 955.332 1039.25 956.365 1039.39H957.998C958.599 1039.39 959.031 1039.39 959.487 1039.1C960.52 1038.5 960.664 1037.33 960.52 1036.29C960.52 1035.26 960.664 1034.23 960.376 1033.34L960.352 1033.31ZM957.542 1036.41V1036.56H956.053C956.053 1036.41 955.909 1036.12 955.909 1035.96V1034.78C956.341 1034.78 956.797 1034.63 957.23 1034.63H957.518V1036.41H957.542ZM934.75 1043.96C934.005 1041.43 930.619 1042.32 928.841 1042.78C927.665 1043.07 927.52 1044.27 928.097 1044.99C927.953 1045.42 927.953 1046.02 927.953 1046.48C927.953 1047.23 927.809 1048.11 928.241 1048.86C928.841 1049.75 929.874 1050.04 930.763 1050.04H932.396C932.996 1050.04 933.429 1050.18 934.029 1049.75C934.918 1049.15 935.062 1047.97 934.918 1046.94C934.918 1045.9 935.062 1044.87 934.774 1043.98L934.75 1043.96ZM932.084 1047.23H930.451C930.451 1047.08 930.451 1046.79 930.307 1046.62V1045.45C930.739 1045.45 931.195 1045.3 931.627 1045.3H931.916C931.916 1045.9 932.06 1046.48 932.06 1047.08V1047.23H932.084ZM934.75 1033.31C934.005 1030.79 930.619 1031.68 928.841 1032.13C927.665 1032.42 927.52 1033.62 928.097 1034.35C927.953 1034.78 927.953 1035.23 927.953 1035.84C927.953 1036.58 927.809 1037.47 928.241 1038.21C928.841 1039.1 929.874 1039.25 930.763 1039.39H932.396C932.996 1039.39 933.429 1039.39 934.029 1039.1C934.918 1038.5 935.062 1037.33 934.918 1036.29C934.918 1035.26 935.062 1034.23 934.774 1033.34L934.75 1033.31ZM932.084 1036.56H930.451C930.451 1036.41 930.451 1036.12 930.307 1035.96V1034.78C930.739 1034.78 931.195 1034.63 931.627 1034.63H931.916C931.916 1035.23 932.06 1035.81 932.06 1036.41V1036.56H932.084ZM980.022 1042.78C978.845 1043.07 978.701 1044.27 979.133 1044.99V1046.48C978.989 1047.23 978.989 1048.11 979.422 1048.86C979.854 1049.75 980.911 1050.04 981.943 1050.04H983.433C984.033 1050.04 984.465 1050.18 985.066 1049.75C986.098 1049.15 986.098 1047.97 986.098 1046.94C986.098 1045.9 986.243 1044.87 985.954 1043.98C985.21 1041.46 981.823 1042.35 980.046 1042.8L980.022 1042.78ZM983.144 1047.08V1047.23H981.511V1046.62C981.511 1046.34 981.511 1045.88 981.367 1045.45C981.799 1045.45 982.4 1045.3 982.856 1045.3H983.144V1047.08ZM979.133 1035.81C978.989 1036.56 978.989 1037.45 979.422 1038.19C979.854 1039.08 980.911 1039.22 981.943 1039.37H983.433C984.033 1039.37 984.465 1039.37 985.066 1039.08C986.098 1038.48 986.098 1037.3 986.098 1036.27C986.098 1035.23 986.243 1034.2 985.954 1033.31C985.21 1030.79 981.823 1031.68 980.046 1032.13C978.869 1032.42 978.725 1033.62 979.157 1034.35V1035.84L979.133 1035.81ZM982.856 1034.63H983.144V1036.56H981.511V1035.96C981.511 1035.67 981.511 1035.21 981.367 1034.78C981.799 1034.78 982.4 1034.63 982.856 1034.63ZM954.444 1042.78C953.267 1043.07 953.123 1044.27 953.699 1044.99C953.555 1045.42 953.555 1046.02 953.555 1046.48C953.555 1047.23 953.411 1048.11 953.843 1048.86C954.276 1049.75 955.332 1050.04 956.365 1050.04H957.998C958.599 1050.04 959.031 1050.18 959.487 1049.75C960.52 1049.15 960.664 1047.97 960.52 1046.94C960.52 1045.9 960.664 1044.87 960.376 1043.98C959.631 1041.46 956.221 1042.35 954.468 1042.8L954.444 1042.78ZM957.542 1047.08V1047.23H956.053C956.053 1047.08 955.909 1046.79 955.909 1046.62V1045.45C956.341 1045.45 956.797 1045.3 957.23 1045.3H957.518V1047.08H957.542ZM954.444 1032.11C953.267 1032.4 953.123 1033.6 953.699 1034.32C953.555 1034.75 953.555 1035.21 953.555 1035.81C953.555 1036.56 953.411 1037.45 953.843 1038.19C954.276 1039.08 955.332 1039.22 956.365 1039.37H957.998C958.599 1039.37 959.031 1039.37 959.487 1039.08C960.52 1038.48 960.664 1037.3 960.52 1036.27C960.52 1035.23 960.664 1034.2 960.376 1033.31C959.631 1030.79 956.221 1031.68 954.468 1032.13L954.444 1032.11ZM957.542 1036.41V1036.56H956.053C956.053 1036.41 955.909 1036.12 955.909 1035.96V1034.78C956.341 1034.78 956.797 1034.63 957.23 1034.63H957.518V1036.41H957.542ZM928.841 1042.78C927.665 1043.07 927.52 1044.27 928.097 1044.99C927.953 1045.42 927.953 1046.02 927.953 1046.48C927.953 1047.23 927.809 1048.11 928.241 1048.86C928.841 1049.75 929.874 1050.04 930.763 1050.04H932.396C932.996 1050.04 933.429 1050.18 934.029 1049.75C934.918 1049.15 935.062 1047.97 934.918 1046.94C934.918 1045.9 935.062 1044.87 934.774 1043.98C934.029 1041.46 930.643 1042.35 928.865 1042.8L928.841 1042.78ZM932.084 1047.23H930.451C930.451 1047.08 930.451 1046.79 930.307 1046.62V1045.45C930.739 1045.45 931.195 1045.3 931.627 1045.3H931.916C931.916 1045.9 932.06 1046.48 932.06 1047.08V1047.23H932.084ZM928.841 1032.11C927.665 1032.4 927.52 1033.6 928.097 1034.32C927.953 1034.75 927.953 1035.21 927.953 1035.81C927.953 1036.56 927.809 1037.45 928.241 1038.19C928.841 1039.08 929.874 1039.22 930.763 1039.37H932.396C932.996 1039.37 933.429 1039.37 934.029 1039.08C934.918 1038.48 935.062 1037.3 934.918 1036.27C934.918 1035.23 935.062 1034.2 934.774 1033.31C934.029 1030.79 930.643 1031.68 928.865 1032.13L928.841 1032.11ZM932.084 1036.56H930.451C930.451 1036.41 930.451 1036.12 930.307 1035.96V1034.78C930.739 1034.78 931.195 1034.63 931.627 1034.63H931.916C931.916 1035.23 932.06 1035.81 932.06 1036.41V1036.56H932.084ZM980.022 1042.78C978.845 1043.07 978.701 1044.27 979.133 1044.99V1046.48C978.989 1047.23 978.989 1048.11 979.422 1048.86C979.854 1049.75 980.911 1050.04 981.943 1050.04H983.433C984.033 1050.04 984.465 1050.18 985.066 1049.75C986.098 1049.15 986.098 1047.97 986.098 1046.94C986.098 1045.9 986.243 1044.87 985.954 1043.98C985.21 1041.46 981.823 1042.35 980.046 1042.8L980.022 1042.78ZM983.144 1047.08V1047.23H981.511V1046.62C981.511 1046.34 981.511 1045.88 981.367 1045.45C981.799 1045.45 982.4 1045.3 982.856 1045.3H983.144V1047.08ZM979.133 1035.81C978.989 1036.56 978.989 1037.45 979.422 1038.19C979.854 1039.08 980.911 1039.22 981.943 1039.37H983.433C984.033 1039.37 984.465 1039.37 985.066 1039.08C986.098 1038.48 986.098 1037.3 986.098 1036.27C986.098 1035.23 986.243 1034.2 985.954 1033.31C985.21 1030.79 981.823 1031.68 980.046 1032.13C978.869 1032.42 978.725 1033.62 979.157 1034.35V1035.84L979.133 1035.81ZM982.856 1034.63H983.144V1036.56H981.511V1035.96C981.511 1035.67 981.511 1035.21 981.367 1034.78C981.799 1034.78 982.4 1034.63 982.856 1034.63ZM954.444 1042.78C953.267 1043.07 953.123 1044.27 953.699 1044.99C953.555 1045.42 953.555 1046.02 953.555 1046.48C953.555 1047.23 953.411 1048.11 953.843 1048.86C954.276 1049.75 955.332 1050.04 956.365 1050.04H957.998C958.599 1050.04 959.031 1050.18 959.487 1049.75C960.52 1049.15 960.664 1047.97 960.52 1046.94C960.52 1045.9 960.664 1044.87 960.376 1043.98C959.631 1041.46 956.221 1042.35 954.468 1042.8L954.444 1042.78ZM957.542 1047.08V1047.23H956.053C956.053 1047.08 955.909 1046.79 955.909 1046.62V1045.45C956.341 1045.45 956.797 1045.3 957.23 1045.3H957.518V1047.08H957.542ZM954.444 1032.11C953.267 1032.4 953.123 1033.6 953.699 1034.32C953.555 1034.75 953.555 1035.21 953.555 1035.81C953.555 1036.56 953.411 1037.45 953.843 1038.19C954.276 1039.08 955.332 1039.22 956.365 1039.37H957.998C958.599 1039.37 959.031 1039.37 959.487 1039.08C960.52 1038.48 960.664 1037.3 960.52 1036.27C960.52 1035.23 960.664 1034.2 960.376 1033.31C959.631 1030.79 956.221 1031.68 954.468 1032.13L954.444 1032.11ZM957.542 1036.41V1036.56H956.053C956.053 1036.41 955.909 1036.12 955.909 1035.96V1034.78C956.341 1034.78 956.797 1034.63 957.23 1034.63H957.518V1036.41H957.542ZM928.841 1042.78C927.665 1043.07 927.52 1044.27 928.097 1044.99C927.953 1045.42 927.953 1046.02 927.953 1046.48C927.953 1047.23 927.809 1048.11 928.241 1048.86C928.841 1049.75 929.874 1050.04 930.763 1050.04H932.396C932.996 1050.04 933.429 1050.18 934.029 1049.75C934.918 1049.15 935.062 1047.97 934.918 1046.94C934.918 1045.9 935.062 1044.87 934.774 1043.98C934.029 1041.46 930.643 1042.35 928.865 1042.8L928.841 1042.78ZM932.084 1047.23H930.451C930.451 1047.08 930.451 1046.79 930.307 1046.62V1045.45C930.739 1045.45 931.195 1045.3 931.627 1045.3H931.916C931.916 1045.9 932.06 1046.48 932.06 1047.08V1047.23H932.084ZM928.841 1032.11C927.665 1032.4 927.52 1033.6 928.097 1034.32C927.953 1034.75 927.953 1035.21 927.953 1035.81C927.953 1036.56 927.809 1037.45 928.241 1038.19C928.841 1039.08 929.874 1039.22 930.763 1039.37H932.396C932.996 1039.37 933.429 1039.37 934.029 1039.08C934.918 1038.48 935.062 1037.3 934.918 1036.27C934.918 1035.23 935.062 1034.2 934.774 1033.31C934.029 1030.79 930.643 1031.68 928.865 1032.13L928.841 1032.11ZM932.084 1036.56H930.451C930.451 1036.41 930.451 1036.12 930.307 1035.96V1034.78C930.739 1034.78 931.195 1034.63 931.627 1034.63H931.916C931.916 1035.23 932.06 1035.81 932.06 1036.41V1036.56H932.084Z" fill="#231F20"/>
<path id="Vector_13" d="M994.24 1055.8C993.952 1053.14 994.096 1050.47 994.096 1047.95C994.096 1045.88 994.096 1043.79 993.952 1041.72C993.808 1036.24 993.664 1030.76 993.352 1025.29C993.208 1023.51 993.063 1021.73 993.063 1019.95C992.919 1019.06 992.031 1018.03 990.998 1018.46C985.81 1020.53 980.935 1022.76 975.915 1024.83C973.994 1025.72 971.928 1026.61 970.007 1027.21C969.863 1026.92 969.863 1026.61 969.863 1026.46C969.719 1024.83 969.575 1023.2 969.431 1021.44C969.142 1019.81 968.83 1017.89 966.621 1017.74C965.732 1017.74 964.699 1018.34 963.81 1018.77C963.666 1018.92 963.522 1018.92 963.378 1019.06C963.09 1019.21 962.778 1019.21 962.634 1019.35C959.68 1020.53 956.725 1021.87 953.747 1023.05C950.937 1024.37 947.983 1025.57 945.173 1026.9C944.429 1027.18 943.684 1027.5 943.108 1027.93V1027.5C943.252 1026.9 943.252 1026.18 943.252 1025.43C943.252 1024.4 943.252 1023.36 943.396 1022.33C943.396 1021.44 943.54 1020.55 943.252 1019.66C942.964 1018.49 941.763 1017.74 940.586 1018.03C939.409 1018.17 938.064 1019.06 937.031 1019.66C934.365 1020.99 931.7 1022.33 929.034 1023.65C927.713 1024.4 926.368 1024.97 925.047 1025.72C923.726 1026.46 922.381 1027.04 921.204 1027.79C920.916 1028.07 920.459 1028.22 920.171 1028.53C919.571 1024.83 918.994 1021.13 918.538 1017.57C917.794 1013.58 917.217 1009.57 916.329 1005.73C916.04 1004.09 915.584 1002.46 915.296 1000.85C915.008 1000.1 915.008 999.527 914.864 998.47C914.719 997.436 914.263 996.403 913.374 995.947C911.885 995.058 909.964 995.202 908.499 995.346C907.034 995.49 905.545 995.778 904.2 996.523C903.768 996.668 903.599 997.268 903.767 997.701V997.845C903.767 997.989 903.623 998.133 903.623 998.278C903.479 998.422 903.479 998.71 903.479 999.022C903.479 999.167 903.335 999.455 903.335 999.623C903.191 1000.37 903.191 1000.94 903.047 1001.55V1002.58C903.047 1002.72 902.903 1002.87 902.903 1003.01V1003.44C902.759 1004.19 902.759 1004.93 902.615 1005.82C902.327 1009.38 901.87 1013.08 901.438 1016.64C900.693 1024.47 899.805 1032.18 898.916 1040.02C898.628 1042.39 898.316 1044.89 898.027 1047.27V1048.16C897.883 1048.91 897.883 1049.05 897.739 1049.94C897.307 1053.21 896.995 1057.2 899.06 1060.01C900.982 1062.68 904.68 1063.11 907.802 1062.96C911.645 1062.82 915.344 1062.53 919.187 1062.36C926.584 1062.07 934.125 1062.65 941.667 1062.51C945.365 1062.36 949.208 1062.22 952.907 1062.07C956.749 1061.93 960.448 1061.93 964.291 1061.93C971.832 1062.07 979.518 1061.93 987.083 1062.07C988.716 1062.07 990.349 1062.22 991.959 1062.07C992.391 1062.07 992.703 1062.07 992.991 1061.93C993.136 1061.79 993.28 1061.79 993.424 1061.64C994.456 1060.9 994.601 1060.01 994.456 1058.83V1057.94C994.312 1057.2 994.312 1056.45 994.312 1055.73L994.24 1055.8ZM914.791 1059.22C912.87 1059.36 910.949 1059.36 909.027 1059.5C907.538 1059.5 905.929 1059.65 904.44 1059.36C903.263 1059.22 902.23 1058.61 901.63 1057.58C900.885 1056.26 900.885 1054.63 901.03 1053.14C901.03 1051.36 901.318 1049.72 901.462 1047.95C901.75 1045.88 902.062 1043.79 902.206 1041.72C903.095 1034.18 903.984 1026.78 904.728 1019.23C905.161 1015.53 905.473 1011.83 905.905 1007.99C906.049 1005.32 906.337 1002.65 906.193 999.984C906.193 999.551 906.193 998.95 906.049 998.494C906.65 998.494 907.226 998.35 907.826 998.35H910.036C910.781 998.35 911.069 998.494 911.525 998.638H911.669C911.669 999.07 911.813 999.383 911.813 999.96C911.813 1000.54 911.957 1001.14 912.101 1001.74C912.246 1003.23 912.534 1004.55 912.846 1005.87C913.134 1007.5 913.446 1009.14 913.735 1010.75C913.879 1011.04 913.879 1011.35 913.879 1011.78V1011.93C914.023 1012.21 914.023 1012.36 914.023 1012.67C914.167 1014.45 914.455 1016.08 914.623 1017.86C916.112 1028.67 917.89 1039.46 919.499 1050.28C919.931 1053.09 920.387 1056.04 920.676 1058.85C918.754 1059 916.689 1059.14 914.767 1059.14L914.791 1059.22ZM981.367 1058.61C977.524 1058.61 973.826 1058.76 970.127 1058.61C962.73 1058.61 955.477 1058.61 948.079 1058.9C940.538 1059.19 933.141 1059.05 925.743 1058.9H924.71C923.534 1050.47 922.189 1042.18 920.868 1033.74C920.724 1032.86 920.58 1031.97 920.58 1031.08C922.501 1030.48 924.422 1029.44 926.2 1028.55C928.866 1027.23 931.676 1025.89 934.341 1024.57C935.662 1023.82 937.007 1023.24 938.328 1022.5C938.929 1022.21 939.505 1021.9 940.25 1021.61C940.25 1021.9 940.106 1022.21 940.106 1022.64C939.961 1023.68 939.961 1024.85 939.817 1025.91C939.673 1027.55 938.785 1030.21 940.706 1031.39C942.339 1032.42 944.116 1031.1 945.581 1030.5C947.959 1029.47 950.313 1028.29 952.835 1027.23C955.789 1025.91 959.055 1024.57 961.865 1023.39C963.042 1022.96 964.243 1022.5 965.276 1021.9C965.564 1021.75 965.708 1021.61 966.02 1021.61V1021.75C966.164 1023.39 966.308 1025.02 966.452 1026.63C966.596 1028.27 966.164 1030.62 968.518 1030.93C969.407 1031.08 970.007 1030.79 970.727 1030.5C970.872 1030.5 971.016 1030.36 971.16 1030.36C971.16 1030.36 971.304 1030.36 971.304 1030.21C972.481 1029.78 973.513 1029.32 974.714 1028.89C977.668 1027.71 980.791 1026.37 983.889 1025.05C985.81 1024.3 987.732 1023.41 989.653 1022.52C989.653 1029.92 990.253 1037.47 990.253 1044.87C990.398 1047.54 990.253 1050.2 990.253 1052.87C990.253 1054.36 990.398 1055.68 990.398 1057.17C990.542 1057.77 990.542 1058.21 990.542 1058.81C987.588 1058.66 984.321 1058.66 981.367 1058.66V1058.61Z" fill="url(#paint0_radial_2616_1468)"/>
<path id="Vector_14" d="M994.649 981.289C993.832 979.679 991.959 978.526 990.133 978.478C989.653 976.579 988.356 974.825 986.675 973.84C985.234 973.047 983.312 972.951 981.535 973.527C979.998 972.134 977.837 971.437 975.531 971.581C973.057 971.749 970.727 972.879 969.334 974.633C968.614 975.474 968.038 976.555 967.533 977.949C967.341 977.901 967.149 977.853 966.957 977.805C965.3 977.42 963.45 977.733 961.841 978.67C961.193 977.108 959.824 975.93 959.031 975.354C957.518 974.248 955.5 973.864 953.675 974.345C953.291 974.441 952.955 974.561 952.642 974.681C949.64 972.614 945.269 973.335 942.579 976.387C941.835 977.156 941.234 978.021 940.802 978.91C940.25 978.622 939.577 978.454 938.857 978.478C937.896 978.55 936.911 978.91 936.095 979.511C935.446 978.79 934.678 978.237 933.861 977.877C933.02 977.228 931.579 977.444 930.475 977.949C930.162 977.3 929.754 976.771 929.322 976.387C927.905 975.33 926.103 975.017 924.206 975.45C921.997 975.954 920.027 977.444 919.066 979.319C918.658 980.015 918.394 980.784 918.298 981.697C915.776 981.409 913.326 983.932 912.294 985.734C911.357 987.32 911.429 989.411 912.462 991.694C911.309 992.174 910.468 993.231 910.228 994.601C909.964 996.067 910.492 997.485 911.621 998.302C911.957 998.518 912.366 998.59 912.75 998.518C913.014 998.47 913.254 998.326 913.47 998.133C913.422 998.47 913.519 998.83 913.735 999.143C914.311 999.984 915.248 999.791 915.944 999.647C916.064 999.623 916.208 999.599 916.376 999.551C917.745 999.143 919.066 998.494 920.171 997.629C920.868 999.143 922.213 1000.82 924.062 1001.19C926.152 1001.86 928.529 1001.62 930.667 1000.56C931.243 1002.27 932.588 1003.76 934.221 1004.55C935.182 1005.01 936.263 1005.27 937.392 1005.32C937.392 1005.41 937.44 1005.51 937.44 1005.58C937.464 1005.7 937.488 1005.85 937.536 1005.99C938.424 1009.45 941.859 1011.28 944.861 1011.54C945.029 1011.54 945.221 1011.54 945.437 1011.54C947.383 1011.54 950.457 1010.94 951.418 1009.31C952.282 1009.79 953.219 1010.1 954.132 1010.2C956.053 1010.36 958.094 1009.62 959.752 1008.15C960.544 1007.41 961.409 1006.47 961.673 1005.51C962.153 1005.7 962.61 1005.85 963.09 1005.94C965.78 1006.28 968.614 1005.75 971.088 1004.4C972.337 1003.64 974.042 1002.58 974.594 1000.97C978.005 1001.55 981.199 998.974 982.64 995.971C982.688 995.706 982.736 995.466 982.736 995.226C985.906 995.754 989.365 994.553 992.319 991.862C995.609 989.267 996.618 984.701 994.673 981.265L994.649 981.289ZM913.446 995.923C913.134 995.538 912.942 995.274 913.206 994.769C913.422 994.481 913.807 994.337 914.239 994.193C914.935 993.952 915.824 993.64 915.872 992.414C915.824 991.694 915.512 991.069 915.224 990.444C914.936 989.867 914.671 989.315 914.623 988.666C914.383 987.008 915.92 985.47 917.481 984.701C917.77 984.629 918.106 984.509 918.394 984.365C918.466 984.869 918.586 985.422 918.73 986.023C918.946 986.575 919.355 986.912 919.883 987.008C920.435 987.08 921.012 986.864 921.348 986.407C921.66 985.999 921.732 985.446 921.516 984.989C921.276 983.908 921.012 982.659 921.3 981.529C921.876 979.607 923.75 978.189 925.815 978.189C927.4 978.093 928.073 978.934 928.169 981.025C928.313 981.673 928.721 982.466 929.394 982.587C929.706 982.659 930.21 982.586 930.691 981.89C930.787 981.745 930.859 981.577 930.907 981.361C931.123 981.193 931.267 981.025 931.339 980.808C931.651 980.544 931.964 980.424 932.324 980.448C933.092 980.52 933.837 981.289 934.269 981.962C934.413 982.202 934.485 982.49 934.582 982.779C934.774 983.403 934.99 984.076 935.71 984.461H935.806C936.215 984.581 936.623 984.461 936.935 984.148C937.416 983.668 937.584 982.827 937.488 982.226C937.488 982.178 937.512 982.154 937.536 982.106C937.968 981.673 938.664 981.313 939.217 981.433C939.433 981.505 939.697 981.625 939.961 981.697C939.865 982.779 940.25 983.476 941.09 983.716C941.595 983.86 942.123 983.716 942.507 983.307C942.867 982.947 943.012 982.442 942.916 981.986C942.964 981.481 943.084 981.001 943.276 980.544C944.116 978.694 946.038 976.507 948.584 976.411C949.664 976.411 950.721 976.844 951.49 977.588L951.706 977.829C952.21 978.405 952.787 979.054 953.771 979.102C954.108 979.054 954.396 978.886 954.564 978.574C954.804 978.165 954.828 977.612 954.708 977.156C955.068 977.084 955.404 977.084 955.693 977.108C956.918 977.3 958.094 978.165 958.863 979.391C958.983 979.583 959.079 979.799 959.175 980.015C959.271 980.232 959.391 980.448 959.511 980.664C958.887 981.433 958.214 982.442 958.407 983.355C958.503 983.836 958.839 984.221 959.415 984.485C959.848 984.629 960.256 984.605 960.592 984.389C961.024 984.148 961.337 983.644 961.457 983.043C962.201 981.745 963.522 980.856 964.987 980.616C965.516 980.544 966.092 980.616 966.717 980.784C966.572 981.505 966.5 982.731 967.605 983.355L967.701 983.403H967.797C969.214 983.403 969.527 981.914 969.743 980.928C969.791 980.76 969.815 980.592 969.863 980.448V980.352C970.247 979.102 970.631 977.805 971.4 976.747C973.009 974.537 976.299 973.864 978.845 975.162C978.437 975.594 978.125 976.051 977.909 976.555C977.789 977.036 977.909 977.564 978.293 977.949C978.677 978.333 979.206 978.502 979.686 978.381C980.19 978.285 980.598 977.925 980.791 977.42C981.127 977.012 981.607 976.675 982.16 976.411C983.24 975.906 984.393 975.93 985.378 976.507C986.555 977.204 987.347 978.55 987.443 980.015C987.443 980.256 987.347 980.64 987.251 981.001C987.011 981.818 986.675 982.947 987.756 983.524L987.9 983.572C989.053 983.692 989.965 982.659 990.181 981.625C990.181 981.553 990.205 981.505 990.229 981.433C990.854 981.481 991.382 981.794 991.839 982.346C992.631 983.379 992.967 985.134 992.559 986.455C991.959 988.642 989.989 990.108 988.332 991.141C985.546 992.967 982.04 992.703 979.926 990.492C979.133 989.747 978.149 989.531 977.524 989.939C977.284 990.108 976.78 990.66 977.38 991.982C978.101 992.943 979.133 993.784 980.334 994.385C980.142 994.577 979.95 994.817 979.806 995.082C979.157 996.115 978.029 997.436 976.371 997.941C974.786 998.518 973.465 997.028 972.913 996.307C972.385 995.802 971.592 995.778 970.992 996.259C970.487 996.644 970.175 997.364 970.607 998.157C971.04 998.734 971.52 999.239 972.048 999.671C971.928 999.839 971.832 1000.01 971.712 1000.18C971.208 1000.85 970.487 1001.31 969.791 1001.74C968.014 1002.75 965.876 1003.2 963.762 1003.01C962.586 1002.87 961.481 1002.1 960.376 1000.66C960.28 1000.56 960.232 1000.44 960.16 1000.3C960.04 1000.06 959.896 999.767 959.607 999.599C959.103 999.239 958.431 999.239 957.902 999.599C957.374 999.96 957.134 1000.58 957.302 1001.23C957.806 1002.27 958.575 1003.25 959.463 1004.04C959.175 1004.31 958.887 1004.62 958.599 1004.96C957.902 1005.77 957.11 1006.71 955.669 1007.07C953.843 1007.62 952.066 1006.4 951.129 1004.93L951.057 1004.86C950.601 1004.45 949.953 1004.38 949.376 1004.67C948.944 1004.89 948.656 1005.27 948.584 1005.7V1006.21C948.752 1006.64 949.016 1007.1 949.328 1007.5C949.112 1007.6 948.896 1007.7 948.68 1007.79L948.439 1007.91C946.926 1008.56 945.365 1008.68 944.02 1008.3C942.099 1007.89 940.706 1006.57 940.322 1004.81C940.874 1004.62 941.402 1004.36 941.883 1004C942.531 1003.35 942.771 1002.58 942.459 1002.03C942.315 1001.79 941.883 1001.23 940.586 1001.5C939.361 1002 938.232 1002.41 937.007 1002.19C935.134 1002 933.213 1000.46 933.309 998.494C933.309 998.446 933.309 998.398 933.309 998.35C933.453 998.157 933.597 997.869 933.669 997.557C933.789 997.124 933.741 996.523 933.381 996.139C933.141 995.899 932.828 995.803 932.492 995.875C931.651 995.971 931.075 996.475 930.523 996.956C930.09 997.316 929.706 997.677 929.178 997.845C927.448 998.614 924.398 998.95 923.101 996.788C922.621 996.139 922.621 995.562 922.597 995.034C922.597 994.913 922.597 994.793 922.597 994.673C922.597 994.649 922.645 994.601 922.669 994.529C922.933 993.616 922.765 992.847 922.213 992.511C921.684 992.198 920.988 992.366 920.243 993.063C919.307 994.337 918.394 995.202 917.337 995.778C916.593 996.235 915.944 996.499 915.296 996.595C914.791 996.547 914.263 996.74 913.903 997.1C913.975 996.547 913.663 996.139 913.422 995.827L913.446 995.923Z" fill="url(#paint1_radial_2616_1468)"/>
</g>
</a>
<a href="/water_quality" target="_top">
<g id="water_quality">
<path id="Vector_15" d="M1533.47 1556.98C1533.47 1492.96 1585.35 1441.06 1649.33 1441.06C1713.32 1441.06 1765.19 1492.96 1765.19 1556.98C1765.19 1620.99 1649.33 1747.96 1649.33 1747.96C1649.33 1747.96 1533.47 1620.99 1533.47 1556.98Z" fill="#231F20"/>
<path id="Vector_16" d="M1684.91 1633.21C1727.06 1613.58 1745.32 1563.48 1725.7 1521.31C1706.09 1479.14 1656.01 1460.87 1613.86 1480.5C1571.71 1500.13 1553.45 1550.22 1573.07 1592.39C1592.69 1634.56 1642.76 1652.84 1684.91 1633.21Z" fill="white"/>
<path id="Vector_17" d="M1620.51 1565.44C1619 1564.04 1615.59 1563.32 1614.34 1565.48C1614.17 1565.75 1614.05 1566.09 1613.98 1566.4C1613.64 1566.73 1613.33 1567.07 1613.12 1567.48C1612.61 1568.39 1612.52 1569.55 1612.8 1570.55C1613.38 1572.57 1615.37 1574.04 1617.49 1573.92C1619.48 1573.8 1621.11 1572.28 1621.81 1570.48C1622.53 1568.63 1621.98 1566.76 1620.54 1565.46L1620.51 1565.44ZM1618.54 1570C1617.63 1571.3 1615.73 1570.96 1615.35 1569.35C1615.23 1568.8 1615.3 1568.34 1615.49 1567.91C1616.14 1567.74 1616.72 1567.21 1617.41 1567.31C1618.88 1567.55 1619.26 1568.95 1618.52 1569.98L1618.54 1570ZM1663.36 1572.28C1661.32 1571.78 1659.25 1571.85 1657.31 1570.7C1655.07 1569.38 1653.22 1567.55 1650.85 1566.47C1648.49 1565.39 1645.87 1564.52 1643.31 1565.27C1642.25 1565.56 1641.24 1566.06 1640.3 1566.61C1639.68 1567 1639.08 1567.53 1638.84 1568.22C1638.33 1568.44 1638.07 1569.23 1638.69 1569.52C1640.11 1570.17 1640.62 1572.41 1641 1573.73C1641.55 1575.65 1642.32 1577.33 1643.93 1578.63C1647.36 1581.42 1652.26 1581.25 1656.3 1580.05C1658.77 1579.33 1660.84 1577.81 1662.59 1575.96C1663.02 1575.94 1663.46 1575.82 1663.82 1575.58C1665.04 1574.74 1664.97 1572.67 1663.38 1572.26L1663.36 1572.28ZM1657.79 1575.6C1656.63 1576.37 1655.39 1576.78 1654.04 1577.09C1651.83 1577.6 1649.38 1577.84 1647.22 1576.97C1646.28 1576.59 1645.42 1575.96 1644.82 1575.14C1644.22 1574.33 1644 1573.34 1643.55 1572.33C1642.92 1570.89 1642.08 1569.26 1640.74 1568.56C1641.17 1568.46 1641.6 1568.42 1641.96 1568.32C1643.02 1568.08 1644.07 1567.86 1645.15 1567.98C1646.28 1568.1 1647.36 1568.68 1648.4 1569.14C1649.41 1569.59 1650.37 1570.17 1651.25 1570.84C1653.18 1572.33 1654.86 1574.06 1657.16 1574.95C1657.5 1575.1 1657.86 1575.19 1658.22 1575.31C1658.08 1575.41 1657.93 1575.53 1657.79 1575.63V1575.6ZM1693.41 1554.09C1691.46 1552.99 1689.13 1553.57 1687.28 1554.55C1685.38 1555.56 1683.58 1556.98 1682 1558.4C1680.03 1560.15 1678.15 1562.07 1676.57 1564.19C1675.82 1565.17 1675.03 1566.25 1674.43 1567.41C1671.5 1564.19 1667.51 1561.95 1663.77 1559.86C1658.68 1557.03 1653.58 1554.46 1647.89 1552.99C1641.62 1551.4 1635.26 1551.28 1628.92 1552.53C1623.42 1553.61 1617.94 1555.44 1613.21 1558.54C1610.55 1560.29 1608.14 1562.36 1605.89 1564.6C1603.84 1566.59 1601.9 1568.73 1600.82 1571.4C1600.55 1571.56 1600.34 1571.85 1600.34 1572.21C1600.34 1572.89 1600.43 1573.58 1600.67 1574.21C1600.96 1574.93 1601.49 1575.48 1601.9 1576.13C1602.79 1577.5 1603.77 1578.84 1604.81 1580.12C1606.73 1582.45 1608.77 1584.59 1611.22 1586.34C1615.85 1589.68 1621.5 1591.44 1627.09 1592.21C1630.38 1592.66 1633.7 1592.81 1637.04 1592.73C1640.25 1592.66 1643.52 1592.49 1646.72 1591.89C1652.98 1590.72 1658.89 1587.86 1664.32 1584.56C1668.5 1582.04 1671.98 1578.6 1674.1 1574.26C1674.29 1575.29 1674.58 1576.32 1674.98 1577.28C1676.04 1579.88 1677.65 1582.26 1679.45 1584.4C1681.18 1586.44 1683.27 1588.24 1685.72 1589.35C1686.99 1589.92 1688.43 1590.48 1689.85 1590.4C1690.84 1590.35 1692.2 1590.09 1692.78 1589.23C1693.12 1589.2 1693.45 1589.08 1693.79 1588.82C1694.77 1588.05 1695.11 1586.65 1695.47 1585.5C1695.83 1584.37 1696.09 1583.19 1696.31 1582.04C1696.74 1579.64 1696.94 1577.21 1696.96 1574.76C1697.01 1570.7 1696.96 1566.59 1696.82 1562.53C1696.72 1559.57 1696.31 1555.75 1693.45 1554.09H1693.41ZM1628.44 1585.91C1628.17 1586.39 1627.86 1586.82 1627.55 1587.28C1627.41 1587.5 1627.26 1587.69 1627.09 1587.88C1626.95 1588.02 1626.57 1588.19 1626.9 1588.1C1626.73 1588.14 1626.59 1588.22 1626.47 1588.29C1622.55 1587.64 1618.66 1586.44 1615.23 1584.49C1612.66 1583.05 1610.52 1581.2 1608.55 1579.01C1607.42 1577.76 1606.29 1576.49 1605.19 1575.19C1604.69 1574.59 1604.21 1573.99 1603.6 1573.44C1603.27 1573.13 1602.96 1572.81 1602.69 1572.48C1605.86 1568.9 1609.42 1565.41 1613.4 1562.77C1617.49 1560.05 1621.83 1558.23 1626.54 1556.98C1626.59 1557.03 1626.64 1557.1 1626.69 1557.15C1627.17 1557.72 1627.55 1558.37 1627.91 1559.02C1628.61 1560.29 1629.13 1561.62 1629.54 1563.01C1630.43 1566.06 1630.84 1569.28 1630.96 1572.45C1631.08 1575.63 1630.79 1578.8 1629.93 1581.87C1629.54 1583.19 1629.09 1584.66 1628.44 1585.89V1585.91ZM1669.15 1576.59C1667.59 1578.32 1665.79 1579.76 1663.82 1580.98C1659.01 1583.94 1653.61 1586.32 1648.13 1587.71C1645.25 1588.46 1642.37 1588.72 1639.41 1588.87C1636.6 1589.01 1633.77 1589.03 1630.94 1588.84C1631.51 1587.98 1631.97 1587.11 1632.35 1586.13C1633.41 1583.41 1634.13 1580.74 1634.39 1577.84C1634.66 1574.86 1634.49 1571.83 1634.06 1568.87C1633.63 1566.09 1633 1563.3 1631.85 1560.73C1631.22 1559.31 1630.41 1557.96 1629.33 1556.81C1629.23 1556.69 1629.11 1556.57 1628.99 1556.45C1634.18 1555.37 1639.53 1555.22 1644.75 1556.38C1650.03 1557.56 1655.05 1559.6 1659.73 1562.31C1664.15 1564.88 1669 1567.29 1672.22 1571.37C1671.53 1573.27 1670.52 1575.1 1669.17 1576.59H1669.15ZM1693.28 1562.82C1693.26 1566.45 1693.28 1570.07 1693.24 1573.73C1693.24 1576.01 1693.16 1578.32 1692.78 1580.58C1692.59 1581.75 1692.32 1582.91 1691.99 1584.06C1691.77 1584.78 1691.44 1585.53 1691.22 1586.27C1691.08 1586.27 1690.96 1586.27 1690.81 1586.27C1690.5 1586.27 1690.21 1586.37 1689.92 1586.41C1689.85 1586.41 1689.66 1586.44 1689.61 1586.46C1688.7 1586.44 1687.81 1586.08 1686.99 1585.67C1685 1584.66 1683.29 1583.19 1681.8 1581.58C1680.27 1579.93 1678.95 1578.05 1677.94 1576.03C1677.39 1574.93 1676.88 1573.82 1676.54 1572.62C1676.42 1572.16 1676.33 1571.66 1676.23 1571.16C1676.4 1570.6 1676.35 1570.03 1676.02 1569.52C1676.67 1568.54 1677.29 1567.55 1678.06 1566.64C1679.38 1565.08 1680.8 1563.66 1682.31 1562.31C1683.87 1560.92 1685.55 1559.69 1687.26 1558.49C1688.36 1557.72 1690.23 1556.43 1691.56 1556.95C1691.87 1557.07 1692.16 1557.39 1692.32 1557.63C1692.66 1558.16 1692.78 1558.52 1692.92 1559.14C1693.21 1560.34 1693.24 1561.54 1693.24 1562.87L1693.28 1562.82ZM1696.46 1540.98C1693.28 1539.73 1689.97 1538.81 1686.8 1537.54C1683.27 1536.12 1679.76 1537.03 1676.4 1538.38C1675.61 1538.69 1674.84 1539 1674.05 1539.27C1673.13 1539.58 1672.25 1540.04 1671.33 1540.3C1669.75 1540.76 1667.9 1540.57 1666.31 1540.13C1662.95 1539.17 1659.73 1537.32 1656.2 1537.01C1654.02 1536.82 1651.71 1537.06 1649.55 1537.32C1648.52 1537.44 1647.46 1537.56 1646.45 1537.8C1644.99 1538.14 1643.62 1538.86 1642.25 1539.46C1639.17 1540.78 1636 1542.42 1632.69 1540.81C1631.87 1540.42 1631.01 1540.21 1630.17 1539.87C1629.42 1539.58 1628.7 1539.22 1627.96 1538.91C1626.23 1538.16 1624.43 1537.61 1622.58 1537.25C1620.51 1536.84 1618.45 1536.7 1616.38 1537.01C1614.53 1537.3 1612.78 1538.04 1611.12 1538.88C1609.54 1539.68 1608.02 1540.64 1606.39 1541.31C1605.57 1541.65 1604.71 1541.86 1603.87 1542.13C1603.05 1542.37 1602.04 1542.54 1601.25 1542.18C1600.67 1541.91 1600.19 1542.54 1600.58 1543.04C1602.64 1545.66 1606.7 1544.36 1609.25 1543.31C1612.23 1542.08 1614.99 1540.37 1618.33 1540.4C1621.88 1540.45 1625.1 1541.96 1628.32 1543.28C1629.06 1543.59 1629.83 1543.91 1630.62 1544.12C1631.56 1544.39 1632.64 1544.39 1633.6 1544.46C1635.43 1544.6 1637.23 1544.27 1638.96 1543.69C1640.57 1543.16 1642.08 1542.44 1643.64 1541.79C1644.39 1541.48 1645.15 1541.22 1645.95 1541.02C1646.31 1540.93 1646.64 1540.85 1647 1540.81C1647.1 1540.81 1647.2 1540.81 1647.29 1540.78C1649.55 1540.59 1651.88 1540.61 1654.14 1540.69C1654.64 1540.69 1655.12 1540.73 1655.63 1540.78C1655.67 1540.78 1655.72 1540.78 1655.75 1540.78C1656.06 1540.88 1656.37 1540.93 1656.68 1541C1658.48 1541.48 1660.21 1542.2 1661.94 1542.92C1665.35 1544.32 1669.65 1545.68 1673.18 1543.88C1676.62 1542.13 1679.88 1538.84 1684.04 1539.49C1686.06 1539.8 1688.07 1540.88 1689.92 1541.7C1691.87 1542.56 1693.86 1543.35 1695.81 1544.24C1696.58 1544.58 1697.32 1544.46 1697.8 1543.98C1699.22 1542.85 1697.97 1540.49 1696.46 1540.95V1540.98ZM1646.98 1540.83C1647.05 1540.83 1647.22 1540.81 1646.98 1540.83V1540.83ZM1609.22 1533.41C1612.2 1532.18 1614.96 1530.47 1618.3 1530.5C1621.86 1530.55 1625.08 1532.06 1628.29 1533.38C1629.04 1533.69 1629.81 1534.01 1630.6 1534.22C1631.54 1534.49 1632.62 1534.49 1633.58 1534.56C1635.4 1534.7 1637.2 1534.37 1638.93 1533.79C1640.54 1533.26 1642.06 1532.54 1643.62 1531.89C1644.36 1531.58 1645.13 1531.32 1645.92 1531.12C1646.28 1531.03 1646.62 1530.95 1646.98 1530.91C1647.08 1530.91 1647.17 1530.91 1647.27 1530.88C1649.53 1530.69 1651.86 1530.71 1654.11 1530.79C1654.62 1530.79 1655.1 1530.83 1655.6 1530.88C1655.65 1530.88 1655.7 1530.88 1655.72 1530.88C1656.03 1530.98 1656.35 1531.03 1656.66 1531.1C1658.46 1531.58 1660.19 1532.3 1661.92 1533.02C1665.33 1534.42 1669.63 1535.78 1673.16 1533.98C1676.59 1532.23 1679.86 1528.94 1684.01 1529.59C1686.03 1529.9 1688.05 1530.98 1689.9 1531.8C1691.84 1532.66 1693.84 1533.45 1695.78 1534.34C1696.55 1534.68 1697.3 1534.56 1697.78 1534.08C1699.19 1532.95 1697.94 1530.59 1696.43 1531.05C1693.26 1529.8 1689.95 1528.89 1686.78 1527.61C1683.25 1526.2 1679.74 1527.11 1676.38 1528.46C1675.58 1528.77 1674.82 1529.08 1674.02 1529.34C1673.11 1529.66 1672.22 1530.11 1671.31 1530.38C1669.72 1530.83 1667.87 1530.64 1666.29 1530.21C1662.93 1529.25 1659.71 1527.4 1656.18 1527.09C1653.99 1526.89 1651.69 1527.13 1649.53 1527.4C1648.49 1527.52 1647.44 1527.64 1646.43 1527.88C1644.96 1528.22 1643.59 1528.94 1642.22 1529.54C1639.15 1530.86 1635.98 1532.49 1632.67 1530.88C1631.85 1530.5 1630.98 1530.28 1630.14 1529.95C1629.4 1529.66 1628.68 1529.3 1627.93 1528.98C1626.2 1528.24 1624.4 1527.69 1622.55 1527.33C1620.49 1526.92 1618.42 1526.77 1616.36 1527.09C1614.51 1527.37 1612.76 1528.12 1611.1 1528.96C1609.51 1529.75 1608 1530.71 1606.37 1531.39C1605.55 1531.72 1604.69 1531.94 1603.84 1532.2C1603.03 1532.44 1602.02 1532.61 1601.23 1532.25C1600.65 1531.99 1600.17 1532.61 1600.55 1533.12C1602.62 1535.74 1606.68 1534.44 1609.22 1533.38V1533.41ZM1609.22 1523.51C1612.2 1522.28 1614.96 1520.57 1618.3 1520.6C1621.86 1520.65 1625.08 1522.16 1628.29 1523.48C1629.04 1523.79 1629.81 1524.11 1630.6 1524.32C1631.54 1524.59 1632.62 1524.59 1633.58 1524.66C1635.4 1524.8 1637.2 1524.47 1638.93 1523.89C1640.54 1523.36 1642.06 1522.64 1643.62 1521.99C1644.36 1521.68 1645.13 1521.42 1645.92 1521.22C1646.28 1521.13 1646.62 1521.05 1646.98 1520.98C1647.08 1520.98 1647.17 1520.98 1647.27 1520.96C1649.53 1520.77 1651.86 1520.79 1654.11 1520.86C1654.62 1520.86 1655.1 1520.91 1655.6 1520.96C1655.65 1520.96 1655.7 1520.96 1655.72 1520.96C1656.03 1521.05 1656.35 1521.1 1656.66 1521.18C1658.46 1521.66 1660.19 1522.38 1661.92 1523.1C1665.33 1524.49 1669.63 1525.86 1673.16 1524.06C1676.59 1522.3 1679.86 1519.01 1684.01 1519.66C1686.03 1519.97 1688.05 1521.05 1689.9 1521.87C1691.84 1522.74 1693.84 1523.53 1695.78 1524.42C1696.55 1524.76 1697.3 1524.64 1697.78 1524.15C1699.19 1523.03 1697.94 1520.67 1696.43 1521.13C1693.26 1519.88 1689.95 1518.96 1686.78 1517.69C1683.25 1516.27 1679.74 1517.19 1676.38 1518.53C1675.58 1518.84 1674.82 1519.16 1674.02 1519.42C1673.11 1519.73 1672.22 1520.19 1671.31 1520.45C1669.72 1520.91 1667.87 1520.72 1666.29 1520.29C1662.93 1519.32 1659.71 1517.47 1656.18 1517.16C1653.99 1516.97 1651.69 1517.21 1649.53 1517.47C1648.49 1517.59 1647.44 1517.71 1646.43 1517.96C1644.96 1518.29 1643.59 1519.01 1642.22 1519.61C1639.15 1520.93 1635.98 1522.57 1632.67 1520.96C1631.85 1520.57 1630.98 1520.36 1630.14 1520.02C1629.4 1519.73 1628.68 1519.37 1627.93 1519.06C1626.2 1518.32 1624.4 1517.76 1622.55 1517.4C1620.49 1516.99 1618.42 1516.85 1616.36 1517.16C1614.51 1517.45 1612.76 1518.2 1611.1 1519.04C1609.51 1519.83 1608 1520.79 1606.37 1521.46C1605.55 1521.8 1604.69 1522.02 1603.84 1522.28C1603.03 1522.52 1602.02 1522.69 1601.23 1522.33C1600.65 1522.06 1600.17 1522.69 1600.55 1523.19C1602.62 1525.81 1606.68 1524.52 1609.22 1523.46V1523.51Z" fill="#231F20"/>
<g id="Vector_18" style="mix-blend-mode:multiply">
<path d="M1590.59 1750.46C1590.59 1783.31 1712.52 1783.31 1712.52 1750.46C1712.52 1717.61 1590.59 1717.61 1590.59 1750.46Z" fill="#E6E6E6"/>
</g>
</g>
</a>
<a href="/invasive_species" target="_top">
<g id="invasive_species">
<g id="Vector_19" style="mix-blend-mode:multiply">
<path d="M593.729 763.921C593.729 790.57 700.293 790.57 700.293 763.921C700.293 737.273 593.729 737.273 593.729 763.921Z" fill="#E6E6E6"/>
</g>
<path id="Vector_20" d="M532.509 575.1C532.509 511.086 584.386 459.184 648.368 459.184C712.35 459.184 764.227 511.086 764.227 575.1C764.227 639.114 648.368 766.083 648.368 766.083C648.368 766.083 532.509 639.114 532.509 575.1Z" fill="#231F20"/>
<path id="Vector_21" d="M683.904 651.391C726.053 631.763 744.318 581.665 724.699 539.495C705.081 497.324 655.008 479.051 612.858 498.679C570.709 518.308 552.444 568.405 572.063 610.576C591.682 652.746 641.755 671.02 683.904 651.391Z" fill="white"/>
<path id="Vector_22" d="M621.853 538.312C618.947 538.312 618.947 542.805 621.853 542.805C624.759 542.805 624.759 538.312 621.853 538.312ZM685.186 583.198C685.09 581.396 684.994 579.642 685.138 577.816C685.306 575.749 685.666 573.731 686.051 571.688C686.819 567.555 687.732 563.374 687.66 559.169C687.54 552.465 684.682 545.761 680.191 540.811C677.933 538.336 675.195 536.294 672.097 534.996C668.23 533.386 664.075 533.338 659.968 533.674C657.783 533.843 655.597 534.107 653.411 534.107C651.202 534.107 648.992 533.891 646.807 533.506C643.708 532.953 640.706 532.016 637.656 531.392C638.953 528.556 636.263 526.033 633.453 526.562C631.7 526.898 629.706 529.061 629.706 531.031C626.296 531.488 622.982 532.665 619.715 533.794C617.938 534.419 616.089 535.044 614.311 535.861C614.095 534.828 613.735 533.795 613.207 532.905C612.582 531.872 611.766 530.911 610.493 530.767C610.18 530.719 609.988 531.127 610.132 531.368C610.373 531.728 610.421 532.257 610.565 532.689C610.733 533.146 610.949 533.602 611.117 534.059C611.381 534.732 611.477 535.405 611.549 536.101C611.261 535.717 610.949 535.356 610.709 535.044C610.445 534.732 610.18 534.443 609.868 534.179C609.196 533.626 608.379 533.338 607.683 532.833C607.442 532.641 607.058 532.954 607.154 533.242C607.37 533.891 607.731 534.443 608.163 534.972C608.283 535.116 608.403 535.26 608.499 535.404C608.523 535.429 608.715 535.693 608.763 535.765C608.811 535.837 608.907 536.005 608.932 536.053C609.364 536.75 609.772 537.495 609.964 538.264C609.964 538.336 610.012 538.384 610.036 538.432C609.412 538.937 608.835 539.513 608.331 540.138C608.067 540.234 607.875 540.427 607.779 540.787C607.394 542.277 608.139 543.767 608.787 545.088C609.028 545.593 609.34 546.073 609.652 546.506C609.34 547.083 609.028 547.635 608.595 548.116C608.235 548.524 607.851 548.837 607.394 549.101C607.034 549.317 606.65 549.534 606.458 549.918C606.314 550.158 606.362 550.447 606.554 550.663C607.25 551.432 608.595 550.783 609.292 550.303C610.084 549.75 610.733 549.053 611.285 548.26C611.381 548.332 611.477 548.428 611.573 548.5C611.886 548.741 612.198 548.981 612.51 549.197C612.462 549.413 612.39 549.654 612.318 549.87C612.054 550.735 611.862 551.72 611.501 552.537C611.357 552.898 611.766 553.282 612.054 552.97C612.798 552.225 613.663 551.744 614.287 550.855C614.383 550.687 614.479 550.543 614.576 550.375C616.377 551.216 618.298 551.792 620.196 552.369C621.517 552.778 622.909 553.114 624.11 553.787C625.359 554.484 626.584 555.204 627.929 555.685C628.025 555.853 628.097 555.997 628.193 556.166C628.626 557.007 629.034 557.824 629.514 558.617C629.995 559.41 630.427 560.227 630.787 561.092C630.955 561.476 631.051 561.861 631.171 562.269C630.859 562.197 630.547 562.125 630.235 562.053C628.53 561.764 626.704 561.668 625.023 562.173C620.868 563.471 619.259 568.348 620.796 572.217C621.252 573.395 622.501 573.731 623.486 572.914C624.855 571.785 625.599 570.079 626.968 568.997C627.185 568.829 627.449 568.661 627.713 568.565C627.785 568.613 628.001 568.733 628.049 568.757C628.794 569.189 629.418 569.79 630.091 570.295C633.789 573.058 638.713 573.082 642.628 570.751C642.724 570.679 642.844 570.631 642.94 570.559C643.06 574.043 644.717 577.263 647.287 579.786C647.143 579.786 646.999 579.786 646.855 579.762C644.933 579.642 643.012 579.666 641.091 579.522C639.385 579.402 637.68 579.378 635.975 579.546C634.462 579.714 632.853 579.954 631.58 580.868C630.163 581.901 629.562 583.703 630.859 585.121C631.772 586.106 633.141 586.442 634.414 586.635C638.377 587.283 642.46 586.635 646.446 586.659C648.656 586.659 650.89 586.659 653.099 586.635C654.252 586.635 655.405 586.683 656.582 586.731C657.35 586.779 658.095 586.851 658.791 586.683C659.32 586.827 659.848 586.947 660.352 587.043C663.571 587.548 666.837 587.62 670.103 587.836C673.154 588.028 676.252 588.341 679.326 588.293C679.494 588.557 679.638 588.845 679.782 589.11C679.878 589.302 679.974 589.494 680.046 589.686C680.046 589.686 680.215 590.143 680.239 590.215C680.431 590.768 680.599 591.32 680.719 591.873C680.767 592.089 680.815 592.305 680.839 592.522C680.839 592.546 680.887 592.858 680.887 592.858C680.887 592.978 680.887 593.098 680.911 593.219C680.911 593.531 680.935 593.819 680.911 594.132C680.911 594.324 680.911 594.492 680.887 594.684C680.887 594.732 680.839 595.093 680.839 595.045C680.623 596.366 680.239 597.376 679.422 598.481C678.75 599.394 677.789 600.259 676.732 600.812C676.708 600.812 676.684 600.812 676.66 600.836C676.564 600.86 676.468 600.908 676.396 600.932C676.156 601.028 675.915 601.1 675.675 601.172C675.075 601.34 674.474 601.461 673.874 601.557C673.754 601.557 673.634 601.605 673.514 601.605C673.466 601.605 673.442 601.605 673.394 601.605C673.37 601.605 673.322 601.605 673.25 601.605C672.961 601.629 672.673 601.677 672.409 601.701C671.712 601.773 671.04 601.797 670.343 601.845C668.902 601.893 667.461 601.893 666.02 601.845C660.376 601.701 654.684 601.172 649.088 600.499C640.61 599.466 632.156 598.409 623.606 598.289C618.899 598.217 614.191 598.721 609.772 600.427C607.659 601.244 605.737 602.253 604.008 603.719C602.495 605.017 601.63 606.507 601.462 608.501C601.462 608.717 601.486 608.886 601.582 609.03C601.654 609.438 602.015 609.799 602.471 609.582C605.953 608.117 609.676 607.011 613.375 606.17C617.41 605.257 621.42 604.969 625.527 605.497C629.586 606.002 633.621 606.939 637.656 607.612C641.787 608.285 645.918 608.934 650.097 609.318C654.228 609.678 658.383 609.895 662.514 610.087C665.588 610.231 668.662 610.423 671.736 610.351C677.549 610.231 684.177 609.174 688.02 604.32C693.352 597.592 689.725 589.158 685.114 583.15L685.186 583.198ZM633.141 529.734C633.477 529.469 633.861 529.229 634.318 529.277C634.486 529.277 634.99 529.445 635.086 529.638C635.278 530.022 634.75 530.334 634.558 530.527C634.438 530.647 634.342 530.767 634.27 530.911C634.126 530.911 633.957 530.887 633.813 530.863C633.285 530.839 632.781 530.815 632.252 530.839C632.492 530.43 632.757 530.07 633.165 529.758L633.141 529.734ZM627.761 568.541C627.569 568.421 627.617 568.541 627.761 568.541V568.541ZM633.357 583.679C633.357 583.679 633.357 583.631 633.357 583.607C633.357 583.607 633.357 583.655 633.357 583.679ZM649.977 582.958C646.566 582.958 643.228 583.102 639.818 583.367C638.112 583.511 636.407 583.607 634.702 583.294C634.582 583.294 634.486 583.246 634.366 583.222C635.014 583.03 635.783 582.838 635.903 582.814C637.344 582.646 638.785 582.622 640.226 582.67C642.051 582.718 643.853 582.694 645.678 582.67C646.639 582.646 647.599 582.598 648.536 582.526C648.944 582.478 649.352 582.429 649.737 582.333C649.857 582.309 650.049 582.237 650.217 582.189C650.577 582.453 650.962 582.718 651.346 582.958C650.866 582.958 650.409 582.958 649.929 582.958H649.977ZM685.402 601.677C683.985 603.647 681.752 604.921 679.398 605.642C676.732 606.459 674.186 606.651 671.352 606.699C668.326 606.747 665.276 606.579 662.25 606.435C658.215 606.242 654.18 606.074 650.145 605.738C646.182 605.401 642.243 604.897 638.305 604.296C634.318 603.695 630.379 602.878 626.368 602.398C621.877 601.845 617.482 602.205 613.087 603.239C611.021 603.719 609.028 604.464 607.034 605.185C608.619 604.32 610.3 603.695 612.054 603.191C616.089 602.037 620.22 601.749 624.423 601.869C628.77 601.989 633.165 602.278 637.512 602.71C641.931 603.167 646.326 603.815 650.721 604.344C656.269 604.993 661.937 605.497 667.509 605.545C670.295 605.569 673.154 605.473 675.891 604.873C678.75 604.248 681.007 602.614 682.688 600.211C684.586 597.496 684.874 593.987 684.081 590.84C683.769 589.542 683.241 588.293 682.592 587.139C682.352 586.731 682.112 586.322 681.824 585.962C681.728 585.842 681.656 585.721 681.56 585.601C681.295 585.025 680.743 584.568 679.926 584.496C677.308 584.256 674.643 584.232 672.001 584.063C669.335 583.895 666.669 583.775 664.027 583.559C661.649 583.367 659.392 582.958 657.23 581.925C655.309 581.012 653.387 579.858 651.682 578.585C648.8 576.398 646.11 573.25 646.254 569.43C646.422 565.201 649.376 561.572 652.379 558.857C656.414 555.18 661.577 553.066 665.588 549.389C665.972 549.029 665.588 548.284 665.06 548.476C660.16 550.351 655.261 552.657 651.178 556.021C648.2 558.472 645.438 561.596 643.997 565.225C643.949 565.273 643.925 565.297 643.901 565.345C643.3 566.066 642.628 566.811 641.859 567.387C638.593 569.766 634.366 569.718 631.219 567.171C630.427 566.522 629.61 565.825 628.602 565.537C627.449 565.225 626.368 565.585 625.407 566.258C624.687 566.762 624.11 567.387 623.582 568.06C623.702 567.483 623.942 566.907 624.327 566.426C625.143 565.369 626.464 565.056 627.761 565.032C629.466 565.032 630.979 565.657 632.661 565.825C633.645 565.921 634.63 565.825 635.35 565.105C635.951 564.552 636.335 563.663 636.047 562.846C635.855 562.341 635.134 562.173 634.822 562.605C634.39 560.539 633.309 558.569 631.988 556.935C631.844 556.766 631.7 556.598 631.556 556.406C631.868 556.406 632.156 556.454 632.444 556.454C633.957 556.526 635.495 556.526 636.96 556.094C638.497 555.613 639.938 554.796 641.139 553.715C642.291 552.681 643.348 551.216 643.012 549.606C642.916 549.197 642.459 549.101 642.123 549.245C641.042 549.75 640.25 550.639 639.361 551.408C638.545 552.129 637.536 552.73 636.503 553.09C635.302 553.498 634.126 553.474 632.877 553.426C631.7 553.378 630.499 553.234 629.37 552.874C628.265 552.513 627.281 551.744 626.296 551.144C625.095 550.423 623.894 549.918 622.549 549.486C620.244 548.717 617.866 548.14 615.68 547.059C615.848 546.218 615.969 545.377 616.065 544.536C616.209 543.454 616.065 542.205 614.936 541.7C614.359 541.436 613.831 541.532 613.447 541.916C613.231 541.58 612.774 541.412 612.414 541.412C611.525 541.364 611.261 542.109 611.093 542.805C611.069 542.757 611.021 542.709 610.997 542.637C610.685 542.085 610.108 541.604 609.796 541.051C612.798 539.201 616.257 538.072 619.571 536.966C623.366 535.693 627.233 534.275 631.268 534.011C632.733 533.915 634.174 534.011 635.591 534.227C635.399 534.371 635.206 534.515 635.014 534.684C633.333 536.125 631.484 538.985 632.468 541.244C632.685 541.748 633.381 541.724 633.717 541.412C634.462 540.739 634.774 539.754 635.35 538.937C635.831 538.24 636.455 537.567 637.152 537.087C637.8 536.654 638.713 536.173 639.385 536.125C640.01 536.053 640.538 536.197 640.802 536.558C641.715 537.783 641.187 539.634 640.058 540.595C639.361 541.196 638.401 541.508 637.512 541.772C637.08 541.916 636.647 542.061 636.191 542.133C635.639 542.253 635.038 542.253 634.534 542.589C633.789 543.07 633.621 543.887 633.981 544.68C634.654 546.122 636.455 545.881 637.728 545.665C638.929 545.449 640.154 544.968 641.235 544.391C643.42 543.214 644.909 540.931 645.029 538.432C645.053 537.711 644.957 536.966 644.717 536.27C648.56 537.039 652.427 537.327 656.366 536.942C660.448 536.558 664.723 535.957 668.758 537.014C671.688 537.783 674.33 539.489 676.492 541.58C680.791 545.737 683.649 551.72 684.105 557.655C684.418 561.981 683.481 566.282 682.664 570.511C682.208 572.794 681.8 575.101 681.584 577.431C681.367 579.69 681.535 581.853 681.608 584.087C681.608 584.424 681.704 584.688 681.824 584.929C681.872 585.049 681.944 585.169 682.04 585.289C685.474 589.758 689.173 596.511 685.402 601.749V601.677Z" fill="#231F20"/>
</g>
</a>
<a href="/climate_variables" target="_top">
<g id="climate_variables">
<path id="Vector_23" d="M1784.72 215.865C1784.72 151.851 1836.59 99.9482 1900.58 99.9482C1964.56 99.9482 2016.44 151.851 2016.44 215.865C2016.44 279.878 1900.58 406.848 1900.58 406.848C1900.58 406.848 1784.72 279.878 1784.72 215.865Z" fill="#231F20"/>
<path id="Vector_24" d="M1936.08 292.092C1978.23 272.463 1996.49 222.366 1976.88 180.195C1957.26 138.025 1907.18 119.751 1865.03 139.38C1822.89 159.008 1804.62 209.106 1824.24 251.276C1843.86 293.447 1893.93 311.72 1936.08 292.092Z" fill="white"/>
<path id="Vector_25" d="M1905.16 237.347C1905.16 237.131 1905.16 236.914 1905.16 236.698C1905.19 235.136 1905.24 233.55 1905.26 231.988C1905.33 226.87 1905.36 221.752 1905.38 216.61C1905.43 205.629 1905.31 194.623 1905.28 183.642C1905.28 182.2 1905.28 180.758 1905.28 179.317C1905.28 177.49 1905.43 175.568 1904.56 173.886C1902.21 169.393 1895.58 170.57 1894.14 175.112C1893.61 176.77 1893.73 178.524 1893.76 180.23C1893.8 190.01 1893.76 199.789 1893.83 209.569C1893.88 215.408 1893.92 221.247 1894.07 227.087C1894.09 228.288 1894.12 229.489 1894.16 230.691C1894.16 231.196 1894.19 231.7 1894.21 232.205C1894.21 232.445 1894.21 232.685 1894.21 232.95C1894.21 233.142 1894.24 233.31 1894.26 233.502C1894.24 233.262 1894.26 233.695 1894.26 233.767C1894.33 234.632 1894.4 235.521 1894.52 236.386C1894.57 236.674 1894.62 236.987 1894.64 237.275C1894.69 237.659 1894.55 236.77 1894.67 237.587C1894.67 237.659 1894.69 237.755 1894.72 237.828C1893.3 238.068 1891.86 239.365 1891.04 240.351C1889.7 241.961 1888.69 243.883 1888.11 245.925C1886.89 250.154 1888.88 254.96 1892.24 257.628C1895.53 260.247 1900.43 260.992 1904.35 259.43C1908.91 257.604 1911.48 252.461 1911.5 247.704C1911.53 244.051 1909.15 238.212 1905.14 237.347H1905.16ZM1897.36 177.995C1897.36 177.13 1897.43 176.073 1898.01 175.376C1898.27 175.063 1898.99 174.703 1899.38 174.655C1901.23 174.415 1901.71 176.121 1901.66 177.851C1901.66 178.139 1901.66 178.428 1901.66 178.716C1901.66 179.893 1901.66 181.071 1901.66 182.224C1901.66 189.649 1901.61 197.098 1901.66 204.523C1900.91 204.475 1900.17 204.523 1899.45 204.547C1898.85 204.571 1898.13 204.547 1897.43 204.643C1897.43 197.411 1897.43 190.154 1897.43 182.921C1897.43 181.768 1897.43 180.59 1897.43 179.437C1897.43 178.956 1897.41 178.476 1897.43 177.995H1897.36ZM1903.63 255.705C1901.08 257.051 1897.62 256.714 1895.17 255.321C1892.53 253.831 1890.83 250.587 1891.11 247.559C1891.26 245.925 1892.03 244.171 1892.84 242.778C1893.3 242.033 1893.83 241.336 1894.43 240.711C1894.89 240.254 1895.44 239.918 1895.89 239.486C1896.37 239.438 1896.83 239.101 1896.83 238.524C1896.83 238.236 1896.85 237.972 1896.88 237.683C1896.88 237.635 1896.88 237.491 1896.88 237.419C1896.88 237.275 1896.9 237.155 1896.93 237.011C1896.93 236.866 1896.95 236.722 1896.97 236.578C1896.97 236.458 1897.05 235.857 1897 236.266C1897.19 234.439 1897.21 232.589 1897.24 230.739C1897.29 225.429 1897.36 220.142 1897.36 214.832C1897.36 212.477 1897.36 210.122 1897.36 207.767C1897.94 207.839 1898.54 207.815 1899.06 207.863C1899.88 207.911 1900.79 207.719 1901.61 207.911C1901.61 209.689 1901.61 211.468 1901.66 213.246C1901.75 221.512 1901.71 229.802 1902.09 238.068C1902.09 238.164 1902.09 238.26 1902.11 238.38C1902.11 238.404 1902.11 238.452 1902.11 238.5C1902.11 239.413 1902.76 239.894 1903.46 239.942C1904.44 240.663 1905.38 241.288 1906.08 242.369C1906.87 243.619 1907.45 245.084 1907.69 246.55C1908.21 249.722 1906.56 254.119 1903.65 255.633L1903.63 255.705ZM1889.36 232.878C1889.36 232.878 1889.36 232.805 1889.36 232.757C1889.36 232.757 1889.36 232.757 1889.36 232.878ZM1920.25 246.214C1919.43 240.759 1916.57 234.271 1910.83 232.733C1910.83 232.565 1910.83 232.421 1910.83 232.253C1910.83 230.667 1910.88 229.081 1910.9 227.495C1910.98 222.473 1910.95 217.475 1910.93 212.453C1910.93 202.409 1910.76 192.364 1910.74 182.32C1910.74 177.178 1911.36 171.483 1907.4 167.518C1904.73 164.851 1900.79 163.986 1897.17 164.827C1893.49 165.692 1890.49 168.287 1889.17 171.82C1887.51 176.193 1888.06 181.167 1888.09 185.756C1888.11 190.875 1888.09 195.993 1888.16 201.111C1888.23 207.214 1888.28 213.342 1888.45 219.445C1888.59 224.131 1888.64 228.288 1889.31 232.733C1889.31 232.781 1889.39 233.166 1889.41 233.262C1889.41 233.334 1889.43 233.406 1889.46 233.478C1888.16 233.767 1886.91 234.584 1885.83 235.497C1883.65 237.347 1882.2 240.11 1881.44 242.85C1879.42 250.106 1882.01 258.517 1887.97 263.178C1893.73 267.696 1902.52 268.369 1909.08 265.317C1912.49 263.731 1915.2 260.727 1917.22 257.628C1919.38 254.287 1920.82 250.203 1920.22 246.19L1920.25 246.214ZM1915.37 253.422C1914 256.258 1911.94 259.189 1909.32 261.016C1904.49 264.428 1897 264.452 1891.88 261.64C1886.24 258.541 1883.55 251.861 1884.15 245.637C1884.44 242.729 1885.49 240.014 1887.37 237.755C1887.92 237.083 1888.64 236.386 1889.29 235.905C1889.75 235.569 1890.03 235.304 1890.42 235.064C1890.97 235.136 1891.62 234.8 1891.59 234.103C1891.59 232.805 1891.69 231.508 1891.74 230.21C1891.81 228.024 1891.79 225.837 1891.79 223.65C1891.79 217.931 1891.79 212.212 1891.79 206.494C1891.79 197.747 1891.83 189 1891.67 180.254C1891.59 176.866 1891.86 172.733 1894.38 170.33C1896.49 168.335 1899.69 167.663 1902.4 168.576C1903.77 169.032 1905.04 170.089 1905.84 171.387C1906.92 173.165 1907.13 175.304 1907.13 177.37C1907.13 178.668 1907.09 179.941 1907.09 181.239C1907.06 190.634 1907.09 200.006 1907.23 209.401C1907.35 217.427 1907.4 225.453 1907.76 233.454C1907.73 233.526 1907.69 233.598 1907.66 233.695C1907.42 234.608 1907.97 235.497 1908.84 235.761C1913.5 237.227 1915.47 241.24 1916.4 245.685C1916.98 248.376 1916.55 250.947 1915.35 253.446L1915.37 253.422Z" fill="#231F20"/>
</g>
</a>

</g>
<defs>
<radialGradient id="paint0_radial_2616_1468" cx="0" cy="0" r="1" gradientUnits="userSpaceOnUse" gradientTransform="translate(945.87 1029.18) scale(41.862 41.8828)">
<stop offset="0.57" stop-color="#130C0E"/>
<stop offset="0.8" stop-color="#130C0E"/>
<stop offset="1" stop-color="#130C0E"/>
</radialGradient>
<radialGradient id="paint1_radial_2616_1468" cx="0" cy="0" r="1" gradientUnits="userSpaceOnUse" gradientTransform="translate(952.883 991.525) scale(33.3599 33.3765)">
<stop offset="0.57" stop-color="#130C0E"/>
<stop offset="0.8" stop-color="#130C0E"/>
<stop offset="1" stop-color="#130C0E"/>
</radialGradient>
</defs>
</svg>
