<?xml version="1.0" encoding="UTF-8"?>
<svg fill="none" version="1.1" viewBox="0 0 48 48" xmlns="http://www.w3.org/2000/svg" >
 <path d="m26.39 34.042v-0.2988c0.0145-0.7359 0.0364-1.4718 0.0509-2.2078 0.0364-2.3972 0.0437-4.7945 0.0582-7.1845 0.0219-5.1369-0.0364-10.274-0.0509-15.418v-2.0184c0-0.85981 0.0728-1.7488-0.3421-2.543-1.0989-2.1058-4.1992-1.5593-4.876 0.57564-0.2474 0.77236-0.1892 1.5957-0.1819 2.3972 0.0218 4.5686 0 9.1445 0.0363 13.713 0.0219 2.7325 0.051 5.4649 0.1092 8.1974 0.0146 0.561 0.0291 1.1221 0.0437 1.6831 0 0.2332 0.0145 0.4664 0.0218 0.7068 0 0.1166 0 0.2259 0.0073 0.3425 0 0.0874 0.0145 0.1676 0.0218 0.255-0.0145-0.1093 0 0.0874 0 0.1239 0.0291 0.408 0.0655 0.8234 0.1237 1.2241 0.0219 0.1385 0.0437 0.2842 0.0583 0.4226 0.0218 0.1749-0.0437-0.2331 0.0145 0.153 0 0.0365 0.0146 0.0802 0.0218 0.1166-0.6622 0.1166-1.3318 0.7214-1.7175 1.1804-0.6331 0.7578-1.0989 1.6541-1.3755 2.6013-0.5749 1.9747 0.3639 4.2189 1.9286 5.4795 1.5356 1.2314 3.8281 1.5738 5.6621 0.8452 2.1323-0.8525 3.3331-3.2571 3.3477-5.4867 0.0145-1.7124-1.0989-4.4375-2.9766-4.8456l0.0146-0.0145zm-3.6534-27.747c0.0073-0.40076 0.0364-0.89624 0.3056-1.2241 0.1238-0.15302 0.4585-0.31332 0.6405-0.33518 0.866-0.11658 1.0843 0.68493 1.0698 1.4937v0.40076 1.6467c0 3.4756-0.0218 6.9514-0.0146 10.427-0.342-0.0291-0.6986 0-1.0261 0.0146-0.2766 0.0146-0.6186 0-0.9461 0.0437v-10.157-1.6322c0-0.22588-0.0146-0.45176 0-0.67764h-0.0291zm2.9402 36.338c-1.1863 0.6267-2.8092 0.4737-3.9518-0.1748-1.2299-0.6995-2.0305-2.2151-1.8922-3.6287 0.0728-0.7651 0.4221-1.5812 0.8151-2.2297 0.211-0.3497 0.4585-0.6776 0.7423-0.9618 0.2183-0.2113 0.4731-0.3716 0.6768-0.5756 0.2184-0.0219 0.4367-0.1749 0.4367-0.4445 0-0.1312 0.0145-0.2623 0.0218-0.3935 0-0.0218 0.0073-0.0947 0.0073-0.1166 0-0.0655 0.0146-0.1311 0.0146-0.1894 0-0.0656 0.0145-0.1384 0.0218-0.204 0-0.051 0.0364-0.3352 0.0145-0.1457 0.0874-0.8599 0.1019-1.7197 0.1092-2.5795 0.0218-2.4774 0.051-4.9621 0.0582-7.4395v-3.3008c0.2693 0.0292 0.5531 0.0292 0.7933 0.0438 0.3784 0.0291 0.8151-0.0656 1.1863 0.0291 0 0.8307 0.0072 1.6613 0.0218 2.492 0.0437 3.8691 0.0218 7.7455 0.2038 11.607 0 0.0364 0.0072 0.0947 0.0145 0.1457 0 0.0146-0.0073 0.0364-0.0073 0.0583 0 0.4226 0.3057 0.6485 0.6259 0.6776 0.4658 0.3352 0.9025 0.6267 1.2227 1.1367 0.3639 0.5902 0.6404 1.2752 0.7569 1.9601 0.2474 1.4792-0.524 3.5339-1.8922 4.2553v-0.0219zm-6.6737-10.675s0-0.0364-0.0072-0.051c0-0.0073 0 0 0.0072 0.051zm14.439 6.23c-0.3857-2.5503-1.7102-5.5888-4.3957-6.3028v-0.2186c0.0073-0.7432 0.0219-1.4792 0.0291-2.2224 0.0291-2.3463 0.0146-4.6852 0.0146-7.0315 0-4.6997-0.0801-9.3922-0.0873-14.092 0-2.3972 0.2911-5.0641-1.5575-6.9222-1.2445-1.246-3.0857-1.6467-4.7814-1.2533-1.7248 0.40076-3.1148 1.6176-3.7407 3.2643-0.7715 2.0475-0.5167 4.3646-0.5022 6.5214 0.0146 2.3972 0.0073 4.7872 0.0364 7.1845 0.0291 2.8563 0.0509 5.7199 0.1383 8.5762 0.0655 2.1932 0.0873 4.1314 0.4075 6.208 0 0.0219 0.0364 0.2113 0.0437 0.2478 0 0.0291 0.0146 0.0656 0.0146 0.0947-0.6114 0.1385-1.1863 0.5174-1.6957 0.9473-1.0262 0.8598-1.6957 2.1568-2.0523 3.4319-0.9389 3.3955 0.2765 7.3302 3.0566 9.5089 2.6927 2.113 6.7973 2.4191 9.8685 0.9982 1.5938-0.7359 2.8601-2.1422 3.8062-3.5995 1.0116-1.5666 1.6884-3.4684 1.4046-5.3483l-0.0073 0.0073zm-2.2779 3.3809c-0.6404 1.3262-1.6083 2.696-2.831 3.5558-2.2633 1.5958-5.7566 1.603-8.151 0.2915-2.6418-1.45-3.8935-4.5687-3.617-7.4832 0.131-1.3626 0.6259-2.6305 1.4992-3.6797 0.262-0.3206 0.5968-0.6485 0.8952-0.8671 0.211-0.153 0.3493-0.2769 0.524-0.3935 0.2547 0.0365 0.5603-0.1239 0.5531-0.4445-0.0073-0.612 0.0436-1.2168 0.0655-1.8289 0.0363-1.0274 0.0218-2.0475 0.0218-3.0676-0.0073-2.6741 0-5.3483 0-8.0224 0-4.095 0.0145-8.1827-0.051-12.278-0.0291-1.5812 0.0874-3.5194 1.2736-4.6415 0.9825-0.93268 2.4744-1.2533 3.748-0.82338 0.6405 0.2186 1.2372 0.70679 1.6084 1.3116 0.5094 0.83795 0.6041 1.8362 0.6113 2.798 0 0.60478-0.0291 1.2096-0.0291 1.8143-0.0145 4.3865 0 8.7802 0.0728 13.167 0.0582 3.7453 0.0728 7.5051 0.2547 11.25-0.0145 0.0365-0.0291 0.0729-0.0436 0.1093-0.1165 0.4227 0.1455 0.838 0.5458 0.9691 2.1833 0.685 3.093 2.5576 3.5296 4.6415 0.2693 1.2606 0.0728 2.4629-0.4876 3.6287l0.0073-0.0073z" fill="#000"/>
</svg>
