<?xml version="1.0" encoding="UTF-8" standalone="no"?>
<svg
   inkscape:version="1.3.2 (091e20e, 2023-11-25, custom)"
   sodipodi:docname="EAS_vector_grey.svg"
   viewBox="0 0 1038.92 486.04001"
   height="486.04001"
   width="1038.92"
   xml:space="preserve"
   id="svg2"
   version="1.1"
   xmlns:inkscape="http://www.inkscape.org/namespaces/inkscape"
   xmlns:sodipodi="http://sodipodi.sourceforge.net/DTD/sodipodi-0.dtd"
   xmlns="http://www.w3.org/2000/svg"
   xmlns:svg="http://www.w3.org/2000/svg"
   xmlns:rdf="http://www.w3.org/1999/02/22-rdf-syntax-ns#"
   xmlns:cc="http://creativecommons.org/ns#"
   xmlns:dc="http://purl.org/dc/elements/1.1/"><sodipodi:namedview
     inkscape:window-maximized="1"
     inkscape:window-y="-8"
     inkscape:window-x="1912"
     inkscape:cy="242.98085"
     inkscape:cx="519.46003"
     inkscape:zoom="1.0597543"
     showgrid="false"
     id="namedview4"
     inkscape:window-height="1009"
     inkscape:window-width="1920"
     inkscape:pageshadow="2"
     inkscape:pageopacity="0"
     guidetolerance="10"
     gridtolerance="10"
     objecttolerance="10"
     borderopacity="1"
     bordercolor="#666666"
     pagecolor="#030303"
     inkscape:showpageshadow="2"
     inkscape:pagecheckerboard="true"
     inkscape:deskcolor="#d1d1d1"
     inkscape:current-layer="g12" /><metadata
     id="metadata8"><rdf:RDF><cc:Work
         rdf:about=""><dc:format>image/svg+xml</dc:format><dc:type
           rdf:resource="http://purl.org/dc/dcmitype/StillImage" /></cc:Work></rdf:RDF></metadata><defs
     id="defs6" /><g
     transform="matrix(1.3333333,0,0,-1.3333333,0,486.04)"
     inkscape:label="ink_ext_XXXXXX"
     inkscape:groupmode="layer"
     id="g10"><g
       transform="scale(0.1)"
       id="g12"><path
         id="path14"
         style="fill:#ffffff;fill-opacity:1;fill-rule:nonzero;stroke:none"
         d="m 4863.22,1939.4 c -18.49,271.52 -174.01,521.92 -482.43,521.92 -266.22,0 -471.83,-224.04 -495.56,-521.92 z m -450.81,-645.82 c 208.27,0 350.61,92.24 461.31,210.88 l 89.62,-79.1 c -137.07,-147.59 -297.84,-253.03 -556.19,-253.03 -353.23,0 -658.98,282.04 -658.98,701.17 v 5.27 c 0,390.14 274.11,701.18 637.88,701.18 376.97,0 616.83,-305.77 616.83,-703.81 v -5.28 c 0,-18.45 0,-26.35 -2.62,-47.44 H 3885.23 c 23.73,-334.77 263.58,-529.84 527.18,-529.84" /><path
         id="path16"
         style="fill:#ffffff;fill-opacity:1;fill-rule:nonzero;stroke:none"
         d="m 6305.14,1860.32 c -113.4,29.02 -263.62,60.62 -456.06,60.62 -284.69,0 -442.83,-126.51 -442.83,-313.68 V 1602 c 0,-195.08 184.52,-308.42 390.11,-308.42 274.13,0 508.78,168.7 508.78,413.84 z m -2.64,-656.34 v 224.04 c -92.27,-129.2 -258.34,-255.69 -514.05,-255.69 -250.42,0 -519.29,142.32 -519.29,421.74 v 5.28 c 0,279.42 239.88,437.58 587.86,437.58 187.14,0 316.31,-23.72 445.48,-57.98 v 57.98 c 0,271.51 -166.1,411.22 -442.86,411.22 -163.43,0 -297.87,-44.81 -421.77,-108.07 l -47.45,113.35 c 147.61,68.54 292.6,115.97 477.14,115.97 345.29,0 561.44,-179.24 561.44,-527.19 v -838.23 h -126.5" /><path
         id="path18"
         style="fill:#ffffff;fill-opacity:1;fill-rule:nonzero;stroke:none"
         d="m 7327.92,1177.6 c -195.11,0 -408.6,79.09 -550.93,195.05 l 76.44,102.84 c 147.57,-113.38 311.05,-176.67 482.36,-176.67 181.93,0 324.23,100.21 324.23,255.71 v 5.29 c 0,158.16 -168.69,216.14 -355.86,268.86 -218.76,63.28 -461.29,129.19 -461.29,369.05 v 5.27 c 0,216.16 181.88,371.68 442.87,371.68 160.77,0 342.67,-57.99 477.1,-147.61 l -68.54,-108.08 c -123.91,81.72 -271.53,134.44 -413.84,134.44 -184.55,0 -305.78,-100.18 -305.78,-234.61 v -5.28 c 0,-150.24 181.89,-205.61 374.3,-260.96 216.12,-60.62 442.87,-139.7 442.87,-376.94 v -5.28 c 0,-239.89 -205.63,-392.76 -463.93,-392.76" /><path
         id="path20"
         style="fill:#9f9f9f;fill-opacity:1;fill-rule:nonzero;stroke:none"
         d="m 1292.96,2648.95 c 119.17,221.34 -104.19,445.04 -308.558,513.49 -23.226,-239.67 57.148,-516.92 308.558,-513.49" /><path
         id="path22"
         style="fill:#9b9b9b;fill-opacity:1;fill-rule:nonzero;stroke:none"
         d="m 1370.3,2648.95 c -119.19,221.34 104.18,445.04 308.57,513.49 23.21,-239.67 -57.17,-516.92 -308.57,-513.49" /><path
         id="path24"
         style="fill:#bcbcbc;fill-opacity:1;fill-rule:nonzero;stroke:none"
         d="M 1292.96,1012.54 C 1412.13,791.309 1188.77,567.621 984.402,499.141 c -23.226,239.66 57.148,516.899 308.558,513.399" /><path
         id="path26"
         style="fill:#b1b1b1;fill-opacity:1;fill-rule:nonzero;stroke:none"
         d="m 1370.3,1012.54 c -119.19,-221.231 104.18,-444.919 308.57,-513.399 23.21,239.66 -57.17,516.899 -308.57,513.399" /><path
         id="path28"
         style="fill:#d6d6d6;fill-opacity:1;fill-rule:nonzero;stroke:none"
         d="m 2149.84,1869.43 c 221.27,-119.12 445.01,104.25 513.47,308.62 -239.67,23.16 -516.91,-57.2 -513.47,-308.62" /><path
         id="path30"
         style="fill:#999999;fill-opacity:1;fill-rule:nonzero;stroke:none"
         d="m 2149.84,1792.13 c 221.27,119.18 445.01,-104.16 513.47,-308.58 -239.67,-23.24 -516.91,57.18 -513.47,308.58" /><path
         id="path32"
         style="fill:#bcbcbc;fill-opacity:1;fill-rule:nonzero;stroke:none"
         d="M 513.477,1869.43 C 292.141,1750.31 68.4609,1973.68 0,2178.05 c 239.645,23.16 516.918,-57.2 513.477,-308.62" /><path
         id="path34"
         style="fill:#9f9f9f;fill-opacity:1;fill-rule:nonzero;stroke:none"
         d="M 513.477,1792.13 C 292.141,1911.31 68.4609,1687.97 0,1483.55 c 239.645,-23.24 516.918,57.18 513.477,308.58" /><path
         id="path36"
         style="fill:#c0c0c0;fill-opacity:1;fill-rule:nonzero;stroke:none"
         d="m 717.938,2381.98 c -72.137,240.78 -388.329,241.03 -581.223,144.83 153.004,-185.83 405.922,-325.04 581.223,-144.83" /><path
         id="path38"
         style="fill:#9b9b9b;fill-opacity:1;fill-rule:nonzero;stroke:none"
         d="M 772.633,2436.64 C 531.887,2508.82 531.66,2825.03 627.77,3017.93 813.688,2864.88 952.875,2611.97 772.633,2436.64" /><path
         id="path40"
         style="fill:#c0c0c0;fill-opacity:1;fill-rule:nonzero;stroke:none"
         d="m 1875.06,1224.89 c 240.8,-72.16 240.97,-388.32 144.87,-581.218 -185.85,152.976 -325.07,405.858 -144.87,581.218" /><path
         id="path42"
         style="fill:#939393;fill-opacity:1;fill-rule:nonzero;stroke:none"
         d="m 1929.73,1279.54 c 72.21,-240.78 388.37,-240.93 581.26,-144.82 -153.04,185.84 -405.92,325.04 -581.26,144.82" /><path
         id="path44"
         style="fill:#8d8d8d;fill-opacity:1;fill-rule:nonzero;stroke:none"
         d="m 1875.06,2436.68 c 240.8,72.21 240.97,388.35 144.87,581.27 -185.85,-153.02 -325.07,-405.98 -144.87,-581.27" /><path
         id="path46"
         style="fill:#c0c0c0;fill-opacity:1;fill-rule:nonzero;stroke:none"
         d="m 1929.73,2382.01 c 72.21,240.75 388.37,241.03 581.26,144.85 -153.02,-185.88 -405.92,-325.09 -581.26,-144.85" /><path
         id="path48"
         style="fill:#c9c9c9;fill-opacity:1;fill-rule:nonzero;stroke:none"
         d="m 718.004,1279.54 c -72.203,-240.73 -388.395,-240.93 -581.262,-144.82 153.024,185.84 405.895,325.04 581.262,144.82" /><path
         id="path50"
         style="fill:#b9b9b9;fill-opacity:1;fill-rule:nonzero;stroke:none"
         d="M 772.676,1224.89 C 531.887,1152.73 531.66,836.621 627.809,643.672 813.688,796.699 952.875,1049.53 772.676,1224.89" /><path
         id="path52"
         style="fill:#c0c0c0;fill-opacity:1;fill-rule:nonzero;stroke:none"
         d="m 3177.86,0 v 3645.34 h 43.35 V 0 h -43.35 v 0" /></g></g></svg>
