<?xml version="1.0" encoding="UTF-8"?>
<svg  version="1.1" viewBox="0 0 48 48" xmlns="http://www.w3.org/2000/svg">
 <path d="m2.7107 15.551v-0.0218c0-0.0435 0.00731-0.0871 0 0.0218zm15.808 19.882c-0.3873-1.1827-2.0609-0.7764-2.9525-0.5514-0.5627 0.1378-0.6285 0.7329-0.3727 1.1029-0.0366 0.2177-0.0512 0.4427-0.0585 0.6821-0.0146 0.3918-0.0658 0.7982 0.1389 1.1538 0.2704 0.4644 0.7746 0.5732 1.2716 0.6022 0.2558 0.0218 0.5043-0.0217 0.76-0.0072 0.2924 0.0145 0.5189 0.0435 0.7966-0.1161 0.4824-0.2903 0.5189-0.9071 0.497-1.4077-0.0146-0.4644 0.0658-1.0159-0.0804-1.4586zm-1.3739 1.5892s-0.0293 0.0072-0.0512 0.0072c-0.1827 0.0145-0.3654 0.0363-0.5481 0.029-0.0585 0-0.1243 1e-4 -0.19-0.0072 0-0.0798-0.0146-0.254-0.0219-0.2975-0.0147-0.1669-0.022-0.3628-0.0512-0.566 0.2265-0.0363 0.4531-0.0726 0.6797-0.1016 0.0219 0 0.1023-0.0072 0.1754-0.0072-0.0074 0.2975 0.0146 0.5877 0.0146 0.878v0.0653h-0.0073zm1.3739-6.8282c-0.3873-1.1828-2.0609-0.7691-2.9525-0.5515-0.5627 0.1452-0.6285 0.7329-0.3727 1.103-0.0366 0.2249-0.0512 0.4499-0.0585 0.6821-0.0146 0.3918-0.0658 0.7982 0.1389 1.161 0.2704 0.4644 0.7746 0.5732 1.2716 0.6023 0.2558 0.0145 0.5043-0.0218 0.76-0.0146 0.2924 0.0146 0.5189 0.0508 0.7966-0.1161 0.4824-0.2829 0.5189-0.907 0.497-1.4077-0.0146-0.4644 0.0658-1.0086-0.0804-1.4585zm-1.3739 1.5964s-0.0293 0-0.0512 0.0073c-0.1827 0.0072-0.3654 0.029-0.5481 0.029-0.0585 0-0.1243-0.0073-0.19-0.0073 0-0.0798-0.0146-0.2539-0.0219-0.2975-0.0147-0.1669-0.022-0.3701-0.0512-0.566 0.2265-0.0435 0.4531-0.0725 0.6797-0.1016 0.0219-0.0072 0.1023-0.0072 0.1754-0.0072-0.0074 0.2902 0.0146 0.5805 0.0146 0.878v0.0653h-0.0073zm14.002 3.6426c-0.3874-1.1827-2.061-0.7764-2.9526-0.5514-0.5627 0.1378-0.6285 0.7329-0.3727 1.1029-0.0365 0.2177-0.0511 0.4427-0.0584 0.6821-0.0147 0.3918-0.0658 0.7982 0.1388 1.1538 0.2704 0.4644 0.7747 0.5732 1.2716 0.6022 0.2558 0.0218 0.5043-0.0217 0.7601-0.0072 0.2923 0.0145 0.5189 0.0435 0.7966-0.1161 0.4823-0.2903 0.5189-0.9071 0.4969-1.4077-0.0146-0.4644 0.0658-1.0159-0.0803-1.4586zm-1.374 1.5892s-0.0292 0.0072-0.0511 0.0072c-0.1827 0.0145-0.3655 0.0363-0.5482 0.029-0.0584 0-0.1242 1e-4 -0.19-0.0072 0-0.0798-0.0146-0.254-0.0219-0.2975-0.0146-0.1669-0.0219-0.3628-0.0512-0.566 0.2266-0.0363 0.4532-0.0726 0.6797-0.1016 0.0219 0 0.1023-0.0072 0.1754-0.0072-0.0073 0.2975 0.0146 0.5877 0.0146 0.878 0 0.0145 0 0.0435-0.0073 0.0653zm1.374-6.8282c-0.3874-1.1828-2.061-0.7691-2.9526-0.5515-0.5627 0.1452-0.6285 0.7329-0.3727 1.103-0.0365 0.2249-0.0511 0.4499-0.0584 0.6821-0.0147 0.3918-0.0658 0.7982 0.1388 1.161 0.2704 0.4644 0.7747 0.5732 1.2716 0.6023 0.2558 0.0145 0.5043-0.0218 0.7601-0.0146 0.2923 0.0146 0.5189 0.0508 0.7966-0.1161 0.4823-0.2829 0.5189-0.907 0.4969-1.4077-0.0146-0.4644 0.0658-1.0086-0.0803-1.4585zm-1.374 1.5964s-0.0292 0-0.0511 0.0073c-0.1827 0.0072-0.3655 0.029-0.5482 0.029-0.0584 0-0.1242-0.0073-0.19-0.0073 0-0.0798-0.0146-0.2539-0.0219-0.2975-0.0146-0.1669-0.0219-0.3701-0.0512-0.566 0.2266-0.0435 0.4532-0.0725 0.6797-0.1016 0.0219-0.0072 0.1023-0.0072 0.1754-0.0072-0.0073 0.2902 0.0146 0.5805 0.0146 0.878 0 0.0145 0 0.0363-0.0073 0.0653zm14.002 3.6426c-0.3873-1.1827-2.0609-0.7764-2.9525-0.5514-0.5627 0.1378-0.6285 0.7329-0.3727 1.1029-0.0366 0.2177-0.0512 0.4427-0.0585 0.6821-0.0146 0.3918-0.0658 0.7982 0.1389 1.1538 0.2704 0.4644 0.7746 0.5732 1.2716 0.6022 0.2558 0.0218 0.5043-0.0217 0.7601-0.0072 0.2923 0.0145 0.5188 0.0435 0.7965-0.1161 0.4824-0.2903 0.5189-0.9071 0.497-1.4077-0.0146-0.4644 0.0658-1.0159-0.0804-1.4586zm-1.3739 1.5892s-0.0293 0.0072-0.0512 0.0072c-0.1827 0.0145-0.3654 0.0363-0.5481 0.029-0.0585 0-0.1242 1e-4 -0.19-0.0072 0-0.0798-0.0146-0.254-0.0219-0.2975-0.0147-0.1669-0.022-0.3628-0.0512-0.566 0.2266-0.0363 0.4531-0.0726 0.6797-0.1016 0.0219 0 0.1023-0.0072 0.1754-0.0072-0.0073 0.2975 0.0146 0.5877 0.0146 0.878v0.0653h-0.0073zm1.3739-6.8282c-0.3873-1.1828-2.0609-0.7691-2.9525-0.5515-0.5627 0.1452-0.6285 0.7329-0.3727 1.103-0.0366 0.2249-0.0512 0.4499-0.0585 0.6821-0.0146 0.3918-0.0658 0.7982 0.1389 1.161 0.2704 0.4644 0.7746 0.5732 1.2716 0.6023 0.2558 0.0145 0.5043-0.0218 0.7601-0.0146 0.2923 0.0146 0.5188 0.0508 0.7965-0.1161 0.4824-0.2829 0.5189-0.907 0.497-1.4077-0.0146-0.4644 0.0658-1.0086-0.0804-1.4585zm-1.3739 1.5964s-0.0293 0-0.0512 0.0073c-0.1827 0.0072-0.3654 0.029-0.5481 0.029-0.0585 0-0.1242-0.0073-0.19-0.0073 0-0.0798-0.0146-0.2539-0.0219-0.2975-0.0147-0.1669-0.022-0.3701-0.0512-0.566 0.2266-0.0435 0.4531-0.0725 0.6797-0.1016 0.0219-0.0072 0.1023-0.0072 0.1754-0.0072-0.0073 0.2902 0.0146 0.5805 0.0146 0.878v0.0653h-0.0073zm-2.0098-0.3628c-0.0146 0.3918-0.0658 0.7982 0.1389 1.161 0.2704 0.4644 0.7746 0.5732 1.2716 0.6023 0.2558 0.0145 0.5043-0.0218 0.7601-0.0146 0.2923 0.0146 0.5188 0.0508 0.7965-0.1161 0.4824-0.2829 0.5189-0.907 0.497-1.4077-0.0146-0.4644 0.0658-1.0086-0.0804-1.4585-0.3873-1.1828-2.0609-0.7691-2.9525-0.5515-0.5627 0.1452-0.6285 0.7329-0.3727 1.103-0.0366 0.2249-0.0512 0.4499-0.0585 0.6821zm1.8271-0.5733s0.1023-0.0072 0.1754-0.0072c-0.0073 0.2902 0.0146 0.5805 0.0146 0.878v0.0653c-0.0146 0-0.0293 0-0.0512 0.0073-0.1827 0.0072-0.3654 0.029-0.5481 0.029-0.0585 0-0.1242-0.0073-0.19-0.0073 0-0.0798-0.0146-0.2539-0.0219-0.2975-0.0146-0.1669-0.022-0.3701-0.0512-0.566 0.2266-0.0435 0.4531-0.0725 0.6797-0.1016h-0.0073zm1.5566 4.5787c-0.3873-1.1827-2.0609-0.7764-2.9525-0.5514-0.5627 0.1378-0.6285 0.7329-0.3727 1.1029-0.0366 0.2177-0.0512 0.4427-0.0585 0.6821-0.0146 0.3918-0.0658 0.7982 0.1389 1.1538 0.2704 0.4644 0.7746 0.5732 1.2716 0.6022 0.2558 0.0218 0.5043-0.0217 0.7601-0.0072 0.2923 0.0145 0.5188 0.0435 0.7965-0.1161 0.4824-0.2903 0.5189-0.9071 0.497-1.4077-0.0146-0.4644 0.0658-1.0159-0.0804-1.4586zm-1.3739 1.5892s-0.0293 0.0072-0.0512 0.0072c-0.1827 0.0145-0.3654 0.0363-0.5481 0.029-0.0585 0-0.1242 1e-4 -0.19-0.0072 0-0.0798-0.0146-0.254-0.0219-0.2975-0.0147-0.1669-0.022-0.3628-0.0512-0.566 0.2266-0.0363 0.4531-0.0726 0.6797-0.1016 0.0219 0 0.1023-0.0072 0.1754-0.0072-0.0073 0.2975 0.0146 0.5877 0.0146 0.878v0.0653h-0.0073zm-14.207-7.3797c-0.5627 0.1452-0.6285 0.7329-0.3727 1.103-0.0365 0.2249-0.0511 0.4499-0.0584 0.6821-0.0147 0.3918-0.0658 0.7982 0.1388 1.161 0.2704 0.4644 0.7747 0.5732 1.2716 0.6023 0.2558 0.0145 0.5043-0.0218 0.7601-0.0146 0.2923 0.0146 0.5189 0.0508 0.7966-0.1161 0.4823-0.2829 0.5189-0.907 0.4969-1.4077-0.0146-0.4644 0.0658-1.0086-0.0803-1.4585-0.3874-1.1828-2.061-0.7691-2.9526-0.5515zm1.5786 2.1479s-0.0292 0-0.0511 0.0073c-0.1827 0.0072-0.3655 0.029-0.5482 0.029-0.0584 0-0.1242-0.0073-0.19-0.0073 0-0.0798-0.0146-0.2539-0.0219-0.2975-0.0146-0.1669-0.0219-0.3701-0.0512-0.566 0.2266-0.0435 0.4532-0.0725 0.6797-0.1016 0.0219-0.0072 0.1023-0.0072 0.1754-0.0072-0.0073 0.2902 0.0146 0.5805 0.0146 0.878 0 0.0145 0 0.0363-0.0073 0.0653zm1.374 3.6426c-0.3874-1.1827-2.061-0.7764-2.9526-0.5514-0.5627 0.1378-0.6285 0.7329-0.3727 1.1029-0.0365 0.2177-0.0511 0.4427-0.0584 0.6821-0.0147 0.3918-0.0658 0.7982 0.1388 1.1538 0.2704 0.4644 0.7747 0.5732 1.2716 0.6022 0.2558 0.0218 0.5043-0.0217 0.7601-0.0072 0.2923 0.0145 0.5189 0.0435 0.7966-0.1161 0.4823-0.2903 0.5189-0.9071 0.4969-1.4077-0.0146-0.4644 0.0658-1.0159-0.0803-1.4586zm-1.374 1.5892s-0.0292 0.0072-0.0511 0.0072c-0.1827 0.0145-0.3655 0.0363-0.5482 0.029-0.0584 0-0.1242 1e-4 -0.19-0.0072 0-0.0798-0.0146-0.254-0.0219-0.2975-0.0146-0.1669-0.0219-0.3628-0.0512-0.566 0.2266-0.0363 0.4532-0.0726 0.6797-0.1016 0.0219 0 0.1023-0.0072 0.1754-0.0072-0.0073 0.2975 0.0146 0.5877 0.0146 0.878 0 0.0145 0 0.0435-0.0073 0.0653zm-14.207-7.3797c-0.5627 0.1452-0.6285 0.7329-0.3727 1.103-0.0366 0.2249-0.0512 0.4499-0.0585 0.6821-0.0146 0.3918-0.0658 0.7982 0.1389 1.161 0.2704 0.4644 0.7746 0.5732 1.2716 0.6023 0.2558 0.0145 0.5043-0.0218 0.76-0.0146 0.2924 0.0146 0.5189 0.0508 0.7966-0.1161 0.4824-0.2829 0.5189-0.907 0.497-1.4077-0.0146-0.4644 0.0658-1.0086-0.0804-1.4585-0.3873-1.1828-2.0609-0.7691-2.9525-0.5515zm1.5786 2.1479s-0.0293 0-0.0512 0.0073c-0.1827 0.0072-0.3654 0.029-0.5481 0.029-0.0585 0-0.1243-0.0073-0.19-0.0073 0-0.0798-0.0146-0.2539-0.0219-0.2975-0.0147-0.1669-0.022-0.3701-0.0512-0.566 0.2265-0.0435 0.4531-0.0725 0.6797-0.1016 0.0219-0.0072 0.1023-0.0072 0.1754-0.0072-0.0074 0.2902 0.0146 0.5805 0.0146 0.878v0.0653h-0.0073zm1.3739 3.6426c-0.3873-1.1827-2.0609-0.7764-2.9525-0.5514-0.5627 0.1378-0.6285 0.7329-0.3727 1.1029-0.0366 0.2177-0.0512 0.4427-0.0585 0.6821-0.0146 0.3918-0.0658 0.7982 0.1389 1.1538 0.2704 0.4644 0.7746 0.5732 1.2716 0.6022 0.2558 0.0218 0.5043-0.0217 0.76-0.0072 0.2924 0.0145 0.5189 0.0435 0.7966-0.1161 0.4824-0.2903 0.5189-0.9071 0.497-1.4077-0.0146-0.4644 0.0658-1.0159-0.0804-1.4586zm-1.3739 1.5892s-0.0293 0.0072-0.0512 0.0072c-0.1827 0.0145-0.3654 0.0363-0.5481 0.029-0.0585 0-0.1243 1e-4 -0.19-0.0072 0-0.0798-0.0146-0.254-0.0219-0.2975-0.0147-0.1669-0.022-0.3628-0.0512-0.566 0.2265-0.0363 0.4531-0.0726 0.6797-0.1016 0.0219 0 0.1023-0.0072 0.1754-0.0072-0.0074 0.2975 0.0146 0.5877 0.0146 0.878v0.0653h-0.0073zm23.247-5.5946c-0.0146 0.3918-0.0658 0.7982 0.1389 1.161 0.2704 0.4644 0.7746 0.5732 1.2716 0.6023 0.2558 0.0145 0.5043-0.0218 0.7601-0.0146 0.2923 0.0146 0.5188 0.0508 0.7965-0.1161 0.4824-0.2829 0.5189-0.907 0.497-1.4077-0.0146-0.4644 0.0658-1.0086-0.0804-1.4585-0.3873-1.1828-2.0609-0.7691-2.9525-0.5515-0.5627 0.1452-0.6285 0.7329-0.3727 1.103-0.0366 0.2249-0.0512 0.4499-0.0585 0.6821zm1.8271-0.5733s0.1023-0.0072 0.1754-0.0072c-0.0073 0.2902 0.0146 0.5805 0.0146 0.878v0.0653c-0.0146 0-0.0293 0-0.0512 0.0073-0.1827 0.0072-0.3654 0.029-0.5481 0.029-0.0585 0-0.1242-0.0073-0.19-0.0073 0-0.0798-0.0146-0.2539-0.0219-0.2975-0.0146-0.1669-0.022-0.3701-0.0512-0.566 0.2266-0.0435 0.4531-0.0725 0.6797-0.1016h-0.0073zm1.5566 4.5787c-0.3873-1.1827-2.0609-0.7764-2.9525-0.5514-0.5627 0.1378-0.6285 0.7329-0.3727 1.1029-0.0366 0.2177-0.0512 0.4427-0.0585 0.6821-0.0146 0.3918-0.0658 0.7982 0.1389 1.1538 0.2704 0.4644 0.7746 0.5732 1.2716 0.6022 0.2558 0.0218 0.5043-0.0217 0.7601-0.0072 0.2923 0.0145 0.5188 0.0435 0.7965-0.1161 0.4824-0.2903 0.5189-0.9071 0.497-1.4077-0.0146-0.4644 0.0658-1.0159-0.0804-1.4586zm-1.3739 1.5892s-0.0293 0.0072-0.0512 0.0072c-0.1827 0.0145-0.3654 0.0363-0.5481 0.029-0.0585 0-0.1242 1e-4 -0.19-0.0072 0-0.0798-0.0146-0.254-0.0219-0.2975-0.0147-0.1669-0.022-0.3628-0.0512-0.566 0.2266-0.0363 0.4531-0.0726 0.6797-0.1016 0.0219 0 0.1023-0.0072 0.1754-0.0072-0.0073 0.2975 0.0146 0.5877 0.0146 0.878v0.0653h-0.0073zm-14.207-7.3797c-0.5627 0.1452-0.6285 0.7329-0.3727 1.103-0.0365 0.2249-0.0511 0.4499-0.0584 0.6821-0.0147 0.3918-0.0658 0.7982 0.1388 1.161 0.2704 0.4644 0.7747 0.5732 1.2716 0.6023 0.2558 0.0145 0.5043-0.0218 0.7601-0.0146 0.2923 0.0146 0.5189 0.0508 0.7966-0.1161 0.4823-0.2829 0.5189-0.907 0.4969-1.4077-0.0146-0.4644 0.0658-1.0086-0.0803-1.4585-0.3874-1.1828-2.061-0.7691-2.9526-0.5515zm1.5786 2.1479s-0.0292 0-0.0511 0.0073c-0.1827 0.0072-0.3655 0.029-0.5482 0.029-0.0584 0-0.1242-0.0073-0.19-0.0073 0-0.0798-0.0146-0.2539-0.0219-0.2975-0.0146-0.1669-0.0219-0.3701-0.0512-0.566 0.2266-0.0435 0.4532-0.0725 0.6797-0.1016 0.0219-0.0072 0.1023-0.0072 0.1754-0.0072-0.0073 0.2902 0.0146 0.5805 0.0146 0.878 0 0.0145 0 0.0363-0.0073 0.0653zm1.374 3.6426c-0.3874-1.1827-2.061-0.7764-2.9526-0.5514-0.5627 0.1378-0.6285 0.7329-0.3727 1.1029-0.0365 0.2177-0.0511 0.4427-0.0584 0.6821-0.0147 0.3918-0.0658 0.7982 0.1388 1.1538 0.2704 0.4644 0.7747 0.5732 1.2716 0.6022 0.2558 0.0218 0.5043-0.0217 0.7601-0.0072 0.2923 0.0145 0.5189 0.0435 0.7966-0.1161 0.4823-0.2903 0.5189-0.9071 0.4969-1.4077-0.0146-0.4644 0.0658-1.0159-0.0803-1.4586zm-1.374 1.5892s-0.0292 0.0072-0.0511 0.0072c-0.1827 0.0145-0.3655 0.0363-0.5482 0.029-0.0584 0-0.1242 1e-4 -0.19-0.0072 0-0.0798-0.0146-0.254-0.0219-0.2975-0.0146-0.1669-0.0219-0.3628-0.0512-0.566 0.2266-0.0363 0.4532-0.0726 0.6797-0.1016 0.0219 0 0.1023-0.0072 0.1754-0.0072-0.0073 0.2975 0.0146 0.5877 0.0146 0.878 0 0.0145 0 0.0435-0.0073 0.0653zm-14.207-7.3797c-0.5627 0.1452-0.6285 0.7329-0.3727 1.103-0.0366 0.2249-0.0512 0.4499-0.0585 0.6821-0.0146 0.3918-0.0658 0.7982 0.1389 1.161 0.2704 0.4644 0.7746 0.5732 1.2716 0.6023 0.2558 0.0145 0.5043-0.0218 0.76-0.0146 0.2924 0.0146 0.5189 0.0508 0.7966-0.1161 0.4824-0.2829 0.5189-0.907 0.497-1.4077-0.0146-0.4644 0.0658-1.0086-0.0804-1.4585-0.3873-1.1828-2.0609-0.7691-2.9525-0.5515zm1.5786 2.1479s-0.0293 0-0.0512 0.0073c-0.1827 0.0072-0.3654 0.029-0.5481 0.029-0.0585 0-0.1243-0.0073-0.19-0.0073 0-0.0798-0.0146-0.2539-0.0219-0.2975-0.0147-0.1669-0.022-0.3701-0.0512-0.566 0.2265-0.0435 0.4531-0.0725 0.6797-0.1016 0.0219-0.0072 0.1023-0.0072 0.1754-0.0072-0.0074 0.2902 0.0146 0.5805 0.0146 0.878v0.0653h-0.0073zm1.3739 3.6426c-0.3873-1.1827-2.0609-0.7764-2.9525-0.5514-0.5627 0.1378-0.6285 0.7329-0.3727 1.1029-0.0366 0.2177-0.0512 0.4427-0.0585 0.6821-0.0146 0.3918-0.0658 0.7982 0.1389 1.1538 0.2704 0.4644 0.7746 0.5732 1.2716 0.6022 0.2558 0.0218 0.5043-0.0217 0.76-0.0072 0.2924 0.0145 0.5189 0.0435 0.7966-0.1161 0.4824-0.2903 0.5189-0.9071 0.497-1.4077-0.0146-0.4644 0.0658-1.0159-0.0804-1.4586zm-1.3739 1.5892s-0.0293 0.0072-0.0512 0.0072c-0.1827 0.0145-0.3654 0.0363-0.5481 0.029-0.0585 0-0.1243 1e-4 -0.19-0.0072 0-0.0798-0.0146-0.254-0.0219-0.2975-0.0147-0.1669-0.022-0.3628-0.0512-0.566 0.2265-0.0363 0.4531-0.0726 0.6797-0.1016 0.0219 0 0.1023-0.0072 0.1754-0.0072-0.0074 0.2975 0.0146 0.5877 0.0146 0.878v0.0653h-0.0073zm1.3739-1.5892c-0.3873-1.1827-2.0609-0.7764-2.9525-0.5514-0.5627 0.1378-0.6285 0.7329-0.3727 1.1029-0.0366 0.2177-0.0512 0.4427-0.0585 0.6821-0.0146 0.3918-0.0658 0.7982 0.1389 1.1538 0.2704 0.4644 0.7746 0.5732 1.2716 0.6022 0.2558 0.0218 0.5043-0.0217 0.76-0.0072 0.2924 0.0145 0.5189 0.0435 0.7966-0.1161 0.4824-0.2903 0.5189-0.9071 0.497-1.4077-0.0146-0.4644 0.0658-1.0159-0.0804-1.4586zm-1.3739 1.5892s-0.0293 0.0072-0.0512 0.0072c-0.1827 0.0145-0.3654 0.0363-0.5481 0.029-0.0585 0-0.1243 1e-4 -0.19-0.0072 0-0.0798-0.0146-0.254-0.0219-0.2975-0.0147-0.1669-0.022-0.3628-0.0512-0.566 0.2265-0.0363 0.4531-0.0726 0.6797-0.1016 0.0219 0 0.1023-0.0072 0.1754-0.0072-0.0074 0.2975 0.0146 0.5877 0.0146 0.878v0.0653h-0.0073zm1.3739-6.8282c-0.3873-1.1828-2.0609-0.7691-2.9525-0.5515-0.5627 0.1452-0.6285 0.7329-0.3727 1.103-0.0366 0.2249-0.0512 0.4499-0.0585 0.6821-0.0146 0.3918-0.0658 0.7982 0.1389 1.161 0.2704 0.4644 0.7746 0.5732 1.2716 0.6023 0.2558 0.0145 0.5043-0.0218 0.76-0.0146 0.2924 0.0146 0.5189 0.0508 0.7966-0.1161 0.4824-0.2829 0.5189-0.907 0.497-1.4077-0.0146-0.4644 0.0658-1.0086-0.0804-1.4585zm-1.3739 1.5964s-0.0293 0-0.0512 0.0073c-0.1827 0.0072-0.3654 0.029-0.5481 0.029-0.0585 0-0.1243-0.0073-0.19-0.0073 0-0.0798-0.0146-0.2539-0.0219-0.2975-0.0147-0.1669-0.022-0.3701-0.0512-0.566 0.2265-0.0435 0.4531-0.0725 0.6797-0.1016 0.0219-0.0072 0.1023-0.0072 0.1754-0.0072-0.0074 0.2902 0.0146 0.5805 0.0146 0.878v0.0653h-0.0073zm14.002 3.6426c-0.3874-1.1827-2.061-0.7764-2.9526-0.5514-0.5627 0.1378-0.6285 0.7329-0.3727 1.1029-0.0365 0.2177-0.0511 0.4427-0.0584 0.6821-0.0147 0.3918-0.0658 0.7982 0.1388 1.1538 0.2704 0.4644 0.7747 0.5732 1.2716 0.6022 0.2558 0.0218 0.5043-0.0217 0.7601-0.0072 0.2923 0.0145 0.5189 0.0435 0.7966-0.1161 0.4823-0.2903 0.5189-0.9071 0.4969-1.4077-0.0146-0.4644 0.0658-1.0159-0.0803-1.4586zm-1.374 1.5892s-0.0292 0.0072-0.0511 0.0072c-0.1827 0.0145-0.3655 0.0363-0.5482 0.029-0.0584 0-0.1242 1e-4 -0.19-0.0072 0-0.0798-0.0146-0.254-0.0219-0.2975-0.0146-0.1669-0.0219-0.3628-0.0512-0.566 0.2266-0.0363 0.4532-0.0726 0.6797-0.1016 0.0219 0 0.1023-0.0072 0.1754-0.0072-0.0073 0.2975 0.0146 0.5877 0.0146 0.878 0 0.0145 0 0.0435-0.0073 0.0653zm1.374-6.8282c-0.3874-1.1828-2.061-0.7691-2.9526-0.5515-0.5627 0.1452-0.6285 0.7329-0.3727 1.103-0.0365 0.2249-0.0511 0.4499-0.0584 0.6821-0.0147 0.3918-0.0658 0.7982 0.1388 1.161 0.2704 0.4644 0.7747 0.5732 1.2716 0.6023 0.2558 0.0145 0.5043-0.0218 0.7601-0.0146 0.2923 0.0146 0.5189 0.0508 0.7966-0.1161 0.4823-0.2829 0.5189-0.907 0.4969-1.4077-0.0146-0.4644 0.0658-1.0086-0.0803-1.4585zm-1.374 1.5964s-0.0292 0-0.0511 0.0073c-0.1827 0.0072-0.3655 0.029-0.5482 0.029-0.0584 0-0.1242-0.0073-0.19-0.0073 0-0.0798-0.0146-0.2539-0.0219-0.2975-0.0146-0.1669-0.0219-0.3701-0.0512-0.566 0.2266-0.0435 0.4532-0.0725 0.6797-0.1016 0.0219-0.0072 0.1023-0.0072 0.1754-0.0072-0.0073 0.2902 0.0146 0.5805 0.0146 0.878 0 0.0145 0 0.0363-0.0073 0.0653zm14.002 3.6426c-0.3873-1.1827-2.0609-0.7764-2.9525-0.5514-0.5627 0.1378-0.6285 0.7329-0.3727 1.1029-0.0366 0.2177-0.0512 0.4427-0.0585 0.6821-0.0146 0.3918-0.0658 0.7982 0.1389 1.1538 0.2704 0.4644 0.7746 0.5732 1.2716 0.6022 0.2558 0.0218 0.5043-0.0217 0.7601-0.0072 0.2923 0.0145 0.5188 0.0435 0.7965-0.1161 0.4824-0.2903 0.5189-0.9071 0.497-1.4077-0.0146-0.4644 0.0658-1.0159-0.0804-1.4586zm-1.3739 1.5892s-0.0293 0.0072-0.0512 0.0072c-0.1827 0.0145-0.3654 0.0363-0.5481 0.029-0.0585 0-0.1242 1e-4 -0.19-0.0072 0-0.0798-0.0146-0.254-0.0219-0.2975-0.0147-0.1669-0.022-0.3628-0.0512-0.566 0.2266-0.0363 0.4531-0.0726 0.6797-0.1016 0.0219 0 0.1023-0.0072 0.1754-0.0072-0.0073 0.2975 0.0146 0.5877 0.0146 0.878v0.0653h-0.0073zm1.3739-6.8282c-0.3873-1.1828-2.0609-0.7691-2.9525-0.5515-0.5627 0.1452-0.6285 0.7329-0.3727 1.103-0.0366 0.2249-0.0512 0.4499-0.0585 0.6821-0.0146 0.3918-0.0658 0.7982 0.1389 1.161 0.2704 0.4644 0.7746 0.5732 1.2716 0.6023 0.2558 0.0145 0.5043-0.0218 0.7601-0.0146 0.2923 0.0146 0.5188 0.0508 0.7965-0.1161 0.4824-0.2829 0.5189-0.907 0.497-1.4077-0.0146-0.4644 0.0658-1.0086-0.0804-1.4585zm-1.3739 1.5964s-0.0293 0-0.0512 0.0073c-0.1827 0.0072-0.3654 0.029-0.5481 0.029-0.0585 0-0.1242-0.0073-0.19-0.0073 0-0.0798-0.0146-0.2539-0.0219-0.2975-0.0147-0.1669-0.022-0.3701-0.0512-0.566 0.2266-0.0435 0.4531-0.0725 0.6797-0.1016 0.0219-0.0072 0.1023-0.0072 0.1754-0.0072-0.0073 0.2902 0.0146 0.5805 0.0146 0.878v0.0653h-0.0073zm-23.883-1.5964c-0.3873-1.1828-2.0609-0.7691-2.9525-0.5515-0.5627 0.1452-0.6285 0.7329-0.3727 1.103-0.0366 0.2249-0.0512 0.4499-0.0585 0.6821-0.0146 0.3918-0.0658 0.7982 0.1389 1.161 0.2704 0.4644 0.7746 0.5732 1.2716 0.6023 0.2558 0.0145 0.5043-0.0218 0.76-0.0146 0.2924 0.0146 0.5189 0.0508 0.7966-0.1161 0.4824-0.2829 0.5189-0.907 0.497-1.4077-0.0146-0.4644 0.0658-1.0086-0.0804-1.4585zm-1.3739 1.5964s-0.0293 0-0.0512 0.0073c-0.1827 0.0072-0.3654 0.029-0.5481 0.029-0.0585 0-0.1243-0.0073-0.19-0.0073 0-0.0798-0.0146-0.2539-0.0219-0.2975-0.0147-0.1669-0.022-0.3701-0.0512-0.566 0.2265-0.0435 0.4531-0.0725 0.6797-0.1016 0.0219-0.0072 0.1023-0.0072 0.1754-0.0072-0.0074 0.2902 0.0146 0.5805 0.0146 0.878v0.0653h-0.0073zm1.3739 3.6426c-0.3873-1.1827-2.0609-0.7764-2.9525-0.5514-0.5627 0.1378-0.6285 0.7329-0.3727 1.1029-0.0366 0.2177-0.0512 0.4427-0.0585 0.6821-0.0146 0.3918-0.0658 0.7982 0.1389 1.1538 0.2704 0.4644 0.7746 0.5732 1.2716 0.6022 0.2558 0.0218 0.5043-0.0217 0.76-0.0072 0.2924 0.0145 0.5189 0.0435 0.7966-0.1161 0.4824-0.2903 0.5189-0.9071 0.497-1.4077-0.0146-0.4644 0.0658-1.0159-0.0804-1.4586zm-1.3739 1.5892s-0.0293 0.0072-0.0512 0.0072c-0.1827 0.0145-0.3654 0.0363-0.5481 0.029-0.0585 0-0.1243 1e-4 -0.19-0.0072 0-0.0798-0.0146-0.254-0.0219-0.2975-0.0147-0.1669-0.022-0.3628-0.0512-0.566 0.2265-0.0363 0.4531-0.0726 0.6797-0.1016 0.0219 0 0.1023-0.0072 0.1754-0.0072-0.0074 0.2975 0.0146 0.5877 0.0146 0.878v0.0653h-0.0073zm14.002-6.8282c-0.3874-1.1828-2.061-0.7691-2.9526-0.5515-0.5627 0.1452-0.6285 0.7329-0.3727 1.103-0.0365 0.2249-0.0511 0.4499-0.0584 0.6821-0.0147 0.3918-0.0658 0.7982 0.1388 1.161 0.2704 0.4644 0.7747 0.5732 1.2716 0.6023 0.2558 0.0145 0.5043-0.0218 0.7601-0.0146 0.2923 0.0146 0.5189 0.0508 0.7966-0.1161 0.4823-0.2829 0.5189-0.907 0.4969-1.4077-0.0146-0.4644 0.0658-1.0086-0.0803-1.4585zm-1.374 1.5964s-0.0292 0-0.0511 0.0073c-0.1827 0.0072-0.3655 0.029-0.5482 0.029-0.0584 0-0.1242-0.0073-0.19-0.0073 0-0.0798-0.0146-0.2539-0.0219-0.2975-0.0146-0.1669-0.0219-0.3701-0.0512-0.566 0.2266-0.0435 0.4532-0.0725 0.6797-0.1016 0.0219-0.0072 0.1023-0.0072 0.1754-0.0072-0.0073 0.2902 0.0146 0.5805 0.0146 0.878 0 0.0145 0 0.0363-0.0073 0.0653zm1.374 3.6426c-0.3874-1.1827-2.061-0.7764-2.9526-0.5514-0.5627 0.1378-0.6285 0.7329-0.3727 1.1029-0.0365 0.2177-0.0511 0.4427-0.0584 0.6821-0.0147 0.3918-0.0658 0.7982 0.1388 1.1538 0.2704 0.4644 0.7747 0.5732 1.2716 0.6022 0.2558 0.0218 0.5043-0.0217 0.7601-0.0072 0.2923 0.0145 0.5189 0.0435 0.7966-0.1161 0.4823-0.2903 0.5189-0.9071 0.4969-1.4077-0.0146-0.4644 0.0658-1.0159-0.0803-1.4586zm-1.374 1.5892s-0.0292 0.0072-0.0511 0.0072c-0.1827 0.0145-0.3655 0.0363-0.5482 0.029-0.0584 0-0.1242 1e-4 -0.19-0.0072 0-0.0798-0.0146-0.254-0.0219-0.2975-0.0146-0.1669-0.0219-0.3628-0.0512-0.566 0.2266-0.0363 0.4532-0.0726 0.6797-0.1016 0.0219 0 0.1023-0.0072 0.1754-0.0072-0.0073 0.2975 0.0146 0.5877 0.0146 0.878 0 0.0145 0 0.0435-0.0073 0.0653zm14.002-6.8282c-0.3873-1.1828-2.0609-0.7691-2.9525-0.5515-0.5627 0.1452-0.6285 0.7329-0.3727 1.103-0.0366 0.2249-0.0512 0.4499-0.0585 0.6821-0.0146 0.3918-0.0658 0.7982 0.1389 1.161 0.2704 0.4644 0.7746 0.5732 1.2716 0.6023 0.2558 0.0145 0.5043-0.0218 0.7601-0.0146 0.2923 0.0146 0.5188 0.0508 0.7965-0.1161 0.4824-0.2829 0.5189-0.907 0.497-1.4077-0.0146-0.4644 0.0658-1.0086-0.0804-1.4585zm-1.3739 1.5964s-0.0293 0-0.0512 0.0073c-0.1827 0.0072-0.3654 0.029-0.5481 0.029-0.0585 0-0.1242-0.0073-0.19-0.0073 0-0.0798-0.0146-0.2539-0.0219-0.2975-0.0147-0.1669-0.022-0.3701-0.0512-0.566 0.2266-0.0435 0.4531-0.0725 0.6797-0.1016 0.0219-0.0072 0.1023-0.0072 0.1754-0.0072-0.0073 0.2902 0.0146 0.5805 0.0146 0.878v0.0653h-0.0073zm1.3739 3.6426c-0.3873-1.1827-2.0609-0.7764-2.9525-0.5514-0.5627 0.1378-0.6285 0.7329-0.3727 1.1029-0.0366 0.2177-0.0512 0.4427-0.0585 0.6821-0.0146 0.3918-0.0658 0.7982 0.1389 1.1538 0.2704 0.4644 0.7746 0.5732 1.2716 0.6022 0.2558 0.0218 0.5043-0.0217 0.7601-0.0072 0.2923 0.0145 0.5188 0.0435 0.7965-0.1161 0.4824-0.2903 0.5189-0.9071 0.497-1.4077-0.0146-0.4644 0.0658-1.0159-0.0804-1.4586zm-1.3739 1.5892s-0.0293 0.0072-0.0512 0.0072c-0.1827 0.0145-0.3654 0.0363-0.5481 0.029-0.0585 0-0.1242 1e-4 -0.19-0.0072 0-0.0798-0.0146-0.254-0.0219-0.2975-0.0147-0.1669-0.022-0.3628-0.0512-0.566 0.2266-0.0363 0.4531-0.0726 0.6797-0.1016 0.0219 0 0.1023-0.0072 0.1754-0.0072-0.0073 0.2975 0.0146 0.5877 0.0146 0.878v0.0653h-0.0073z"/>
 <path d="m47.978 42.798c-0.0146-0.1379-0.0366-0.2685-0.0585-0.3991v-0.0436c-0.0219-0.3628-0.0585-0.7256-0.0804-1.0812-0.0804-1.2988-0.0438-2.605-0.0438-3.9038 0-0.9941-0.0147-1.9882-0.0439-2.9824-0.095-2.6848-0.19-5.3696-0.3362-8.0544-0.0438-0.8708-0.1315-1.7415-0.1607-2.6123-0.0147-0.4644-0.5116-0.9796-1.0159-0.7691-2.514 1.0376-4.933 2.1188-7.4178 3.1419-0.9793 0.3991-1.9586 0.8563-2.9671 1.1756-0.0073-0.1452-0.022-0.283-0.0293-0.3991-0.0511-0.8055-0.1461-1.6109-0.2484-2.4164-0.1024-0.849-0.2412-1.8068-1.3447-1.8213-0.497 0-0.9793 0.2685-1.4032 0.4934-0.0731 0.0436-0.1535 0.0871-0.2339 0.1306-0.0146 0-0.0219 0.0145-0.0365 0.0145-0.1096 0.0508-0.2266 0.0871-0.3362 0.1307-1.4616 0.5805-2.9087 1.2118-4.3484 1.8285-1.4324 0.6168-2.8502 1.2409-4.2753 1.8649-0.3508 0.1524-0.6942 0.2975-1.0304 0.4862 0.0073-0.0581 0.0146-0.1089 0.0292-0.1597 0.0512-0.3483 0.0512-0.7038 0.0658-1.0594 0.0146-0.5152 0.0073-1.0304 0.0585-1.5383 0.0438-0.4209 0.0803-0.8635-0.0439-1.2771-0.1754-0.5878-0.7162-0.9216-1.3228-0.82s-1.2204 0.5007-1.7539 0.7837c-1.3082 0.6894-2.6529 1.3206-3.9684 1.9882-0.665 0.3338-1.3301 0.6749-1.9878 1.0232-0.6139 0.3337-1.2643 0.6312-1.8417 1.0158-0.1827 0.1234-0.3654 0.2467-0.5481 0.3628-0.2777-1.7995-0.5554-3.5991-0.8331-5.3986-0.307-1.9447-0.61393-3.8749-1.0524-5.7905-0.17539-0.791-0.36541-1.5674-0.54811-2.3583-0.07308-0.3048-0.0877-0.5297-0.12424-0.8345 0.08039-0.0145 0.16809-0.029 0.24117-0.0435 0.06577-0.0145 0.12424-0.029 0.20463-0.0436 0.66504-0.1886 1.2936-0.5079 1.8344-0.9215 0.3289 0.7256 0.9866 1.5311 1.8782 1.7052 1.0085 0.3193 2.1632 0.2105 3.1937-0.2975 0.285 0.82 0.9281 1.5383 1.7247 1.9157 0.4677 0.2177 0.9939 0.3483 1.5347 0.37 0.0073 0.0436 0.0219 0.0871 0.0293 0.1307 0.0146 0.0653 0.0292 0.1233 0.0438 0.1886 0.4312 1.669 2.0901 2.547 3.5445 2.6703 0.0804 0.0073 0.1754 0.0145 0.2704 0.0145 0.9427 0 2.4263-0.2902 2.9013-1.0739 0.4166 0.2322 0.877 0.3846 1.3155 0.4354 0.9208 0.0798 1.9148-0.2758 2.726-0.9869 0.38-0.3555 0.8039-0.7982 0.9281-1.2626 0.2266 0.0944 0.4531 0.1597 0.687 0.2032 1.3081 0.1669 2.6748-0.0943 3.8733-0.7401 0.6066-0.3701 1.4251-0.8708 1.6955-1.6399 1.6444 0.2684 3.1937-0.9651 3.8953-2.4019 0.0292-0.1306 0.0438-0.2467 0.0438-0.3555 1.5348 0.2539 3.2083-0.3266 4.6334-1.6109 1.5932-1.2481 2.0829-3.4395 1.1401-5.0939-0.4019-0.76917-1.3008-1.3279-2.1851-1.3569-0.2339-0.90704-0.8624-1.7488-1.6736-2.2277-0.7016-0.37732-1.6224-0.42812-2.4848-0.15238-0.7381-0.66758-1.7905-1.0014-2.9087-0.93606-1.2058 0.079819-2.324 0.62404-2.9963 1.4658-0.3581 0.40635-0.6358 0.92154-0.8697 1.5964-0.095-0.02903-0.19-0.0508-0.2704-0.06531-0.8112-0.18141-1.6955-0.03628-2.4775 0.41361-0.3142-0.75465-0.9793-1.3134-1.3666-1.5891-0.7381-0.5297-1.7101-0.71837-2.6017-0.48617-0.1827 0.04354-0.3508 0.09434-0.4897 0.15964-1.4543-0.99411-3.5664-0.63855-4.8672 0.82722-0.3581 0.37732-0.6505 0.79093-0.8551 1.2045-0.2631-0.13787-0.5993-0.21769-0.9427-0.20318-0.4751 0.02903-0.9501 0.21043-1.3374 0.49343 0 0-0.5482-0.48617-0.5993-0.52971-0.6285-0.4644-1.3959-0.54422-2.1121-0.22494-0.1535-0.30477-0.3435-0.56599-0.5627-0.74014-0.687-0.50794-1.564-0.66758-2.4848-0.45715-1.067 0.23946-2.0244 0.95783-2.4921 1.8576-0.1973 0.32653-0.3216 0.70385-0.3727 1.1392-1.2205-0.13061-2.4044 1.0739-2.9014 1.9374-0.45311 0.76191-0.42387 1.7705 0.07308 2.8517-0.55542 0.2322-0.96468 0.74741-1.0816 1.3932-0.03654 0.1887-0.04385 0.3773-0.02192 0.5515-0.22656 0.0072-0.45311 0.0217-0.66505 0.0435-0.73082 0.0653-1.4982 0.1887-2.1413 0.5587-0.19732 0.1161-0.27771 0.3991-0.20463 0.6168-0.00731 0.0145-0.00731 0.029-0.01461 0.0363-0.01462 0.0798-0.03655 0.1596-0.05847 0.2395-0.04385 0.0798-0.07308 0.1814-0.08039 0.2757-0.00731 0.0218-0.01462 0.0435-0.01462 0.0653h0.00731s0 0.0073-0.00731 0.0145c-0.0073 0.1089-0.02192 0.2104-0.04385 0.3193-0.05115 0.3193-0.08769 0.6313-0.12424 0.9506-0.01461 0.1523-0.02923 0.2975-0.04384 0.4499-0.01462 0.0798-0.02193 0.1596-0.02924 0.2322-0.00731 0.0435-0.01461 0.087-0.01461 0.1233v0.0508c-0.00731 0.0073-0.00731 0.0218-0.00731 0.029-0.04385 0.3846-0.07308 0.7837-0.11693 1.1755-0.1754 1.7778-0.39465 3.5556-0.57735 5.3407-0.39464 3.8095-0.82583 7.6118-1.2643 11.421-0.13886 1.1901-0.27771 2.3801-0.42388 3.5629-0.014616 0.1523-0.036541 0.3047-0.051157 0.4571-0.043849 0.3193-0.065774 0.4281-0.11693 0.8635-0.21194 1.6036-0.38003 3.5193 0.63581 4.9125 0.99392 1.3569 2.7917 1.5165 4.3557 1.444 1.8563-0.0871 3.7126-0.1597 5.5762-0.2395 3.7126-0.1669 7.4178 0.1161 11.13 0.0145 1.8636-0.0435 3.7272-0.1378 5.5834-0.2031 1.8709-0.0653 3.7345-0.0508 5.6054-0.0291 3.7418 0.0363 7.4909-0.029 11.24 0.0145 0.7966 0.0146 1.6224 0.1307 2.419 0.0581 0.1974 0 0.3654-0.0508 0.4897-0.1379 0.095-0.0217 0.1827-0.058 0.2631-0.1161 0.4823-0.3338 0.5846-0.8054 0.5262-1.3496h-0.0073zm-13.747-18.482c-0.0074 0.1016-0.0512 0.0944-0.117 0.0436 0.0219-0.0073 0.0731-0.0218 0.1096-0.0363-0.0073 0 0-0.0218 0.0074-0.0073zm-26.631-13.177c0.09501-0.1306 0.28502-0.196 0.48965-0.2685 0.34348-0.1161 0.76736-0.2612 0.79659-0.8563-0.02923-0.341-0.1754-0.64576-0.31425-0.93601-0.13886-0.283-0.2631-0.54422-0.28502-0.84899-0.12424-0.84898 0.68697-1.5601 1.3739-1.9011 0.13886-0.02902 0.29233-0.08708 0.43849-0.15238 0.0365 0.23946 0.0877 0.50068 0.1608 0.78368 0.1023 0.26122 0.3069 0.43537 0.5627 0.47165 0.2704 0.03628 0.5554-0.07256 0.7162-0.29025 0.1608-0.20317 0.1827-0.4644 0.0877-0.68209-0.1169-0.52245-0.2412-1.1175-0.1023-1.6544 0.2704-0.9288 1.1839-1.5964 2.1778-1.5964 0.7601-0.03629 1.089 0.3483 1.1401 1.3569 0.0658 0.30476 0.2631 0.68934 0.592 0.75465 0.4165 0.07982 0.6139-0.33379 0.7747-0.62404 0.1388-0.25397 0.3507-0.40635 0.6504-0.39909 0.3654 0.03628 0.7235 0.39909 0.9354 0.71837 0.0658 0.1161 0.1097 0.25397 0.1535 0.39909 0.0877 0.29025 0.19 0.62404 0.5481 0.80545l0.0439 0.01451c0.2046 0.04354 0.4019-0.01451 0.5554-0.17415 0.2265-0.2322 0.3069-0.6313 0.2631-0.92155 0.0073-0.01451 0.0146-0.03628 0.0219-0.05805 0.2119-0.21043 0.5408-0.38458 0.8112-0.32653 0.1169 0.04354 0.2412 0.08708 0.3654 0.12336-0.0438 0.50794 0.1316 0.82721 0.5189 0.95782 0 0 0.0439 0.01452 0.0585 0.01452 0.2338 0.05805 0.4823-0.02177 0.665-0.19592 0.1754-0.18141 0.2485-0.41361 0.1973-0.63855 0.022-0.23946 0.0804-0.47166 0.1681-0.68935 0.4093-0.88526 1.3374-1.9374 2.5652-1.981 0.5189 0 1.0451 0.20317 1.4178 0.55873l0.095 0.10885c0.2412 0.28299 0.5189 0.60227 1.0012 0.61678 0.1608-0.01451 0.2997-0.10884 0.3874-0.25397 0.1096-0.19592 0.1242-0.45715 0.0657-0.68209 0.1754-0.02902 0.3362-0.03628 0.4751-0.02177 0.5846 0.09433 1.1547 0.50068 1.5274 1.0957 0.0511 0.09433 0.1023 0.19592 0.1534 0.2975 0.0512 0.10159 0.1024 0.21044 0.1608 0.31202-0.2996 0.36282-0.6285 0.85624-0.5408 1.2916 0.0512 0.2322 0.2046 0.41361 0.4897 0.55148 0.2046 0.0653 0.4092 0.05079 0.5773-0.0508 0.2046-0.1161 0.3581-0.35555 0.4239-0.65306 0.3581-0.61678 1.0012-1.0522 1.7028-1.161 0.2558-0.03629 0.5335-0.00726 0.8258 0.07981-0.0657 0.34831-0.1023 0.93606 0.4385 1.2408l0.0439 0.02177h0.0438c0.687-0.00726 0.8405-0.71838 0.9428-1.19 0.0219-0.08708 0.0365-0.1669 0.0584-0.2322l0.0147-0.05805c0.1753-0.60227 0.3581-1.2191 0.7235-1.7197 0.7819-1.0667 2.3605-1.386 3.5956-0.76191-0.1973 0.21043-0.3508 0.42087-0.4604 0.67484-0.0658 0.2322 0.0073 0.47891 0.19 0.66757 0.1827 0.18141 0.4458 0.26123 0.6797 0.20318 0.2411-0.0508 0.4458-0.22495 0.5261-0.45715 0.1681-0.19592 0.3947-0.36281 0.6651-0.48617 0.5262-0.23945 1.0743-0.22494 1.5493 0.0508 0.5628 0.33379 0.9501 0.97959 0.9939 1.6834 0 0.12336-0.0438 0.29751-0.095 0.47166-0.1169 0.39184-0.2777 0.93606 0.2412 1.2118l0.0658 0.02176c0.5627 0.0508 1.0012-0.44263 1.1108-0.93605 0.0073-0.02903 0.0146-0.05805 0.0219-0.09434 0.2997 0.02903 0.5628 0.17415 0.7674 0.44264 0.3947 0.49342 0.5408 1.3352 0.3581 1.9737-0.2996 1.0449-1.2497 1.7488-2.0536 2.2494-1.3155 0.87073-3.0621 0.73293-4.056-0.31202-0.3801-0.35555-0.8697-0.4644-1.162-0.26122-0.1243 0.07982-0.3654 0.34104-0.0804 0.98685 0.3508 0.46442 0.8477 0.86352 1.4324 1.1537-0.1023 0.0944-0.1827 0.2105-0.2558 0.3338-0.3143 0.5007-0.8551 1.1392-1.659 1.3715-0.7673 0.2684-1.4105-0.4427-1.6662-0.7837-0.2558-0.2395-0.6432-0.254-0.9428-0.0218-0.2119 0.1596-0.3435 0.4572-0.2265 0.7837 0 0 0.1973 0.3193 0.2046 0.3193 0.1608 0.1959 0.3362 0.3773 0.5335 0.5297-0.0585 0.0725-0.1096 0.1523-0.1681 0.2394-0.2412 0.3193-0.592 0.5442-0.9282 0.7402-0.8623 0.4861-1.9001 0.6966-2.9086 0.6167-0.5774-0.0725-1.1035-0.4353-1.637-1.1319-0.0366-0.0436-0.0658-0.1016-0.1024-0.1669-0.0584-0.1161-0.1242-0.254-0.2704-0.3338-0.2411-0.1742-0.5627-0.1742-0.8258 0.0072-0.2631 0.1742-0.38 0.4717-0.2923 0.791 0.2485 0.4934 0.6139 0.9651 1.0451 1.3496-0.1389 0.1161-0.2705 0.2758-0.4093 0.4354-0.3362 0.3991-0.7162 0.849-1.4178 1.0086-0.8843 0.2758-1.7393-0.3192-2.1925-1.0304l-0.0292-0.0362c-0.2192-0.196-0.5408-0.2322-0.8185-0.0944-0.2046 0.1089-0.3435 0.2903-0.3873 0.5007v0.2395c0.0877 0.2177 0.2046 0.4208 0.3581 0.624-0.1024 0.0435-0.2047 0.0943-0.2997 0.1451l-0.1169 0.0508c-0.7308 0.3121-1.4836 0.3774-2.134 0.196-0.9281-0.2032-1.6005-0.8345-1.7905-1.669 0.2631-0.0943 0.5116-0.2177 0.7527-0.3846 0.3216-0.3192 0.4312-0.6821 0.2851-0.9505-0.0658-0.1161-0.2777-0.3774-0.9063-0.2468-0.5992 0.2395-1.14 0.4354-1.732 0.3338-0.8989-0.087-1.8344-0.8272-1.7905-1.7778v-0.058c0.0658-0.1016 0.1389-0.2322 0.1681-0.3846 0.0585-0.2104 0.0365-0.5007-0.1389-0.6748-0.1169-0.1234-0.2777-0.1669-0.4312-0.1306-0.4019 0.0435-0.6869 0.2902-0.9573 0.5224-0.212 0.1742-0.402 0.3411-0.6505 0.4209-0.8404 0.3628-2.3167 0.5369-2.9305-0.5007-0.2339-0.312-0.2412-0.5805-0.2485-0.8345v-0.1741s0.0146-0.0363 0.0365-0.0726c0.1243-0.4426 0.0439-0.8199-0.2192-0.9796-0.2558-0.15236-0.5993-0.0653-0.9501 0.2612-0.3069 0.2903-0.5408 0.6604-0.8843 0.9361-0.34347 0.2757-0.7308 0.5079-1.1547 0.6458-0.34348 0.1161-0.74543 0.2612-1.0524 0.0145-0.20463-0.1596-0.49695-0.5587-0.30694-0.8199zm1.0012 31.797c-0.94276 0.0436-1.8782 0.0944-2.821 0.1161-0.74544 0.0218-1.5274 0.1161-2.2582-0.0362-0.60658-0.1234-1.1182-0.3701-1.4105-0.9289-0.34349-0.653-0.34349-1.4367-0.31426-2.1623 0.03655-0.8417 0.18271-1.6762 0.28502-2.5107 0.12424-1.0304 0.24848-2.0535 0.36541-3.0766 0.43119-3.6645 0.84775-7.3289 1.2424-10.993 0.19732-1.8286 0.36541-3.6644 0.51157-5.5002 0.10962-1.2989 0.26309-2.6341 0.19001-3.9402-0.01461-0.2395 0.00731-0.5224-0.095-0.7546 0.29963 0 0.59196-0.0218 0.8989-0.0291 0.37272-0.0145 0.74544-0.0435 1.1255-0.029 0.32156 0.0073 0.4458 0.0798 0.73812 0.1161 0.05116 0.2249 0.0877 0.4354 0.10232 0.6603 0.02192 0.3048 0.06577 0.6096 0.12424 0.9071 0.13154 0.6893 0.2704 1.3714 0.40195 2.0535 0.15347 0.7909 0.30694 1.5746 0.43849 2.3655 0.02923 0.1597 0.05116 0.3266 0.08039 0.4862v0.029s0.00731 0.029 0.00731 0.0653c0.01461 0.1161 0.02923 0.2322 0.04385 0.3483 0.10231 0.849 0.21193 1.6907 0.32887 2.5397 0.72351 5.2971 1.5493 10.587 2.3459 15.877 0.2193 1.4223 0.4458 2.8372 0.6505 4.2667-0.9939 0.029-1.9879 0.0798-2.9818 0.1306zm32.88-0.2975c-1.849 0.0145-3.7053 0.029-5.5542 0.0145-3.6249-0.0362-7.2352-0.058-10.86 0.0944-3.6907 0.1524-7.3667 0.0653-11.057 0.0217h-0.5189c-0.5554-4.1143-1.2351-8.2141-1.849-12.314-0.0657-0.4354-0.1315-0.8635-0.1973-1.2989 0.9793-0.3048 1.9001-0.8127 2.8137-1.2554 1.3447-0.6458 2.6675-1.3279 4.0049-1.9882 0.6577-0.3265 1.33-0.6385 1.9805-0.9796 0.3069-0.1596 0.6139-0.3192 0.9208-0.4716 0 0 0.0146 0 0.0146-0.0073-0.0146 0.1814-0.0365 0.3556-0.0511 0.5297-0.0585 0.537-0.0512 1.0667-0.117 1.6037-0.1023 0.8199-0.5115 2.1333 0.3947 2.7065 0.8185 0.5298 1.6589-0.1451 2.4044-0.4716 1.1912-0.5225 2.3751-1.0377 3.5664-1.5601 1.5055-0.6531 3.106-1.3424 4.5091-1.9229 0.5554-0.225 1.1474-0.4136 1.6736-0.6966 0.1096-0.0581 0.2192-0.1234 0.3289-0.1814 0.0073 0.0363 0.0073 0.0798 0.0146 0.1161 0.095 0.7837 0.19 1.5746 0.2338 2.3655 0.0512 0.8417-0.1169 1.981 1.0378 2.1334 0.38 0.0508 0.7235-0.0726 1.0743-0.2177 0.0658-0.0291 0.1316-0.0581 0.19-0.0871 0.0366-0.0145 0.0804-0.0363 0.117-0.0508 0.0146-0.0073 0.0219-0.0145 0.0219-0.0145 0.5481-0.2177 1.0889-0.4354 1.637-0.6531 1.5055-0.6168 3.011-1.2408 4.5092-1.8721 0.972-0.4063 1.9513-0.7982 2.9013-1.2553-0.0292 3.6571 0.2704 7.307 0.2997 10.957 0.0146 1.3134 0 2.6268 0 3.9402 0 0.6966 0.0219 1.3859 0.073 2.0753 0.022 0.2685 0.0512 0.5297 0.0804 0.7909-1.5274-0.0943-3.0694-0.058-4.5968-0.0508z"/>
</svg>
