<?xml version="1.0" encoding="UTF-8"?>
<svg fill="none" version="1.1" viewBox="0 0 84 84" xmlns="http://www.w3.org/2000/svg" xmlns:cc="http://creativecommons.org/ns#" xmlns:dc="http://purl.org/dc/elements/1.1/" xmlns:rdf="http://www.w3.org/1999/02/22-rdf-syntax-ns#">
 <title>view data source icon</title>
 <circle cx="42" cy="42" r="42" fill="#D3D3D3"/>
 <g transform="translate(21 21)" clip-path="url(#clip0_282_2988)">
  <path d="m41.077 38.83c-0.0999-0.4037-0.3998-0.6939-0.7497-0.8958-0.0999-0.0568-0.2749-0.1325-0.3311-0.1703-0.1374-0.082-0.3436-0.2713-0.5185-0.3911-0.3748-0.2587-0.7809-0.5047-1.2307-0.593-0.2999-0.0568-0.9184-0.0505-0.9059 0.41 0.0062 0.3154 0.2624 0.4858 0.4748 0.675 0.1125 0.0946 0.2187 0.1893 0.3311 0.2839-3.0799-0.0252-6.1661 0.0883-9.2461 0.1009-2.2678 0.0063-4.5418 0.019-6.8096 0.0316-5.3602 0.0252-10.72 0.0567-16.081 0.0757-0.5935 0-1.187 0.0189-1.7805 0.0315 0.01874-0.6498 0.01249-1.2995 0.02499-1.9493 0.04997-2.5044 0-5.0089-0.00625-7.5133-0.01874-5.2361-0.04373-10.472-0.05623-15.708-0.00624-3.3371-0.13119-6.6743-0.09996-10.011 0.04998 0.05677 0.09996 0.11355 0.14369 0.17033 0.01875 0.01892 0.16868 0.29649 0.1187 0.17663 0.09996 0.23972 0.18118 0.4479 0.42482 0.58038 0.33111 0.17664 0.63723 0.10093 0.91837-0.11986 0.01249-0.00631 0.02498-0.01893 0.03748-0.02523 0.23115-0.17664 0.26864-0.54253 0.21241-0.80118-0.09371-0.40374-0.34985-0.73808-0.61849-1.0409-0.12495-0.13879-0.25614-0.27126-0.38109-0.40374-0.04998-0.05678-0.1062-0.10724-0.15618-0.16402-0.03124-0.03154-0.09371-0.13248-0.08746-0.12617-0.3561-0.61822-0.74969-1.4068-1.5931-1.1923-0.39983 0.10094-0.68721 0.40374-0.88712 0.75701-0.05623 0.10093-0.1312 0.27757-0.16868 0.33435-0.08122 0.13878-0.26864 0.34696-0.38734 0.5236-0.25614 0.3785-0.49979 0.78855-0.58725 1.2428-0.05623 0.30281-0.04998 0.92734 0.40608 0.91472 0.31236-0.0063 0.48104-0.26495 0.66846-0.47944 0.09371-0.11355 0.18742-0.22079 0.28114-0.33434-0.02499 3.1101 0.08746 6.2264 0.09995 9.3364 0.00625 2.29 0.01875 4.58 0.03124 6.8762 0.02499 5.4127 0.05623 10.825 0.07497 16.238 0 0.921 0.03748 1.842 0.05622 2.7631-0.13744 0.0063-0.26863 0.0189-0.40607 0.0315-0.08747 0.0063-0.17493 0.0126-0.25615 0.0189-0.03748 0-0.06872 0-0.1062 0.0063-0.05623 0-0.10621 0-0.16243 0.019-0.21866 0.0252-0.44356 0.0631-0.66222 0.0568-0.14369 0-0.26864 0.0504-0.3686 0.1324-0.21866 0.0316-0.38109 0.2397-0.32486 0.4858 0.037484 0.1829 0.13119 0.2839 0.25614 0.3785 0.11245 0.1262 0.26239 0.2019 0.43732 0.2019 0.19991 0 0.39983 0.0441 0.59974 0.063 0.03124 0 0.05623 0.0063 0.08747 0.0127 0.02499 0 0.06247 0.0063 0.09996 0.0126l0.20616 0.0189c0.16868 0.0189 0.3436 0.0315 0.51228 0.0442 0.05623 0 0.11245 0.0063 0.16868 0.0126v0.0189c0.02499 0.2208 0.06247 0.4479 0.05623 0.6687 0 0.1451 0.04997 0.2713 0.13119 0.3722 0.03124 0.2208 0.2374 0.3848 0.48105 0.328 0.18117-0.0378 0.28113-0.1324 0.37484-0.2586 0.12495-0.1136 0.19991-0.265 0.19991-0.4416 0-0.2019 0.04374-0.4037 0.06248-0.6056v-0.0379c0.38109 0 0.75593 0 1.137 0.0127 2.4802 0.0504 4.9604 0 7.4406-0.0064 5.1853-0.0189 10.371-0.0441 15.556-0.0567 3.3048-0.0063 6.6097-0.1325 9.9145-0.101-0.0562 0.0505-0.1124 0.101-0.1687 0.1451-0.0187 0.019-0.2936 0.1704-0.1749 0.1199-0.2374 0.1009-0.4436 0.1829-0.5748 0.429-0.1749 0.3343-0.0999 0.6434 0.1188 0.9273 0.0062 0.0126 0.0187 0.0252 0.0249 0.0379 0.175 0.2334 0.5373 0.2712 0.7935 0.2144 0.3998-0.0946 0.7309-0.3532 1.0308-0.6245 0.1374-0.1262 0.2686-0.2586 0.3998-0.3848 0.0562-0.0505 0.1062-0.1073 0.1624-0.1577 0.0313-0.0316 0.1312-0.0946 0.125-0.0883 0.606-0.3533 1.3869-0.7507 1.1745-1.6024l0.0312-0.0063zm-28.113-8.1316c0.2437-1.0598-0.3561-2.0691-1.187-2.6874-0.3936-0.2902-0.8621-0.4605-1.3494-0.3217-0.2374 0.0694-0.50605 0.1893-0.70597 0.3722-0.11245 0.0189-0.23115 0.0442-0.33735 0.082-0.48105 0.1514-0.86214 0.511-1.1058 0.9463-0.4623 0.8075-0.43731 1.8799 0.11246 2.6369 1.2307 1.6907 4.1108 0.9967 4.573-1.0283zm-3.436-1.8736-0.01875-0.0378c0 0.0126 0.0125 0.0252 0.01875 0.0378zm-0.06248-0.1388s0-0.0063-0.01249-0.0504c0 0.0189 0.01249 0.0378 0.01249 0.0504zm0.04998 0.7949c0.09371-0.2082 0.24365-0.3344 0.40608-0.4353h0.01874c0.17491 0.0126 0.39981-0.0631 0.57471-0.0189 0.0313 0.0126 0.1375 0.1262 0.2062 0.1956 0.2374 0.2523 0.5873 0.5299 0.656 0.8705 0.0437 0.2082-0.075 0.5299-0.3249 0.7255-0.4623 0.3659-1.2557 0.41-1.5493-0.2082-0.16244-0.3406-0.1312-0.7949 0.01874-1.1292h-0.00625zm9.4085-10.623c0.2436-1.0598-0.3561-2.0692-1.187-2.6874-0.3936-0.2902-0.8621-0.4605-1.3494-0.3217-0.2374 0.0693-0.5061 0.1892-0.706 0.3722-0.1124 0.0189-0.2311 0.0441-0.3373 0.082-0.4811 0.1514-0.8622 0.5109-1.1058 0.9462-0.4623 0.8075-0.4373 1.8799 0.1124 2.637 1.2308 1.6906 4.1108 0.9967 4.5731-1.0283zm-3.4361-1.8736-0.0187-0.0379c0 0.0126 0.0125 0.0253 0.0187 0.0379zm-0.0624-0.1388s0-0.0063-0.0125-0.0505c0 0.0189 0.0125 0.0379 0.0125 0.0505zm0.0499 0.7949c0.0938-0.2082 0.2437-0.3344 0.4061-0.4353h0.0188c0.1749 0.0126 0.3998-0.0631 0.5747-0.019 0.0313 0.0127 0.1375 0.1262 0.2062 0.1956 0.2374 0.2523 0.5872 0.5299 0.656 0.8706 0.0437 0.2081-0.075 0.5299-0.3249 0.7254-0.4623 0.3659-1.2557 0.4101-1.5493-0.2081-0.1625-0.3407-0.1312-0.7949 0.0187-1.1292h-0.0063zm14.806 7.16c0.2436-1.0598-0.3561-2.0691-1.187-2.6874-0.3936-0.2901-0.8622-0.4605-1.3494-0.3217-0.2374 0.0694-0.5061 0.1893-0.706 0.3722-0.1124 0.0189-0.2311 0.0442-0.3374 0.082-0.481 0.1514-0.8621 0.511-1.1057 0.9463-0.4623 0.8075-0.4373 1.8799 0.1124 2.6369 1.2307 1.6907 4.1108 0.9967 4.5731-1.0283zm-3.4423-1.8799-0.0188-0.0378c0 0.0126 0.0125 0.0252 0.0188 0.0378zm-0.0625-0.1388s0-0.0063-0.0125-0.0504c0 0.0189 0.0125 0.0378 0.0125 0.0504zm0.0562 0.7949c0.0938-0.2082 0.2437-0.3343 0.4061-0.4353h0.0188c0.1749 0.0126 0.3998-0.0631 0.5747-0.0189 0.0313 0.0126 0.1375 0.1262 0.2062 0.1955 0.2374 0.2524 0.5872 0.53 0.656 0.8706 0.0437 0.2082-0.075 0.5299-0.3249 0.7255-0.4623 0.3659-1.2557 0.41-1.5494-0.2082-0.1624-0.3406-0.1311-0.7949 0.0188-1.1292h-0.0063zm8.5089-15.184c0.2437-1.0598-0.3561-2.0692-1.187-2.6874-0.3935-0.29019-0.8621-0.46051-1.3494-0.32173-0.2374 0.06939-0.506 0.18925-0.7059 0.3722-0.1125 0.01892-0.2312 0.04416-0.3374 0.08201-0.481 0.1514-0.8621 0.51098-1.1058 0.94626-0.4623 0.80748-0.4373 1.8799 0.1125 2.6369 1.2307 1.6906 4.1107 0.99675 4.573-1.0283zm-3.4423-1.8736-0.0187-0.03785c0 0.01262 0.0125 0.02523 0.0187 0.03785zm-0.0624-0.13878s0-0.00631-0.0125-0.05047c0 0.01892 0.0125 0.03785 0.0125 0.05047zm0.0562 0.79486c0.0937-0.20818 0.2436-0.33435 0.4061-0.43528h0.0187c0.1749 0.01261 0.3999-0.06309 0.5748-0.01893 0.0312 0.01262 0.1374 0.12617 0.2061 0.19556 0.2374 0.25234 0.5873 0.52991 0.656 0.87057 0.0437 0.20818-0.075 0.52991-0.3248 0.72547-0.4624 0.36589-1.2558 0.41005-1.5494-0.20818-0.1624-0.34066-0.1312-0.79486 0.0187-1.1292h-0.0062z" fill="#231F20"/>
  <g stroke="#231F20" stroke-miterlimit="10" stroke-width="1.5657">
   <path d="m11.677 28.169c1.1433-2.7568 2.5865-5.3811 4.292-7.8162"/>
   <path d="m18.05 19.205c2.474 1.6149 4.0296 2.7568 7.9966 4.9395"/>
   <path d="m28.589 22.826c1.3681-4.4286 2.7363-8.8571 4.1045-13.292"/>
  </g>
 </g>
 <defs>
  <clipPath id="clip0_282_2988">
   <rect transform="translate(.40723 .22266)" width="40.708" height="41.491" fill="#fff"/>
  </clipPath>
 </defs>
 <metadata>
  <rdf:RDF>
   <cc:Work rdf:about="">
    <dc:title>view data source icon</dc:title>
   </cc:Work>
  </rdf:RDF>
 </metadata>
</svg>
