<svg width="13" height="42" viewBox="0 0 13 42" fill="none" xmlns="http://www.w3.org/2000/svg">
<path d="M3.12284 12.3401C3.84284 11.3501 5.30289 12.6601 5.67289 13.4901C6.40289 15.1101 5.8029 17.1101 5.3129 18.7101C4.2529 22.2101 2.51285 25.4802 1.63285 29.0401C0.822848 32.3001 0.592887 36.2502 2.42289 39.2302C3.96289 41.7602 6.86293 42.8101 9.46293 41.1801C10.9729 40.2301 9.5829 37.8301 8.0629 38.7801C4.4329 41.0501 3.67286 34.2602 3.89286 32.1102C4.27286 28.2702 6.13289 24.7502 7.42289 21.1702C8.53289 18.0802 9.74286 14.1201 7.52286 11.2201C6.67286 10.1101 5.49284 9.47014 4.12284 9.25014C2.59284 9.00014 1.59294 9.73015 0.722936 10.9202C-0.327064 12.3702 2.07284 13.7501 3.12284 12.3201V12.3401Z" fill="black"/>
<path d="M8.49264 1.12996C8.37264 1.25996 8.25269 1.39994 8.17269 1.54994C8.00269 1.89994 7.9827 2.02996 7.9327 2.40996C7.9027 2.64996 7.94268 2.90996 8.03268 3.12996C8.17268 3.48996 8.32274 3.76994 8.59274 4.04994C8.71274 4.17994 8.87266 4.28997 9.01266 4.38997C9.07266 4.42997 9.14273 4.46995 9.21273 4.49996C9.55273 4.64996 9.89267 4.77996 10.2727 4.75996C10.6527 4.73996 11.0127 4.64996 11.3427 4.43996C11.6727 4.22996 11.9127 3.97996 12.1427 3.65996C12.1827 3.59996 12.2227 3.53997 12.2527 3.47997C12.3427 3.30997 12.4128 3.12997 12.4828 2.94997C12.5828 2.66997 12.6126 2.35996 12.6226 2.06996C12.6326 1.77996 12.5927 1.45997 12.5127 1.16997C12.4227 0.829969 12.1726 0.509952 11.8726 0.339952C11.7126 0.239952 11.5427 0.179948 11.3527 0.179948C11.1727 0.139948 10.9827 0.149967 10.8027 0.199967C10.4627 0.309967 10.1427 0.519952 9.97274 0.839952C9.80274 1.15995 9.73273 1.53996 9.83273 1.90996C9.85273 1.98996 9.86266 2.05997 9.88266 2.13997L9.83273 1.76994C9.85273 1.92994 9.85273 2.07995 9.83273 2.23995L9.88266 1.86995C9.86266 2.01995 9.82266 2.17996 9.76266 2.31996L9.90267 1.98995C9.85267 2.08995 9.80275 2.18995 9.73275 2.27995L9.95272 1.99996C9.89272 2.07996 9.82265 2.13997 9.75265 2.19997L10.0327 1.97997C9.96268 2.02997 9.8827 2.07997 9.8027 2.10997L10.1327 1.96996C10.0727 1.98996 10.0127 2.00994 9.95272 2.01994L10.3227 1.96996C10.2527 1.96996 10.1926 1.96996 10.1226 1.96996L10.4926 2.01994C10.4226 2.00994 10.3527 1.98995 10.2827 1.95995L10.6126 2.09996C10.5326 2.06996 10.4627 2.01997 10.4027 1.97997L10.6827 2.19997C10.6027 2.13997 10.5428 2.06996 10.4828 1.99996L10.7027 2.27995C10.6527 2.21995 10.6127 2.14997 10.5827 2.07997L10.7227 2.40996C10.6927 2.34996 10.6727 2.27995 10.6627 2.20995L10.7127 2.57997C10.7127 2.52997 10.7127 2.46997 10.7127 2.41997L10.6627 2.78996C10.6627 2.78996 10.6827 2.70997 10.6927 2.66997L10.5527 2.99996C10.5527 2.99996 10.6027 2.90995 10.6327 2.86995L10.4127 3.14995C10.4127 3.14995 10.4427 3.11996 10.4527 3.09996C10.7027 2.83996 10.8626 2.47995 10.8626 2.11995C10.8626 1.92995 10.8326 1.74995 10.7426 1.58995C10.6826 1.41995 10.5927 1.26997 10.4527 1.13997C10.1927 0.89997 9.84274 0.719966 9.47274 0.729966C9.10274 0.739966 8.74264 0.86997 8.49264 1.13997V1.12996Z" fill="black"/>
</svg>
