<?xml version="1.0" encoding="UTF-8"?>
<svg  fill="none" version="1.1" viewBox="0 0 48 48" xmlns="http://www.w3.org/2000/svg">
 <path d="m10.931 8.3148c-1.5562 0-1.5635 2.4014 0 2.4014 1.5636 0 1.5636-2.4014 0-2.4014zm34.066 23.964c-0.0442-0.9591-0.1106-1.9036-0.0295-2.8774 0.0885-1.0982 0.2803-2.1891 0.4868-3.2727 0.4204-2.2038 0.9072-4.4369 0.8703-6.6846-0.0664-3.5803-1.6078-7.1605-4.0121-9.8036-1.2096-1.3252-2.6846-2.4088-4.3514-3.097-2.0798-0.85663-4.3145-0.89324-6.5271-0.7102-1.1727 0.09518-2.3453 0.23429-3.5328 0.22697-1.1874 0-2.3822-0.11714-3.5474-0.32215-1.6595-0.29286-3.2746-0.79805-4.9267-1.1275 0.7006-1.5082-0.7449-2.8627-2.2642-2.5699-0.9367 0.17571-2.0134 1.3398-2.0208 2.3795-1.8364 0.24161-3.6139 0.86395-5.3766 1.479-0.95878 0.32947-1.9544 0.67358-2.9058 1.1056-0.11063-0.55644-0.30238-1.0982-0.59739-1.5815-0.33926-0.55644-0.7744-1.069-1.4529-1.1495-0.16226-0.02197-0.27289 0.19768-0.18438 0.32215 0.13275 0.19768 0.15488 0.48322 0.236 0.70287 0.08851 0.24893 0.20651 0.49054 0.29501 0.73216 0.13276 0.36608 0.19176 0.72483 0.23601 1.0909-0.15488-0.205-0.31714-0.39536-0.45727-0.56376-0.14012-0.1684-0.28025-0.32215-0.44988-0.46126-0.36139-0.30018-0.8039-0.44662-1.1727-0.72484-0.13275-0.1025-0.33188 0.0659-0.28026 0.21965 0.11801 0.34412 0.30976 0.6443 0.5384 0.92252 0.059 0.07322 0.12538 0.15375 0.18438 0.22697 0.01475 0.01464 0.11063 0.15375 0.1475 0.19768 0.02213 0.04393 0.08113 0.13179 0.09588 0.15376 0.22863 0.38072 0.45727 0.76144 0.56052 1.1788 0.00737 0.03661 0.02212 0.06589 0.03687 0.09518-0.33188 0.2709-0.64164 0.57841-0.9219 0.90788-0.13275 0.05125-0.25076 0.16107-0.29501 0.35143-0.19913 0.79808 0.19176 1.5888 0.54577 2.2917 0.13275 0.2709 0.29501 0.5198 0.47201 0.7614-0.16225 0.3002-0.33926 0.6004-0.56789 0.864-0.19176 0.2196-0.39826 0.3807-0.64165 0.5271-0.19175 0.1172-0.39088 0.2343-0.50151 0.432-0.07375 0.1318-0.05163 0.2855 0.05162 0.3954 0.37614 0.41 1.0989 0.0659 1.4677-0.1904 0.42776-0.2929 0.7744-0.6736 1.0768-1.0836 0.05163 0.0439 0.10326 0.0879 0.15488 0.1245 0.16226 0.1318 0.33189 0.2562 0.50889 0.366-0.0295 0.1172-0.06637 0.2417-0.10325 0.3588-0.14751 0.4613-0.25076 0.9811-0.44251 1.4204-0.08113 0.183 0.14012 0.4027 0.30238 0.2343 0.39826-0.4027 0.8629-0.6516 1.1948-1.1349 0.059-0.0805 0.11063-0.1684 0.16225-0.2562 0.96616 0.4539 1.9987 0.7541 3.0239 1.0689 0.708 0.2124 1.4603 0.4027 2.1093 0.7615 0.6785 0.3734 1.3275 0.7541 2.0503 1.0177 0.0516 0.0805 0.0959 0.1684 0.1401 0.2489 0.2287 0.4466 0.4499 0.8786 0.7154 1.3033 0.2582 0.4246 0.4868 0.8639 0.6786 1.3178 0.0811 0.205 0.1475 0.4174 0.1991 0.6297-0.1696-0.0439-0.3319-0.0805-0.5015-0.1098-0.9219-0.1538-1.8955-0.2124-2.8026 0.0732-2.2347 0.6955-3.0976 3.2874-2.2716 5.3594 0.2508 0.6296 0.9145 0.8127 1.4456 0.3807 0.7301-0.6004 1.1357-1.5082 1.8806-2.0866 0.118-0.0952 0.2582-0.1758 0.3983-0.2343l0.0148 0.0073s-0.0074 0-0.0074-0.0073c0.0442 0.0219 0.1549 0.0878 0.177 0.0951 0.3982 0.2343 0.7301 0.5565 1.0989 0.8274 1.9913 1.4789 4.639 1.4936 6.7483 0.2416 0.059-0.0366 0.1107-0.0659 0.1697-0.1025 0.0663 1.8597 0.9587 3.5802 2.3305 4.9274-0.0737 0-0.1548-0.0073-0.2286-0.0146-1.0325-0.0586-2.0651-0.0513-3.0976-0.1245-0.9219-0.0659-1.8291-0.0805-2.751 0.0146-0.8112 0.0879-1.6889 0.2197-2.3674 0.7029-0.767 0.5491-1.0915 1.5156-0.3909 2.2624 0.4868 0.5198 1.2317 0.7029 1.9102 0.8127 2.1314 0.3441 4.3293 0 6.4754 0.0219 1.1948 0.0074 2.3823-0.0073 3.577-0.0219 0.6269 0 1.2465 0.0219 1.866 0.0586 0.4056 0.0219 0.8113 0.0585 1.1874-0.022 0.2802 0.0805 0.5605 0.1391 0.8481 0.183 1.7332 0.2709 3.4959 0.3149 5.2365 0.4174 1.6446 0.1025 3.3114 0.2782 4.9635 0.2416 0.0885 0.1464 0.1623 0.2928 0.2434 0.4393 0.0516 0.1025 0.0959 0.205 0.1401 0.3075-0.0074-0.0147 0.0959 0.2416 0.1106 0.2855 0.1033 0.2929 0.1918 0.5857 0.2582 0.8932 0.0221 0.1172 0.0516 0.2343 0.0663 0.3515 0 0.0146 0.0222 0.183 0.0222 0.183 0 0.0659 0.0147 0.1245 0.0147 0.1904 0.0074 0.1611 0.0148 0.3221 0.0074 0.4832 0 0.0952 0 0.1977-0.0148 0.2929 0 0.0293-0.0221 0.2196-0.0221 0.1903-0.1106 0.7102-0.3319 1.2447-0.767 1.8304-0.3614 0.4906-0.8777 0.9518-1.4529 1.2447-0.0148 0-0.0222 0.0146-0.0295 0.0146h-0.0074c-0.0516 0.0147-0.0959 0.0366-0.1475 0.0513-0.1254 0.0439-0.2581 0.0878-0.3909 0.1245-0.3171 0.0878-0.6416 0.1537-0.9735 0.205-0.0664 0.0073-0.1254 0.0219-0.1918 0.0292-0.0221 0-0.0442 0-0.059 0.0074-0.0147 0-0.0369 0-0.0737 0.0073-0.1549 0.0146-0.3024 0.0366-0.4573 0.0512-0.3688 0.0366-0.7449 0.0586-1.1137 0.0733-0.7744 0.0292-1.5488 0.0292-2.3232 0-3.0386-0.0806-6.0919-0.3515-9.1084-0.7176-4.5579-0.5491-9.1084-1.1128-13.71-1.1861-2.5298-0.0366-5.0595 0.2343-7.4343 1.1422-1.1358 0.432-2.1683 0.9738-3.0976 1.7572-0.81128 0.6882-1.2759 1.4936-1.3718 2.5479-0.0073752 0.1171 0.022126 0.2123 0.073752 0.2782 0.044251 0.2197 0.22863 0.4027 0.47939 0.3002 1.8807-0.7761 3.8794-1.3765 5.8633-1.8231 2.1757-0.4905 4.3219-0.6443 6.5344-0.3661 2.1905 0.2783 4.3514 0.7688 6.5271 1.1203 2.22 0.366 4.4473 0.7101 6.6894 0.9078 2.2199 0.1904 4.4546 0.3002 6.6819 0.4174 1.6521 0.0805 3.3115 0.1757 4.9636 0.1464 3.1344-0.0586 6.6967-0.6223 8.7617-3.2142 2.869-3.5876 0.9146-8.0903-1.5635-11.297l-0.0148 0.022zm-28.004-28.54c0.1844-0.13911 0.3835-0.2709 0.6269-0.24893 0.0958 0.00732 0.3614 0.08786 0.413 0.19036 0.1032 0.205-0.1844 0.36608-0.2877 0.46858-0.059 0.05857-0.118 0.13179-0.1622 0.20501-0.0811 0-0.1696-0.01465-0.2508-0.02197-0.2802-0.01464-0.5605-0.02196-0.8407-0.01464 0.1253-0.21233 0.2728-0.41733 0.4941-0.57841h0.0074zm-2.8985 20.713c-0.0738 0.0073-0.0959-0.0659 0 0zm3.0165 8.083s0-0.0219 0.0073-0.0366c0 0.0147 0 0.022-0.0073 0.0366zm8.9314-0.388c-1.8365 0-3.636 0.0805-5.4577 0.2196-0.9219 0.0733-1.8364 0.1245-2.751-0.0439-0.059-0.0073-0.118-0.0219-0.177-0.0366 0.3541-0.1025 0.7597-0.205 0.8334-0.2123 0.7744-0.0952 1.5415-0.0952 2.3232-0.0732 0.9809 0.0219 1.9545 0.0146 2.9354-0.0074 0.5089-0.0146 1.0251-0.0366 1.5414-0.0805 0.2213-0.022 0.4351-0.0512 0.649-0.1025 0.0664-0.0146 0.1623-0.0512 0.2582-0.0805 0.1991 0.1391 0.4056 0.2782 0.6047 0.41h-0.7596v0.0073zm19.065 9.9939c-0.7671 1.0544-1.9692 1.7353-3.2378 2.116-1.4381 0.432-2.8099 0.5345-4.3292 0.5637-1.6373 0.0293-3.2672-0.0585-4.8972-0.1317-2.1683-0.0952-4.344-0.1977-6.5123-0.3734-2.1388-0.1758-4.2555-0.4467-6.3722-0.7688-2.1388-0.3222-4.2703-0.7541-6.4165-1.0177-2.419-0.2929-4.7791-0.1025-7.1466 0.4539-1.1137 0.2636-2.1757 0.6517-3.2525 1.0324 0.85553-0.4613 1.7627-0.7981 2.6993-1.069 2.1757-0.615 4.3956-0.7687 6.6451-0.7028 2.3453 0.0658 4.7054 0.2123 7.0433 0.4466 2.3748 0.2416 4.7423 0.593 7.1097 0.8712 2.987 0.3515 6.0256 0.6151 9.0347 0.6443 1.4972 0.0147 3.0386-0.0366 4.5063-0.3587 1.534-0.3368 2.7509-1.2008 3.6581-2.482 1.0178-1.4497 1.18-3.3167 0.7523-5.0007-0.177-0.6882-0.4499-1.3618-0.7965-1.9841-0.1254-0.2197-0.2582-0.432-0.4131-0.637-0.0442-0.0659-0.0958-0.1245-0.1475-0.1904-0.1401-0.3075-0.4351-0.5491-0.8702-0.5857-1.4161-0.1245-2.8469-0.1464-4.2629-0.2343-1.4308-0.0878-2.8616-0.1611-4.2924-0.2709-1.2833-0.1025-2.4855-0.3221-3.6581-0.8712-1.0399-0.4906-2.0651-1.0983-2.9796-1.7865-1.5488-1.1715-2.9944-2.8408-2.9133-4.8908 0.0885-2.2551 1.6816-4.1953 3.2894-5.645 2.1757-1.9548 4.9414-3.0897 7.1024-5.0592 0.2065-0.1903-0.0074-0.593-0.2877-0.4832-2.6329 0.9957-5.2733 2.2331-7.4637 4.0269-1.6004 1.3105-3.0829 2.9725-3.8646 4.9128-0.0222 0.0219-0.0369 0.0439-0.059 0.0658-0.3246 0.3881-0.6786 0.7835-1.0916 1.0836-1.7553 1.274-4.0342 1.2374-5.7232-0.1171-0.4204-0.3441-0.8702-0.7248-1.4086-0.8713-0.6196-0.1757-1.2096 0.0293-1.7185 0.3807-0.3909 0.2636-0.6932 0.6077-0.9882 0.9592 0.0663-0.3149 0.1917-0.615 0.3982-0.8786 0.4352-0.5711 1.1506-0.7322 1.8512-0.7395 0.9145-0.0146 1.7258 0.3368 2.633 0.4247 0.531 0.0512 1.0546-0.0147 1.4529-0.3881 0.3171-0.3002 0.531-0.7761 0.3687-1.208-0.1032-0.2709-0.4941-0.3588-0.6564-0.1318-0.236-1.1056-0.8112-2.1526-1.5193-3.0312-0.0737-0.0951-0.1475-0.183-0.2286-0.2782 0.1623 0.0147 0.3245 0.022 0.4794 0.0293 0.8113 0.0366 1.6373 0.0439 2.4191-0.1904 0.8334-0.2489 1.6004-0.6882 2.2494-1.2666 0.6196-0.5564 1.1874-1.3252 1.0031-2.1965-0.0443-0.2196-0.295-0.2709-0.472-0.1903-0.5753 0.2709-1.0031 0.7468-1.4825 1.1568-0.4425 0.3807-0.9809 0.7102-1.534 0.9005-0.6417 0.2197-1.2759 0.205-1.9471 0.1831-0.6343-0.022-1.2759-0.1025-1.888-0.2929-0.5974-0.1904-1.1211-0.6004-1.6521-0.9225-0.649-0.3881-1.298-0.6516-2.0134-0.8859-1.2391-0.41-2.5224-0.7249-3.695-1.2959 0.0885-0.4467 0.15488-0.9006 0.2065-1.3472 0.07376-0.5784 0-1.2374-0.60477-1.5156-0.30238-0.13909-0.59739-0.0878-0.79652 0.1172-0.11801-0.1757-0.36139-0.26361-0.56052-0.27825-0.47939-0.02196-0.61952 0.37345-0.70802 0.74685-0.01475-0.0293-0.03688-0.0586-0.05163-0.0879-0.16963-0.3002-0.47939-0.5491-0.64902-0.84931 1.6152-0.98841 3.4737-1.5888 5.2585-2.1818 2.043-0.68091 4.1228-1.435 6.2911-1.5815 0.7892-0.05125 1.5636 0 2.3232 0.11714-0.1032 0.08054-0.2065 0.16108-0.3024 0.24161-0.8998 0.77609-1.8954 2.299-1.3718 3.507 0.118 0.26361 0.4942 0.24891 0.6712 0.08786 0.3982-0.36608 0.5752-0.88591 0.8776-1.3179 0.2655-0.38073 0.5901-0.73216 0.9736-0.98842 0.354-0.23429 0.8334-0.48322 1.2021-0.51983 0.3319-0.02929 0.6195 0.03661 0.7597 0.22697 0.4941 0.65894 0.1991 1.64-0.4057 2.1599-0.3761 0.32215-0.8924 0.48323-1.3644 0.62965-0.236 0.0732-0.472 0.1464-0.7154 0.1977-0.295 0.0586-0.6121 0.0586-0.8998 0.2416-0.3908 0.2563-0.4941 0.6956-0.295 1.1129 0.3614 0.7614 1.335 0.6443 2.0135 0.5198 0.649-0.1171 1.3054-0.3661 1.888-0.6736 1.1727-0.6223 1.9766-1.8523 2.043-3.1775 0.0221-0.38805-0.0443-0.78341-0.1697-1.1495 2.0725 0.41001 4.1449 0.56376 6.2616 0.35876 2.1905-0.21233 4.4989-0.52716 6.6672 0.0366 1.571 0.41001 2.9944 1.3179 4.1523 2.4308 2.3084 2.2184 3.8572 5.418 4.0933 8.5809 0.1696 2.3136-0.3319 4.5979-0.7818 6.853-0.2434 1.2227-0.4647 2.4527-0.59 3.6901-0.118 1.2007-0.0295 2.3575 0.0147 3.5509 0 0.1758 0.0516 0.3222 0.1254 0.454 0.0295 0.0659 0.0664 0.1244 0.1106 0.1903 1.8512 2.3795 3.8351 5.9964 1.8069 8.7859l0.0222 0.0073z" fill="#020300"/>
</svg>
