<?xml version="1.0" encoding="UTF-8"?>
<svg fill="none" version="1.1" viewBox="0 0 48 48" xmlns="http://www.w3.org/2000/svg">
 <path d="m38.045 12.756c-1.2157 0.9946-2.5518 1.8209-3.9682 2.5026-1.4169 0.6887-2.8912 1.2067-4.2224 2.0611-2.5811 1.6453-4.5002 4.1708-5.6515 6.9806 0.1373-1.6134 0.2612-3.2348 0.4401-4.8452 0.1726-1.6178 0.4417-3.2218 0.9235-4.7757 1.2626-0.2905 2.3682-0.9183 3.4327-1.6532 0.9985-0.6911 1.9034-1.5346 2.6026-2.5248 0.7855-1.1227 1.2092-2.3547 1.4862-3.6806 0.1594-0.75856 0.2637-1.528 0.3745-2.2901 0.1103-0.75516 0.2131-1.5039 0.2054-2.2676-0.0092-0.64584-0.6877-1.007-1.2187-0.60821-0.5974 0.44946-1.1815 0.90682-1.7908 1.3277-0.5355 0.36374-1.1081 0.66236-1.6683 0.9827-1.1274 0.64016-2.1879 1.417-3.0592 2.3739-0.9009 0.98255-1.6409 2.1502-1.897 3.4775-0.142 0.71123-0.0808 1.4094-0.0557 2.1257 0.0108 0.3338 0.0216 0.6676 0.0815 0.9979 0.0346 0.1968 0.0757 0.4009 0.1316 0.5923 0.0342 0.1065 0.0897 0.2076 0.1377 0.3152-0.5124 1.2048-0.8682 2.4625-1.1422 3.747-0.2248-0.6545-0.4997-1.2917-0.797-1.9098-0.6241-1.3076-1.3717-2.6449-2.273-3.7852-0.8245-1.0446-1.9252-1.8386-3.0224-2.5837-0.6918-0.46615-1.4179-0.84457-2.1415-1.2575-0.7439-0.42134-1.4099-0.95501-2.0611-1.5015-0.4212-0.3495-1.0419 0.03584-1.0837 0.51844-0.0284 0.39338 0.1029 0.70116 0.2515 1.0587 0.1426 0.34329 0.2268 0.72398 0.3194 1.0845 0.2044 0.74317 0.4868 1.4711 0.6982 2.2148 0.4342 1.5228 0.6766 3.0943 1.1248 4.6182 0.7491 2.5723 2.3024 4.828 4.2271 6.6734 0.5743 0.5478 1.1665 1.0415 1.8172 1.4977 0.3251 0.2316 0.6195 0.5026 0.9594 0.7213 0.28 0.1798 0.5764 0.3261 0.788 0.5841 0.0704 0.0883 0.1496 0.1496 0.2369 0.1975-0.0702 0.7788-0.1472 1.5572-0.2174 2.3361-0.0995-0.2639-0.2129-0.5288-0.3269-0.7867-0.4626-1.0324-1.1657-1.9225-2.0344-2.6442-0.8361-0.6916-1.8387-1.201-2.8751-1.5325-1.2277-0.3868-2.4762-0.5809-3.6578-1.124-0.4391-0.1982-0.9969 0.2819-0.8553 0.7361 0.1966 0.6593 0.5692 1.1996 0.8818 1.7979 0.3061 0.591 0.475 1.2483 0.6879 1.8742 0.4274 1.231 1.0402 2.4059 1.7646 3.4849 0.6991 1.0425 1.5767 1.9313 2.7066 2.5123 1.0493 0.5405 2.1525 0.9115 3.3045 1.0917-0.0265 0.7543-0.0253 1.5105-0.0171 2.2673 0.0112 0.6182 0.0011 1.2419 0.0683 1.8572-0.5016-0.0084-1.0057 0.0176-1.5069 0.0994-1.8064 0.286-3.553 1.2908-4.9279 2.4611-0.7879 0.6716-1.8474 1.6288-2.2458 2.7032-0.0159 0.0266-0.0322 0.0601-0.0486 0.0936-0.3328 0.746-0.3322 1.7034 0.2065 2.3597 0.4865 0.604 1.1948 0.8424 1.9219 1.0127 1.7214 0.4086 3.4643 0.2291 5.2082 0.1329 1.8137-0.0981 3.6562-0.208 5.4734-0.063 1.6783 0.1349 3.4265 0.3651 5.0867-0.0216 1.5115-0.3558 2.4869-1.5966 2.013-3.15-0.4278-1.4184-1.5765-2.417-2.8215-3.145-1.4456-0.8466-3.0679-1.3729-4.6737-1.8356-0.574-0.1663-1.1564-0.3124-1.7482-0.4244-0.045-0.4403-0.0909-0.8668-0.1007-1.3115-0.018-1.1044-0.0425-2.2161 0.0164-3.3218 0.0399-0.7464 0.0862-1.4853 0.14-2.2307 1.6154 0.1373 3.2552-0.0635 4.8127-0.4784 1.5854-0.4129 3.0895-1.0536 4.3578-2.0998 0.6302-0.5165 1.2281-1.07 1.7344-1.7064 0.5366-0.6689 0.9205-1.4459 1.2895-2.2102 0.3849-0.7908 0.7559-1.5827 1.0729-2.3992 0.3264-0.8506 0.5076-1.7186 0.6903-2.6073 0.1877-0.9576 0.4507-1.896 0.6864-2.8433 0.2566-1.0429 0.4994-2.0868 0.8377-3.103 0.2139-0.6437-0.5583-1.1572-1.0769-0.7368l-0.0129-0.0148zm-12.97-0.7344c0.0285-0.6847 0.0143-1.3587 0.1811-2.0265 0.2913-1.1375 1.0406-2.1449 1.8929-2.9367 0.8449-0.78541 1.8172-1.4021 2.8265-1.9536 0.7625-0.41674 1.4735-0.89269 2.1721-1.3904-0.0831 0.86118-0.2355 1.7174-0.3934 2.5523-0.2259 1.1977-0.5653 2.3249-1.2596 3.3431-0.6085 0.89265-1.3939 1.6268-2.2759 2.25-0.647 0.4597-1.3183 0.8692-2.0436 1.1568 0.4336-0.9816 1.0019-1.8979 1.5891-2.7852 0.3134-0.47688 0.6531-0.93105 0.9928-1.3852 0.1626-0.22414 0.3188-0.45568 0.4419-0.71043 0.123-0.25474 0.1642-0.53621 0.2262-0.81616 0.0298-0.12273-0.1179-0.20275-0.1952-0.09733-0.1766 0.22313-0.4175 0.37225-0.6139 0.58008-0.1661 0.17532-0.3456 0.34275-0.5052 0.52548-0.364 0.40386-0.728 0.80772-1.0721 1.2269-0.6655 0.81219-1.3062 1.6679-1.8452 2.5655-0.0402 0.0735-0.0873 0.1464-0.1275 0.2198 0.0075-0.1035 6e-4 -0.2012 8e-3 -0.3047l1e-3 -0.0138zm-5.1187 10.231c-0.9529-0.8111-1.8285-1.7275-2.5866-2.7257-0.7383-0.9828-1.3367-2.0666-1.7488-3.2202-0.4937-1.3745-0.6935-2.8597-1.0659-4.274-0.2193-0.8275-0.4535-1.6422-0.7303-2.4461-0.0753-0.21355-0.1362-0.43301-0.2046-0.64606 1.6092 1.0942 3.4336 1.9126 4.8176 3.3236 0.9227 0.9407 1.5612 2.1453 2.2122 3.2745 0.6753 1.1795 1.2851 2.3959 1.6366 3.7116 0.1481 0.5587 0.2797 1.151 0.3425 1.7313-0.0244 0.241-0.0492 0.489-0.0741 0.7369-0.5805-1.3322-1.2617-2.6231-2.0311-3.851-0.5812-0.9369-1.1093-1.9323-1.7856-2.8067-0.3191-0.4115-0.6764-0.7772-1.0703-1.1178-0.3677-0.3179-0.8564-0.6029-1.1428-0.9843-0.1144-0.1539-0.3291 0.0179-0.2637 0.1753 0.3442 0.8365 0.9581 1.5121 1.3827 2.2989 0.4493 0.8302 0.8397 1.7047 1.2746 2.5408 0.4538 0.8652 0.9145 1.7309 1.34 2.601 0.4375 0.8988 0.7742 1.8388 1.1541 2.7611-0.4826-0.3678-0.9966-0.6893-1.4634-1.0837l0.0069 5e-4zm-3.3965 6.6646c-0.654-0.9907-1.2118-2.0576-1.5911-3.1811-0.1897-0.5617-0.3571-1.1427-0.6181-1.6818-0.0486-0.1006-0.1041-0.2018-0.1596-0.3029 1.5638 0.4666 3.1767 0.7356 4.5345 1.7354 0.8078 0.5994 1.4421 1.3805 1.8651 2.2851 0.2353 0.5095 0.4701 1.026 0.6836 1.5478-0.3563-0.3795-0.7275-0.7462-1.0912-1.1193-0.5456-0.5597-1.0559-1.1237-1.6461-1.645-0.282-0.2493-0.5774-0.5064-0.898-0.703-0.3207-0.1966-0.6587-0.3458-0.9565-0.5685-0.1527-0.1081-0.3822 0.0765-0.2826 0.2432 0.3349 0.5792 0.7838 1.1249 1.207 1.6411 0.4548 0.56 0.8948 1.1329 1.3497 1.6929 0.4544 0.567 0.9603 1.096 1.4221 1.6566 0.2314 0.2734 0.441 0.559 0.6654 0.8319 0.1026 0.1254 0.2052 0.2507 0.3221 0.3701 0.0451 0.0518 0.2473 0.3439 0.1958 0.1876 0.0054 0.0212 0.0109 0.0424 0.0232 0.0641-0.9244-0.143-1.8319-0.4235-2.6739-0.8381-0.9833-0.4872-1.7544-1.3059-2.3514-2.2161zm11.213 11.95c1.0631 0.4444 2.1862 1.0249 2.9299 1.9318 0.2696 0.3247 0.5282 0.8012 0.5414 1.1976 0.0059 0.2086-0.0104 0.2421-0.1468 0.3918-0.0605 0.065-0.2504 0.1831-0.408 0.2411-1.2468 0.4581-2.8136 0.2272-4.1039 0.1272-1.5118-0.123-3.0187-0.1207-4.53-0.0562-1.6928 0.0652-3.3966 0.2822-5.0943 0.2222-0.7167-0.024-1.4945-0.0732-2.1814-0.3169-0.1903-0.0693-0.4337-0.177-0.5243-0.3709-0.1338-0.2732-0.1004-0.7356-0.1142-1.028l0.0015-0.0207c0.4652-0.7434 1.2604-1.3243 1.9308-1.8171 1.0317-0.765 2.1631-1.4603 3.4113-1.842 0.7987-0.2407 1.6255-0.2921 2.4513-0.2325 0.0228 0.071 0.0525 0.1425 0.0822 0.214 0.1793 0.4153 0.7206 0.4544 1.0384 0.2067 0.0962-0.0763 0.1785-0.1536 0.2474-0.2388 0.117 0.0223 0.2404 0.052 0.3574 0.0744 1.4002 0.316 2.8049 0.7642 4.1252 1.3173l-0.0139-1e-3zm8.1287-20.434c-0.2481 0.8285-0.5859 1.6436-0.949 2.4221-0.6582 1.3886-1.3422 2.7475-2.5118 3.7801-1.1102 0.9813-2.3466 1.683-3.7729 2.1143-1.1481 0.3473-2.3363 0.5737-3.526 0.6267 0.4408-0.3082 0.881-0.6094 1.2965-0.9541 1.0298-0.8345 1.9764-1.7721 2.8769-2.7478 0.8781-0.9564 1.8579-1.8708 2.6444-2.9102 0.4076-0.5256 0.7488-1.0976 1.1098-1.6543 0.3457-0.537 0.6522-1.1115 0.7401-1.7503 0.0264-0.1716-0.22-0.2379-0.3132-0.1059-0.721 1.0025-1.4703 2.0099-2.3435 2.8973-0.8653 0.8741-1.8296 1.6717-2.7271 2.5089-0.8969 0.8302-1.7751 1.6895-2.7305 2.46-0.5037 0.4077-1.0446 0.7502-1.5801 1.1139-0.0223 0.0192-0.0516 0.038-0.0739 0.0572 0.0725-0.2307 0.138-0.4618 0.2099-0.6856 0.2431-0.7594 0.4927-1.5115 0.7834-2.2536 0.5492-1.4242 1.3005-2.7505 2.2452-3.9519 0.9139-1.162 2.0142-2.1996 3.2834-2.9682 1.2692-0.7687 2.6562-1.2375 3.9928-1.8765 0.9395-0.4525 1.8487-0.9697 2.7134-1.5455-0.2754 1.0138-0.5241 2.0434-0.7921 3.0508-0.2104 0.7895-0.3385 1.5989-0.5693 2.3801l-0.0064-0.0075z" fill="#000"/>
</svg>
