<?xml version="1.0" encoding="UTF-8"?>
<svg version="1.1" viewBox="0 0 48 48" xmlns="http://www.w3.org/2000/svg">
 <path d="m47.746 32.868c-0.7264-1.3768-2.3943-1.7191-3.862-1.667 0.2223-1.0642-0.5708-2.2773-1.5567-2.6717-1.2157-0.4838-2.6612 0-3.8176 0.439-0.1409 0.0521-0.2743 0.1042-0.4151 0.1638-0.4448-0.5954-1.6827-0.707-2.2758-0.6921-0.6449 0.0223-1.2601 0.2976-1.8531 0.5432-0.6524 0.2679-1.2973 0.5656-1.9422 0.841-1.3121 0.5582-2.6167 1.161-3.9807 1.5926 0.8748-0.8037 1.6234-2.2029 1.2528-3.4159-0.4077-1.3471-1.9421-1.6596-3.1653-1.6894-1.4306-0.0372-2.8465 0.0223-4.2771-0.0744-2.9726-0.201-6.1304-0.9303-9.051 0.0149-1.5122 0.4837-2.9355 1.4214-3.9955 2.6122-0.15567 0.1786-0.31875 0.3721-0.47442 0.573 0.06672-0.3944-0.09636-0.8261-0.59302-0.96-1.2083-0.3349-2.4759-0.4242-3.7286-0.4912-1.0526-0.0521-2.335-0.1117-3.1356 0.707-0.67456 0.6772-0.48924 1.5703-0.48924 2.4261 0 0.4242-0.022238 0.8484-0.037063 1.2726-0.12602 2.9248-0.31875 5.857-0.3484 8.7892 0 0.6698 0.014826 1.3322 0.029651 1.9945 0.014826 0.4317-0.014826 0.908 0.13343 1.3247 0.14084 0.4168 0.467 0.6624 0.90436 0.6922 1.5493 0.0967 3.1208 0.2381 4.6775 0.1934 0.74128-0.0223 1.4826-0.186 1.9496-0.7144h0.05931c0.9859 0 1.9866-0.134 2.9725-0.1563 1.06-0.0298 2.12-0.0372 3.1727-0.0223 2.0681 0.0298 4.1363 0.1712 6.197 0.3349 2.1349 0.1711 4.2846 0.4316 6.4269 0.454 1.9792 0.0223 3.8176-0.3201 5.6115-1.1461 3.0466-1.3992 5.5299-3.7955 8.6136-5.1351 1.6976-0.7442 3.5878-1.094 5.1667-2.1062 1.275-0.8186 2.6687-2.4335 1.831-4.0262zm-40.993 0.3498c-0.09636 1.4736-0.20756 2.9471-0.25945 4.4281-0.05189 1.3768-0.10377 2.761-0.16308 4.1378-0.01482 0.387-0.03706 0.7666-0.05189 1.1536 0 0.0446 0 0.0893-0.00741 0.1339v0.1489c0 0.0297 0.01483 0.1488 0.01483 0.186v0.0075s0-0.0075 0.00741-0.0149h0.01482c0 0.0149-0.01482 0.0223-0.03706 0.0298-0.05189 0.0669-0.03706 0.0372-0.00741 0-0.0593 0.0148-0.14826 0.0148-0.14084 0.0074h-0.04448c-0.88954 0.0595-1.7865 0-2.676-0.0372-0.5189-0.0223-1.0526-0.0819-1.5789-0.1042v-0.0149c0-0.0149 0-0.0372-0.00741-0.067-0.00741-0.0818-0.01482-0.1339-0.02224-0.1637v-0.1414c0-0.1116-0.00741-0.2233-0.01482-0.3349-0.00742-0.3051-0.01483-0.6102-0.01483-0.9079 0-1.3917 0.04448-2.7834 0.10378-4.1676 0.05189-1.3843 0.12602-2.7685 0.18532-4.1528 0.03706-0.8186 0.1186-1.6596 0.07413-2.4782-0.01483-0.32-0.19273-0.8261 0.09636-1.0419 0.30393-0.2233 0.93401-0.1637 1.2824-0.1488 1.186 0.0372 2.4017 0.0967 3.5581 0.3869-0.21497 1.0271-0.22239 2.1062-0.29651 3.1406l-0.01483 0.0149zm33.839-3.3638c0.5189-0.1191 1.186-0.2084 1.6679 0.0744 0.5188 0.3051 0.6078 0.8186 0.6819 1.347-0.7709 0.1042-1.527 0.3051-2.2683 0.5507-0.4448 0.1489-0.8821 0.32-1.3046 0.521-0.6672-0.0521-1.3269 0.3423-1.9125 0.6251-0.6301 0.3052-1.2676 0.6103-1.9125 0.8856-1.0971 0.4763-2.2609 0.8633-3.4321 1.1089-1.4678 0.3052-2.9874 0.3275-4.4996 0.1861 1.5493-0.3647 3.0689-0.841 4.544-1.4438 1.5715-0.6475 3.0615-1.4363 4.5663-2.2252 1.2305-0.64 2.5055-1.3247 3.8695-1.6373v0.0075zm-11.297 2.7015c1.6234-0.6028 3.2097-1.3099 4.7738-2.0541 0.3781-0.1786 0.7636-0.3274 1.1342-0.5135 0.3262-0.1637 0.6227-0.2902 0.9933-0.3349 0.252-0.0297 0.5115-0.0446 0.7635-0.0149-1.1416 0.5582-2.2461 1.2057-3.3802 1.7638-1.6531 0.8187-3.3802 1.481-5.1593 1.9796-0.9859 0.2754-1.9866 0.4987-2.9948 0.6624-0.7561 0.1191-1.5641 0.0893-2.335 0.2084-0.4967-0.1414-0.9859-0.2977-1.4751-0.454 0.8895-0.0223 1.7864-0.067 2.6686-0.2009 1.7049-0.268 3.3802-0.4317 5.011-1.0345v-0.0074zm16.501 2.2028c-0.4892 0.521-1.1119 0.8782-1.7642 1.1685-1.5344 0.6846-3.1727 1.0567-4.6923 1.7786-2.8168 1.3396-5.1667 3.483-7.991 4.8002-1.5418 0.7145-3.1356 0.975-4.8257 0.9526-1.9718-0.0223-3.951-0.2604-5.908-0.4167-2.1793-0.1712-4.3513-0.3349-6.538-0.3721-1.0601-0.0149-2.1201-0.0149-3.1801 0.0148-0.5411 0.0149-1.0823 0.0373-1.6234 0.0596-0.36323 0.0149-0.72646 0.0595-1.0897 0.0893 0-0.1116 0-0.2158 0.00741-0.32 0.13343-2.895 0.24462-5.79 0.2298-8.6925 0-0.6549-0.00742-1.3172-0.01483-1.9721v-0.0893c0.33358-0.7294 0.90436-1.3471 1.49-1.9052 0.87474-0.8261 1.8976-1.5257 3.054-1.8903 2.4981-0.7815 5.1816-0.268 7.7241 0 1.4085 0.1488 2.8391 0.1935 4.255 0.186 0.504 0 1.0081-0.0521 1.5122-0.0595 0.341 0 0.8895-0.0298 1.1564 0.2232 0.2594 0.2382 0.0963 0.6847-0.0223 0.9601-0.1853 0.4316-0.4744 0.7963-0.8376 1.0865-0.8747 0.7145-1.994 0.9154-3.0837 1.0196-1.5715 0.1563-3.2098 0.1861-4.7294 0.6624-0.7413 0.2381-1.4677 0.5283-2.1793 0.8484-0.7117 0.32-1.5197 0.5953-2.0534 1.1833-0.3632 0.3944-0.1408 1.2279 0.4819 1.1684 0.8228-0.0819 1.5122-0.521 2.2534-0.8559 0.0742-0.0297 0.1483-0.0669 0.2224-0.0967 0.2076 0.1935 0.4448 0.2605 0.6672 0.2307 1.4158 0.4912 2.8168 1.0047 4.2623 1.3842 1.5938 0.4168 3.2023 0.7368 4.8406 0.9005 1.527 0.1489 3.0466 0.1861 4.5662-0.0446 1.3195-0.201 2.55-0.6252 3.7731-1.161 0.7117-0.3126 1.4085-0.6549 2.0979-1.0121 0.4151-0.2158 0.8821-0.4168 1.2898-0.6921 1.1638-0.4689 2.3795-0.8187 3.6248-0.975 1.0156-0.1265 2.6612-0.32 3.3803 0.6252 0.2965 0.387-0.0371 0.8558-0.3559 1.1982v0.0148zm-39.54 8.6627 0.00742-0.0149s-0.00741 0-0.01483 0.0149h0.00741zm-0.00741 0.0075c-0.10378 0-0.14084 0.0074-0.14825 0.0148 0.05189 0 0.09636-0.0074 0.14825-0.0148h0.00741-0.00741zm0.00741 0v0.0074-0.0074zm-0.01482-0.0373s0 0.0224 0.00741 0.0298c0 0-0.00741-0.0149-0.01482-0.0223l0.00741-0.0075zm0.02965 0.0224v0.0074-0.0074z" fill="#020300"/>
 <path d="m43.068 7.5643c-0.1853-1.2056-0.7413-2.3071-1.4974-3.2522-0.7561-0.94516-1.7642-1.667-2.9058-2.0615-1.275-0.44653-2.6612-0.26048-3.8768 0.27536-1.3269 0.58049-2.4018 1.5554-3.4099 2.575-0.1409 0.14141-0.2817 0.29769-0.4151 0.44653-0.0742-0.11907-0.1483-0.2307-0.215-0.32001-0.3855-0.55072-0.9488-1.0047-1.4826-1.3991-0.8895-0.6698-1.9644-1.1386-3.0466-1.3991-0.9785-0.23815-2.0163-0.30513-2.9948-0.04465-1.0822 0.2828-1.9347 0.96004-2.5722 1.868-1.3047 1.868-1.5938 4.3834-1.0823 6.5715 0.556 2.374 2.2313 4.4504 3.8769 6.1844 1.0007 1.0493 2.0533 2.0689 3.143 3.0215 0.5708 0.4912 1.1638 0.9526 1.7346 1.4438 0.5486 0.4688 1.1193 0.9303 1.7717 1.2354 0.1927 0.0967 0.4077 0.1265 0.6078 0.0967 0.1557 0.0596 0.341 0.067 0.5263 0 1.364-0.5135 2.5871-1.5628 3.699-2.4857 1.0823-0.8856 2.0978-1.8605 3.0763-2.8652 1.7642-1.8308 3.5359-3.7508 4.5144-6.1398 0.4818-1.1758 0.7413-2.4782 0.5485-3.7508zm-2.1645 2.3294c-0.6301 2.2029-2.2757 3.9964-3.8176 5.6114-0.9859 1.0419-2.0014 2.0391-3.0689 2.9917-0.5337 0.4763-1.0822 0.9452-1.6604 1.3768-0.5338 0.4019-1.112 0.7591-1.6457 1.1684-0.8673-0.4837-1.6234-1.213-2.3721-1.8456-0.8895-0.7591-1.7271-1.5703-2.5796-2.3592-1.5863-1.4661-3.1134-3.0662-4.0845-5.016-0.845-1.6819-0.9265-3.7062-0.2891-5.47 0.2743-0.75166 0.7413-1.5629 1.4233-2.0168 0.6672-0.44653 1.4603-0.54327 2.2461-0.4763 0.9192 0.08187 1.8309 0.42421 2.6389 0.85585 0.5263 0.2828 1.0378 0.58049 1.4974 0.96004 0.2224 0.1935 0.4374 0.39444 0.6597 0.59537 0.0668 0.05954 0.1261 0.12652 0.1854 0.18606-0.215 0.18605-0.4374 0.31257-0.7784 0.18605-0.2446-0.09675-0.4003 0.20838-0.3113 0.40188 0.4373 0.9005 1.5863 0.707 2.2461 0.19349 0.7709-0.58793 1.4232-1.3173 2.1867-1.9201 0.897-0.69957 1.8977-1.3694 3.0319-1.5703 1.0155-0.17861 2.0088 0.16373 2.8094 0.78143 1.6753 1.28 2.2461 3.4011 1.6827 5.3658z" fill="#020300"/>
</svg>
