<?xml version="1.0" encoding="UTF-8"?>
<svg width="48" height="48" fill="none" version="1.1" viewBox="0 0 48 48" xmlns="http://www.w3.org/2000/svg">
 <path d="m9.8864 29.268c-0.74333-0.6717-2.4084-1.0149-3.0254 0.0146-0.07433 0.1315-0.14123 0.2848-0.17097 0.4381-0.16353 0.1606-0.31963 0.3286-0.4237 0.5111-0.2453 0.4381-0.29733 0.993-0.1561 1.4749 0.28247 0.971 1.2562 1.6792 2.2895 1.6208 0.97377-0.0511 1.7691-0.7885 2.1111-1.6501 0.3493-0.8834 0.0743-1.7888-0.62445-2.4167v0.0073zm-0.96633 2.1904c-0.446 0.6206-1.3752 0.46-1.561-0.3066-0.0669-0.2629-0.0223-0.4819 0.07434-0.6937 0.31963-0.0803 0.59467-0.3431 0.94403-0.2847 0.72104 0.1095 0.90687 0.7885 0.54264 1.285zm21.928 1.1025c-1.0035-0.2409-2.007-0.2044-2.9659-0.7593-1.0927-0.6279-1.9996-1.5041-3.1592-2.0298-1.1522-0.5184-2.4307-0.9345-3.6944-0.5841-0.5129 0.146-1.0109 0.3797-1.4643 0.6498-0.3122 0.1826-0.5947 0.4381-0.7136 0.774-0.2528 0.1022-0.3791 0.4818-0.0744 0.6206 0.6913 0.3139 0.9366 1.3799 1.1299 2.0224 0.275 0.92 0.6541 1.7377 1.4272 2.351 1.6799 1.3362 4.0809 1.2558 6.0508 0.6863 1.2116-0.3504 2.2225-1.0732 3.0774-1.964 0.2155-0.0146 0.4237-0.0657 0.6021-0.1825 0.6021-0.4016 0.5723-1.4019-0.2082-1.5844h-0.0074zm-2.7206 1.5917c-0.5649 0.3723-1.1745 0.5622-1.836 0.7082-1.0779 0.2409-2.2821 0.3578-3.3376-0.0584-0.4609-0.1825-0.8772-0.4819-1.1745-0.8762-0.2973-0.3942-0.4014-0.8615-0.617-1.3507-0.3047-0.6936-0.7136-1.4749-1.3751-1.8107 0.2081-0.0438 0.4311-0.073 0.5946-0.1095 0.5129-0.1096 1.0407-0.2191 1.5685-0.1607 0.55 0.0512 1.0852 0.3286 1.5833 0.5622 0.4906 0.2264 0.9663 0.4892 1.39 0.8178 0.9366 0.7082 1.7692 1.5478 2.8916 1.9786 0.1635 0.0657 0.3419 0.1241 0.5129 0.168-0.0669 0.0511-0.1338 0.1022-0.2081 0.146l0.0074-0.0146zm17.424-10.339c-0.9515-0.5403-2.0888-0.2556-3.0031 0.219-0.9218 0.4819-1.8063 1.1682-2.5868 1.8472-0.9664 0.847-1.8807 1.7669-2.6537 2.7745-0.3643 0.4673-0.7508 0.993-1.0481 1.5479-1.4272-1.5552-3.3822-2.6212-5.2182-3.6287-2.4902-1.3654-4.9878-2.6066-7.7679-3.3002-3.07-0.7666-6.1845-0.8178-9.2842-0.2191-2.6909 0.5257-5.3744 1.4019-7.6861 2.884-1.3083 0.8397-2.4753 1.8327-3.5903 2.906-0.99607 0.9637-1.955 1.9932-2.4753 3.2709-0.1338 0.0803-0.23787 0.2191-0.23787 0.387 0 0.3285 0.0446 0.6571 0.17097 0.9565 0.14123 0.3431 0.39397 0.6133 0.59467 0.9199 0.43114 0.6571 0.9143 1.3069 1.4272 1.9129 0.9366 1.1171 1.9327 2.1466 3.1369 2.9936 2.2746 1.6063 5.025 2.4386 7.7753 2.8183 1.613 0.219 3.2335 0.292 4.8614 0.2482 1.5759-0.0365 3.174-0.1168 4.7276-0.4089 3.07-0.5695 5.9541-1.9421 8.6153-3.5192 2.0516-1.2193 3.7464-2.8694 4.7796-4.9502 0.0966 0.4964 0.2304 0.9856 0.4311 1.4529 0.5204 1.2412 1.3083 2.3948 2.1854 3.417 0.84 0.9784 1.8732 1.8399 3.07 2.3729 0.6244 0.2775 1.3231 0.5403 2.0219 0.5111 0.4757-0.0219 1.1522-0.146 1.4272-0.5695 0.1635-0.0146 0.3345-0.073 0.4906-0.1898 0.4832-0.3724 0.6467-1.0368 0.8251-1.5917 0.171-0.5476 0.3048-1.1025 0.4088-1.6647 0.2156-1.1536 0.2974-2.3218 0.3197-3.4973 0.0297-1.9567-0.0075-3.9208-0.0669-5.8775-0.0446-1.4238-0.2528-3.2564-1.6428-4.0449l-0.0074 0.0219zm-31.785 15.296c-0.1264 0.2264-0.2899 0.4454-0.4386 0.6572-0.0743 0.1022-0.1412 0.1971-0.2304 0.292-0.0669 0.073-0.2528 0.1533-0.0967 0.1095-0.0817 0.0219-0.1486 0.0584-0.2155 0.0949-1.9178-0.3139-3.8208-0.8907-5.5007-1.818-1.2562-0.6936-2.3043-1.5844-3.2707-2.6284-0.5575-0.606-1.1076-1.212-1.6428-1.84-0.25274-0.292-0.48317-0.5841-0.77307-0.8396-0.1561-0.146-0.3122-0.2921-0.446-0.46 1.5536-1.7231 3.293-3.3951 5.2405-4.6655 1.9996-1.3069 4.1255-2.1831 6.4373-2.7745 0.0223 0.0292 0.0446 0.0511 0.0669 0.0803 0.2304 0.2775 0.4237 0.5841 0.6021 0.8981 0.3419 0.6133 0.6021 1.2485 0.8028 1.9202 0.4385 1.4603 0.6392 3.0155 0.6987 4.5341 0.0595 1.526-0.0818 3.0446-0.498 4.5195-0.1859 0.6425-0.4089 1.3434-0.7359 1.9275v-0.0073zm19.914-4.4829c-0.7582 0.825-1.6502 1.5259-2.6165 2.11-2.3564 1.4165-4.9952 2.5555-7.6787 3.2345-1.4049 0.3578-2.8172 0.4819-4.2667 0.5549-1.3826 0.073-2.7652 0.0803-4.1478-0.0146 0.2824-0.4089 0.5054-0.8324 0.6987-1.3069 0.5203-1.2997 0.8697-2.5847 0.9961-3.9792 0.1338-1.4311 0.052-2.884-0.171-4.3005-0.2081-1.3361-0.5203-2.6796-1.0853-3.9135-0.3122-0.6863-0.7061-1.3288-1.2265-1.8837-0.052-0.0511-0.104-0.1095-0.1709-0.1679 2.5347-0.5184 5.1661-0.5914 7.7009-0.0365 2.5942 0.5622 5.0398 1.5405 7.3293 2.8548 2.1631 1.2339 4.5343 2.3875 6.1102 4.3515-0.3419 0.9054-0.9651 1.9391-1.6267 2.6619l0.1549-0.1648zm11.812-6.615c-0.0149 1.745-0.0074 3.49-0.0149 5.235 0 1.1025-0.0297 2.205-0.223 3.2929-0.0966 0.5622-0.223 1.1244-0.3865 1.672-0.1041 0.3504-0.2676 0.7009-0.3717 1.066h-0.2007c-0.1486 0.0073-0.2899 0.0438-0.4311 0.073-0.0372 0.0073-0.1264 0.0146-0.1561 0.0219-0.446-0.0146-0.8846-0.1899-1.2785-0.3797-0.9738-0.4819-1.8064-1.1828-2.5348-1.964-0.7434-0.8032-1.3901-1.7012-1.8881-2.6723-0.275-0.533-0.5129-1.066-0.6764-1.6428-0.0595-0.219-0.0967-0.4673-0.1561-0.7082 0.0743-0.2628 0.0594-0.5476-0.1041-0.7812v-0.0073c0.3196-0.4746 0.6318-0.9492 1.0035-1.3873 0.6393-0.7447 1.338-1.431 2.0813-2.0808 0.7657-0.6718 1.5908-1.2632 2.4233-1.84 0.5352-0.3723 1.457-1.0002 2.1037-0.7374 0.1561 0.0657 0.2973 0.2118 0.3716 0.3213 0.1636 0.2482 0.223 0.4234 0.2974 0.7301 0.1412 0.5695 0.1561 1.1609 0.1486 1.7888h-0.0074zm1.5536-10.485c-1.5536-0.5987-3.1741-1.0441-4.7277-1.6501-1.7245-0.679-3.4416-0.2409-5.0918 0.4016-0.3865 0.146-0.7656 0.292-1.1522 0.4307-0.446 0.1534-0.8771 0.3724-1.3305 0.4965-0.7731 0.2191-1.6874 0.1315-2.453-0.0803-1.6428-0.46-3.2261-1.3434-4.9506-1.4967-1.0705-0.095-2.1929 0.0219-3.2559 0.1533-0.5054 0.0584-1.0258 0.1168-1.5238 0.2263-0.7136 0.168-1.39 0.5038-2.059 0.7886-1.509 0.6425-3.0626 1.4237-4.683 0.6498-0.394-0.1899-0.8251-0.2921-1.234-0.4527-0.3642-0.1387-0.721-0.314-1.0778-0.4673-0.84-0.3504-1.7245-0.6279-2.6314-0.7958-1.0035-0.1899-2.0144-0.2629-3.0328-0.1095-0.90687 0.1314-1.7617 0.4964-2.5719 0.9053-0.77306 0.387-1.5164 0.8397-2.3192 1.1682-0.4014 0.1606-0.8251 0.2702-1.2414 0.387-0.4014 0.1168-0.892 0.1971-1.286 0.0219-0.28247-0.1241-0.52033 0.1752-0.32707 0.4162 1.0109 1.2558 2.9956 0.6279 4.2444 0.1314 1.4569-0.5841 2.8098-1.4092 4.4377-1.3946 1.7394 0.0219 3.3153 0.7448 4.8911 1.3873 0.3643 0.146 0.7434 0.2993 1.1225 0.4016 0.4608 0.1241 0.9812 0.1314 1.4643 0.1679 0.8995 0.0657 1.7692-0.0876 2.624-0.3651 0.7805-0.2555 1.5313-0.5987 2.2895-0.9126 0.3642-0.1534 0.7433-0.2702 1.1298-0.3651 0.171-0.0438 0.342-0.0803 0.5204-0.1095 0.0446 0 0.0966-0.0073 0.1412-0.0146 1.1076-0.0949 2.2374-0.0803 3.345-0.0438 0.2453 0.0073 0.4832 0.0292 0.7285 0.0438h0.0595 0.0074c0.1487 0.0438 0.3048 0.0657 0.4534 0.1095 0.8846 0.2336 1.732 0.5768 2.572 0.92 1.6725 0.6717 3.7687 1.3288 5.5006 0.4599 1.68-0.8396 3.2707-2.424 5.3149-2.1173 0.9812 0.1533 1.9772 0.6644 2.8841 1.0586 0.9589 0.4162 1.9253 0.8032 2.8767 1.2267 0.3717 0.1679 0.7359 0.1022 0.9738-0.1315 0.6987-0.5403 0.0892-1.6793-0.6541-1.4529l0.0223 0.0073zm-24.203-0.073c0.1189-0.0146 0.0371 0 0 0zm-18.487-3.5776c1.4569-0.5842 2.8098-1.4092 4.4377-1.3946 1.7394 0.0219 3.3152 0.7447 4.8912 1.3873 0.3642 0.146 0.7433 0.2993 1.1224 0.4015 0.4609 0.1241 0.9812 0.1314 1.4644 0.1679 0.8994 0.0658 1.7691-0.0876 2.624-0.365 0.7805-0.2556 1.5312-0.5987 2.2894-0.9127 0.3643-0.1533 0.7434-0.2701 1.1299-0.365 0.171-0.0438 0.3419-0.0804 0.5203-0.1096 0.0446 0 0.0967-0.0073 0.1413-0.0146 1.1075-0.0949 2.2374-0.0803 3.345-0.0438 0.2453 0.0073 0.4832 0.0292 0.7285 0.0438h0.0594 0.0075c0.1486 0.0438 0.3047 0.0658 0.4534 0.1096 0.8846 0.2336 1.732 0.5768 2.5719 0.9199 1.6725 0.6717 3.7687 1.3289 5.5007 0.46 1.6799-0.8396 3.2707-2.424 5.3148-2.1174 0.9812 0.1534 1.9773 0.6644 2.8842 1.0587 0.9589 0.4162 1.9252 0.8032 2.8767 1.2266 0.3717 0.168 0.7359 0.1022 0.9738-0.1314 0.6987-0.5403 0.0892-1.6793-0.6542-1.4529-1.5535-0.5987-3.174-1.0441-4.7276-1.6501-1.7245-0.6791-3.4416-0.241-5.0918 0.4015-0.3866 0.1461-0.7657 0.2921-1.1522 0.4308-0.446 0.1533-0.8771 0.3724-1.3306 0.4965-0.773 0.219-1.6873 0.1314-2.453-0.0803-1.6427-0.46-3.226-1.3434-4.9506-1.4968-1.0704-0.0949-2.1928 0.0219-3.2558 0.1534-0.5055 0.0584-1.0258 0.1168-1.5238 0.2263-0.7136 0.1679-1.3901 0.5038-2.0591 0.7885-1.5089 0.6425-3.0625 1.4238-4.683 0.6498-0.3939-0.1898-0.8251-0.292-1.2339-0.4526-0.3642-0.1388-0.721-0.314-1.0778-0.4673-0.84-0.3505-1.7246-0.6279-2.6314-0.7959-1.0036-0.1898-2.0145-0.2628-3.0328-0.1095-0.90687 0.1314-1.7617 0.4965-2.5719 0.9054-0.77307 0.3869-1.5164 0.8396-2.3192 1.1682-0.4014 0.1606-0.82511 0.2701-1.2414 0.387-0.4014 0.1168-0.892 0.1971-1.286 0.0219-0.28247-0.1242-0.52033 0.1752-0.32707 0.4161 1.0109 1.2558 2.9956 0.6279 4.2444 0.1315l0.0223 0.0073zm18.487-1.1902c0.1189-0.0146 0.0371 0 0 0zm-18.487-3.563c1.4569-0.5841 2.8098-1.4091 4.4377-1.3945 1.7394 0.02191 3.3152 0.74473 4.8912 1.3872 0.3642 0.14603 0.7433 0.29936 1.1224 0.40157 0.4609 0.12412 0.9812 0.13143 1.4644 0.16793 0.8994 0.06571 1.7691-0.08761 2.624-0.36506 0.7805-0.25555 1.5312-0.59871 2.2894-0.91266 0.3643-0.15333 0.7434-0.27015 1.1299-0.36506 0.171-0.04381 0.3419-0.08032 0.5203-0.10952 0.0446 0 0.0967-0.0073 0.1413-0.01461 1.1075-0.09491 2.2374-0.08031 3.345-0.0438 0.2453 0.0073 0.4832 0.0292 0.7285 0.0438h0.0594 0.0075c0.1486 0.04381 0.3047 0.06572 0.4534 0.10952 0.8846 0.23364 1.732 0.5768 2.5719 0.91996 1.6725 0.67172 3.7687 1.3288 5.5007 0.45998 1.6799-0.83964 3.2707-2.424 5.3148-2.1174 0.9812 0.15332 1.9773 0.66441 2.8842 1.0587 0.9589 0.41617 1.9252 0.80314 2.8767 1.2266 0.3717 0.16793 0.7359 0.10222 0.9738-0.13142 0.6987-0.54029 0.0892-1.6793-0.6542-1.453-1.5535-0.59871-3.174-1.0441-4.7276-1.6501-1.7245-0.67902-3.4416-0.24094-5.0918 0.40157-0.3866 0.14603-0.7657 0.29205-1.1522 0.43078-0.446 0.15332-0.8771 0.37236-1.3306 0.49648-0.773 0.21904-1.6873 0.13142-2.453-0.08031-1.6427-0.45998-3.226-1.3434-4.9506-1.4968-1.0704-0.09492-2.1928 0.0219-3.2558 0.15332-0.5055 0.05841-1.0258 0.11682-1.5238 0.22634-0.7136 0.16793-1.3901 0.50379-2.0591 0.78854-1.5089 0.64251-3.0625 1.4238-4.683 0.64981-0.3939-0.18983-0.8251-0.29205-1.2339-0.45267-0.3642-0.13873-0.721-0.31396-1.0778-0.46729-0.84-0.35046-1.7246-0.62791-2.6314-0.79583-0.98868-0.17523-1.9996-0.24825-3.0106-0.10222-0.90687 0.13142-1.7617 0.49648-2.5719 0.90536-0.77307 0.38696-1.5164 0.83964-2.3192 1.1682-0.4014 0.16063-0.82511 0.27015-1.2414 0.38697-0.4014 0.11682-0.892 0.19713-1.286 0.0219-0.28247-0.12412-0.52033 0.17523-0.32707 0.41617 1.0109 1.2558 2.9956 0.62791 4.2444 0.13142zm18.487-1.1901c0.1189-0.0146 0.0371 0 0 0z" fill="#000"/>
</svg>
